<svg xmlns="http://www.w3.org/2000/svg" width="1616.012" height="732"><g fill="#fff"><path d="M797.32 243.16c-16.88 0-28.19-12.04-28.19-27.7 0-15.65 11.31-27.66 28.19-27.66 16.85 0 28.11 12.08 28.11 27.66 0 15.66-11.26 27.7-28.11 27.7zm0-44.99c-9.67 0-15.32 6.54-15.32 17.29 0 10.86 5.65 17.29 15.32 17.29 9.6 0 15.25-6.43 15.25-17.29 0-10.75-5.65-17.29-15.25-17.29zM860.32 224.46v18.11h-12.57v-54.18h19.12c15.24 0 21.79 7.7 21.79 17.7 0 10.82-6.81 18.37-21.79 18.37zm0-9.48h6.55c6.54 0 9.22-3.27 9.22-8.89 0-4.94-2.9-8.29-9.22-8.29h-6.55zM946.45 188.39v9.67h-22.24v12.64h17.03v9.3h-17.03v12.9h22.24v9.67h-34.88v-54.18zM983.64 190.32l25.76 32.54c-.2-2.08-.3-4.05-.3-5.8v-28.67h11.1v54.18h-6.6c-1.9 0-3.1-.48-4.4-2.08l-25.52-32.28c.15 1.9.26 3.72.26 5.32v29.04h-11.08v-54.18h6.62c2.15 0 2.79.26 4.16 1.93z"/></g><g fill="#fff"><path d="M784.53 310.82h2.01c1.86 0 3.2-.6 4.01-1.75l12.2-17.7c1.34-1.93 2.94-2.49 5.43-2.49h10.93l-16.06 21.9c-1.15 1.6-2.38 2.57-3.68 3.27 1.89.71 3.42 1.82 4.72 3.87l16.36 25.14h-11.23c-2.86 0-3.9-.82-4.9-2.31l-12.28-18.85c-.89-1.38-2.12-1.9-4.46-1.9h-3.05v23.06h-12.57v-54.18h12.57zM855.12 290.81l25.73 32.54c-.19-2.08-.3-4.05-.3-5.8v-28.67h11.08v54.18h-6.54c-1.94 0-3.17-.49-4.39-2.08l-25.55-32.28c.15 1.9.26 3.72.26 5.32v29.04h-11.08v-54.18h6.62c2.16 0 2.79.26 4.17 1.93zM943.77 343.65c-16.88 0-28.18-12.04-28.18-27.7 0-15.65 11.3-27.67 28.18-27.67 16.85 0 28.12 12.09 28.12 27.67 0 15.66-11.27 27.7-28.12 27.7zm0-44.99c-9.66 0-15.32 6.54-15.32 17.29 0 10.86 5.66 17.29 15.32 17.29 9.6 0 15.25-6.43 15.25-17.29 0-10.75-5.65-17.29-15.25-17.29zM985.65 288.88h10.56c2.2 0 3.72 1.08 4.19 2.71l7.4 28.26c.5 1.83 1.1 3.95 1.3 6.21.5-2.34 1.1-4.38 1.7-6.21l8.8-28.26c.4-1.37 2-2.71 4.1-2.71h3.7c2.2 0 3.6 1.04 4.1 2.71l8.7 28.26c.6 1.75 1.2 3.69 1.7 5.92.4-2.2.8-4.17 1.2-5.92l7.5-28.26c.4-1.45 2-2.71 4.1-2.71h9.9l-16.8 54.18h-11.3l-10.2-33.58c-.4-1.04-.8-2.31-1.1-3.68-.3 1.37-.8 2.64-1.1 3.68l-10.3 33.58h-11.4zM1099.8 333.02h20.1v10.04h-32.6v-54.18h12.5zM1181.5 288.88v9.67h-22.2v12.64h17v9.3h-17v12.9h22.2v9.67h-34.9v-54.18zM1228.9 343.06h-21v-54.18h21c16.9 0 28.2 11.49 28.2 27.07 0 15.66-11.3 27.11-28.2 27.11zm0-44.51h-8.4v34.84h8.4c9.6 0 15.3-6.62 15.3-17.44 0-10.75-5.7-17.4-15.3-17.4zM1313.4 332.35v-8.22h-5.4c-1.6 0-2.5-.93-2.5-2.23v-6.92h19.2v22.87c-5.5 4.06-11.9 5.8-20.7 5.8-15.8 0-27.7-11.82-27.7-27.7 0-16.18 11.2-27.67 28.7-27.67 9 0 15.8 3.13 20.1 7.29l-3.6 5.54c-.7 1.04-1.7 1.68-2.9 1.68-.7 0-1.5-.26-2.3-.75-3.9-2.38-6.7-3.38-11.8-3.38-9.4 0-15.3 6.91-15.3 17.29 0 11.45 6.7 18.04 15.8 18.04 3.4 0 6-.64 8.4-1.64zM1385.1 288.88v9.67h-22.3v12.64h17.1v9.3h-17.1v12.9h22.3v9.67h-34.9v-54.18z"/></g><path d="M806.846 389.355v9.67h-22.239v13.724h18.521v9.706h-18.521v21.087h-12.646v-54.187h34.885zM889.184 416.432c0 3.916-.676 7.562-2.026 10.934-1.353 3.372-3.254 6.304-5.707 8.796-2.455 2.491-5.412 4.442-8.871 5.856-3.459 1.413-7.295 2.119-11.51 2.119s-8.06-.706-11.529-2.119c-3.471-1.414-6.44-3.365-8.906-5.856-2.469-2.492-4.377-5.424-5.728-8.796-1.353-3.371-2.025-7.018-2.025-10.934 0-3.918.674-7.562 2.025-10.936 1.352-3.371 3.26-6.297 5.728-8.775 2.468-2.479 5.437-4.427 8.906-5.84 3.471-1.413 7.314-2.119 11.529-2.119s8.051.713 11.51 2.139 6.416 3.379 8.871 5.856c2.453 2.479 4.355 5.405 5.707 8.776 1.35 3.373 2.026 7.005 2.026 10.899zm-12.868 0c0-2.679-.349-5.09-1.041-7.233-.695-2.146-1.693-3.962-2.994-5.448-1.304-1.488-2.896-2.628-4.779-3.422-1.885-.793-4.029-1.189-6.434-1.189-2.431 0-4.595.397-6.49 1.189-1.896.794-3.496 1.934-4.797 3.422-1.304 1.486-2.302 3.305-2.994 5.448-.695 2.145-1.041 4.556-1.041 7.233 0 2.701.346 5.125 1.041 7.271.692 2.145 1.69 3.961 2.994 5.448 1.301 1.486 2.899 2.622 4.797 3.402 1.896.78 4.061 1.171 6.49 1.171 2.403 0 4.549-.391 6.434-1.171s3.476-1.916 4.779-3.402c1.301-1.487 2.299-3.305 2.994-5.448.694-2.146 1.041-4.57 1.041-7.271zM940.059 433.612c1.686 0 3.193-.279 4.52-.837a9.16 9.16 0 003.365-2.398c.918-1.042 1.616-2.312 2.102-3.812.482-1.5.725-3.204.725-5.113v-32.097h12.57v32.097c0 3.322-.539 6.372-1.617 9.147-1.078 2.777-2.623 5.17-4.631 7.179s-4.451 3.569-7.326 4.687c-2.877 1.115-6.11 1.673-9.707 1.673-3.618 0-6.866-.558-9.743-1.673-2.875-1.116-5.316-2.678-7.326-4.687-2.008-2.009-3.545-4.4-4.611-7.179-1.067-2.775-1.6-5.825-1.6-9.147v-32.097h12.569v32.06c0 1.909.242 3.613.728 5.113.481 1.501 1.184 2.776 2.102 3.831a9.043 9.043 0 003.365 2.417c1.323.557 2.829.836 4.515.836zM1001.832 389.432c.373.049.707.143 1.004.277.299.137.582.329.856.577.272.248.582.582.93 1.004l25.736 32.541a65.002 65.002 0 01-.224-3.031 53.332 53.332 0 01-.076-2.771v-28.674h11.084v54.186h-6.545c-.969 0-1.785-.148-2.455-.446s-1.313-.843-1.934-1.637l-25.551-32.28c.074.942.137 1.865.186 2.77.051.906.076 1.755.076 2.548v29.046h-11.084v-54.186h6.621c.546-.001 1.005.025 1.376.076zM1121.547 416.432c0 3.916-.676 7.529-2.027 10.841-1.352 3.31-3.254 6.174-5.709 8.591-2.452 2.417-5.409 4.302-8.868 5.651-3.459 1.354-7.296 2.027-11.511 2.027h-21.051v-54.187h21.051c4.215 0 8.052.684 11.511 2.047s6.416 3.248 8.868 5.652c2.455 2.404 4.357 5.262 5.709 8.572 1.351 3.31 2.027 6.912 2.027 10.806zm-12.867 0c0-2.679-.348-5.097-1.043-7.252-.692-2.158-1.69-3.986-2.991-5.486-1.304-1.5-2.896-2.652-4.779-3.459-1.885-.805-4.029-1.209-6.435-1.209h-8.405v34.848h8.405c2.404 0 4.55-.402 6.435-1.208 1.883-.806 3.477-1.958 4.779-3.459 1.301-1.5 2.299-3.328 2.991-5.485.695-2.16 1.043-4.589 1.043-7.29zM1200.314 443.542h-9.744c-1.09 0-1.988-.254-2.695-.763a3.926 3.926 0 01-1.469-1.952l-3.199-9.446h-20.604l-3.197 9.446c-.248.694-.732 1.32-1.451 1.878s-1.6.837-2.641.837h-9.818l20.977-54.187h12.867l20.974 54.187zm-34.808-20.715h14.801l-4.983-14.839-1.134-3.328a83.162 83.162 0 01-1.282-4.146c-.396 1.512-.808 2.913-1.229 4.202s-.815 2.405-1.188 3.347l-4.985 14.764zM1266.363 389.355v9.968h-15.246v44.219h-12.57v-44.219h-15.248v-9.968h43.064zM1307.646 443.542H1295v-54.187h12.646v54.187zM1393.48 416.432c0 3.916-.677 7.562-2.027 10.934-1.353 3.372-3.254 6.304-5.709 8.796-2.455 2.491-5.41 4.442-8.869 5.856-3.459 1.413-7.297 2.119-11.512 2.119s-8.058-.706-11.527-2.119c-3.473-1.414-6.441-3.365-8.908-5.856-2.467-2.492-4.375-5.424-5.727-8.796-1.353-3.371-2.027-7.018-2.027-10.934 0-3.918.676-7.562 2.027-10.936 1.352-3.371 3.26-6.297 5.727-8.775 2.468-2.479 5.437-4.427 8.908-5.84 3.471-1.413 7.312-2.119 11.527-2.119s8.053.713 11.512 2.139 6.414 3.379 8.869 5.856c2.455 2.479 4.357 5.405 5.709 8.776 1.352 3.373 2.027 7.005 2.027 10.899zm-12.869 0c0-2.679-.349-5.09-1.041-7.233-.693-2.146-1.691-3.962-2.994-5.448-1.301-1.488-2.896-2.628-4.777-3.422-1.885-.793-4.029-1.189-6.436-1.189-2.431 0-4.593.397-6.488 1.189-1.896.794-3.496 1.934-4.799 3.422-1.301 1.486-2.299 3.305-2.992 5.448-.695 2.145-1.043 4.556-1.043 7.233 0 2.701.348 5.125 1.043 7.271.693 2.145 1.691 3.961 2.992 5.448 1.303 1.486 2.901 2.622 4.799 3.402 1.896.78 4.059 1.171 6.488 1.171 2.405 0 4.551-.391 6.436-1.171 1.883-.78 3.478-1.916 4.777-3.402 1.303-1.487 2.301-3.305 2.994-5.448.694-2.146 1.041-4.57 1.041-7.271zM1429.814 389.432c.37.049.704.143 1.004.277.297.137.582.329.854.577.271.248.582.582.931 1.004l25.733 32.541a66.366 66.366 0 01-.223-3.031 52.158 52.158 0 01-.074-2.771v-28.674h11.082v54.186h-6.545c-.967 0-1.785-.148-2.455-.446-.668-.298-1.313-.843-1.934-1.637l-25.55-32.28c.074.942.136 1.865.187 2.77.049.906.074 1.755.074 2.548v29.046h-11.082v-54.186h6.619c.547-.001 1.006.025 1.379.076zM515.149 201.24l-16.832-12.576L602.42 49.321l16.832 12.575zM483.506 179.49l-18.81-9.37 37.361-74.998 18.81 9.37zM448.463 163.752l-20.184-5.863 36.74-126.503 20.185 5.862zM411.174 154.535l-20.905-2.163 8.611-83.315 20.912 2.165zM351.876 153.726l-7.171-93.58 20.953-1.602 7.172 93.578zM314.347 161.911l-16.269-62.14 20.329-5.323 16.258 62.141zM278.872 176.669l-18.166-39.038 19.042-8.861 18.167 39.037zM246.613 197.528l-9.738-13.794 17.165-12.122 9.731 13.795zM218.593 223.811l-49.28-48.381 14.718-14.999 49.282 48.379zM195.712 254.668l-76.251-52.288 11.809-17.378 76.251 52.288zM178.712 289.113l-48.018-21.282 8.516-19.208 48.021 21.284zM25.915 291.59l142.23 34.459 4.944-20.422-142.224-34.455zM164.346 364.27l-106.108-6.175 1.22-20.983 106.109 6.176zM64.554 415.088l-2.54-20.856 102.854-12.526 2.54 20.855zM154.27 446.84l-6.227-20.068 23.009-7.14 6.227 20.067zM116.27 514.718l-9.708-18.637 77.31-40.272 9.708 18.638zM141.617 563.36l-12.88-16.6 74.252-57.609 12.879 16.6zM182.234 600.756l-15.637-14.03 61.173-68.18 15.637 14.03zM253.064 590.05l-17.898-11.017 22.168-36.012 17.897 11.016zM280.483 646.164l-19.572-7.645 29.944-76.688 19.572 7.646zM333.324 652.544l-20.623-4.026 14.476-74.155 20.623 4.026zM385.456 633.026l-21.011-.281.698-52.543 21.01.275zM420.361 679.377l-16.814-100.212 20.726-3.48 16.811 100.211zM461.99 629.063l-20.804-57.75 19.764-7.12 20.803 57.75zM476.742 556.832l76.211 129.983 18.184-10.542-76.216-129.976zM521.201 548.626l-11.614-11.921 15.184-14.529 11.619 11.919zM589.805 553.131l-52.39-42.928 13.322-16.254 52.391 42.926zM614.066 509.247l-53.506-29.716 10.196-18.37 53.513 29.712zM603.69 453.999l-25.849-8.78 6.758-19.899 25.841 8.778zM669.694 420.456l-80.983-12.068 3.097-20.783 80.983 12.069zM592.856 370.18l-.668-21.003 51.964-1.642.67 21.008zM590.065 331.852l-4.405-20.547 64.257-13.774 4.404 20.547zM580.549 294.647l-8.003-19.426L614 258.147l7.997 19.422zM564.502 259.746l-11.339-17.693 109.724-70.364 11.345 17.692zM542.484 228.262l-14.318-15.372 16.577-15.441 14.311 15.375z" fill="#fff"/><g fill="#fff"><path d="M362.43 350.36c-1.68-1.93-3.74-3.42-6.17-4.46-2.43-1.04-5.2-1.56-8.31-1.56h-10.84v44.97h10.84c3.11 0 5.88-.52 8.31-1.56 2.43-1.04 4.49-2.52 6.17-4.46 1.68-1.94 2.97-4.3 3.86-7.08.89-2.79 1.35-5.92 1.35-9.41 0-3.46-.45-6.58-1.35-9.36-.9-2.78-2.18-5.14-3.86-7.08z"/><path d="M510.7 370.53l-.48-15.4-46.67 1.43 45.67-9.73-3.21-15.07-45.69 9.74 43.21-17.73-5.85-14.25-43.17 17.71 39.32-25.13-8.3-12.98-39.35 25.16 34.23-31.78-10.48-11.29-34.23 31.78 28.01-37.38-12.33-9.23-28 37.37 20.88-41.77-13.77-6.89-20.89 41.77 13.1-44.82-14.79-4.32-13.1 44.83 4.9-46.45-15.32-1.61-5.06 48.08-3.78-48.2-15.35 1.2 3.64 46.55-11.89-45.15-14.89 3.93 11.89 45.16-19.76-42.31-13.95 6.51 19.75 42.31-26.99-38.1-12.57 8.9 27.01 38.12-33.38-32.69-10.77 11.01 33.35 32.67-38.65-26.2-8.64 12.75 38.66 26.21-42.72-18.89-6.23 14.09 42.72 18.88-45.4-10.95-3.61 14.97 45.39 10.95-46.61-2.67-.89 15.37 46.64 2.68-46.36 5.69 1.87 15.29 46.37-5.69-44.61 13.87 4.58 14.71 44.58-13.87-41.39 21.6 7.12 13.66 41.4-21.6-36.88 28.64 9.45 12.16 36.88-28.64-31.18 34.76 11.47 10.29 31.17-34.76-24.47 39.76 13.12 8.08 24.48-39.79-16.99 43.51 14.35 5.61 16.99-43.52-8.95 45.85 15.11 2.95 8.95-45.83-.62 46.69 15.4.21.62-46.72 7.72 46.08 15.19-2.55-7.71-46.05 15.8 43.93 14.5-5.21-15.82-43.95 23.4 40.42 13.33-7.72-23.39-40.4 30.23 35.58 11.74-9.97-30.24-35.6 36.1 29.62 9.77-11.91-36.13-29.64 40.84 22.72 7.49-13.46-40.8-22.69 44.19 15.05 4.97-14.58-44.22-15.06 46.2 6.93 2.28-15.24-46.21-6.93zm-129.07 10.26c-1.75 4.27-4.2 7.97-7.37 11.09s-6.98 5.55-11.45 7.3c-4.46 1.74-9.42 2.61-14.85 2.61h-27.17v-69.93h27.17c5.43 0 10.39.88 14.85 2.64 4.47 1.76 8.28 4.19 11.45 7.29 3.17 3.11 5.62 6.79 7.37 11.07 1.74 4.27 2.61 8.92 2.61 13.94 0 5.06-.87 9.72-2.61 13.99zm55.41-36.45h-28.7v16.32h21.98v12h-21.98v16.65h28.7v12.48h-45.02v-69.93h45.02z"/></g><g fill="#fff"><path d="M816.79 505.15c0 3.97-.62 7.59-1.88 10.84-1.26 3.26-3.04 6.04-5.33 8.36-2.29 2.32-5.04 4.12-8.25 5.39-3.21 1.27-6.76 1.9-10.66 1.9h-19.83v-53.02h19.83c3.9 0 7.45.64 10.66 1.91s5.96 3.07 8.25 5.4c2.29 2.33 4.07 5.12 5.33 8.38 1.26 3.25 1.88 6.87 1.88 10.84zm-7.36 0c0-3.26-.44-6.17-1.33-8.73-.89-2.57-2.15-4.74-3.77-6.51-1.63-1.78-3.6-3.14-5.92-4.07-2.32-.94-4.9-1.41-7.74-1.41h-12.61v41.4h12.61c2.84 0 5.42-.46 7.74-1.4 2.32-.94 4.29-2.29 5.92-4.05 1.62-1.77 2.88-3.93 3.77-6.5.89-2.56 1.33-5.47 1.33-8.73zM881.14 478.62v5.85h-25.46v17.61h20.61v5.62h-20.61v18.1h25.46v5.84h-32.68v-53.02zM933.97 525.94c2.2 0 4.16-.37 5.89-1.11 1.72-.74 3.18-1.77 4.38-3.1 1.2-1.34 2.11-2.93 2.74-4.78.63-1.85.94-3.88.94-6.1v-32.23h7.14v32.23c0 3.06-.49 5.9-1.46 8.51-.97 2.62-2.37 4.88-4.18 6.79-1.81 1.91-4.03 3.41-6.64 4.49-2.62 1.09-5.55 1.63-8.81 1.63-3.25 0-6.19-.54-8.81-1.63-2.61-1.08-4.83-2.58-6.66-4.49-1.82-1.91-3.22-4.17-4.19-6.79-.98-2.61-1.46-5.45-1.46-8.51v-32.23h7.14v32.19c0 2.22.31 4.26.94 6.11.63 1.85 1.54 3.44 2.74 4.77 1.19 1.33 2.66 2.37 4.4 3.13 1.74.75 3.71 1.12 5.9 1.12zM1025.4 478.62v6.03h-17.1v46.99h-7.2v-46.99h-17.22v-6.03zM1082 486.91c-.2.37-.4.65-.7.83-.2.19-.6.28-1 .28s-.9-.21-1.4-.63c-.6-.42-1.3-.88-2.1-1.39-.9-.5-1.9-.97-3.1-1.39-1.2-.41-2.6-.62-4.3-.62-1.6 0-3.1.21-4.3.64-1.2.44-2.3 1.02-3.1 1.76-.8.74-1.4 1.61-1.9 2.61-.4 1-.6 2.08-.6 3.24 0 1.48.4 2.7 1.1 3.68.7.97 1.7 1.81 2.9 2.49 1.2.7 2.5 1.29 4.1 1.8 1.5.51 3 1.03 4.6 1.57 1.6.54 3.2 1.16 4.7 1.83 1.5.68 2.9 1.54 4.1 2.57 1.2 1.04 2.1 2.31 2.8 3.82.8 1.5 1.1 3.35 1.1 5.55 0 2.31-.4 4.49-1.2 6.53-.7 2.03-1.9 3.8-3.4 5.31-1.5 1.5-3.4 2.68-5.6 3.55-2.2.86-4.7 1.29-7.5 1.29-3.5 0-6.6-.62-9.4-1.87-2.8-1.24-5.2-2.92-7.2-5.05l2-3.4c.2-.27.5-.5.8-.69.2-.18.6-.27.9-.27.5 0 1.1.27 1.8.83.6.56 1.5 1.17 2.5 1.83 1 .67 2.2 1.28 3.6 1.83 1.4.56 3.1.84 5.2.84 1.7 0 3.2-.24 4.5-.71 1.4-.47 2.5-1.13 3.4-1.98 1-.85 1.7-1.87 2.2-3.05.5-1.18.7-2.5.7-3.96 0-1.6-.4-2.92-1.1-3.94-.7-1.02-1.7-1.88-2.9-2.57-1.1-.69-2.5-1.28-4-1.76s-3.1-.97-4.7-1.48c-1.6-.5-3.1-1.09-4.6-1.76-1.6-.66-2.9-1.52-4.1-2.59-1.2-1.06-2.1-2.38-2.9-3.97-.7-1.59-1-3.56-1-5.9 0-1.88.3-3.69 1-5.44.8-1.75 1.8-3.31 3.2-4.67 1.4-1.35 3.1-2.44 5.1-3.25 2.1-.81 4.4-1.22 7-1.22 3 0 5.7.47 8.1 1.4 2.5.94 4.6 2.3 6.4 4.07zM1153.3 520.69c.4 0 .8.16 1.1.48l2.8 3.07c-2.1 2.52-4.8 4.48-7.9 5.88-3.1 1.41-6.8 2.11-11.2 2.11-3.8 0-7.3-.66-10.4-1.98-3.1-1.31-5.7-3.16-7.9-5.55-2.2-2.38-3.9-5.23-5.1-8.56-1.2-3.33-1.8-6.99-1.8-10.99s.6-7.66 1.9-10.99c1.3-3.33 3.1-6.19 5.5-8.58 2.3-2.39 5.1-4.25 8.4-5.57 3.3-1.32 6.9-1.98 10.8-1.98 3.9 0 7.3.61 10.1 1.81 2.8 1.21 5.3 2.85 7.5 4.92l-2.3 3.3c-.2.24-.4.45-.6.61-.2.16-.5.24-1 .24-.3 0-.6-.12-1-.35-.3-.24-.8-.53-1.3-.87-.5-.35-1-.72-1.7-1.11-.7-.4-1.5-.77-2.4-1.11-.9-.35-1.9-.64-3.1-.87-1.3-.24-2.7-.35-4.2-.35-2.9 0-5.5.48-7.8 1.46-2.4.97-4.4 2.36-6.1 4.16-1.7 1.8-3 4-4 6.59-.9 2.59-1.4 5.48-1.4 8.69 0 3.31.5 6.25 1.4 8.84 1 2.59 2.3 4.78 3.9 6.57s3.6 3.15 5.8 4.09c2.3.94 4.7 1.41 7.3 1.41 1.6 0 3-.1 4.2-.28 1.3-.19 2.5-.48 3.5-.87 1.1-.4 2.1-.9 3-1.5 1-.6 1.9-1.33 2.8-2.16.4-.38.8-.56 1.2-.56zM1231.6 531.64h-7.3v-24.12h-28.5v24.12h-7.2v-53.02h7.2v23.65h28.5v-23.65h7.3zM1273.6 525.61h22.9v6.03h-30.1v-53.02h7.2zM1370 531.64h-5.6c-.6 0-1.1-.16-1.5-.48-.4-.32-.7-.73-.9-1.22l-5-12.8h-23.8l-4.9 12.8c-.2.44-.5.84-.9 1.19-.4.34-.9.51-1.6.51h-5.5l21.2-53.02h7.3zm-34.8-19.68h19.8l-8.3-21.57c-.5-1.33-1.1-3-1.6-5-.3 1.01-.5 1.94-.8 2.8-.2.85-.5 1.59-.7 2.23zM1403.7 478.86c.3.16.7.49 1.1.98l30.7 39.96c-.1-.64-.2-1.26-.2-1.87v-39.31h6.3v53.02h-3.7c-.5 0-1-.1-1.4-.29-.4-.2-.7-.53-1.1-1l-30.7-39.93c.1.62.1 1.22.1 1.82.1.59.1 1.13.1 1.62v37.78h-6.3v-53.02h3.7c.6 0 1.1.1 1.4.24zM1522.4 505.15c0 3.97-.6 7.59-1.9 10.84-1.3 3.26-3 6.04-5.3 8.36-2.3 2.32-5.1 4.12-8.3 5.39-3.2 1.27-6.7 1.9-10.6 1.9h-19.9v-53.02h19.9c3.9 0 7.4.64 10.6 1.91 3.2 1.27 6 3.07 8.3 5.4 2.3 2.33 4 5.12 5.3 8.38 1.3 3.25 1.9 6.87 1.9 10.84zm-7.4 0c0-3.26-.4-6.17-1.3-8.73-.9-2.57-2.2-4.74-3.8-6.51-1.6-1.78-3.6-3.14-5.9-4.07-2.3-.94-4.9-1.41-7.7-1.41h-12.7v41.4h12.7c2.8 0 5.4-.46 7.7-1.4s4.3-2.29 5.9-4.05c1.6-1.77 2.9-3.93 3.8-6.5.9-2.56 1.3-5.47 1.3-8.73z"/></g></svg>