<?xml version="1.0" encoding="UTF-8"?>
<!-- Generator: Adobe Illustrator 19.2.1, SVG Export Plug-In . SVG Version: 6.00 Build 0)  -->
<svg version="1.1" id="Ebene_1" xmlns:svg="http://www.w3.org/2000/svg" xmlns="http://www.w3.org/2000/svg" xmlns:xlink="http://www.w3.org/1999/xlink" x="0px" y="0px" viewBox="0 0 354.1 422.9" enable-background="new 0 0 354.1 422.9" xml:space="preserve">
<path id="Schildflaeche" fill="#FFFFFF" stroke="#000000" stroke-width="3" stroke-miterlimit="10" d="M1.7,2.3c0,0,0,98.8,0,148.5  c0,49.5-3.6,101.7,7.1,141.7c10.1,37.9,32.1,67.9,59,89.8c13.5,11,28.5,20.3,47,27.2c18.2,6.8,38.9,12.2,62.6,12  c47.2-0.4,83-17.8,109.6-39.2c27-21.7,48.6-52.5,58.4-90.5c10.3-40.2,7.1-92,7.1-141.7c0-49.8,0-148.8,0-148.8H2L1.7,2.3z"/>
<path fill="#E64625" d="M343.6,177.6c-17.6-25.8-33.6-53.2-47.6-81.4l-1.5-3.1l3,1.8c2.6,1.6,5.1,3.6,7.7,5.8  c6.2,5.1,13.3,10.9,22.8,10.9l0.2,0c4.9,0,9-1.5,12.2-4.5C323,95,309.2,82.8,299.5,70.9l-2-2.5l3.1,0.9c5,1.4,10.2,2.2,15,2.2  c0.8,0,1.7,0,2.5-0.1c5.8-0.3,10.9-1.8,14.7-4.2c4.3-2.7,6.9-6.5,8-11.2c-13.6-1.6-26.5-3.2-37.6-6.4c-0.5-0.1-1-0.3-1.5-0.4l-0.1,0  c-3-0.8-6.1-1.7-8.5-3.6l-1.7-1.4l2.2-0.4c7.8-1.3,15.7-3.1,21.4-6.8c5.8-3.9,8.8-9.6,9-17.4c-11,3-23.3,3.9-36.3,4.5l-0.7,0  c-1.9,0.1-3.8,0.2-5.7,0.3l-0.5,0l-2.2,0.1c-2.3,0.1-4.6,0.1-6.9,0.2c-5.2,0.1-10.6,0.2-15.3,1c-5.1,0.8-8.7,2.4-11.1,4.8  c-3.1,3-5.1,8.2-5.6,14.1c-0.6,8.1,2.9,12.6,6.6,16.6c0.5,0.5,1.5,1.3,2.5,2.3c2.9,2.5,4.8,4.2,5.2,5.3c1.2,3.9-0.3,10.1-1,12.6  c-0.6,2.1-1.5,3.7-2.4,5.3c-0.7,1.3-1.4,2.5-1.8,3.8l-0.1,0.2l-0.2,0.2c-3,3.3-7.9,4.7-12.5,6c-1.4,0.4-2.7,0.8-4,1.2  c-0.5,1.8-0.3,3.2,0.6,4c0.7,0.7,2,1.1,3.6,1.1c1.4,0,3.1-0.3,4.5-0.9c3.1-1.2,8.8-5.5,11-8.8c3.7-5.4,5.2-12.9,4.7-22.8l-0.1-1.5  l1.4,0.5c0.3,0.1,0.6,0.2,0.9,0.3c1.3,0.4,2.7,0.8,3.4,2.1l0.1,0.2l0,0.2c0.6,16.2-4.1,29.7-13.5,39.2c-9,9.2-21.9,14-37.3,14  c-0.5,0-1,0-1.5,0l-0.4,0l-0.3-0.3c-0.9-0.8-1.5-1.7-2.1-2.5c-0.8-1.1-1.6-2.2-3-3.3c-0.8-0.6-1.8-1-2.8-1.4  c-2.6-1.1-5.6-2.3-4.5-7.4l0-0.2l0.1-0.1c1.2-1.9,3.1-3,5.7-3.1c-3.6-6.1-0.1-15.7,2.8-19.7l0.5-0.6l0.7,0.3l0.5,0.2  c1.5,0.6,3.4,1.4,5,1.4c0.7,0,1.4-0.2,1.9-0.5c-0.2-0.7-0.6-1.3-1.1-2.1c-0.7-1.1-1.5-2.3-1.7-4c-0.6-4.2,0.9-8.6,2.3-12.9  c1.1-3.5,2.3-7.1,2.3-10.4l0-0.7l0.7-0.2c1-0.3,2.2-0.4,3.3-0.4c0.4,0,0.8,0,1.2-0.1c-4.2-3.5-5.6-10-7.1-16.7  c-1.7-7.9-3.5-16-10.1-18.5l-1.4-0.5l1-1.1c0.3-0.3,0.6-0.6,1-0.9c-1.2,0.2-2.4,0.3-3.7,0.3c-3.7,0-7.7-0.7-11.5-1.4  c-3.9-0.7-7.6-1.3-10.9-1.3c-3.5,0-6.1,0.7-8.2,2.2c-0.5,0.4-0.8,0.8-1.2,1.4c-0.5,0.8-1.1,1.8-2.5,2.6l-0.2,0.1l0,0.2  c0.7,4.4,4.2,5.6,8.6,7.1c1.5,0.5,3.1,1,4.7,1.8c1.7,0.8,3.3,1.9,4.7,3.2l2.8,2.7l-3.8-1c-0.9-0.2-1.7-0.4-2.6-0.5  c0.7,0.2,1.3,0.4,2,0.7c4,1.9,6.2,5.5,5.8,9.8l-0.1,1c0.2,0.1,0.5,0.1,0.7,0.2l0.8,0.2l0,0.8l0,0.1c0,0.1,0,0.1,0,0.2l0,1.1  l-1.1-0.1c-1.6-0.1-3.2-0.2-4.8-0.3c1.3,0.2,2.5,0.5,3.6,0.9l0.7,0.3l-0.1,0.8c-0.4,3.2-2.8,4.2-5,4.6c0.7,0,1.5,0.1,2.2,0.1  c0.3,0,0.7,0,1,0l2.1-0.1l-1.2,1.7c-1.9,2.6-4.4,3.9-7.4,3.9h0l-0.1,0c-0.6,0-1.3,0-1.9-0.1c1.3,0.5,2.5,1,3.6,1.7l0.2,0.1l0.1,0.2  c1,1.8,1.3,3.5,0.7,5c-1.3,3.7-6.5,5.7-10.4,7.2c-0.5,0.2-0.9,0.3-1.3,0.5l-0.7,0.3l-0.4,0.2c-5.9,2.4-10.2,4.1-12.7,7.8  c1.3-0.8,2.8-1.5,4.5-2c1.7-0.5,3.3-0.8,4.9-0.8c2.2,0,4.2,0.5,5.9,1.6l0.9,0.6l-0.6,0.9c-1.3,1.9-2.8,3.4-4.3,4.9  c-1.2,1.2-2.5,2.5-3.5,3.9c-1.1,1.4-2,2.8-2.8,4.1c-2.3,3.5-4.3,6.7-8.4,8.3c1.4,0.3,2.7,0.7,3.6,1.7l0.6,0.6l-0.5,0.7  c-0.7,0.9-0.8,2.6-0.9,4.2c-0.2,1.9-0.3,3.8-1.3,5.2l-0.4,0.6l-0.7-0.2c-0.9-0.3-1.8-0.4-2.6-0.4c-2.9,0-5.1,1.7-7.1,3.4  c-1.9,1.5-3.8,3.1-6.2,3.2c-0.8,0-1.7,0.1-2.5,0.1c-13.4,0-26.4-5.3-35.6-14.5c-9.9-9.9-14.9-23.4-14.1-38l0-0.4l0.3-0.3  c1-0.8,2.3-1.9,4.5-1.9c0.2,0,0.4,0,0.6,0l1,0.1l-0.1,1c-0.9,8.9,0.8,16.6,4.9,22.2c4.1,5.5,10.4,8.9,18.3,9.9  c1.4-1.1,2.6-3.5,1.5-5.8c-2-1.1-4.2-1.4-6.4-1.7c-2.3-0.3-4.5-0.6-6.4-1.8c-3.2-1.9-6-5.4-7.8-10c-1.8-4.5-2.7-9.8-2.4-15l0-0.4  l0.2-0.3c1.4-1.5,2.8-2.9,4.2-4.1c4.7-4.3,8.4-7.8,8.9-15.5c0.4-6.4-1.1-12-4.6-16c-3.5-4.1-9-6.6-15.8-7.2c-4-0.3-8.4-0.5-14-0.5  c-3.7,0-7.4,0.1-11,0.1c-3.6,0.1-7.3,0.1-10.9,0.1c-8.9,0-19.1-0.3-28-2.7c0.1,3.3,0.7,6.2,1.9,8.7c1.2,2.6,2.9,4.8,5.2,6.7  c4,3.2,9.6,5.4,17.3,6.5c0.5,0.1,0.9,0.1,1.5,0.1c1.8,0.1,3.7,0.3,5.2,1.7l1.1,1.1l-1.4,0.6c-12.4,5-26.5,8.6-43.3,11  c0.6,5.2,3,9,6.9,11.6c3.5,2.3,8.3,3.4,13.9,3.4l0.3,0c5.2,0,10.8-1.1,16.2-3l3-1l-1.8,2.6c-6.3,8.9-14.3,16.3-22.1,23.5  c-5.1,4.7-10.4,9.6-15.1,14.9c2.7,2.1,5.7,3.2,8.8,3.4c0.4,0,0.7,0,1.1,0c2.7,0,5.6-0.7,8.6-2c6.4-2.8,12.6-8,17.5-12.2l0,0  c1.3-1.1,2.5-2.2,3.7-3.1l3.2-2.6l-1.6,3.8c-7.7,17.8-16.8,34.7-25.5,51.1c-5.7,10.5-11.5,21.4-16.9,32.5c0.6,0.1,1.2,0.1,1.8,0.1  c2.7,0,5.5-0.8,8.4-2.4c3.5-1.9,6.6-4.7,9.3-7.1c8.5-8,15.6-18.1,22.5-28c4.3-6.1,8.3-11.9,12.5-17l1.6,1.2  c-6.1,9.8-10.3,19.9-13.2,31.7c-2.3,9.4-3.6,19.2-5.1,29.7c-0.5,3.4-0.9,6.9-1.5,10.4c-2.5,17-8.5,31.8-14.3,46.2  c-3.2,7.8-6.1,15.3-8.6,22.9c0.3,0,0.5,0,0.8,0c5.1,0,8.7-1.4,10.8-2.6c4.1-2.3,8-6.3,11.7-11.9c3.5-5.5,6-11.4,7.5-15.3l0.2-0.5  l0.6-0.1c0.6-0.1,0.9-0.9,1.2-2c0.1-0.4,0.2-0.8,0.4-1.1c6.2-13.9,11-29.1,15.5-43.9l0-0.1c1.2-3.9,2.4-7.8,3.7-11.7  c0.3-1.1,0.7-2.2,1-3.3c1.8-5.7,3.6-11.6,6.1-16.8l1.8-3.9l0.1,4.3c0.7,42.3-4.6,80.9-9.9,113.3c17.1-1.9,23.5-15.3,28.6-29  c3.9-10.4,6.6-20.3,8.3-30.4c1.8-11.1,2.4-22.3,1.8-34.2l-0.4-6.5l2.3,6.1c2.1,5.6,2.7,13.1,3.4,21.7c0.1,1.9,0.3,3.8,0.5,5.7  c0.6,6.6,1.7,18.8,6.6,21.3c0.6,0.3,1.3,0.5,2,0.5c1.1,0,2.4-0.4,3.9-1.2c4.9-7.9,5.4-20.7,5.9-33c0.3-7.5,0.6-15.3,1.9-22l0.9-4.9  l1,4.8c1.1,5.1,1.5,9.5,2,13.8c0.4,3.8,0.8,7.6,1.6,11.8c0.2,0.9,0.4,1.8,0.5,2.7c1.1,5.2,2.1,10.6,1.8,16.2  c-0.7,10.4-4.1,19.5-10.3,27.9c-0.5,0.7-1.1,1.4-1.7,2.1c-3,3.6-6,7.2-3.6,12.6l10.5,6l0.2,0.1l0.1,0.2c0.7,1.1,2.5,1.5,4.3,1.8  c0.4,0.1,0.8,0.2,1.2,0.3c2.3-2.1,3.9-4.6,4.9-7.4c0.8-2.2,1.1-4.7,1.4-7.2c0.4-3,0.8-5.9,1.9-8.2c0.5-1,2.1-3.2,4-3.2  c0.1,0,0.1,0,0.2,0c3.6,0.3,3.9,7.3,4.1,13l0,1c0.3,7.1-0.8,16.9-3.4,21.1c-3.1,4.8-9.3,5.3-15.4,5.8c-3.7,0.3-7.2,0.5-9.8,1.8  c-2.4,1.2-3.2,3.9-4.1,6.7c-0.3,1-0.6,2-1,2.9l-0.2,0.5c-0.8,2.1-1.5,4-3,6.1c0.3,0.2,0.7,0.2,1,0.2c1,0,2.2-0.6,3.4-1.2  c1.3-0.7,2.7-1.4,4.3-1.6c0.3,0,0.5,0,0.8,0c1.1,0,2.3,0.3,3.4,0.5c1,0.2,1.9,0.4,2.8,0.5c0.4,0,0.8,0,1.1,0c6,0,11.9-2.2,15.5-3.4  l0.2-0.1l1.9-0.7l-0.6,1.9c-2.3,7.1-4.1,12.7-8.7,17.2c-7.2,7.2-19,8.6-30.5,10c-10,1.2-20.4,2.5-27,7.7c-3.8,3-7,8.2-8.6,13.9  c-1.8,6.5-1.3,13.2,1.3,18.9c2.4,4.2,6.9,7.9,12,9.8c2.6,1,5.2,1.4,7.8,1.4c2,0,4-0.3,5.8-0.8c-9.9-1.8-17-7.9-19-16.6  c-1.3-5.8,0.1-11.8,3.9-16.8c4-5.2,10-8.5,15.8-8.8l1.5-0.1l-0.6,1.4c-1.3,3.3-4,5.7-6.9,8.4c-4.6,4.2-9,8.1-7.7,15.2  c0.3,1.6,0.8,2.7,1.5,2.9c0.1,0,0.2,0,0.3,0c1.5,0,3.9-2.4,5.6-4.2c0.6-0.7,1.3-1.3,1.8-1.8c2.9-2.5,5.6-4.6,7.9-6.3  c5.2-3.7,11.2-6.5,17-9.2c7-3.3,13.7-6.4,18.8-10.9c5-4.3,9.1-10.1,12.1-14.6l2.5-3.8l-0.7,4.5c-1.6,10-3.6,17-6.3,21.9  c-3.2,6-9.8,7.6-16.7,9.3c-4,1-8.2,2-11.6,4c-2.3,2.7,0,6.3,1.1,7.8l0.5,0.6l-0.5,0.6c-3.3,4.1-8.1,6.7-12.8,9.1  c4.1-0.5,8.1-1.3,11.8-2.5c4.7-1.5,9.2-3.5,13.3-6.2c7.2-4.5,13.6-10.7,19.5-19c0.4-0.6,0.9-1.3,1.3-2c1-1.7,2-3.4,3.8-4.7l1.7-1.2  l-0.1,2.1c-0.2,3.4-0.3,6.8-0.4,10c-0.2,8-0.4,15.5-2.6,23.4c-1,3.8-3.2,6.7-5.2,9.5c-2,2.7-3.8,5.2-4.2,8c-0.4,2.7,0.2,5,1.6,6.4  c1.1,1.1,2.6,1.7,4.4,1.7c0.3,0,0.6,0,0.8,0l0.5-0.1l0.3,0.4c1.8,2.2,3.3,4.8,4.8,7.2c1.2,2,2.4,4.1,3.8,5.9  c2.3-4.5,4.8-8.7,7.4-12.8l0.2-0.2l0.4-0.6l0.7,0.2c0.6,0.1,1.1,0.2,1.6,0.2c1.5,0,2.8-0.6,3.9-1.8c2-2.1,2.7-5.8,1.8-8.7  c-0.4-1.4-1.7-2.9-3-4.4c-1-1.2-2-2.5-2.8-3.9c-5.6-9.4-7.7-23.6-5.7-38l0.3-2.5l1.5,2.1c6.2,8.7,12.4,17.1,20.7,23.3  c8.3,6.3,17.6,9.6,28.4,10c-5.2-2.6-9.4-5.5-12.7-9.1l-0.7-0.7l0.7-0.7c1.2-1.1,1.7-2.3,1.5-3.5c-0.2-1.8-1.7-3.9-4.1-5.4  c-2.3-1.5-5.9-2.6-9.3-3.6c-3.6-1.1-7.4-2.2-9.9-3.9c-9.6-6.3-11.4-17-13.4-28.3l0-0.1l-0.7-4.2l2.5,3.5c1.2,1.6,2.3,3.3,3.4,5.2  c2.4,3.9,4.9,7.9,8.4,10.8c4.6,3.9,11.3,7.2,17.7,10.3l0.9,0.4c8.8,4.3,18.8,9.1,26.1,15.7c0.8,0.8,1.6,1.7,2.5,2.7  c1.5,1.7,3.1,3.7,4.5,3.9c0.1,0,0.2,0,0.4,0c0.6,0,1.1-0.2,1.6-0.7c1.3-1.3,1.8-4.2,1.5-6.1c-0.6-4-3.9-6.9-7.1-9.8  c-2.9-2.6-5.7-5.1-6.6-8.3l-0.4-1.5l1.5,0.3c10,1.8,20.5,9.5,20,22.2c-0.5,11.8-10,18.1-20.4,19.5c2.3,0.7,4.5,1.1,6.8,1.1  c0.4,0,0.7,0,1.1,0c3.5-0.2,6.8-1.2,9.8-3.1c3.2-2.1,5.9-5.1,7.7-8.7c1.9-3.7,2.8-8,2.7-12.3c-0.3-9.1-3.6-15.8-10.2-20.4  c-6.3-4.4-14.8-6.5-23-8.1c-2.7-0.5-5.5-0.9-8.2-1.3c-6.3-0.9-12.8-1.9-18.4-4.3c-4.4-1.9-8.4-5.5-11.8-10.8  c-2.4-3.7-5.4-9.4-6-15.7l-0.2-2.2l1.8,1.2c0.8,0.5,1.4,1.1,2,1.7c0.9,0.9,1.7,1.6,3,2.1c1.7,0.6,3.7,0.9,6.5,0.9c0.1,0,0.1,0,0.2,0  l0-0.3l0,0c0,0,0,0,0,0c0,0,0,0,0,0v0l0.1-1l0,1v0l0,0l0,0l0,0.3c2,0,4.1-0.2,6.2-0.3c2.1-0.2,4.3-0.3,6.3-0.3c1.6,0,3,0.1,4.2,0.3  c1.1,0.2,2,0.7,2.8,1.1c0.9,0.5,1.5,0.8,2.4,0.8c0.1,0,0.2,0,0.4,0c1.9-0.2,2.3-0.7,2.4-0.8c0.3-0.6-0.8-2.1-1.6-3.2  c-0.4-0.6-0.8-1.2-1.2-1.7c-0.6-1.1-1.1-2.5-1.5-3.9c-0.5-1.4-0.9-2.8-1.4-3.5c-2.1-3.2-6.3-3.2-11.1-3.3c-3.8-0.1-7.6-0.1-11.3-1.6  c-4-1.6-7-5.2-8.9-10.8c-1.9-5.4-2.2-11.1-2.2-13.9c0-1.6,0.7-11.1,3.6-13.6c0.5-0.5,1.1-0.7,1.8-0.7c0.1,0,0.2,0,0.3,0  c2,0.3,3,3.2,3.7,6l0.1,0.2c0.5,2,0.7,4.4,0.9,6.9c0.6,7.2,1.3,12,5.6,12.6c0.2-0.1,0.3-0.3,0.5-0.9c0.2-0.6,0.4-1.2,0.9-1.7  l0.3-0.3l0.5,0.1c0.3,0,0.5,0,0.8,0c1.9,0,2.7-0.9,3.4-2.4l0.2-0.3l0.3-0.1l11.1-5.1c-1.4-2.7-1.9-5.7-2.4-8.8c-0.5-2.7-0.9-5.5-2-8  c-0.6-1.4-1.7-2.7-2.7-4c-0.5-0.6-1-1.2-1.4-1.7c-4.6-6.2-7.3-15.3-7.9-26.5c-0.5-9.6,0.6-20.7,3.1-31.2l1-4.3l0.9,4.4  c1.2,5.6,1.7,11.9,2.2,18c0.6,6.4,1.1,13.1,2.4,18.9c1.4,6.2,3.5,10.7,6.5,13.7c0.4,0,0.7,0,1,0c2.1,0,3.8-0.4,5.3-1.1  c2.3-6.6,2.8-15.2,3.2-23.5c0.5-8.9,1-18.2,3.7-25.2l2.3-5.8l-0.4,6.3c-1.1,19.6,1.7,37.4,9.1,57.7c2.8,7.7,6.4,16.5,11.9,23.3  c5.6,6.8,12.3,10.6,20.6,11.5c-5-23.4-9.2-49.1-12.1-74.2c-0.6-5-0.7-10.3-0.8-15.4l0-0.1c0-2.8-0.1-5.6-0.2-8.4  c-0.1-1.5-0.2-3-0.3-4.3c-0.3-3.6-0.6-7.2,0-10.7l0.6-3.6l1.3,3.4c3.6,9,6.8,18.5,10.2,28.6l0,0.1c7.7,22.6,15.6,45.9,27.5,63.1  c0.3,0.5,0.6,0.9,1,1.4c2.3,3.3,4.8,7,7,8.8c3.9,3.3,10.6,4.2,16.9,4.8c-2.7-7.5-5.8-14.8-9-22.6c-6.2-14.7-12.7-29.8-16-47  c-0.7-3.7-1.4-7.3-2-10.9c-1.8-10.2-3.6-19.8-6.1-28.8c-3-10.9-8.4-19.8-13.6-28.4l-0.2-0.4c-0.5-0.8-1-1.7-1.5-2.6l1.6-1.2  c4,4.4,7.9,9.6,12,15c3.1,4.1,6.2,8.3,9.6,12.4c3.1,3.8,6.6,7.6,10,11.2l0,0l0,0l1.6,1.7l0.4,0.5c3.3,3.6,7.1,7.6,11.5,10.3  c3.2,1.9,6.3,2.8,9.5,2.8C340.4,178.3,342,178.1,343.6,177.6z M312.5,38.1L312.5,38.1C312.5,38.1,312.5,38.1,312.5,38.1  C312.5,38.1,312.5,38.1,312.5,38.1C312.5,38.1,312.5,38.1,312.5,38.1C312.5,38.1,312.5,38.1,312.5,38.1z M203.5,31.9  C203.5,31.9,203.5,31.9,203.5,31.9C203.5,31.9,203.5,31.9,203.5,31.9L203.5,31.9z M177.5,31.7C177.5,31.7,177.5,31.7,177.5,31.7  C177.5,31.7,177.5,31.7,177.5,31.7C177.5,31.7,177.5,31.7,177.5,31.7C177.5,31.7,177.5,31.7,177.5,31.7L177.5,31.7z M186.9,29.5  c-0.8,0.8-2.1,1.2-3.6,1.2c-0.6,0-1.6-0.1-2.4-0.5c-1.2-0.6-1.8-1.8-1.5-3.2l0.2-1.2l1.1,0.4c0.7,0.2,1,0.7,1.3,1.1  c0.3,0.3,0.4,0.4,0.5,0.5c0.4-0.1,0.7-0.3,1.1-0.6c0.7-0.4,1.5-1,2.8-1l0.6,0l0.3,0.6C187.9,27.7,187.7,28.7,186.9,29.5z   M64.4,109.6C64.4,109.6,64.4,109.6,64.4,109.6L64.4,109.6C64.4,109.6,64.4,109.6,64.4,109.6z M65.3,107.6  C65.3,107.6,65.3,107.6,65.3,107.6C65.3,107.6,65.3,107.6,65.3,107.6L65.3,107.6z M91.3,130.6C91.3,130.6,91.3,130.6,91.3,130.6  L91.3,130.6C91.3,130.6,91.3,130.6,91.3,130.6z M135.8,260.8L135.8,260.8C135.8,260.8,135.8,260.8,135.8,260.8  C135.8,260.8,135.8,260.8,135.8,260.8z M129.8,301.5C129.8,301.5,129.8,301.5,129.8,301.5C129.8,301.5,129.8,301.5,129.8,301.5  C129.8,301.5,129.8,301.5,129.8,301.5C129.8,301.5,129.8,301.5,129.8,301.5L129.8,301.5z M140.6,291.4L140.6,291.4L140.6,291.4  L140.6,291.4z M138,357.6L138,357.6C138,357.6,138,357.6,138,357.6C138,357.6,138,357.6,138,357.6z M179.4,83.9  C179.4,83.9,179.4,83.9,179.4,83.9L179.4,83.9C179.4,83.9,179.4,83.9,179.4,83.9C179.4,83.9,179.4,83.9,179.4,83.9z M235.1,157.8  L235.1,157.8C235.1,157.8,235.1,157.8,235.1,157.8C235.1,157.8,235.1,157.8,235.1,157.8z M248.7,137.5L248.7,137.5  C248.7,137.5,248.7,137.5,248.7,137.5C248.7,137.5,248.7,137.5,248.7,137.5C248.7,137.5,248.7,137.5,248.7,137.5z M276.6,99.6  L276.6,99.6C276.6,99.6,276.6,99.6,276.6,99.6C276.6,99.6,276.6,99.6,276.6,99.6z M280.3,60.4L280.3,60.4L280.3,60.4  C280.3,60.4,280.3,60.4,280.3,60.4L280.3,60.4L280.3,60.4C280.3,60.4,280.3,60.4,280.3,60.4z M280.9,31.7  C280.9,31.7,280.9,31.7,280.9,31.7C280.9,31.7,280.9,31.7,280.9,31.7L280.9,31.7z M284.4,29.1C284.4,29.1,284.4,29.1,284.4,29.1  L284.4,29.1C284.4,29.1,284.4,29.1,284.4,29.1z"/>
<path id="Kontur_2_" d="M204.2,21.5c13.5,4.9,8.1,30.4,19.3,36.5c-1.6,0.9-4.7,0.3-6.5,1c0.1,7.5-5.6,15.7-4.6,23.2  c0.4,2.8,2.6,4.2,2.9,6.5c-2.4,2.3-6.2,0.4-8.8-0.7c-3.3,4.5-6.6,15.1-1.6,20.2c-3.5-0.4-5.7,0.7-6.9,2.6c-1.3,6.1,3.7,5.5,6.9,7.8  c2.7,2,3.3,4.1,5.2,5.9c31.9,0.6,52.3-19.6,51.2-52.2c-0.7-1.3-2.5-1.4-3.9-2c0.4,8.8-0.6,17.2-4.9,23.5c-2.5,3.7-8.4,7.9-11.4,9.1  c-4.7,1.9-12.2,1.4-9.8-5.9c5.9-2,12.8-3.1,16.6-7.2c0.9-3.1,3.2-5.4,4.2-9.1c0.8-2.9,2-8.6,1-12.1c-0.4-1.4-6.1-5.7-7.5-7.2  c-3.7-3.9-7.5-8.7-6.9-17.3c0.4-5.6,2.4-11.3,5.9-14.7c6.9-6.8,21.2-5.6,33.9-6.2c17-0.7,32.6-1.2,46.3-5.2  c0.1,19.4-14.9,23.6-31.3,26.4c2.6,2.2,6.4,2.9,9.8,3.9c11.4,3.3,24.8,4.9,38.5,6.5c-2.9,16.6-23.3,20.3-41.8,15  c11.2,13.7,26.4,26.2,41.8,36.9c-3.3,3.4-7.8,5.5-13.7,5.5c-13.9,0.1-22.4-11.5-31.3-17c14.4,29.2,30.5,56.7,48.3,82.6  c-12.9,4.4-21.7-5.5-28.4-12.7c-4-4.3-8.1-8.6-11.7-13.1c-7.9-9.6-14.8-20-21.9-27.7c5.8,9.7,12.2,19.5,15.7,32  c3.4,12.4,5.5,26.1,8.2,39.8c5.1,26.4,17.6,48,25.5,70.8c-6.8-0.7-14.5-1.5-18.9-5.2c-2.7-2.2-5.7-6.9-8.2-10.4  c-17.2-24.8-26.1-62.3-37.9-92c-0.8,4.7,0.1,9.9,0.3,15c0.4,7.9,0.1,16.2,1,23.8c3.1,26.5,7.4,52.5,12.4,75.4  c-20.1-1.5-28.4-18.7-34.6-35.6c-6.4-17.5-10.5-35.9-9.1-58.4c-5.4,13.4-2.2,35.4-7.2,49.3c-1.9,1-4.3,1.5-7.5,1.3  c-10.6-10.5-8.1-34.1-11.7-51.6c-4.9,20-5.1,44.1,4.6,57.1c1.4,1.8,3.3,3.8,4.2,5.9c2.5,5.7,1.8,12.5,4.9,17.6  c8.6,14.2,17,26.1,24.8,39.5c5.9,2.2,9.9-0.7,11.4-4.9c0.6-1.7,0.1-4,1-5.5c1.2-2.2,5.4-2.4,8.5-4.2c1.3-0.8,2.8-3,4.2-3.6  c3.5-1.4,8.3,0.1,11.4,1.3c-2.7,0.7-6.4,0.3-7.5,2.6c0.4,2.4,2.8,1.6,2.9,3.6c0.4,4.4-7.7,4.9-10.8,3.3c-1.5,0.6-0.1,2.8,0,3.9  c-1.8,2-5.2,2.4-5.2,6.2c3.9,1.8,8.1-0.1,12.1-2c1.6-0.7,3.5-2.4,5.2-2.3c1.8,0.2,3.9,3.2,5.9,3.9c7.3,2.6,18.7-2.1,19.9,5.9  c-2.1-1.1-5.8-0.9-6.5,1.3c0.1,2.4,2.3,2.4,2,4.6c-0.4,2.3-3.4,3.3-6.2,2.3c-2.3-0.8-4.5-5.9-8.2-5.9c-2.9,2.5-7.6,1.7-8.8-1.6  c-4.8,1-9.1,2.4-13.4,3.9c1.9,5.6,10.4,7.5,15.7,10.8c1,1.7,1.4,4,1.6,6.5c-2.3,0-1.8-2.8-4.2-2.6c-2.4,1.1-1.4,4.1-3.6,4.9  c-4.3,1.7-6.4-8.1-11.1-8.5c-0.3-1.3-1.2-1.8-1.6-2.9c-3.2-1.7-6.7-3.1-9.5-5.2c-7.4-1.6-13-1.6-20.9-0.3  c-1.8,2.5-10.6,5.1-11.7,0.7c-0.7-2.7,1.4-3.1,2.3-5.2c-0.4-3.5-4.1-0.3-4.6-1c3.4-8.6,14.5,0.9,22.5-3.3  c-8.6-14.8-18.7-28.1-29.7-40.5c-0.9,1.8-2.1,3.3-5.2,2.9c-0.8,0.8-0.6,2.7-2,2.9c-7.7-0.9-5.8-13.1-7.5-20.2  c-0.3-1.2-1.2-5.3-2.9-5.5c-3.5-0.5-4.6,11.1-4.6,13.4c0,7.9,2.1,20.5,10.4,23.8c8.3,3.3,18.7-0.9,22.8,5.2c1.1,1.6,1.8,5.5,2.9,7.5  c1.5,2.6,5.9,6.5-0.3,7.2c-2.4,0.3-3.5-1.5-5.9-2c-6.7-1.3-17,1.8-23.5-0.7c-2.4-0.9-3.2-2.6-5.2-3.9c0.5,5.6,3.2,11.1,5.9,15.3  c2.7,4.1,6.4,8.3,11.4,10.4c7.9,3.3,17.6,3.8,26.4,5.5c17.7,3.4,33.3,8.8,33.9,29.4c0.5,17.6-15.3,31.1-33,22.5  c12.2-0.3,23-6.8,23.5-18.9c0.5-11.7-9.1-19.4-19.3-21.2c1.7,6.6,12.4,10.2,13.7,18.3c0.5,2.9-0.9,8.4-4.6,7.8  c-2.6-0.4-5.1-4.7-7.5-6.9c-7.4-6.7-17.6-11.6-26.8-16c-6.8-3.3-13.3-6.5-17.9-10.4c-5.2-4.5-8.3-11.3-12.1-16.3  c2,11.4,3.7,21.9,13.1,28.1c4.8,3.2,14.5,4.4,19.3,7.5c3.4,2.3,6.7,6.6,2.6,10.4c4.4,4.7,10.1,8.1,16.6,10.8  c-28.9,0.7-42.4-16.8-54.5-33.9c-2,14.3,0.2,28.4,5.5,37.5c1.8,3.1,5,5.9,5.9,8.5c1.8,5.3-1.6,13.1-8.5,11.4  c-2.9,4.6-5.7,9.3-8.2,14.4c-3.6-4.4-5.9-10-9.5-14.4c-5.3,0.5-8.7-3.2-7.8-9.1c0.9-6,7.4-10.3,9.5-17.6c3-11,2.2-21.4,2.9-33.3  c-2.3,1.6-3.4,4.4-4.9,6.5c-10.5,14.7-25.4,27.1-49.9,28.4c6-3.2,12.5-6,16.6-11.1c-1.9-2.5-3.6-6.3-1-9.1  c9.1-5.4,23.1-3.9,28.1-13.1c3.1-5.6,4.9-13.6,6.2-21.9c-3.1,4.7-7.3,10.6-12.4,15c-9.7,8.4-24.5,12.2-35.9,20.2  c-2.2,1.6-5,3.7-7.8,6.2c-2.8,2.4-9.1,11.1-10.8,2.6c-2.3-12.3,11.6-16,14.7-24.1c-10.7,0.4-21.8,11.9-18.9,24.5  c2.2,9.3,10.5,15.6,21.9,16.3c-11.9,6-25.4-0.8-30.3-9.5c-6-12.9-0.2-27.9,7.5-33.9c14.3-11.2,44.2-4.4,57.4-17.6  c4.4-4.4,6.2-9.8,8.5-17c-3.9,1.4-10.5,3.9-17.3,3.6c-2.3-0.1-4.7-1.2-6.9-1c-3.8,0.5-6.8,4.7-10.1,2c1.8-2.5,2.6-4.7,3.6-7.2  c1.5-3.7,1.8-8.4,5.5-10.1c7-3.3,20.2,0.1,24.8-7.2c2.5-3.9,3.6-13.5,3.3-20.6c-0.2-4.7-0.3-12.8-3.3-13.1c-1.3-0.1-2.8,1.6-3.3,2.6  c-2,4.2-1.5,10.4-3.3,15.3c-1.2,3.5-3.3,6.1-5.5,8.2c-2.4-0.6-5.3-0.8-6.5-2.6c-10.8,12.7-21.7,25.3-32.3,38.2  c6.7,3.1,16.5-3.6,21.5,1.3c-1.2,1.6-3.7,2-5.2,3.3c0.3,2.4,2.6,1.8,2,4.2c-0.8,3.3-8.4,2.2-9.8-0.3c-6,0.8-10.6-2.5-16-0.7  c-3.4,1.2-5.3,5.4-9.1,5.9c-1.4,5.7-9.2,5.5-11.7,10.1c-1.4,2.5-0.3,5.8-2.6,8.2c-1.7,0.4-3.1,1.3-4.9,0.7c-1.3-0.5-0.7-3-1.3-4.2  c-2.7,0.2-3.3,2.3-3.9,4.6c-1.7-2.9-0.7-7.6,0.7-10.1c0.9-0.5,1.9-0.9,2.9-1.3c3.8-7.3,14.3-7.9,16.6-16.6c-3.2-0.6-7-3-10.4-2.3  c-1.5,0.3-1.9,1.8-3.3,2c-1.8,0.2-2.7-1.5-4.2-1.6c-1.6-0.1-4.8,1.4-5.9,2.3c-1.7,1.4-1.6,4.3-3.6,5.9c-2,1-5.4,0.7-7.2-0.3  c-1.3-1.5,0.4-4-1-5.2c-1.7-1.4-3,1.7-3.9,1c-0.2-7.9,9.3-6.4,16.3-9.8c1.9-0.9,4.1-3.5,6.2-3.9c5.8-1.1,11.6,4,17,4.6  c2.4-4.9-3.4-6.9-4.9-10.1c-5.5-1.2-9,0.2-14-0.3c-1.5-2.1,0-4.7,1-6.2c-1.1-1.9-4-3.2-6.9-2.3c1.7-1.9,4.2-3.7,6.5-3.6  c1.6,0.1,2.9,1.8,4.6,2.6c4.9,2.3,12,3.6,17,4.9c2.5,1.7,3.1,13.7,7.5,13.7c2.2,0,7.5-7.8,8.8-9.5c7.8-9.9,16-22.1,22.8-31  c-3.5-7.3,2.2-11.9,5.2-16c5-6.8,9.3-15.6,10.1-27.4c0.4-6.3-1.1-12.6-2.3-18.6c-1.7-9-1.6-16.2-3.6-25.8  c-3.5,17.8,0.1,42.8-8.2,55.8c-11.4,6.6-13.1-11.2-14-21.2c-1-10.8-1.3-20.8-3.9-27.4c1.4,25.2-2.7,45.7-10.1,65.3  C99.5,261,92.6,274.6,74.3,276c5.9-35.4,10.8-73.6,10.1-114.5c-3,6.3-5,13.3-7.2,20.2c-6,18.8-11.4,38.2-19.3,55.8  c-0.5,1.1-0.7,3.3-2.3,3.6c-3.5,9.6-10.2,22.6-19.6,27.7c-3.2,1.8-7.7,3-13.4,2.6c6.9-22.5,19.3-43.8,23.2-70.2  c2.1-14.1,3.5-27.6,6.5-40.1c3-12.4,7.5-22.8,13.7-32.6c-11.4,13.7-21.5,32.6-35.6,45.7c-5.1,4.7-13,11.5-21.5,9.5  c14-28.6,30.2-55.1,43.1-84.8c-9.6,7.8-26.6,25.9-41.8,13.4c12-13.6,27.2-24.2,37.8-39.2c-16.1,5.7-37.3,4.8-38.8-13.7  c16.1-2.3,30.9-5.8,44-11.1c-1.6-1.6-4.2-1.3-6.2-1.6C33.6,44.6,22,38.8,22.1,22.5C40.6,28,65.6,24.1,87,25.8  c14.6,1.2,22.1,10.8,21.2,24.1c-0.7,10.6-7.5,13.8-13.4,20.2c-0.5,10.5,3.6,20.4,9.8,24.1c3.6,2.1,8.9,1.1,13.1,3.6  c1.6,3,0,6.2-2,7.5c-17-1.9-26.5-14.5-24.5-33.3c-2.3-0.2-3.4,0.7-4.6,1.6c-1.6,30.4,22.4,52.9,51.2,51.6c5.3-0.3,8.1-8.8,16.3-6.2  c1.7-2.2,0.6-7.2,2.3-9.5c-1.7-1.8-5.5-1.4-8.2-2.3c9.5-0.5,10.8-6.7,15.7-13.1c2.4-3.1,5.5-5.4,7.8-8.8c-6-3.8-14.9,0.7-17.3,3.6  c2.2-7.1,8.1-9.2,16-12.4c5-2,14.3-4.9,10.4-11.4c-5.5-3.2-13.6-3.8-19.6-6.5c3.3-7.7,24.8,2.9,25.8-6.2c-4.7-1.7-12.1-1.5-17.6-1.3  c-6.6,0.3-12.8,1.1-18.3,2.6c-8.3,2.2-14.5,7.8-22.5,9.1c15.3-8.9,33.8-21.3,58.7-15.3c1-9.4-11.6-12.9-17-7.2  c-6.8-5.5-18.7-5.6-21.2,3.6c-0.5,1.6,1.3,2.6,0.7,3.3c-5.2-3.5-4.1-13.7,0.3-17.3c1.9-1.6,4.8-1.7,7.2-3.3c2.8-1.8,3.5-6.3,8.5-3.9  c2.1-1.1,2.1-2.8,3.6-3.9c10.4-7.4,30.4,5.9,41.1-2.6c0.6,0.7-1.7,1.5-2.9,2.3C206.4,19.5,204.9,20.7,204.2,21.5z M167.6,23.5  c-0.5,2.7,0.6,5.1,3.6,5.2c2.4-6.7,11.5-6.8,18.6-8.8C183.2,17.8,169,16.6,167.6,23.5z M192.8,20.6c-1.3,0.3-2.6,1.6-3.9,2  c-5.9,1.7-13.9,1.1-15.3,7.2c2.3,1.9,3.9,2.1,7.2,2.6c8,1.2,14.4,7.2,22.8,7.8c-1.6,0.6-4.1,0.4-5.9,1c3.3,3.5,7,16.6,1.3,21.5  c-0.1-2.8,1.7-5.1,0.7-7.8c-3.7,1.6-4.7,8.8-6.2,13.7c-0.7-1.9-0.2-5-1-6.9c-4.7,2-4,11.3-8.5,12.4c0.5-3.2,2.8-8.1,2.3-10.1  c-2.3-0.1-1.2,3.2-1.6,4.9c-2.6,10.1-18.7,6.5-23.5,14.4c5.9,0.4,13.5-0.8,18.3,0.7c-9.2,2.7-13.2,10.7-17.9,17.9  c2.9,0.4,7.4-0.9,8.8,1c-4.8,0.9-9.9,1.6-13.4,3.9c3.3,0.8,8.7-0.4,11.4,1c-2.2,1.5-7,0.4-9.5,1.6c-1.3,3.3-1.5,7.8-2.6,11.4  c-5.8-0.6-9.2,1.3-12.4,3.3c-1.9,6.2-3.5,10.9-3.9,17.6c-1.9,30.1,10.9,54,9.1,80.3c-0.5,7.3-3.3,12.2-6.2,17  c-4.1,6.6-11.2,12.1-9.8,21.5c4.1,1.9,4.8-2.3,7.8-2c4.7,0.5,0.7,6.6,3.6,9.5c1.8,0,0.6-3.1,2.6-2.9c1.1,0.5,0.2,2.9,1.3,3.3  c9.1-2.6,2-27.8,14.7-26.4c0.1,0.4,0.4,0.7,1,0.7c3,11.8,4.6,27-0.7,35.9c-2.9,5-9.8,7-16.3,7.5c-2.5,0.2-5.8-0.6-8.8,0.3  c-4.7,1.4-4.2,6.6-5.9,10.4c-0.8,1.9-2.7,2.5-2.6,4.9c4.1,0.5,6.9-3.3,11.4-3.3c1.3,0,2.5,0.8,3.6,1c11.4,1.6,18.5-4.9,20.2-15.7  c-5,4.2-13.8,12.2-24.5,7.8c-1.4,0.7-1.7,2.5-3.6,2.6c1.1-2.1,2.2-4.1,3.9-5.5c14.4,3.3,23.1-5,27.7-14.4c0.1,6.8-1.3,11.5-2.6,16.6  c-3.7,13.9-9.7,28.1-22.8,32.6c-8,2.8-16.8,1.9-24.8,3.3c-6.6,1.2-14.5,2.5-19.9,5.9c-5.7,3.6-10.4,12-11.1,19.3  c-1.6,15.6,8.2,25,22.8,24.8c-3.2-3-7.6-4.6-10.8-8.2c-4.7-5.3-6.7-14.6-3.3-21.9c3.7-7.8,12.8-12.9,22.8-14  c-1.5,8.3-12.6,12.8-15.7,18.9c-0.9,1.8-2.2,7.7,0.7,9.5c15.7-20.7,51.2-21.9,61.7-47.3c1.8-4.3,2.2-9.3,4.2-14.4  c-0.1,5.7,0.2,9.7-0.3,14.7c-1.1,10.8-5.4,26.5-13.4,31c-5.3,3-22.2,2-22.5,8.8c-0.2,3.5,2.9,3.1,5.2,4.2c-2.9,4.2-7.7,6.5-11.4,9.8  c23.1-5.4,36.6-20.4,46-39.5c0.9,18.8,0.2,37.4-6.2,49.3c-1.4,2.6-4,4.6-4.9,7.2c-2.3,6.6,2.3,10.6,9.1,8.8c0.1,3.7,1.2,5.6,2.6,7.8  c0.8,1.3,2,3.1,3.3,3.6c2.4-1.9,4.8-6.7,5.5-11.4c3,0.7,6,0.1,8.2-1c1.6-2.1,1.5-7.1,0.3-9.5c-2-3.8-4.5-6.2-6.2-9.5  c-5.6-10.7-4.6-27.3-4.6-43.4c10,19.1,22.5,35.8,47.6,39.8c-3.8-4.2-10.2-5.9-12.7-11.4c1.7-0.1,4.1,0.4,4.9-0.7  c0.4-2.6-1.1-4.1-2.6-5.2c-8-5.9-19.4-5.3-25.1-12.7c-7.4-9.6-10.7-26.1-9.8-42.1c2.8,20,12.1,31.3,27.1,39.2  c10.9,5.7,22.4,10.9,31.3,18.3c2.9,2.4,5.2,5.6,8.5,7.5c3.2-0.7,3.3-4.3,2.3-7.2c-2.6-7.4-15.6-12-15.3-20.6  c12,2.7,24,9.2,24.8,22.2c0.8,13.7-8.1,17.7-16,22.8c12.6-0.9,19.7-7.3,21.5-18.3c1.3-7.9-0.9-16.1-3.9-20.6  c-11.9-17.7-51-9.4-64.3-24.8c-7-11.5-14.1-24.6-13.7-42.4c3.5,10.1,9.9,17.3,23.8,17c3.1-4.8,9,0.3,10.1,2.9c-2.6,0.1-3-2-5.2-2.3  c-8.6,4.1-19.3-1.1-24.8-5.2c1.3,7.7,9.5,13.9,18.3,12.7c2.8-0.4,5.4-1.7,8.5-1.6c3.7,0,6.8,1.2,10.4,1.3c0-2.4-2.2-4.3-3.3-6.9  c-0.4-1.1-0.3-2.6-1-3.6c-2.5-3.5-7.7-2-13.7-2.6c-13.9-1.4-20-10.3-19.6-26.4c0.2-8.3,1.4-21.2,9.5-16c0.3,2.9,1.2,6.1,1.6,9.5  c0.8,6,0.3,13,4.6,15.7c1.3-0.7,0.9-3.1,2.3-3.6c1.7-0.4,2,2,3.3,1c1.9-5.7,2.5-12.5,4.6-17.9c1.7-0.9,2.8,0.7,4.9,0.3  c-3.3-12.8-13.5-19.2-14.4-33.9c-0.3-4.2,0.1-8.7,0.7-13.7c1.9-17.6,5.8-37.8,4.9-56.8c-0.2-4.7-0.3-11.6-1.6-15.7  c-2.6-7.6-11-11.7-19.9-7.2c3.6-6.3,5.8-15.1,5.2-24.5c3.4,5.6,1.2,14.8-0.7,20.6c1.1,0,1.6-0.6,2.9-0.3c-1.5-5.3,0.8-9.1,3.9-11.4  c-1.7-11.2,5.8-17.4,4.9-27.7c1.3-2.1,2.1-6.4,4.2-6.5c-1.8,4.9-6.2,16.5,2.3,17.3c-4.1-10.9,5.9-24.3,1-36.9  c2.6,1.7,2.8,5.7,6.9,5.9c-5.4-7.7-5.9-20.2-14-25.1c-6.6-0.2-10.4-8.9-16.6-5.2c0.1,1.6,3.1,0.4,3.3,2c-3.1,0.6-6.9,3.3-10.4,2.6  c-2.5-0.5-3.4-2.7-5.2-3.9c4.7-6.2,19.7-0.5,24.1-7.2C198.4,21,195.5,20,192.8,20.6z M291.3,25.1c-10.4,0.5-21.3,0-30.3,0.7  c-15.3,1-22.9,11.9-18.6,28.4c0.7-0.4,1.2,0.8,1.3,0c-2.3-4.1-0.6-12.7,2.9-13.1c-0.8,1.6-1.1,3-1.3,4.6c-1.6,16.2,9.8,20,19.9,25.1  c-1.2-0.2-1.4,0.5-1.3,1.6c-1.1,34.6-18.8,52.5-52.2,54.8c0.3,1.2,0.3,2.8,0.7,3.9c32.2-0.5,52.4-20.2,54.8-50.9  c0.4-5.5-0.4-9.8-1.6-14.4c-10.4,4.4-14.9-12.8-3.9-12.4c-6.9-12.5,18.4-12.2,11.1,0c11.1-2.3,9.4,14.4,0,12.7  c1.7,46.9-20.7,69.8-58.7,77c-1.4,9.8-1.8,21.6-1.3,33c0.3,6.3,1.7,12.4,2.3,18.3c1.3,13.5,1.1,26,8.2,34.3c2.3,0.9,5.1,0.1,6.5-1  c1.8-4.3,2.1-9.5,2.3-14.7c0.6-14.5,2.1-26.8,4.9-37.9c0.6-2.6,0.8-5.5,2.3-7.5c-2,41.3,6.4,72.4,22.8,95.3  c4.7,3.5,9.2,8.9,17.3,7.8c-8.4-36.5-13.3-76.5-14.4-120.4c-1.4,0.5-2.9,1.5-4.9,1.3c-3.6-0.3-5.7-4.9-7.5-4.6  c3.3,34.4,7.1,69.9,13.1,100.5c-4-6.2-4.3-14.6-5.9-22.5c-4.1-20.5-4.6-44.9-8.8-65.6c-4,3-11.3,0.2-13.7-3.3  c0.4,7.4-2.9,11-10.1,10.8c-2.3,16.4,1.1,34.2,0.7,49.9c-3-14.9-5.5-35-2-50.9c-4.1-4.5-9.7-9.3-8.2-18.3c4.1,6,4.2,17.7,15,16  c1.9-2.3,2.7-4.8,2.6-8.5c-0.1-4.5-3.1-9.9,0-12.1c2.7,6.5,3.1,16.8,13.1,15c2.4-3.2,2.6-9.6,1.6-14.7c-0.5-2.7-2.9-6,0-6.9  c3.9,4.4,5.2,14.4,14,11.7c2.6-5.4-0.1-10-2-13.4c-1.1-2-3-4.2-2.3-5.9c4.7,1.3,6.4,8.3,14.4,7.5c2.5-1.5,1.3-5.6,0-7.8  c-2.2-3.8-7.8-6.5-6.5-9.5c3.6,0.4,7.9,4.7,13.1,3.6c3.9-6.5-5.6-9.2-8.2-13.4c2.9-1,9.9,3.7,13.1-0.3c0.8-7.1-8-6.3-9.1-10.4  c3.8-0.8,8.6-0.7,10.8-3.3c1-6.3-6.1-4.3-9.5-6.2c1.9-3.9,10.7-1.1,9.5-6.5c-0.8-3.4-7.4-1-8.5-3.6c5.3-2.9,9.3,1.5,11.4,4.6  c4.4,6.3,9.6,10.4,16,16c4.7,4.1,9.9,8.7,15.3,10.1c4.8,1.2,13.3,1.1,17.3-2.9c-16-12.7-33-26.2-45.7-41.1c14.6,6.1,44.2,8.9,46-9.5  c-20.4-2.5-39.6-6.3-55.8-13.1c20.2-0.4,39.4-3.6,40.1-22.5C314.8,22.2,303.5,24.6,291.3,25.1z M197.3,25.1c1.4,3.4,6,3.6,9.1,5.2  c1.4,1.4,4.9,5.3,5.9,4.9C211.2,28.2,204.4,20.1,197.3,25.1z M194.1,59.1c2.7-2.1,5.9-7.2,4.9-12.1c-0.9-4.5-7.2-9.2-12.1-11.1  c-8.6-3.4-20-2.4-21.5-11.7c-3.6-2.7-4.7,2.4-6.2,3.9c-6.8,0.8-13.4,6.4-10.1,14c1.4-8.5,15.4-8.7,20.9-3.6  c7.5-5.4,21.4-1.1,24.1,6.2c0.8,2,1.4,6.6,0,9.5c-4.3,8.7-20.3,0.2-28.7,4.2C172.7,61.1,186.8,64.7,194.1,59.1z M64.5,46.7  C48.4,52.9,30.4,57.3,12,61.3c2.3,19.4,30.5,12.5,43.7,7.5C43.4,85,26.8,96.7,13.6,111.9c14,6.7,24-2.3,32.3-10.1  c5.5-5.1,10.8-10.9,14-15.7c1.1-1.7,1-2.9,2.6-3.9c1.8-1.2,6.4-2.7,8.2,0c-2.6,1.8-8.1,0.3-8.5,3.6c-0.2,1.6,1.7,3.3,3.6,3.9  c2,0.6,5.5-0.8,6.2,1.6c-3,2.5-10.3,1.2-9.8,5.9c0.4,3.9,7.4,3.2,11.7,4.2c-2.5,2.9-11,4.7-9.5,9.8c1.7,5.7,11.8-1.7,13.4,0.7  c-2.7,4.3-9.1,5.1-9.1,12.1c4.8,5.2,10.9-3.4,14.7-2.3c-0.2,2.6-3.1,4.9-4.9,7.5c-1.8,2.5-4.3,5.5-2,9.1c3.7,1,6.4-0.3,8.5-2  c2.4-1.9,3.6-5.5,6.2-5.9c0.8,3-4.2,8.2-4.9,13.4c-0.5,3.9,0.9,6.5,3.6,6.9c7.2,0.8,7.8-8.9,11.4-12.7c2.8,1.4,0.3,6.4,0,10.4  c-0.6,7.7,2.9,15.2,9.5,9.5c3.2-2.9,3.6-10,5.5-13.7c3.6,2.1-0.1,8.1,0.3,13.1c0.3,2.8,1.3,4.7,2.3,6.9c11,3.2,11.3-9.7,15-16  c2,8.1-3.9,13.9-7.5,18.6c4,14.3,2.3,36.4-0.3,50.9c-1.4-15.5,2.6-38-1.3-50.6c-7.5,2-9.8-3.5-10.4-9.5c-1.6,0.3-2.6,2.9-5.2,3.9  c-2.6,1-5.6,1-8.2-0.7c-3.7,24.9-3.8,55.9-8.5,79.3c-0.7,3.3-0.6,7.3-3.3,9.5c4.7-20.8,5-44.7,7.2-67.5c1.1-11.4,4.1-22.4,2.3-34.3  c-2.3,3.8-7.4,7.7-12.4,4.2c1.5,43.9-3,84.1-9.5,121.1c5.9-0.2,10.8-2.6,14-5.9c18.7-19,24.1-60.4,23.2-97.9  c3.2,8.5,4.5,19.3,5.5,30.3c1,10.8,1.5,22.1,6.5,29.4c7.5,3.2,10-7,10.8-13.1c0.8-6.9,1.2-15.9,2-24.8c1.4-16.9,0.8-34.3-1.6-48.3  c-40.8-5.4-62.1-30.4-61.7-77c-9.3,2.7-11.3-14.3-1-12.1c-0.5-1.8-0.9-3.7-1.3-5.5c2.2-7.8,16.8-3.6,12.1,5.5  c10.4-0.9,8.9,15.5-2.6,12.1c-3.1,18.5,2.7,37.1,12.4,48.3c9.7,11.2,23.8,17.1,43.1,17c0.4-1.1,0.9-2.2,0.7-3.9  c-34.2-1.6-52.2-19.4-54.2-53.2c0.5-1.6-1.5-0.7-1.3-2c5.1-3.3,13.2-4.9,16.6-10.4c3.1-5,3.1-13.3,1.3-19.3  c4.3,1.8,3.4,9.2,3.9,13.1c3.6-8.8-0.7-19.3-5.5-23.8c-8.8-4.2-20.6-4.4-32.6-3.9c-15.9,0.7-30.2-0.2-42.7-2.9  C25.3,44.5,45.1,45.4,64.5,46.7z M186.6,27.1c-1.8,0-2.4,1.3-3.9,1.6c-1.3,0-1.3-1.3-2.3-1.6C179.6,31.2,188.1,30.1,186.6,27.1z   M189.2,48c1.2,0.5,2.7,0.6,3.9,1c-0.4-4.9-2.7-8-6.9-9.1C187.4,42.3,188.9,44.5,189.2,48z M262.9,54.8c-3-0.4-4.8,0.4-6.2,1.6  c-2.8,7.1,5.1,9.8,9.5,7.8c6.1,20.8-2,42.8-13.7,53.8c-10,9.4-23.9,13.8-39.8,16c0.2,1.9,0.6,3.5,1,5.2c39.5-4,60.3-30,57.1-74.4  c10.7,3,11.4-13.3,0-10.1c1-2.2,2.4-5,1-7.8C265.4,42.3,258.7,49.3,262.9,54.8z M83.1,55.1c5.9-5.2-2.7-13-7.8-7.5  c-1.1,2.6,0.5,5.9,0.7,7.2c-10.5-0.9-6.9,13.5,1.6,9.8c-0.3,4.7-0.5,9.5,0,14c1.7,16,6.3,31,15.7,41.4c9.5,10.7,25.4,19.6,44.4,18.9  c0-2,0.1-4-0.3-5.5c-39.4-1-61-28.7-56.1-69.5C91.7,69.7,94.8,52.6,83.1,55.1z M151,52.5c11.1-3,27.4-3.5,39.8-2.3  C179,46.7,160.1,46.4,151,52.5z M187.9,56.1c2-0.6,4.1-1.1,4.2-3.6C188.8,51.9,188.3,54,187.9,56.1z M238.8,96.6  c-1.3,0.3-4.7-0.2-5.9,1.3c-1.2,1.5-0.2,3.6,1,4.9c13.5-0.8,21.5-11.6,22.5-24.5c0.2-3.1-0.2-6.7-2-8.8  C255.8,83.5,249.3,94.3,238.8,96.6z M99.1,96.3c4.8,3,9.5,9.1,17.3,6.9c2.9-6.7-4.3-4.8-8.8-5.9c-4-0.9-8.6-5.9-10.8-10.4  c-2.3-4.7-2.9-9.3-3.3-15.3C90.6,80.8,95.2,90.6,99.1,96.3z M327.2,161.8c-8-7.9-14.9-18.2-21.5-30.3c-4.2-7.7-9.9-16.2-14.4-24.5  c-2.3-4.3-4.4-10.8-8.8-6.2c6.4,2.8,7.4,12.9-2,12.4c1.3,2.8,4.3,5.1,3.3,9.1c9.8,12.6,20.9,28.4,32.3,40.5  c7.1,7.6,13.4,16.4,27.1,15.3c-1.6-3.9-4.5-7.3-6.9-10.8c-17.6-25.4-32.4-54-47.6-81.6c-0.7,1.5-2.2,2.1-3.9,2.6  c2.4,1.6,5.9,4.8,3.6,9.1c12.6,22.4,26.2,45.6,40.1,65.6c0-0.3-0.3-0.4-0.3-0.7C327.8,162.3,327.4,162.1,327.2,161.8z M11.3,182.7  c11.9-0.8,18.8-10.3,25.1-17.6c8.2-9.5,16.6-19.3,22.5-30.3c3.9-2.4,5.7-7.5,7.5-12.1c1.1-2.8,2.9-5.4,2.6-7.2  c-9.3,0.6-7.9-9.3-2-12.4c-1.3-0.4-2.3-1.2-3.9-1.3c-13.7,21.7-23.1,49.3-40.5,66.2c14.3-21.3,26.8-44.3,38.2-68.5  c-0.3-1.1-1-1.8-1-3.3c1-2.2,2.6-3.7,4.6-4.9c-1.9-0.5-3-1.8-4.6-2.6C45.2,121.5,28.1,152,11.3,182.7z M279.6,143.9  c6.4,22.1,13.3,44.6,21.2,65.3c3.2,8.4,8,16.2,9.1,25.5c-7.7-14.2-13.3-30-18.9-46c-5.7-16.2-10.5-33.1-14.4-50.9  c-2.9,1.6-7.7,0.9-10.4-0.3c0,12.2,3.6,22.9,7.5,33c9.4,24.3,16.8,51.2,28.7,72.8c6.1,11,13.2,21.8,27.7,22.2  C321.6,244,310,221,305,195.1c-1.7-8.9-2.7-18.1-4.9-27.1c-1.2-5-3.4-10.4-5.2-15.7c-3.7-10.8-8-19.9-14-27.4  c-1.8,1.6-5.5-0.3-7.2,0.3C277.8,129.6,277.6,137.2,279.6,143.9z M69.4,127.9c0-0.2,0-0.4-0.3-0.3c-6.6,10.1-11.2,20.1-14.4,33  c-4.2,17.5-5.6,40.7-10.8,58.1c-5.1,17.1-13.2,34.7-18.3,51.2c2.6-0.3,4.5-1.2,7.2-1.3c9.8-4.5,14.9-13.6,19.3-23.2  c13.3-29.1,23.7-63.1,33-95.3c-1.6-2.6-1-7.6-0.3-10.8c-2.9,1.7-6.3,2.3-10.1,1c-6.1,30.7-14.9,60.2-25.1,86.8  c-1.5,3.8-2.1,8.2-5.2,11.1c7.8-24.7,16.4-50.4,23.2-75.7c1.2-4.5,2.1-9,3.3-13.4c1.3-4.7,1.7-9.1,2.6-14c0.6-3,2.8-6.1,2.6-7.5  C73.8,127.9,71.7,128.5,69.4,127.9z M214,261.7c7.8,11.8,18.9,24.4,26.8,37.2c1.7,2.8,4.5,6.1,2.3,7.8c-4,0.6-8,1.1-12.4,1.3  c-1,3.4-5.2,3.5-6.9,6.2c3.5,4.3,7-1.7,10.4-2.3c2.2-0.4,5,0.6,7.5,0.3c2.5-0.3,4.4-1.2,6.9-1.6c0.8,2.3,4.3,2,7.2,2.3  c2.9,4.2,10.6,3.6,11.7,9.5c5.3-0.3,4.4,7.3,9.1,6.5c1.3-1.6-1.4-4.8,0-7.5c-0.9-2.1-3.4-1.9-5.2-2.9c-1.2-0.7-1.8-2.1-2.9-2.9  c-1.8-1.4-4.5-2.7-6.5-3.9c-2.1-1.2-5.1-2.1-5.2-4.6c6.7,5.2,17-0.8,25.5-1.3c-0.2,4.4,5.4,4.3,5.5,0.3c2.4,0.7,3.6,2.8,7.2,2.3  c0.8,2.9,4.3,8.2,7.5,4.6c-0.9-3.2-4.5-3.6-5.5-6.5c0.6-0.6,0.9-1.5,1-2.6c-7,1.9-9.8-3.9-15.3-3.9c-6.7,0-13.7,8-21.2,2.6  c1.6-1.8,3.3-3.5,3.6-6.5c1.3-0.1,2.4-0.5,3.3-1c0.7-1.8-0.7-2.3-1-3.9c1.5-0.4,2.6-1.3,4.2-1.6c1.3,2.2,7.9,1.8,7.8-1.3  c-4.5-2.1-12.7-2.9-15.3,1c-1.5,2.3-1.3,6.1-2.9,8.5c-2.5,3.7-6.4,4.2-12.1,3.6c-9.4-16.3-19.8-31.5-29.4-47.6  C215,253.6,214.2,257.4,214,261.7z M139.2,263.3c-1.8-0.1-3.6-1.5-4.9-1c-0.2,0-0.4,0-0.3,0.3c-6.4,7.8-15.7,19.9-22.5,28.7  c-2.7,3.4-4.7,7.2-7.2,10.1c-6.1,7.4-10-5.5-12.1-10.8c-3.8-2.7-10.1-2.9-14.7-4.9c-1.7,2-5.4,2-5.9,5.2c1.5,2.3,4.1-0.3,5.9-0.7  c1.8,2.2,6.1,0.6,8.5,1c0.9,0.7,0.4,2.6,1,3.6c5.1,0.3,3.4,7.4,6.9,9.5c-3.9,0.8-7-0.8-10.1-1.6c-3.2-0.9-7.4-2.7-10.1-2.6  c-3.7,0.2-6.4,4.3-10.4,5.2c-1.3,0.3-2.4-0.5-3.9,0.7c-0.8,1,0.8,1.8,0.3,3.6c-3.3,1.5-6.4,8,1.3,6.9c2-1.4,2.2-4.8,3.9-6.5  c3.2-0.5,5-2.4,8.2-2.9c1,3.7,4.6,1.9,5.9-0.3c3.9,1.9,10.4,1.3,15,2.6c-4.3,7.8-12.9,11.4-18.9,17.6c4,2.4,0.8,7.1,0.7,10.1  c5.1,0.8,4.4-6.8,6.2-10.4c5.9-1,9-4.7,11.4-9.1c3.8-0.4,6.3-2.1,7.5-5.2c4.1-0.2,10.5-2.5,13.1,0.7c2,0.1,3.6-0.1,5.2-0.3  c1.4,1.4,6.2,4.5,8.2,1.3c0-1.6-1.9-1.1-2.9-1.6c-1-1.4-1.7-3.1-2.6-4.6c-3.2-1-11.7,2.5-12.7-1.3c-0.4-1.4,2.5-4.6,3.3-5.5  c9.4-11.6,21.1-23.6,28.4-34.9C139.9,265.2,139.5,264.4,139.2,263.3z M274,284.2c0.6,0.5,1.2,1,2.3,1c0.5-1.1,3.1-2.9,1.6-3.9  C276.8,282.4,274.1,282,274,284.2z M74.3,286.2c0.6-0.5,1.2-1,1-2.3c-1.6-0.7-3.3-1.3-5.5-1.3C70.3,284.7,71.9,285.8,74.3,286.2z   M299.1,306.7c0.4,0.1,0.5,0.4,0.7,0.7c2.3-0.7,4.5-1.3,5.5-3.3C303.2,301.7,299,303.2,299.1,306.7z M228,308.7c0.5-0.5,1.2-0.8,1-2  c-0.3-0.1-0.4-0.3-0.3-0.7C224.3,304.2,224.1,308.5,228,308.7z M124.9,308.7c1.8,0,2.9-0.8,3.3-2.3  C126.5,305.3,123.3,306.6,124.9,308.7z M52.8,310c2.3,0.9,6.1,0,4.6-2.9C54.9,306.4,53.1,307.6,52.8,310z M278.6,324.7  c1.4,0.4,3,0.7,4.9,0.7C283.9,322.3,278.2,320.3,278.6,324.7z M70.1,333.8c1.8-0.8,3.4-1.8,5.2-2.6c0.2-1.2-0.7-1.3-0.7-2.3  C71.6,329,69.8,330.3,70.1,333.8z M274.7,34.3c1.3-1.7,3.4-2.5,4.6-4.2c-2.4-0.5-5.1-0.5-7.5-1c-0.9,0-1.7,0-2.6,0  c-1.1-0.4,0.9-0.4,1.3-0.3c4.6,0.2,10-0.4,14,0.3c-0.9,1.7-3.6,1.7-4.2,3.6c11.9,1.3,25.5-1.3,34.6-4.9c2-0.6-0.7,0.9-1.6,1.3  C303.8,33.4,289.4,34.6,274.7,34.3z M288.4,53.2c-0.6-0.1-0.8,0.4,0,0.3c12,4.4,27.4,10.3,43.7,7.2  C315.6,61.3,301.7,56.8,288.4,53.2z M324.3,102.8c-11.7-7.7-21.9-18.5-31.6-27.1C301.4,86.2,312.1,96.7,324.3,102.8z M77.3,31  c-2.7,1-6.8,0.6-9.1,2c1,1.5,2.8,2.2,4.6,2.9c-14.2,2.5-31.1,0.2-41.4-4.2c9.6,2.3,23.1,4.8,35.9,3.9c-0.8-1.8-3.1-2.2-4.6-3.3  C66.9,31.5,73,30.8,77.3,31z M60.9,56.4c0-0.4-0.1-0.8-0.7-0.7c-13.2,4.6-26.8,8.9-43.7,9.8C34.8,67.3,47.7,60.8,60.9,56.4z   M56,78.6c-8.5,11.2-18.6,20.8-30.3,28.7c1.4-2.1,3.8-3.4,5.9-5.2C37.6,97,44,91,49.2,84.8C52.5,83.8,53.1,80,56,78.6z"/>
<path id="Rechte_Kralle" fill="#F5D306" d="M219.5,253.5c9.6,16.1,20,31.3,29.4,47.6c5.7,0.6,9.5,0.1,12.1-3.6  c1.7-2.4,1.4-6.2,2.9-8.5c2.6-3.9,10.9-3.1,15.3-1c0,3.1-6.5,3.5-7.8,1.3c-1.7,0.3-2.7,1.2-4.2,1.6c0.3,1.6,1.7,2.2,1,3.9  c-0.9,0.5-2,0.9-3.3,1c-0.3,3-2,4.8-3.6,6.5c7.5,5.3,14.5-2.6,21.2-2.6c5.6,0,8.3,5.8,15.3,3.9c-0.1,1.1-0.3,2.1-1,2.6  c1.1,3,4.7,3.4,5.5,6.5c-3.2,3.7-6.7-1.7-7.5-4.6c-3.6,0.5-4.8-1.5-7.2-2.3c-0.1,4-5.7,4.1-5.5-0.3c-8.5,0.5-18.7,6.5-25.5,1.3  c0.1,2.5,3.1,3.3,5.2,4.6c2,1.2,4.8,2.5,6.5,3.9c1.1,0.9,1.7,2.3,2.9,2.9c1.8,1,4.4,0.8,5.2,2.9c-1.4,2.8,1.3,5.9,0,7.5  c-4.7,0.8-3.8-6.9-9.1-6.5c-1.2-5.9-8.8-5.3-11.7-9.5c-2.9-0.3-6.3,0-7.2-2.3c-2.5,0.4-4.3,1.3-6.9,1.6c-2.5,0.3-5.3-0.7-7.5-0.3  c-3.4,0.6-6.9,6.6-10.4,2.3c1.7-2.7,5.9-2.8,6.9-6.2c4.4-0.2,8.4-0.7,12.4-1.3c2.2-1.8-0.5-5-2.3-7.8c-7.9-12.8-19-25.4-26.8-37.2  C214.2,257.4,215,253.6,219.5,253.5z M274,284.2c0.6,0.5,1.2,1,2.3,1c0.5-1.1,3.1-2.9,1.6-3.9C276.8,282.4,274.1,282,274,284.2z   M299.1,306.7c0.4,0.1,0.5,0.4,0.7,0.7c2.3-0.7,4.5-1.3,5.5-3.3C303.2,301.7,299,303.2,299.1,306.7z M228,308.7c0.5-0.5,1.2-0.8,1-2  c-0.3-0.1-0.4-0.3-0.3-0.7C224.3,304.2,224.1,308.5,228,308.7z M278.6,324.7c1.4,0.4,3,0.7,4.9,0.7  C283.9,322.3,278.2,320.3,278.6,324.7z"/>
<path id="Linke_Kralle" fill="#F5D306" d="M140.6,265.9c-7.3,11.3-19,23.3-28.4,34.9c-0.8,1-3.6,4.2-3.3,5.5c1,3.8,9.6,0.3,12.7,1.3  c0.9,1.5,1.6,3.2,2.6,4.6c1,0.5,3,0.1,2.9,1.6c-1.9,3.2-6.7,0.1-8.2-1.3c-1.6,0.2-3.3,0.4-5.2,0.3c-2.6-3.1-8.9-0.8-13.1-0.7  c-1.2,3.1-3.7,4.8-7.5,5.2c-2.5,4.4-5.5,8.2-11.4,9.1c-1.8,3.6-1.1,11.3-6.2,10.4c0.2-3.1,3.3-7.7-0.7-10.1  c6-6.2,14.6-9.8,18.9-17.6c-4.6-1.3-11.1-0.7-15-2.6c-1.3,2.2-4.8,4-5.9,0.3c-3.2,0.5-4.9,2.5-8.2,2.9c-1.7,1.8-1.9,5.1-3.9,6.5  c-7.7,1.1-4.6-5.4-1.3-6.9c0.5-1.8-1.1-2.5-0.3-3.6c1.5-1.2,2.6-0.4,3.9-0.7c4-0.9,6.7-5,10.4-5.2c2.7-0.1,7,1.7,10.1,2.6  c3.2,0.9,6.3,2.5,10.1,1.6c-3.4-2-1.7-9.1-6.9-9.5c-0.6-0.9-0.1-2.9-1-3.6c-2.3-0.3-6.7,1.2-8.5-1c-1.8,0.4-4.3,3-5.9,0.7  c0.5-3.2,4.2-3.2,5.9-5.2c4.6,2,10.9,2.2,14.7,4.9c2,5.3,5.9,18.1,12.1,10.8c2.5-2.9,4.5-6.7,7.2-10.1c6.8-8.8,16.2-20.9,22.5-28.7  c-0.1-0.3,0.1-0.3,0.3-0.3c1.3-0.5,3.1,0.9,4.9,1C139.5,264.4,139.9,265.2,140.6,265.9z M74.3,286.2c0.6-0.5,1.2-1,1-2.3  c-1.6-0.7-3.3-1.3-5.5-1.3C70.3,284.7,71.9,285.8,74.3,286.2z M128.2,306.4c-0.3,1.5-1.5,2.2-3.3,2.3  C123.3,306.6,126.5,305.3,128.2,306.4z M57.3,307c1.5,2.9-2.2,3.8-4.6,2.9C53.1,307.6,54.9,306.4,57.3,307z M74.6,328.9  c-0.1,1,0.9,1.1,0.7,2.3c-1.8,0.8-3.4,1.8-5.2,2.6C69.8,330.3,71.6,329,74.6,328.9z"/>
<path id="Rechter_Kleestengel" fill="#F5D306" d="M271.7,47c1.4,2.8,0,5.6-1,7.8c11.4-3.2,10.7,13.2,0,10.1  c3.2,44.4-17.6,70.4-57.1,74.4c-0.3-1.7-0.8-3.3-1-5.2c15.9-2.2,29.8-6.5,39.8-16c11.7-11.1,19.8-33,13.7-53.8  c-4.4,2-12.2-0.7-9.5-7.8c1.4-1.2,3.2-2,6.2-1.6C258.7,49.3,265.4,42.3,271.7,47z"/>
<path id="Linker_Kleestengel" fill="#F5D306" d="M81.2,64c-4.9,40.8,16.7,68.5,56.1,69.5c0.4,1.5,0.3,3.6,0.3,5.5  c-19,0.7-34.9-8.3-44.4-18.9c-9.3-10.5-14-25.5-15.7-41.4c-0.5-4.6-0.3-9.3,0-14c-8.5,3.7-12.2-10.7-1.6-9.8  c-0.2-1.2-1.7-4.5-0.7-7.2c5.1-5.5,13.7,2.3,7.8,7.5C94.8,52.6,91.7,69.7,81.2,64z"/>
<path id="Schnabel" fill="#F5D306" d="M165.3,58.4c8.4-4,24.4,4.5,28.7-4.2c1.4-2.9,0.8-7.4,0-9.5c-2.8-7.3-16.6-11.6-24.1-6.2  c-5.5-5.1-19.4-4.9-20.9,3.6c-3.3-7.6,3.3-13.3,10.1-14c1.5-1.5,2.6-6.6,6.2-3.9c1.5,9.3,13,8.4,21.5,11.7  c4.9,1.9,11.2,6.6,12.1,11.1c1,4.9-2.2,10-4.9,12.1C186.8,64.7,172.7,61.1,165.3,58.4z"/>
<path id="Zunge" fill="#E64625" d="M190.8,50.2C178.4,49,162,49.5,151,52.5C160.1,46.4,179,46.7,190.8,50.2z"/>
<path id="Gefieder" d="M283.8,83.2c-0.4,1.4-3.9,1.2-5.2,0.7C278.8,81.7,282.5,82.6,283.8,83.2z M276.9,94.3c2.1-0.2,5,0.4,6.5-0.3  C281.6,93.7,277.8,91.6,276.9,94.3z M275,105.7c2.4,0.4,4.5,2.5,7.2,1.6c-1.7-1.8-4.9-2-7.2-3.3C275,104.6,275,105.2,275,105.7z   M270.4,116.5c3.1,0.7,5,2.6,8.2,3.3c-2-2.3-5.3-3.4-8.2-4.9C270.4,115.4,270.4,115.9,270.4,116.5z M263.9,126.9  c2.9,1.1,4.7,5.1,7.8,4.9c-2.3-2.8-4.6-5.7-7.8-7.5C263.1,125.1,263.9,125.9,263.9,126.9z M260.6,144.2c-1.6-4-2.8-8.5-6.2-10.8  C255.9,137.6,257.4,141.8,260.6,144.2z M245.3,153.7c-0.3-3.9-1.6-9.4-3.9-12.4C241.4,145.5,243.5,150.3,245.3,153.7z M229,158.6  c-0.3-4.5-1.7-7.9-2.3-12.1c-0.5,0-1.1,0-1.6,0C225.9,151,226.3,155.9,229,158.6z M70.4,86.5c-1.2-1-5.1,0.7-5.2-1.3  C66.8,84.9,70.3,84.2,70.4,86.5z M65.8,97.2c2.4-0.2,5.3,0.1,6.5-1.3C70.4,94.2,67,96.1,65.8,97.2z M67.5,110  c3.1-0.7,7.2-0.4,7.8-3.6C72.8,107.7,68.9,107.6,67.5,110z M71.7,121.7c3.2,0.2,7.2-1.5,8.2-4.6C76.7,118.2,74.2,120,71.7,121.7z   M79.2,134.1c3.1-0.6,7.5-4.4,7.5-8.2C83.6,128,81.5,131.2,79.2,134.1z M90.6,145.9c2.2-0.4,2.5-3.3,3.3-4.9c0.9-2,1.9-4,2.6-5.9  c-0.4,0-0.5-0.4-1-0.3C93.7,138.2,91.8,141.7,90.6,145.9z M106.6,155c1-4,3.3-8.4,3.3-12.4c-0.3,0-0.7,0-1,0  C108,146.2,106,152.1,106.6,155z M123.3,159.2c1.7-3.3,2.7-7.3,2.6-12.4c-0.3,0-0.7,0-1,0C124.1,150.5,122.8,155.4,123.3,159.2z   M176.4,233.9c0.8,5,1.4,11.4,0.7,17C175.5,246.5,175.5,239.1,176.4,233.9z M176.1,289.1c-2-16.4-3.6-33.2-5.9-49.3  c-0.6,12.3,1.1,23.1,2.9,35.2c1.4,9.4,2.3,19.3,2.9,29c1.1,18.3,0,37.3,1,55.8c0.1,2.1,0.2,4.3,1.3,6.5  c-3.7-44.1,3.5-86.7,5.9-126.9C182.7,257.2,182.3,276,176.1,289.1z M196.7,83.9c0.9,0-0.3,4.9,1,5.5c0.6,0.1,1-1.5,1.3-0.7  c-0.3,1.7-1.1,2.8-1.3,4.6C194.9,91.7,196.6,87.1,196.7,83.9z M189.2,110.6c0.2-2.7,2.2-5.2,2-7.2c-0.9,0.5-0.9,1.9-2,2.3  c-0.9-1.1,0.3-4.2-0.7-5.2C187.4,103,185.9,109.3,189.2,110.6z M172.9,136.1c0.3-2,1.4-3.1,1-5.9c-1.7-0.4,0.4,3-1.3,2.6  c-3.7-3.1-0.8-13.2-2-17.3C170.2,122.2,167.7,132.7,172.9,136.1z M167.6,127.3c-0.2-2.2-2.4-1.6-3.6-2.6c-2.1-1.9-1.6-4.6-2.3-8.2  C160.7,121.9,161.8,127.6,167.6,127.3z M181.7,133.1c0.1-0.3,0.3-0.4,0.7-0.3c0.3-1.2,0.6-2.8,0-3.9c-1.4-0.5-0.1,1.7-1,1.6  c-2.9-1.6-2.8-6.1-3.9-9.5C177.8,126.1,177.2,132.2,181.7,133.1z M174.8,165.4c5.3-0.6,5.9-11.6,5.9-17.6c-1.5,3.9-1.3,16.3-6.5,16  c-4.9-0.3-4.9-11.7-6.2-16C168.4,154.7,168.6,166.2,174.8,165.4z M185.9,174.2c0.8,6.4-1.8,15.9,1,21.5c5,0.9,7.2-5.3,8.8-8.8  c1.9-4.1,3.3-8.1,3.9-11.4c0.3,8.9-4,16-8.2,21.5c-3.7,2.1-6.2-0.7-7.5-2.9c-2.8,3.2-3.6,9-8.5,9.1c-5.5,0.2-6.7-7-8.8-11.7  c-2.3,2.4-1.2,6.7-5.5,6.9c-6.8,0.2-9.3-15.4-11.1-20.9c1.8,3.2,2.7,6.7,4.6,10.8c1.2,2.7,3.5,8.5,6.5,8.5c5.6-0.1,3.7-16,3.6-21.5  c1.8,10.1,3.6,20.3,9.8,26.1C183.9,197.9,183.6,184.7,185.9,174.2z M183.9,204.6c1.9,4.4-3,13.6,2.3,16c6.2-1.8,6.3-9.8,8.8-15.3  c0.1,8-3.6,20-12.7,16.6c-1.2,2-2.3,4.1-3.9,5.5c-2.1,0.4-3,0.1-5.2,0c-1.6-1.8-2.9-3.9-3.9-6.2c-6.2,7.4-11.6-6.5-12.4-13.4  c2.3,4.3,3,14,8.5,13.4c5.5-0.7,1.2-10.4,2-16c1.6,6,2.1,20.7,9.5,19.9C182.8,224.5,181.9,209.6,183.9,204.6z M183.3,111.9  c-0.3,5.8,0.2,13.4,4.2,16c1.8,0.7,1.6-1.8,2.6-1c0.8,1.1-0.3,2.3-1,2.9C182.9,128.4,182.5,119.4,183.3,111.9z M150.7,143.6  c1.7,5.1,2.9,13.2,5.2,17.6c0.5,1,2.1,3.4,3.6,3.3c3.4-0.4,4.4-11.8,4.6-16c0.1-1.3,0-2.9,0-4.2c2.3,7.2,2,18.9,6.5,23.8  c1.8,1.9,3.8,2.3,6.2,0.7c5.5-3.9,6.9-15.2,7.8-24.1c1,4.4-0.7,16.1,3.3,19.6c6.7-2.1,7-10.6,8.2-18.3c1.5,4,0.1,10.8,2.9,13.4  c5.3-2.6,6.1-9.8,7.5-16.3c0.7,3.5-1.9,19.5-7.2,18.6c-2.2-0.4-1.6-3.9-3.6-5.2c-0.9,6.7-8.4,15.8-11.7,5.2  c-3.6,3.7-3.6,11-11.4,10.4c-4.3-3-5.6-9-8.2-13.7c-1.4,2.5-2.2,5.4-3.3,8.2c-5.7,1.3-6.6-4.6-8.2-8.5c-1.9,0.5-2.1,2.6-3.6,3.6  c-6.1-2.5-5.6-11.5-6.2-19.6c1.5,6.8,1.3,15.2,6.5,18.3C152.9,157,150.7,148.6,150.7,143.6z M168.6,183.7c2.6,3.6,2.8,9.6,6.2,12.4  c4.4-1.7,4.6-7.6,6.2-12.1c0,5.5-1,14.3-7.5,13.4C171.1,193.6,169.7,188.8,168.6,183.7z M181.7,207.2c-0.2-1.6,1,0.3,0,0.3  c-0.5,5.3-1.5,12.9-5.5,13.4c-4.6,0.6-5-7.9-6.2-12.4c2,3.4,2.3,8.6,5.9,10.4C179,216.3,179.9,211.3,181.7,207.2z"/>
<path id="Auge" fill="#FFFFFF" d="M180.4,27.1c1,0.3,1,1.6,2.3,1.6c1.5-0.4,2.1-1.6,3.9-1.6C188.1,30.1,179.6,31.2,180.4,27.1z"/>
</svg>