<svg id="Ebene_1" data-name="Ebene 1" xmlns="http://www.w3.org/2000/svg" viewBox="0 0 462.29 132.01"><defs><style>.cls-1{fill:#3f93cc;}</style></defs><title>logo_transparency_final</title><path class="cls-1" d="M167.18,279.79a10.84,10.84,0,1,0-10.84,10.85,10.84,10.84,0,0,0,10.84-10.85" transform="translate(-95 -242.23)"/><path class="cls-1" d="M172.09,364.16c-5.69-4.21-8.48-20.55-8.48-32.28,0-1.78.1-3.54.26-5.28h-.12a121.47,121.47,0,0,1-24-2.35C139,336.38,143.22,353,147,363.06c-.75-.19-1.52-.37-2.25-.59-5.35-11.49-8.68-25.9-9.15-41.63a92.13,92.13,0,0,0,26.69,2.92c31.17-1,56.14-16.35,57.29-34.66a59.78,59.78,0,0,1-47.48,75.06Zm-56.26-80.32a21.31,21.31,0,0,1-5.7-8.29,60,60,0,0,1,29.78-25.87,77.25,77.25,0,0,0-24.08,34.16Zm-13.6,21.39a60.14,60.14,0,0,1,.94-10.45,26.37,26.37,0,0,0,7.67,13.06c-.12,1.85-.19,3.72-.19,5.62a86.8,86.8,0,0,0,5.21,29.79,59.54,59.54,0,0,1-13.63-38Zm93.42-53.17c-.13-.08,0,0-.12-.05l-1.68,2.63.16.1a60,60,0,0,1,16.57,15.66s0,.08,0,.12c0,14.92-22.69,27-50.68,27a88.58,88.58,0,0,1-22.39-2.78c4.67-25,17-44.06,32.17-48.82a59.29,59.29,0,0,1,14.63,3.82,15.51,15.51,0,0,0,1.36-2.75,61.64,61.64,0,0,0-6-2.1,66,66,0,1,0,16,7.13" transform="translate(-95 -242.23)"/><path class="cls-1" d="M254.88,256.78h-8.35l0-4.73h22.08l0,4.73h-8.22l-.22,25h-5.51Z" transform="translate(-95 -242.23)"/><path class="cls-1" d="M273.13,252h9.43c7.19,0,10.11,3.87,10.11,8.61,0,3.79-2.28,6.5-5.77,7.75l8.48,11.1-4.91,2.93-8.26-11.49a2.26,2.26,0,0,0-2-1h-1.72l0,11.92h-5.64ZM282,265.43c1.64,0,4.91-.73,4.91-4.61,0-2.84-2.24-4.3-5-4.3h-3.19l-.09,8.91Z" transform="translate(-95 -242.23)"/><path class="cls-1" d="M301.75,282.43l-5.12-1.55L308.08,252h5.08l10.63,28.84-5.38,1.55-2.93-8.52H305.11Zm8.78-24.62h-.09l-3.74,11.62H314Z" transform="translate(-95 -242.23)"/><path class="cls-1" d="M327.23,253l5.12-1.55,13.9,22.81h.09L346,252h5.51l-.26,28.84-5.55,1.55-13.56-22.68-.09.09.43,22H327Z" transform="translate(-95 -242.23)"/><path class="cls-1" d="M357.92,275.93a11,11,0,0,0,5.25,2c3.06,0,4.78-1.94,4.78-4.3,0-5.94-12.22-3.4-12.22-13.56,0-4.86,4-8.65,9.94-8.65a17,17,0,0,1,8.39,2.5l-2.32,4c-1.81-1-3.49-2-5.64-2-2.5,0-4.86,1.33-4.86,4,0,5.85,12.48,4,12.48,13.51,0,5.08-4.09,9-9.86,9a15.85,15.85,0,0,1-8.09-2.28Z" transform="translate(-95 -242.23)"/><path class="cls-1" d="M378.36,252h8.39c7.79,0,10.89,3.53,10.89,9.08,0,6.11-5.08,9-10.85,9h-3.06l0,11.66h-5.64Zm8.26,13.64c3,0,5.25-1.81,5.25-4.61,0-1.81-1-4.56-5-4.56h-2.93l-.09,9.17Z" transform="translate(-95 -242.23)"/><path class="cls-1" d="M400.62,282.43l-5.12-1.55L406.94,252H412l10.63,28.84-5.38,1.55-2.93-8.52H404Zm8.78-24.62h-.09l-3.74,11.62h7.27Z" transform="translate(-95 -242.23)"/><path class="cls-1" d="M426.35,252h9.43c7.19,0,10.11,3.87,10.11,8.61,0,3.79-2.28,6.5-5.77,7.75l8.48,11.1-4.91,2.93-8.26-11.49a2.26,2.26,0,0,0-2-1h-1.72l0,11.92h-5.64Zm8.87,13.39c1.64,0,4.91-.73,4.91-4.61,0-2.84-2.24-4.3-5-4.3h-3.19l-.09,8.91Z" transform="translate(-95 -242.23)"/><path class="cls-1" d="M452.65,252h15.92v4.73H458.16l-.09,7.66H468.4v4.48H458l0,8.18h10.59v4.73H452.35Z" transform="translate(-95 -242.23)"/><path class="cls-1" d="M474.13,253l5.12-1.55,13.9,22.81h.09L492.89,252h5.51l-.26,28.84-5.55,1.55L479,259.75l-.09.09.43,22h-5.51Z" transform="translate(-95 -242.23)"/><path class="cls-1" d="M528,279.55a16.48,16.48,0,0,1-9.47,2.88A15,15,0,0,1,503,267c0-9.17,6.37-15.58,15.24-15.58a15.1,15.1,0,0,1,9.73,3.44l-2.41,3.83a11.94,11.94,0,0,0-7.14-2.54c-5.81,0-9.64,4.65-9.64,10.59,0,5.68,3.92,10.93,9.47,10.93a13.29,13.29,0,0,0,7.49-1.94Z" transform="translate(-95 -242.23)"/><path class="cls-1" d="M538.34,269.47l-9.86-15.19,5-2.84,7.79,12.74,8.09-12.74,4.86,2.8L544.11,269.3l-.17,12.52h-5.77Z" transform="translate(-95 -242.23)"/><path class="cls-1" d="M248.5,342.94h7.05c6.74,0,11.23,4.21,11.23,10.58a10.91,10.91,0,0,1-11.1,10.83h-7.36Zm6.37,18c4.64,0,7.76-2.69,7.76-7.45a6.77,6.77,0,0,0-7-7.14h-3.25l-.12,14.6Z" transform="translate(-95 -242.23)"/><path class="cls-1" d="M273.49,357c0,2.13,1,4.73,3.59,4.73a5.19,5.19,0,0,0,3.62-2l2.17,2a8.51,8.51,0,0,1-6.34,3.06c-4,0-6.8-3.28-6.8-8.17,0-4.14,2.57-8.29,7.11-8.29,4.39,0,6.43,3.25,6.43,8.69Zm6.19-2.66c-.09-1.67-.87-3.37-2.85-3.37-1.7,0-3,1.83-3.15,3.37Z" transform="translate(-95 -242.23)"/><path class="cls-1" d="M299.38,364.34H295.6v-1.89h-.06a6.51,6.51,0,0,1-4.82,2.32c-3.43,0-4.33-2.26-4.33-5.29,0-1,0-1.92,0-2.91l.09-7.83h3.77l0,3.9c0,2.26-.06,4.45-.06,6.15s.46,2.57,2,2.57c1.18,0,2.47-1.11,3.43-2l.06-10.58h3.77Z" transform="translate(-95 -242.23)"/><path class="cls-1" d="M312.3,363.47l-1.27.68a4.75,4.75,0,0,1-2.35.62c-2.6,0-4.24-1.36-4.24-4.67,0-.71,0-2.38,0-3.74l.09-4.76h-2.1v-2.85l2.1.06.12-5.57h3.77l-.12,5.57,3.46-.06v2.85h-3.46l-.09,4.58c0,1.55,0,3,0,4.11s.34,1.64,1.27,1.64a3.11,3.11,0,0,0,1.73-.74Z" transform="translate(-95 -242.23)"/><path class="cls-1" d="M315,360.63a7.71,7.71,0,0,0,3.9,1.3c1.14,0,2.17-.56,2.17-1.83,0-3.12-7.27-.71-7.27-7,0-3.22,2.72-4.82,5.75-4.82a8.51,8.51,0,0,1,5.29,1.7l-1.61,2.38a6.27,6.27,0,0,0-3.43-1.24c-1.08,0-2.41.59-2.41,1.86,0,3,7.45,1.11,7.45,6.77,0,3.34-2.85,5-5.88,5a10.48,10.48,0,0,1-5.35-1.48Z" transform="translate(-95 -242.23)"/><path class="cls-1" d="M340.08,361.8a7.19,7.19,0,0,1-5.81,3c-4.45,0-6.77-4.21-6.77-8,0-4.3,2.69-8.47,7.33-8.47a7.16,7.16,0,0,1,5.44,2.63L338.13,353a4.89,4.89,0,0,0-3.15-1.49c-2.35,0-3.53,2.54-3.53,4.92,0,3.28,1.45,5.1,3.34,5.1a4.41,4.41,0,0,0,3.19-1.73Z" transform="translate(-95 -242.23)"/><path class="cls-1" d="M342.55,341.14h3.77l-.06,9.5h.06a6.72,6.72,0,0,1,5-2.32c3.28,0,4.14,2.29,4.14,4.7,0,1.55,0,2.5,0,3.49l-.09,7.83h-3.77l0-3.9c0-2.41.06-5.38.06-6.62s-.46-2.1-2-2.1c-1.18,0-2.47,1.11-3.43,2l-.06,10.58H342.4Z" transform="translate(-95 -242.23)"/><path class="cls-1" d="M360.33,341.14h3.77l-.19,23.2h-3.77Z" transform="translate(-95 -242.23)"/><path class="cls-1" d="M368.38,351.47c3.4-2.78,5.13-3.15,6.8-3.15a4.22,4.22,0,0,1,4.45,4.48c0,.56,0,.9,0,1.3l-.12,4.48c0,.71-.06,1.3-.06,1.95,0,.87.43,1.48.84,1.48a3.12,3.12,0,0,0,1.11-.4l.9,1.89a5.74,5.74,0,0,1-3.25,1.27,2.61,2.61,0,0,1-2.69-2.07,5.33,5.33,0,0,1-4,2.07,4.34,4.34,0,0,1-4.67-4.55c0-2.5,1.61-4.67,8.35-5.78v-1c0-1.73-.74-2.07-1.79-2.07-.77,0-1.7.31-4.05,2.13Zm7.61,5.38c-3.59.8-4.73,1.67-4.73,3.25a1.78,1.78,0,0,0,2,1.83,4,4,0,0,0,2.69-1.45Z" transform="translate(-95 -242.23)"/><path class="cls-1" d="M384.64,348.75h3.71v1.89h.06a6.72,6.72,0,0,1,5-2.32c3.28,0,4.14,2.29,4.14,4.7,0,1.55,0,2.5,0,3.49l-.09,7.83h-3.77l0-3.9c0-2.41.06-4.27.06-6.12s-.46-2.6-2-2.6c-1.18,0-2.47,1.11-3.43,2l-.06,10.58h-3.77Z" transform="translate(-95 -242.23)"/><path class="cls-1" d="M411.52,362.64h-.06a4.79,4.79,0,0,1-3.87,2.07c-3.8,0-6.53-3.31-6.53-7.95,0-4.21,2.41-8.38,6.77-8.38a4.31,4.31,0,0,1,3.46,1.48h.06l.09-8.72h3.77l-.09,23.2h-3.62ZM411.3,353a3.23,3.23,0,0,0-2.63-1.42c-2,0-3.84,1.95-3.84,5,0,2.88,1.58,4.92,3.74,4.92a3,3,0,0,0,2.72-2.44Z" transform="translate(-95 -242.23)"/><path class="cls-1" d="M431.19,357c0,2.13,1,4.73,3.59,4.73a5.19,5.19,0,0,0,3.62-2l2.16,2a8.51,8.51,0,0,1-6.34,3.06c-4,0-6.8-3.28-6.8-8.17,0-4.14,2.57-8.29,7.11-8.29,4.39,0,6.43,3.25,6.43,8.69Zm6.19-2.66c-.09-1.67-.87-3.37-2.85-3.37-1.7,0-3,1.83-3.15,3.37Z" transform="translate(-95 -242.23)"/><path class="cls-1" d="M443.62,360.2h4.14v4.14h-4.14Z" transform="translate(-95 -242.23)"/><path class="cls-1" d="M450.83,343.77l4-1.27,5.47,16.82h.06l6.15-16.82,3.83,1.27-8.16,20.57h-3.71Z" transform="translate(-95 -242.23)"/><path class="cls-1" d="M468.77,360.2h4.14v4.14h-4.14Z" transform="translate(-95 -242.23)"/><path class="cls-1" d="M249,295.95h5.51l-.26,29.78h-5.51Z" transform="translate(-95 -242.23)"/><path class="cls-1" d="M261.12,296.89l5.12-1.55,13.9,22.81h.09l-.34-22.21h5.51l-.26,28.84-5.55,1.55L266,303.65l-.09.09.43,22h-5.51Z" transform="translate(-95 -242.23)"/><path class="cls-1" d="M297.06,300.68h-8.35l0-4.73h22.08l0,4.73h-8.22l-.22,25h-5.51Z" transform="translate(-95 -242.23)"/><path class="cls-1" d="M314.66,295.95h15.92v4.73H320.17l-.09,7.66h10.33v4.48H320l0,8.18h10.59v4.73H314.36Z" transform="translate(-95 -242.23)"/><path class="cls-1" d="M336.18,295.95h9.43c7.19,0,10.11,3.87,10.11,8.61,0,3.79-2.28,6.5-5.77,7.75l8.48,11.1-4.91,2.93-8.26-11.49a2.25,2.25,0,0,0-2-1h-1.72l0,11.92h-5.64ZM345,309.33c1.64,0,4.91-.73,4.91-4.6,0-2.84-2.24-4.3-5-4.3h-3.18l-.09,8.91Z" transform="translate(-95 -242.23)"/><path class="cls-1" d="M360.72,296.89l5.12-1.55,13.9,22.81h.09l-.34-22.21H385l-.26,28.84-5.55,1.55-13.56-22.68-.09.09.43,22h-5.51Z" transform="translate(-95 -242.23)"/><path class="cls-1" d="M392.87,326.33l-5.12-1.55,11.45-28.84h5.08l10.63,28.84-5.38,1.55-2.93-8.52H396.22Zm8.78-24.62h-.09l-3.74,11.62h7.27Z" transform="translate(-95 -242.23)"/><path class="cls-1" d="M419.26,300.68h-8.35l0-4.73H433l0,4.73h-8.22l-.22,25H419Z" transform="translate(-95 -242.23)"/><path class="cls-1" d="M437.29,295.95h5.51l-.26,29.78H437Z" transform="translate(-95 -242.23)"/><path class="cls-1" d="M463.16,295.34c9.64,0,16,6.8,16,15.49s-6.93,15.49-16,15.49-16-6.46-16-15.49A15.62,15.62,0,0,1,463.16,295.34Zm0,26.51c6.15,0,10.2-5.12,10.2-11,0-6.33-4-11-10.2-11-5,0-10.2,4.09-10.2,11C453,317.34,457,321.85,463.16,321.85Z" transform="translate(-95 -242.23)"/><path class="cls-1" d="M482.87,296.89l5.12-1.55,13.9,22.81H502l-.34-22.21h5.51l-.26,28.84-5.55,1.55-13.56-22.68-.09.09.43,22h-5.51Z" transform="translate(-95 -242.23)"/><path class="cls-1" d="M515.45,326.33l-5.12-1.55,11.45-28.84h5.08l10.63,28.84-5.38,1.55-2.93-8.52H518.81Zm8.78-24.62h-.09l-3.74,11.62h7.27Z" transform="translate(-95 -242.23)"/><path class="cls-1" d="M540.37,295.95h5.51l-.26,25h11.66v4.73H540.12Z" transform="translate(-95 -242.23)"/></svg>