<svg width="461.22" height="531.66" version="1.0" xmlns="http://www.w3.org/2000/svg">
 <path d="m196.75 3.1977c9.18 2.683 18.16 6.1933 26.21 11.659 12.07-5.5743 24.04-11.25 37.86-12.587 5.36-1.0284 11.55-1.2371 16.81-0.8273 15.06-0.1006 27.03 5.4664 39.93 10.422 7.27 3.425 14.08 6.364 21.07 9.619 9.13 4.229 20.53 10.469 29.91 14.698 13.62 7.431 28.25 10.345 44.86 10.655 15.16-1.237 28.77-5.366 40.84-13.616 2.59 1.647 5.99 7.477 5.99 7.477-7.12 5.056-12.16 13.801-13.41 22.229-2.06 13.879-2.48 30.688-2.58 31.925 0 3.101 1.29 235.47 0.83 248.27-0.21 4.95-2.17 25.63-6.51 34.4-12.79 39.41-48.4 67.26-84.33 84.85-17.28 8.46-33.17 16.71-50.29 23.21-1.24 1.44-36.21 15.58-50.76 23.94-5.85 2.76-22.7 13.06-27.86 22.14-0.61-0.82 0 0-2.62-3.53-13.16-16.24-29.4-20.89-46.42-28.88-18.66-8.76-38.17-16.51-56.74-25.28-32.502-16.71-65.563-35.84-87.739-69.68-3.92-5.36-9.363-17.36-10.832-20.02-3.302-7.65-4.848-14.02-6.912-21.03-0.774-6.62-2.274-11.97-1.755-17.65 0 0 0.332-271.76-0.31-280.19-0.696-9.084-5.3889-17.69-11.992-24.702 2.1881-2.583 7.6082-6.062 7.6082-6.062 16.817 16.817 44.204 14.884 63.804 6.425 22.183-8.358 41.678-21.356 63.648-30.124 3.61-1.546 7.53-2.9919 10.94-4.5383 8.87-3.6108 18.67-4.9561 28.47-6.402 7.74 0.30927 15.27 1.0361 22.28 3.201" fill="#231f20"/>
 <path d="m303.68 14.082c36.34 12.785 68.62 39.291 108.7 39.346 8.97 4.293 32.02-11.129 31.71-2.418-7.26 19.555-5.19 41.253-5.68 61.9 2.5 58.85 0.83 117.87 0.97 176.79-1.16 35.88 4.85 75.64-16.97 106.96-21.48 33.03-56.36 54.44-91.5 70.51-41.55-22.99-76.98-58.65-95.98-102.46-9.71-20.09-9.85-42.45-9.49-64.24-0.11-64.91-0.69-130.01-0.11-194.61-0.46-27.871 0.11-55.748 0-83.605 20.33-10.645 43.75-18.698 66.73-12.017 3.94 0.969 7.8 2.278 11.54 3.844" fill="#c1001f"/>
 <path d="m303.68 14.082c19.35 7.531 34.77 15.394 41.52 18.758 6.71 3.34 20.64 10.306 27.6 12.912 12.64 4.361 20.37 5.521 25.66 6.417 9.3 1.593 20.87 1.323 20.87 1.323 4.41-0.163 11.77-2.567 13.82-2.869 0 0 10.48-3.394 11.66-3.116 2.39 0.155-0.44 1.825-0.72 3.503-1.11 0.108-2.94 7.608-3.85 14.188-1.29 9.541-1.81 25.144-1.83 32.033v15.679c2.41 3.25 0.7 207.29 0.72 225.51 0 3.09-0.45 8.76-1.03 11.86 0 0-0.23 4.32-1.48 11.38-0.63 3.61-3.81 15.81-6.95 21.92-1.94 4.64-3.35 7.89-9.29 15.86-1.59 2.07-2.06 4-6.19 8.9 0 0-4.12 4.76-7.76 8.58-9 9.48-14.54 13.34-18.77 16.82 0 0-5.71 4.25-14.65 10.63-3.68 2.62-19.55 11.81-19.55 11.81-2.91 1.93-21.76 10.29-22.55 10.99-6.6-3.77-12.01-7.25-16.09-9.7-6.24-3.87-12.43-8.77-15.06-10.83-0.73-1.22-8.59-6.71-13.61-11.45-2.94-2.75-4.13-3.51-8.9-8.28-4.91-4.52-22.96-26.96-25.05-31.03-3.96-5.59-9.77-14.62-14.54-24.3-0.26-0.52-7.95-19.6-9.8-27.98-2.58-11.73-2.36-21.45-2.37-24.78l-0.52-174.03h0.21c0.85-29.69-0.67-59.219 0.19-89.249 0.37-12.658-0.74-21.426 0-33.286 2.06-0.642 4.45-2.057 9.28-4.253 4.26-1.933 10.96-4.902 16.79-6.912 4.75-1.3457 8.21-1.9256 11.71-2.5054 5.19-0.8506 9.87-0.9201 16.25-0.3866 9.16 0.7731 16.63 2.706 24.24 5.884z" fill="none" stroke="#D00" stroke-miterlimit="3.864" stroke-width=".29381"/>
 <g fill="#FFF">
  <path d="m190.1 3.9717c0.41 0.3093 0.1 0.9278 0.21 1.4459-17.23-2.7835-33.84 1.6469-48.8 7.2214-20.11 8.869-40.23 20.219-60.862 28.887h-1.755c-0.209-2.374 2.683-1.346 3.711-2.892 28.986-12.479 55.496-31.57 88.106-36.209 6.8-0.2088 13.2 0.3093 19.39 1.5464"/>
  <path d="m365.79 37.603c7.14 3.347 12.06 5.775 18.36 8.149-1.76-0.209-3.2-0.518-5.16-0.719-17.02-6.603-32.19-15.046-48.59-22.802-25.3-11.969-51.35-22.67-79.74-13.306-8.69 2.8612-17.34 6.3942-25.49 10.105-0.72-1.237 0.81-2.551 1.53-3.479 2.81-1.314 3.09-1.678 5.38-2.706 17.44-7.6316 41.42-11.482 58.57-7.6084 18.71 4.2139 36.04 13.902 53.37 21.433 7.42 3.301 14.48 7.515 21.77 10.933"/>
  <path d="m220.53 159.13c-11.66 21.35-43.12 12.28-49.51 38.37-4.44 18.16 3.09 40.44-6.5 56.23-6.61 14.13-21.05 23.93-34.36 30.43-13.1 5.47-27.85 17.74-28.27 33.22-0.1 2.58-0.92 5.36-0.2 7.63l-0.51 0.72c-0.41 19.81-1.551 40.03-12.383 55.5-9.804 13.31-23.938 21.77-39.41 24.24-2.266 0.93-5.258 0.42-7.84 0.52-3.712-5.87-7.114-10.68-10.469-17.63-2.877-5.97-4.902-12.49-6.657-18.79-2.065-7.94-4.122-15.99-3.921-24.96-0.123-2.3-0.309-3.09 1.238-2.99 6.912-0.21 12.069-4.74 16.507-9.39 2.892-4.95 4.748-10.62 4.23-16.61 0.108-21.45 0.618-42.81 14.86-58.38 15.054-20.33 51.375-15.27 52.295-46.53-0.61-22.29-5.98-46.02 9.39-63.13 7.01-9.71 17.75-15.58 28.99-17.86 2.17-1.54 7.45-2.65 9.96-4.3 9.67-4 13.05-8.18 15.52-16.23 0.33-2.6 0.83-3.4 0.72-5.25 1.35-12.383-1.75-24.87 0.73-36.831 1.44-8.049 4.54-14.861 9.69-21.046 10.42-10.624 21.67-18.263 36-19.809l-0.1 132.88z"/>
  <path d="m453.99 38.325c0 1.755-1.97 1.855-2.99 2.783-4.02 2.065-8.05 4.129-12.38 5.366-3.79 0.928-4.83 2.088-9.91 2.273-0.21-0.518-1.49-1.09-0.21-1.755 8.78-2.165 16.82-5.884 25.18-8.876l0.31 0.209z"/>
  <path d="m12.043 48.538c3.093 5.466 3.92 13.361 4.848 19.755l0.101 86.397c-0.101 6.81-0.928 13.21-0.201 19.29l0.201 173.83c0.417 2.78 1.245 5.47 1.245 8.46 1.646 7.94 3.402 15.99 6.185 23.52l-0.209 0.21c-7.221-12.59-9.696-27.96-9.487-44.05v-177.55c0.719-5.36 0.797-65.404 0.31-89.852-0.08-3.866-0.41-5.575-1.624-10.701-1.678-7.09-4.2605-10.546-7.562-16.013 2.7912 1.029 4.438 4.33 6.193 6.704"/>
 </g>
 <g fill="#231f20">
  <path d="m199.18 48.022c-8.98 6.186-13.93 16.299-14.85 26.923-2.28-0.31-0.83-3.92-1.24-5.877 0.41-2.783 1.85-5.056 2.06-7.948 2.37-5.567 7.43-12.271 13.62-14.126l0.41 1.028z"/>
  <path d="m198.97 61.846c-2.89 4.33-4.44 9.077-5.46 14.134-0.73 0.209-0.93-0.619-1.45-1.036 0.1-7.013 2.68-14.126 9.19-17.536 2.16 2.273-1.76 2.482-2.28 4.438"/>
  <path d="m330.4 58.854c3.09 1.756 5.06 3.712 5.99 7.222 1.21 1.315 1.72 2.343 2.68 1.237 0-0.719 0.62-2.064 0-2.992 0 0 0.59-1.964 0.51-3.711 1.03-0.928 1.85-1.137 3.51-0.928 1.21 1.005 1.47 1.778 2.37 3.062 1.24 1.345 2.27 3.023 2.58 3.123 1.03 1.547 2.58 3.093 4.95 2.475 2.58-1.748-0.31-6.913 3.41-7.732 3.61-1.036 4.53 1.546 6.5 3.193 0.74 1.655 0.87 1.137 1.24 3.51 1.85 0.209 4.43 0.41 6.39 1.237 1.75 0.518 3.3 2.374 4.23 3.92 0.21 2.165-0.31 3.402-1.55 4.957-0.41 0.1-1.13-0.209-1.44 0.309 1.23 0.819 1.54 3.301 3.51 3.402 0.2-4.33 3.4-10.624-1.97-13.624-2.06 0.317-3.61-0.201-5.05-1.438v-2.474c1.03 0.51 1.44 1.129 2.27 1.956 4.13-1.137 6.08 2.165 9.9 1.036 1.86 0.719 3.62 2.366 4.95 3.92 2.28 1.029 3.1 1.261 4.96 2.289-1.76-1.083 1.8 2.714 1.8 2.714 1.21 3.657-1.03 9.41 0 11.861 0.52 1.415 1.7 1.6 2.43 1.5 1.85-1.346 0.72-7.222 0.51-7.222 0.73-0.418 0.42-1.755 1.65-1.237 1.96 0.819 0.52 2.984 1.24 4.229-0.1 1.029-0.62 1.956-0.41 3.194 0.62 0.827 2.17 0 2.68-0.519 3-0.618 6.4-0.1 8.15 2.274 0.31 1.956 1.44 2.884 1.03 5.157-0.9 1.005-0.41 1.446-1.03 2.064 1.03 0.828 4 4.232 4.02 7.122 0.41 2.57-1.02 6.49 1.24 7.73 0.52-0.1 0.62 0.11 1.24 0.73 0.11 1.13-1.13 1.34-1.76 1.24-0.72-1.76-5.26-0.31-5.26-0.31 2.48 0.51 1.68 3.96 2.59 5.9-0.34 1.98-1.14 6.78-0.31 7.5 0.1 3.41 0.93 7.22 0.2 10.94-1.24-0.31-0.8 2.71-4.64 3.92-2.78 1.96 0.1 5.78-1.55 8.46-0.51 1.96-2.22 5.8-3.72 10.11-1.59 1.75-7.94 7.74-6.49 9.49 0.41-0.62 5.06-2.06 5.06-2.06 4.74-0.91 8.76-1.97 10.41-2.99 0.93-0.11 0-1.55 0.93-1.24 0.93-4.54 0.41-9.7 0.52-14.55 0.36-3.02-0.16-0.18 1.03-4.02 1.91-2.22 4.64-3 4.64-3 2.89-0.51 6.3-0.2 7.73 2.07 3.21 1.03 1.04 5.78 3.41 7.63 0.93 0 1.55 0.42 2.48 0.21 0.83 1.65-1.24 1.45-2.17 1.75-0.62-0.41-1.54-0.1-2.27-0.2-0.93-0.72-1.65-1.96-2.47-3-0.62-0.2-0.83 0.52-1.45 0.21-0.41 0.62-0.41 1.65 0 2.27 0 0 0.62 5.98 1.24 8.67 0 0 1.6 2.7 2.37 2.83 0.1 1.34 2.58 0.91 2.71 3.23 0 0.13 1.81 2.45 0.1 6.83 0.31 1.45-0.3 1.76-1.43 2.17 0.1 1.03 1.54 2.16 2.99 2.27l0.2-0.21c2.27 2.48 2.99 5.68 2.27 9.39-0.82 1.13-2.99 3.09-2.68 4.95-0.21 0 0 1.65 1.65 1.75-0.41 2.38 2.08 3.92 0.21 6.91 0 0-0.1 2.43-1.96 3.92 0 0.62 0.1 1.45 0.72 1.55 0.72 1.45-0.41 4.13 1.03 4.96 0.92 2.78-1.03 6.49 1.75 8.15 0 0 2.01 2.03-2.5 7.7-2.04-0.13-4.51 2.51-4.2 3.65-0.52-0.21-1.86 2.29-0.52 2.47 1.65-0.73 2.47-2.58 4.96-2.16 1.7-0.6 3.19 0.31 4.74 0.41 0.1 2.06-1.75 2.21-2.27 4.23-2.71 0.69-2.89 7.32-2.47 8.45 0.66 1.78 2.99-1.02 2.99-1.02h1.44c0.51 1.23 0.23 2.03-0.72 3.71-0.72 1.93-0.93 9.9-0.93 9.9 0.83 0.93 3.61-0.83 2.88 1.55-1.12 0.62-2.47 1.34-3.19 2.47-2.06 0.11-1.96 3.2-2.68 4.65 1.13 0.62 2.06 1.24 2.68 1.96-2.37 0.51-5.67 2.89-6.19 5.98-0.62 0.21 0 1.6-2.99 4.23-0.93 2.37-4.74 2.91-4.74 2.91 0.12 0-4 0.85-4.52 1.16 0 0-2.51 10.78-3.32 14.18 0 0-2.61 7.88-4.75 11.46-0.62 1.96-5.68 9.59-5.68 9.59-0.21 1.24-5.46 7.22-5.46 8.98 0 0-1.94 7.76-0.42 11.14 0.42 4.61 4.13 9.29 4.44 9.39 1.52 0.9 2.99 3.41 2.99 3.41s1.24 4.58-1.03 9.69c-0.84 1.89-3.72 2.58-5.67 3.5-3.41 1.45-13.21 8.77-15.17 9.91 0.31 0.73-3.02 1.44-5.9 4.44-2.07 2.16-5.55 4.54-6.89 7.43 0 0-0.72 2.57-0.83 3.4 1.14 0.1 0.73 1.34 0.83 2.06-1.96 1.44-6.09-0.82-7.22 0.93-2.27 1.76-3.62 5.26-7.95 4.23-1.65 0.82-2.37 2.37-4.43 2.47-0.72 0.62-2.38-0.3-2.27 1.24-0.93-0.1-4.65 1.35-4.65 1.97-3.81-1.14-4.02 3.81-7.73 1.95 0 0 0.72-4.54 0.82-5.67-0.82-0.1-1.65-0.82-2.47-0.2-0.62 1.85-2.35 4.43-2.48 4.43-1.81 0.65-4.03 2.48-4.23 3.51-1.13 0.1-4.43 0.92-4.43 0.92-6.3 0.1-14.24 1.24-19.4-0.92-3.41-0.29-2.16-2.48-4.43-2.07-1.34-1.75 0.92-5.77 1.02-6.18 0.21-1.35 1.14-3.2 1.45-3.92 0.11-1.55 4.44-11.15 4.44-11.15 0.93-1.03 2.47-1.96 3.3-2.99 0 0 6.68-1.06 11.14 1.03 3.09 0.52 5.68-1.65 7.43-2.99 0.72 0.21 4.95-2.99 4.95-2.99 3.51 0.72 6.39-1.14 9.39-1.24 18.51-11.37 24.71-16.15 27.96-18.77 2.99-2.48 0.82-6.2 0-8.98-1.06-4.52-3.38-6.58-3.77-7.22-1.49-2.48-10.96-8.64-14.81-9.6-2.47-0.72-2.08 4.05-1.23 7.43 1.54 0.31 1.03 3.2 1.03 3.2 0.1 0.31 0.72 5.98 0.72 5.98-0.93 2.01-2.47 5.11-4.23 6.71-1.13 0.41-10.42-1.24-10.42-1.24s-11.86-1.55-14.91-2.04c-2.47 0.1-3.86-0.54-5.62 0.8-0.93 1.96-5.57 0.11-5.67 0-0.82 0.31-0.41 2.37-1.96 2.68-0.62-1.13-1.83-0.52-3.51-0.93-1.55-0.61-7.48-1.52-9.93-1.64-2.7-0.91-8.38-1.16-9.36-2.58-1.78-2.57-0.31-5.29-1.76-4.75-2.57-0.62-1.78 1-2.98 2.79l-0.94 3.19c-1.13 1.14-1.95 2.18-2.47 3.72-0.2 0.93-5.47 2.17-5.47 2.17l-14.15-0.42s-10.2-1.86-10.91-2.48c-1.04-2.68 0.92-4.63 1.75-6.7 0 0 4.23-11.35 5.47-10.93 1.03-2.07 3.09-3.1 5.67-2.99 2.99-1.24 6.09-2.69 8.46-4.65 2.32-2.17 5.93-3.07 7.94-2.99 7.79-0.1 18.77 1.96 18.77 1.96l15.58 2.48c5.55 0.51 8.15 1.96 12.9 1.23 0.62-1.13-0.52-3.19-0.52-3.19-6.44-7.2-8.38-11.07-9.41-13.78-2.32-1.55-8.38-7.86-9.36-10.78 0.41-1.75-4.02-9.69-4.96-11.34 0 0-3.22-7.54 1.97-13.11 1.24-1.13 8.09-5.65 11.97-10.29 1.41-1.54 3.3-3.32 2.67-5.8-2.05-0.92-5.26-7.6-5.77-8.12-1.13-1.24-12.04-11.22-16.89-16.38 0.26-1.81-2.4-1.18-2.61-2.22-2.06 0.31-17.43-6.91-17.85-8.15-1.24 0.31-3.19-1.03-2.67 1.24 1.23 2.27 11.96 12.59 13.81 12.07 0.83 0.93 1.04 2.16 1.97 2.78 1.33 2.48-2.59 3.72 0.52 5.37 2.26-0.62 2.68-2.89 4.22-4.12l2.09 0.51s7.4 4.44 7.09 5.67c3.4 3.41 6.5 7.12 8.36 11.55 0 0 0.41 3.31-0.72 4.55-2.37-0.21-3.61 1.13-5.67 1.65-3.13 0.43-10.32 3.09-11.66 3.3-1.14-0.16-2.59-0.31-3.71-1.03 0.1-1.14-4.75-4.75-7.64-4.24-0.82-0.71-2.38-0.61-3.51-0.92-1.65-0.93-4.02-3.92-4.23-4.54-0.72-0.82-2.56-5.17-3.97-6.96-5.54-7.1-7.74-9.42-13.57-15.02-1.65-2.01-3.19-3.55-4.95-5.25-1.03-1.03-1.75-3.21-2.27-3.41 0 0-0.2-7.22 2.27-9.69 0.93-0.83 1.97-1.66 2.99-2.48 1.14-1.55-1.02-1.86-1.23-2.69-0.62 0-4.44-1.95-5.47-2.78-2.48-0.1-2.91-2.14-6.66-3.43-3.51-3.54-4.28-5.65-4.28-5.65 0.11-1.03-0.1-2.27-1.24-2.27 0 0-2.65-3.09-2.86-3.81l-0.85-9.6c1.11-2.14 1.03-25.99 1.03-25.99v-10.84c0.62-1.75 2.58-2.68 3.72-3.71 1.44-0.62 11.96-5.67 13.31-6.71 2.78-1.95 4.84-1.83 7.01-1.24 1.7 0.7 5.7 6.24 6.4 8.46 0.85 1.91 3.04 7.2 8.58 13.39 4.13 4.26 4.73 3.53 6.78 5.6 0.62-0.62 5.99-3.54 7.64-6.61 10.09-6.47 9.44-0.75 12.15-4.54 4.52-6.31 11.37-11.34 11.37-11.34 5.65-3.62 9.7-2.68 9.7-2.99 1.55 0 5.1-0.5 6.91-2.17 0.31-1.34 3.92-1.86 4.44-2.48 6.29-0.62 11.96-1.44 16.61-4.95l0.2-1.23c-3.09-1.04-7.22 1.13-9.08-1.76-1.34-1.03-3.61-2.47-2.47-4.75-0.83-1.13-3.71-1.95-3.71-1.95-1.97-0.93-4.85 0-6.2-1.76-3.5 0.21-9.18-1.85-10.93 1.76-0.73 0.41-1.96 0.1-2.27 1.03-5.67 1.23-7.02-4.02-11.86-4.95-1.03-0.73-1.24-2.79-1.45-3.51 0.42-0.52 0.21-1.34 0.52-1.97-0.83-1.54-4.75-3.19-4.95-3.19v-3.71c2.37-2.79 6.7 0.2 9.59-1.76-1.55-1.03-3.61-2.06-5.68-2.788-0.82-2.783-4.23-2.165-3.91-5.157 1.75-0.719 0.62-3.502 0.93-5.157 1.64-2.165 6.7-4.021 6.7-4.021 2.37-0.409 2.68-3.402 4.95-4.229 1.75-1.137 4.65-1.137 6.91-0.719l1.99 1.539 9.88-1.029 11.96-0.51c0.93-2.683-2.68-2.791-3.71-4.237-0.62-0.719 0.21-2.366-1.03-2.675-0.52-2.683 0-5.784-0.52-8.459 0 0-2.37-2.791-3.72-3.928 0 0-6.49 0.309-6.7-2.474l7.74-0.201c0-0.936 0.72-0.727 1.45-0.828 0.2 1.446 1.75 0.719 2.47 1.237"/>
 </g>
 <g fill="#FFF">
  <path d="m339.38 70.82c4.74 0.31 10-0.927 14.34 0.928-0.21 1.137 0.51 2.583 0.2 3.712h-11.86c-0.31 0.317-0.62 0.518-0.52 1.036 1.35 1.446 3.61 0.208 5.27 0.928 2.57 0.618 5.67-0.209 8.15 0.827v0.719c-1.97 1.036-3.31-0.928-5.47-0.309-6.19 0.208-12.8 0.309-16.62-4.129-1.85-4.33-0.1-9.279-3.4-12.889 5.06 1.438 4.03 9.077 9.91 9.177"/>
  <path d="m346.29 68.035c-1.45-1.028-5.47 1.446-4.44-2.474-0.93-0.417-0.41-1.446-0.51-2.165l0.51-0.518c1.96 1.137 3.2 3.712 4.44 5.157"/>
  <path d="m362.07 69.789c2.99 7.84 14.65 13.106 10.93 22.492 0.62 0.51 1.45 0.201 2.28 0.309 2.47-1.654 1.44-4.646 1.64-7.221-0.2-0.642-4.38-5.598-5.66-8.436-0.17-0.34 2.96 0.387 2.96-2.837 0.36-1.083-1.03-5.289-4.13-5.676-0.27-1.167 3.15-0.927 3.74-0.518 1.81-0.386 3.74 2.714 2.71 6.967-1.03 3.742 2.33 9.889 3.18 9.054-0.11-1.237-0.24-1.964-0.86-2.992-0.64-3.611 4.05-8.25 0.34-12.17 1.54-0.418 1.95 1.438 2.68 2.474 1.34 4.848-4.85 10.106 0.82 13.206 1.14-0.928-0.2-2.064 0.21-3.302 0.11-1.963 1.85-3.301 2.68-4.956 0.72 0.418 0.83 1.446 0.83 2.273-1.97 2.885-2.17 6.604-2.07 10.415 0.83 1.864 2.9 5.057 5.26 5.158 0.94-1.338-1.13-2.784-1.75-4.222-2.89-5.784 3.92-10.941-1.96-15.58-0.21-0.827 0.1-1.856 1.24-1.446 4.85 3.92 2.16 9.696 2.16 15.062 2.28 2.165 3.1 4.848 3.72 7.74 1.75-0.109 0.82-2.173 1.75-2.993 2.48-1.654 4.65-3.92 8.16-2.992 2.16 1.338 3.4 2.575 4.23 4.949 0.71 3.201-3 1.237-4.23 2.474-2.38 2.582-5.58 5.059-9.09 4.749 0.21 0.62 1.35 1.65 2.17 1.96 3.82 0.1 6.92-2.99 10.42-4.227 5.26 2.167 1.24 8.347 3.51 11.857-6.09-1.95-5.47 8.67-11.66 7.74-1.55-3.3-0.83-7.64-4.44-9.69-0.51 0.82-2.16 0.2-1.54 1.74l0.72 0.73c0 1.13 1.03 2.79 0.82 3.92 1.04 1.44-0.2 4.54 2.48 5.26 2.79 0.93 5.05 0.21 7.84-0.31 0.72 3.09-8.15 3.51-2.17 5.78 1.14 0.1 2.07-1.24 2.99-1.03-2.05 2.16-4.54 2.57-7.21 3.71-0.52-2.27 1.34-6.6-2.27-7.42-2.79 0.82 0.31 3.19-0.73 5.15 0.11 2.07-1.75 5.47 1.04 6.19 2.47-3.09 7.84-1.76 10.1-4.95h0.73c0.31 2.47-2.07 4.43-4.13 5.47-1.96 0.21-4.12-0.41-5.78 0.52 1.86 2.26 4.85 2.78 7.94 2.47 1.04-0.73 3-1.24 2.8-2.99h0.71c1.14 2.68-1.75 3.82-3.2 5.46-1.95 1.66-5.25 0.72-7.73 1.76-0.52 1.03 0.72 1.85 1.55 1.95 1.54-0.51 2.47 1.56 3.19 2.69l0.21 0.83c-1.24 1.33-2.37-1.45-3.4-1.55-1.45 0-2.38-1.24-3.51 0.31-0.52-3.2 3.41-7.74-0.52-10.73-2.58 0.72-1.13 4.02-2.17 5.77 0.93 3.51-5.15 7.12-0.51 9.4 0.51-1.87 2.68-2.8 4.43-1.97 2.07 0.31 2.69 2.69 3.72 4.13v1.03c-2.27-2.47-5.26-2.47-8.46-1.96-1.44 0.41-2.17 2.48-4.12 1.76-1.76 3.92-5.27 6.7-6.2 10.62 0.42 1.34 2.28 0.51 3.41 0.72 1.13-1.03 2.27-1.85 4.02-1.44 1.03 0.93 1.76 1.65 1.45 3.41-2.37 0.3-3.09-2.59-5.99-1.24 0.41 2.36 5.06 2.78 3 5.97v0.21h-2.48c-0.52-0.62-1.75-0.72-2.68-0.72-0.42 0.31-0.62 0.72-0.52 1.24 1.76 0.83 4.54 1.96 4.96 4.44-1.56-0.31-3.1-1.35-5.48-0.93-0.82-1.24-1.54-1.44-2.68-1.24-0.31-1.13 2.17-3.51 2.99-4.95-0.62-0.83-1.85-2.78-2.99-1.24-2.88 2.58-4.33 6.09-6.49 8.87-0.1 1.35 0.51 1.86 1.54 2.47 2.38-0.71 3.92-3.29 6.71-2.98 0.92 0.2 1.85 1.44 2.89 1.75 1.03 0.62 1.54 1.86 1.23 3.2-1.44 0.62-2.16-1.03-3.92-0.93 0.1-0.31-0.2-0.62-0.51-0.52-0.51-0.1-0.93 0-1.24 0.52 1.04 1.96 4.85 2.68 2.99 5.88-1.54-0.41-2.37-1.65-3.71-2.17-2.37-0.51-5.06-0.31-7.22 0.73-0.42-1.76 2.88-3.3 0.31-4.75-3.1 0.52-3.3 4.02-4.96 5.99 0 1.54-3.19 3.61-0.31 4.63 3.51-0.41 5.48-5.46 9.7-4.63 2.48-0.62 3.51 1.85 3.93 3.71v1.23c-2.28-0.92-4.03-3.09-6.41-2.26l-0.2 0.31c1.34 1.85 3.3 2.88 3.2 5.36l-0.31 3.3c-1.03-0.1-1.03-1.86-1.65-2.79-1.35-1.75-3.09-2.47-4.96-2.99-2.88-0.2-5.77 2.38-7.22 4.75-3.4 9.9 1.97 19.7 9.4 26.2 13.4 12.07 29.8 24.55 34.97 42.1 1.03 2.26 1.95 5.15 4.64 5.97 2.99 0.42 4.74-1.75 6.19-3.92 0.93-5.67 1.44-11.14 0.51-16.92-0.41-5.98-6.39-11.55-11.66-13.82-5.98-1.44-13-2.47-16.09-8.66-3.4-9.49 0.1-19.81 0.73-29.5 2.88-9.81-2.07-25.69 11.65-28.17 4.13-0.82 9.7 0.21 11.45-4.74 2.68-7.12-3.92-16.2 3.72-20.54 1.34-1.03 3.19-0.2 4.43 0.52 0.62 0.62 1.35 1.24 1.24 2.16-1.75 0.42-3.51 2.38-5.26 1.25-4.02 5.78 0.83 13.82-2.17 20.32-0.61 0.72 1.55 1.85-0.3 2.47-0.93 0.21-2.18-0.51-2.69 0.73 1.65 3.6 4.23 0.31 6.4 0.31 1.85-1.04 3.71-2.89 4.02-4.96 0.31 0.1 0.52-0.41 0.72-0.51 1.24 2.79 3.1 7.22 0.21 9.9-5.98 5.27-16.1-0.1-22.7 4.23 0.21 0.93 1.35 1.65 2.48 0.93 7.74-0.51 15.99 3.51 22.49-2.17 0.93 0 1.95 1.45 2.26 2.48 0.42 2.68 1.56 7.02-1.02 9.18-0.83 0.93-2.28 1.86-2.48 2.89 1.76 1.13 2.89 2.58 3.5 4.54-0.41 3.61-0.72 7.73-4.53 9.59-4.33 2.17-9.39 1.04-14.34 1.04v-0.31c-4.34-0.93-10.42-1.55-14.13 1.54 1.13 3 3.09-0.62 4.94 0.21 9.5-0.21 19.91 5.16 27.75-1.75 1.14 2.26-0.71 3.4-1.95 4.74-4.95 1.44-10.83 0.72-14.85 4.43-1.24 1.45-1.76 3.21-2.28 4.96 0.62 0.31 0.62 1.44 1.76 1.03 2.99-6.81 11.76-4.44 16.81-7.43 0.21-0.62 0.62-1.34 1.24-1.55 0.62 1.76-0.83 3.3-2.16 4.54-3.61 0.73-7.43 2.48-9.19 6.19 0 0.62-0.1 1.55 0.73 1.65 1.64 0.11 2.57-1.75 4.23-2.47 2.57-0.93 5.66-2.69 7.22-4.44h0.72c0.62 7.33-11.35 7.64-8.98 16.1 1.55 0.82 0.83 3.3 2.78 3.71 1.45-2.07 2.59-5.88 5.89-5.47-3.71 4.85-2.79 11.66-2.89 17.65 0.51 2.05-3.51 4.02-0.82 5.46 2.36-1.44 3.61-3.51 4.23-5.98h0.51c0.41 4.13-1.65 8.46-4.95 10.62-0.31 0-0.62 0-0.72 0.31-0.11 1.03 1.44 0.83 1.75 1.66-1.44 2.67-2.07 5.15-4.54 7.21 2.68 1.55-0.62 3.51-1.44 4.96-1.76 2.16-4.86 1.64-7.22 1.75-0.94-1.14-2.38-3.41-3.92-4.23-1.76 0.72 0.31 1.65 0.51 2.48 0.42 14.96-5.47 27.54-12.17 39.3-4.75 5.57-9.19 12.28-6.91 20.12 0.41 2.99 1.13 5.98 2.26 8.35 0.73 2.27 1.66 5.26 3.93 5.99 0.62 2.68 1.13 5.98-0.52 8.15-9.9 6.7-19.6 12.99-28.68 21.04-2.06 2.27-4.13 4.64-4.02 8.15-2.79 1.44-1.76-3.41-4.13-3.92-1.03 1.96-1.03 4.43-2.06 6.4-0.83 0.82-0.93 2.16-1.96 2.78-2.79-0.83 0.61-5.47-3-5.98-1.64 1.13 0.31 2.89-0.72 4.23-0.61 1.13-0.51 2.68-1.96 3.2-0.41-1.86 0.11-4.65-2.47-5.89-1.86 0.93-0.41 4.13-1.24 5.89-0.62 0.41 0.21 1.85-1.03 1.54-1.45-1.34 0.2-4.23-2.17-4.95-1.86 0.82-0.62 3.2-1.03 4.44-1.45-0.11-1.03-3.2-3.2-2.79-1.55 2.48 0.21 6.3-2.68 7.43 0.31-1.86-0.51-3.2-1.24-4.64-1.34-1.45-2.99-2.07-4.95-1.76-1.45 1.45-3.3 2.99-3.3 5.17-3.3 7.42-13.52 4.73-19.81 4.94-2.58-0.31-5.37-0.72-7.11-2.68 1.85-5.47 3.81-11.55 6.18-16.82 1.55-3.3 5.06-1.64 7.95-1.75 9.08 5.26 13.82-6.6 22.48-4.95 5.16-1.24 8.77-5.16 13.42-7.22 7.11-4.85 14.54-10.01 21.76-15.27 2.69 0.42 7.33 1.55 8.87-1.03-2.68-1.65-6.91-0.41-8.35-3.92-1.85-7.94-5.15-16.4-13.41-20.32-9.18-3.51-16.61-11.97-18.57-21.56-1.13-2.07 0.82-4.54-1.96-5.99-0.93-2.99-3.51-5.37-4.44-8.36-1.24-7.32-0.62-15.26 5.16-20.01 5.47-2.99 12.07-7.53 11.14-14.85-0.93-1.14 0-4.13-2.26-3.51 0 2.06 0.3 5.57-1.24 7.63-0.31 2.68-2.79 3.92-4.96 4.96-4.02 2.47-7.73 5.87-10.1 9.48-0.93 1.14-0.93 3.92-3.2 2.69-2.79-1.65-6.4-4.33-9.39-2.48-0.52-0.52-0.62-1.23-0.52-1.95 0.52-0.63 1.24 0 1.76 0.2 3.3 0.52 4.53-3.4 6.6-5.47 0.52-1.03-0.72-1.44-1.24-2.16-1.54 0.92-2.89 3.09-4.13 4.43-0.1-0.51 0.21-1.13-0.31-1.44 0.73-1.04-0.41-2.79 1.04-4.03 3.5-2.06 6.08 1.86 9.59 0.52 1.75-1.03 3.61-2.69 4.54-4.75 0.1-0.72-0.82-1.13-1.24-1.65-1.03-0.21-1.03 0.93-1.55 1.45-2.57 2.57-6.91 3.71-9.89 2.47-2.9-2.16-4.96-4.33-7.95-6.91-3.3-2.57-4.02-7.53-7.84-9.9-4.33-3.41-7.94-7.33-10.94-11.66 6.71-0.82 11.35 7.74 18.57 3.2 4.65-4.23 2.06-11.76 8.46-15.06 0-0.41-0.41-0.72-0.82-0.72-2.48 0.82-4.65 3.5-6.2 5.67-2.16 2.99-1.13 8.77-6.6 8.15-3.3-1.24-6.18-3.61-9.9-3.72-8.77-2.99-18.16-4.54-25.79-10.1-2.58-0.42-4.23-3-7.43-2.07-1.14 1.76-2.99 3.2-2.27 5.78 3.72 3.71 6.09 8.05 10.42 10.62 0.62 1.76-2.58 4.75 1.04 4.96 0.71-0.83 1.43-2.38 2.16-2.48 0.52 1.44-2.78 2.79-0.21 3.72 1.35-0.11 1.45-1.97 2.68-1.97-0.2 1.97-0.51 3.72 0.31 5.68 0.93 0.92 2.79 2.16 4.23 0.92 2.17-1.33 4.85-5.25 7.43-1.95 4.64 4.43 9.29 9.08 10.63 15.37-3.2 1.55-7.22 1.86-10.22 3.5-2.16 0.42-4.94 1.24-7.11 0.21-3.41-2.89-6.81-5.67-11.66-5.16-4.33-2.47-3.61-7.12-6.91-9.9-4.95-8.05-12.49-14.95-19.6-22.08-0.73-1.54-1.14-3.3-0.93-5.15 2.88-4.44 8.36-8.26 9.39-13.62 0.92-2.89 1.75-6.19 4.64-7.74 3.3-1.03 5.57 1.96 8.97 1.24 11.35 0 21.77 2.37 31.67 5.67 3.3 0.41 5.27-3.61 8.67-1.44 2.89-0.1 5.37-1.45 6.91-3.92-1.54-1.45-2.99 0.52-4.64 0.21-3.2 0.82-6.29 1.64-9.49 0.2-2.17 0.72 1.24 2.06-0.93 2.48-9.29-3.51-18.88-6.29-29.71-6.19-5.47 0.51-11.45-4.23-15.88 0.31l-1.97 3.92-0.72-0.72c0.1-4.23-0.42-8.77 0.51-12.59-0.93-2.89 1.14-5.27 3.2-7.01 11.86-4.96 18.58-19.5 28.68-25.7 1.45 0 2.99-1.13 4.23 0-1.03 2.07-2.26 3.41-4.23 4.44-0.2 0.42-1.24 0.73-0.51 1.24 2.17 1.44 3.71-1.45 5.47-2.27 6.29-7.53 12.48-20.53 23.83-20.22 6.6 0.82 9.9-6.5 16.81-5.26 1.55 0.42 3.1-2.07 4.23 0.31 0 2.16 2.79 3.82 4.43 5.36 3.2 1.45 7.53 1.66 10.84 0.31-1.55-3.4-5.16-1.75-8.36-2.26-0.2-1.04-1.75 0-2.27-0.94-1.33-1.24-2.58-3.19-1.75-4.54 0.62-0.92 2.06-1.33 2.47-0.41 2.79 5.06 8.46 2.69 13.21 2.9 1.03-1.25 3.92-0.31 3.71-2.69-0.82-1.65-1.75-0.42-2.99-0.72-2.89 0.72-7.33 1.86-9.7 0-0.51 0.41-0.93-0.72-1.44-1.03 0-1.04 0.72-1.76 1.44-2.48 1.66-0.82 1.97 1.55 3.2 1.55 4.23 1.45 9.29 0.72 12.38-2.48 0-1.55-1.55-1.86-2.68-1.23-2.79 1.44-6.09 2.47-8.87 0.93 0.51-0.93 2.16-1.14 3.19-1.97 3-6.91 15.06-2.89 13.11-12.59-0.31-0.51 0.1-1.75-1.04-1.54-0.82 1.23-1.54 2.47-1.23 4.23-3.62 4.23-11.56 0.31-12.79 7.64-4.54 2.47-9.39-1.14-14.45 0-0.72-0.73-2.47-0.42-2.89-1.97-0.2-5.67-0.1-10.93 1.97-16.09 0.61-1.96 6.18 0.1 3.19-3.2-2.27-0.1-5.88-0.21-6.91 1.97-1.55 2.16-0.1 5.56-1.24 7.94-0.2 1.23 0.42 2.78-0.51 3.71-1.35 0.41-1.04-1.34-2.48-0.72v-0.31c-3 0-5.26-0.73-7.63-1.66 0.41-5.15 2.68-12.99-2.07-16.913-1.44-0.31-2.68-1.137-3.92-1.956l-0.72 0.719c2.99 3.09 5.68 6.5 4.23 10.93-1.03 2.38 1.24 6.4-2.06 7.64-1.96 0.41-3.61 0.41-5.68 0-3.92 0.2-8.04-0.11-11.34-0.73-1.45-1.12-1.14-2.26 0-3.19 5.05-0.52 10.1 1.55 14.85-0.21 0.41-2.37 0.52-4.74 0.52-7.22-0.11-1.95-1.65-3.61-2.79-4.947-5.67-2.482-13.41-0.518-17.02-7.431-0.72-1.755 0.93-2.683 1.96-3.51 4.23 0 6.81-3.611 9.9-5.876 1.66-0.619 2.58 0.827 3.2 1.956 9.18-0.51 17.85-2.057 27.44-1.446 1.55-0.51 3-1.129 4.23-2.057l15.17 0.82c0.41 0.936 0.82 1.863 1.65 2.683l1.03-1.028c-2.38-4.848-2.48-10.732-3.71-16.09 0.82-1.655 0.2-4.338 2.68-4.129 2.27 1.647 2.57 4.229 3.71 6.394"/>
 </g>
 <path d="m362.07 73.709c2.68 4.229 7.01 7.84 8.67 12.17 0.41 1.237-0.42 2.173-1.24 2.683-0.93-0.201-1.96-1.237-2.16-2.165v-1.546c-3.31-5.057-6.71-9.596-8.47-15.271l0.31-2.265c1.34 1.956 2.27 4.121 2.89 6.394" fill="#231f20"/>
 <path d="m371.56 73.297c-0.21 1.137 0.41 2.575-0.52 3.402-1.54-1.028-2.78-3.402-4.43-4.639 0.41-1.237-0.72-1.655-1.03-2.474 2.68-1.446 5.05 1.337 5.98 3.711" fill="#FFF"/>
 <g fill="#231f20">
  <path d="m335.15 89.08-0.52 0.518c-5.16-0.618-9.49 0.101-14.65 0.511l-0.41-0.511c3.51-2.474 8.66-2.474 12.79-1.964 1.03 0.31 2.48 0.109 2.79 1.446"/>
  <path d="m349.49 87.842c5.25 3.302 3.61 9.696 8.15 13.108-1.14 0.82-2.17-0.42-3.21-0.73-1.33 1.97-3.61 2.37-5.66 2.99-0.52-1.13-2.49 0.21-2.28-1.44 1.55-0.72 3.31-0.62 4.44-2.067 0.41-1.237-0.42-2.057-1.24-2.884-1.23-0.309-1.96 2.474-3.2 0.928-0.92-1.546-1.23-3.611-0.72-5.467 0.21-0.417 0.72-0.618 0.51-1.237-3.3-1.345-4.33 6.704-7.94 2.993 0.31-0.727 1.34-0.518 1.76-0.209 2.16-2.065 2.78-5.467 5.88-6.503 1.03 1.346 2.48-0.928 3.51 0.518"/>
  <path d="m313.79 90.627c0.83 2.165-1.85 2.374-2.89 3.201-1.03 0-2.06 0-2.78-0.726-0.1-1.238 1.23-0.82 1.75-1.547 0.72-1.237-1.44-2.064 0-2.683 1.65-0.201 3.09 0.518 3.92 1.755"/>
  <path d="m367.54 95.063c-0.62 2.165-3.51 4.848-0.93 6.917 0.41 0.2 0.1 0.82 0.21 1.23-1.35 0.21-3.1-0.21-4.24-1.44-1.13-1.03-1.54-2.686-0.92-4.024 0.51-2.165 2.89-3.093 4.64-3.711 0.72 0.201 0.72 0.51 1.24 1.028"/>
  <path d="m401.48 95.786c-2.58 1.028-3.3 4.334-6.19 4.944h-2.68c-1.14 1.66 2.47 3.82-0.52 4.96-1.03 0-1.75-0.73-2.47-1.45-1.24-3.71-4.65-5.98-6.5-9.482 3.81-0.727 5.88 3.301 8.25 5.462 3.81-0.723 5.36-6.498 9.59-5.462l0.52 1.028z"/>
  <path d="m378.16 95.786c-1.02 1.137-2.58 2.065-1.96 3.92 1.04 1.544 0.73 3.614 1.55 5.254l3.41 6.72c-0.21 0.4-0.83 0.71-1.24 0.2-2.68-3.82-9.19-7.02-6.7-13.411 0.71-1.755 3.71-5.057 4.94-2.683"/>
  <path d="m346.49 100.02c-0.72 0.92-1.85-0.213-2.68-0.523-1.14-1.028-1.45-2.373-1.75-3.711l1.03-0.727c0.93 1.446 1.86 3.41 3.4 4.961"/>
 </g>
 <g>
  <path d="m309.66 101.25c-0.51 1.24-1.75 0.62-2.78 1.45-0.62-0.62-1.75-0.83-2.99-0.73-0.52 0.73-0.83 0.83-1.66 0.73-0.82-0.52-0.61-1.76-0.3-2.48 2.58 0.31 5.46-0.823 7.73 1.03" fill="#D00"/>
  <path d="m405.4 103.01c0 1.33-1.55 0.1-1.96 1.23-1.96 1.97-4.44 2.9-7.43 2.48-0.31-0.31-0.52-0.82-0.93-0.82 0.72-0.94 2.79-1.14 4.13-1.66 1.86-1.23 4.74-4.23 6.19-1.23" fill="#231f20"/>
  <path d="m308.63 105.9c-1.23-0.1-2.99 0.2-4.23 0.82 0.31 1.34 2.17-0.11 1.96 1.45l-0.72 0.51c-3.61-1.34-7.74 0.52-11.34-0.72-0.11-0.72-0.94-1.35-0.32-2.06 0.62-1.45 2.37-0.31 3.3 0 3.82-0.1 7.84-1.76 11.35-0.41v0.41z" fill="#FFF"/>
 </g>
 <g fill="#231f20">
  <path d="m407.46 105.9c0.93 2.27-1.75 0.82-2.26 2.06-1.66 1.34-3.72 2.78-6.41 2.16l-2.26-1.44c0.83-1.24 3.92 0.52 4.95-1.55 1.96-0.41 3.82-3.4 5.98-1.23"/>
  <path d="m328.44 109.4c0.31 0.83-0.72 0.62-1.03 1.03-1.13-0.51-2.68 0-3.41-1.54 0.62-0.93 3.72-1.55 4.44 0.51"/>
  <path d="m389.61 111.16c-0.82 3.3-4.74 4.43-7.43 5.88-0.61-0.32-0.51-0.94-0.51-1.45 2.58-0.82 4.33-3.61 6.4-5.46 0.72-0.21 1.03 0.62 1.54 1.03"/>
  <path d="m328.65 114.15v0.21c-1.76 0.72-3.4-0.21-4.95-1.04 1.03-1.55 2.98-0.1 4.54-0.2l0.41 1.03z"/>
  <path d="m391.58 115.08c-1.66 2.99-5.27 5.25-8.46 5.67-0.42-0.31-0.52-0.72-0.42-1.23 2.68-0.73 4.75-3.31 6.91-5.37 0.94-0.31 1.35 0.41 1.97 0.93"/>
  <path d="m180.61 121.58c-2.27 6.39-8.56 11.55-15.06 12.78-0.83-0.1-1.03-1.12-1.24-1.43 1.03-0.62 2.27-0.83 3.51-1.04 5.57-3.5 10.11-9.29 12.38-15.06 1.96 0.93 0.31 3.09 0.41 4.75"/>
 </g>
 <path d="m407.15 117.04c0.72 0.82-0.1 1.54-0.21 2.26-1.43-0.41-0.62-2.26 0.21-2.26" fill="#FFF"/>
 <path d="m307.4 118.27c0.1 1.86-3.21 1.55-2.48-0.2l2.48 0.2z" fill="#FFF"/>
 <g fill="#231f20">
  <path d="m391.58 121.06c-1.76 2.17-4.23 2.58-6.2 4.44l-1.44-0.52 6.19-5.88c0.31 0.41 2.06 0.62 1.45 1.96"/>
  <path d="m392.61 125.29c-1.45 3.51-5.47 4.54-7.94 6.6-0.52 0.62-1.14 0-1.56-0.41 3.1-1.96 5.37-5.57 8.67-7.43l0.83 1.24z"/>
  <path d="m188.55 126.01c-2.78 7.32-8.76 15.47-17.33 16.3-0.41-0.31-1.34-0.31-0.93-1.24 7.12-2.68 14.03-8.76 17.03-15.78 0.61-0.31 0.82 0.41 1.23 0.72"/>
  <path d="m392.61 130.96c0.82 2.79-2.48 3.82-4.02 4.95-1.56 0.21-3.3 2.18-4.65 0.73 1.45-2.07 4.75-2.68 6.19-5.47 0.51-0.11 1.76-1.96 2.48-0.21"/>
  <path d="m194.54 135.4c-1.34 6.91-8.36 12.79-14.86 14.85-1.34-0.2-2.58 0.62-2.99-0.72 6.5-2.78 13.21-8.76 16.61-15.37 0.93-0.52 1.03 0.72 1.24 1.24"/>
  <path d="m390.85 137.88c0.31 2.47-3.3 3.51-5.25 4.43-1.35 0.31-3.41 1.14-4.65-0.21 0.93-1.13 2.37-0.82 3.4-1.54 2.07-1.14 3.92-2.58 5.99-3.4l0.51 0.72z"/>
 </g>
 <path d="m259.12 152.52c2.78 5.88 7.84 11.66 12.89 15.79-0.11 2.99-3.41 4.95-5.26 7.43-3.51 2.68-6.81 4.74-10.11 7.43-1.34-0.83-1.54-3-1.75-4.65-2.38-6.91-3.31-15.16-9.6-19.6-2.99 0.93-2.99 5.06-3.51 7.95 1.04 1.64 0.11 4.12 0.73 5.87 0.52 3.2 1.85 5.99 2.78 8.98-1.03 0.72-2.37 1.65-2.47 2.99-0.21 1.86 0 3.71 1.64 4.95 0.73-0.21 1.66 0.31 2.07-0.51 1.54 0.62 3.41 0.51 4.64 1.96 0.62 5.87 1.13 13.3-0.51 18.57-0.1 1.65-1.45 1.13-2.69 1.24-4.64-3.61-12.48-4.85-13.61-11.66-6.2-4.85-2.68-12.59-2.99-19.29l0.51-0.72c1.34-8.88-0.31-16.92-0.51-25.8 0.92-0.62 0.41-1.85 0.51-2.68 2.07-1.96 4.12-3.61 6.71-4.23l11.35-5.98c5.36 1.54 6.8 7.43 9.18 11.96" fill="#FFF"/>
 <g fill="#231f20">
  <path d="m201.96 143.34c-2.16 6.71-7.12 13.31-14.34 14.86-1.85 0-4.02 2.16-5.46 0 1.23-0.72 2.47-1.76 4.22-1.55 5.58-3.71 11.56-7.63 14.35-14.03 0.62-0.3 0.82 0.41 1.23 0.72"/>
  <path d="m388.38 146.03c-2.79 2.06-6.09 2.99-9.39 3.71-0.52-0.2-1.34-0.72-1.24-1.24 3.92-0.83 7.23-3.19 10.63-5.47 1.54 0.62 0.52 2.07 0 3"/>
  <path d="m140.58 146.75v0.82c-11.24 4.95-18.57 16.3-20.63 28.16-0.62 0.31-0.82-0.51-1.24-0.71 0.73-8.57 3.72-16.82 9.7-22.5 3.51-2.47 7.12-5.77 11.66-6.18l0.51 0.41z"/>
  <path d="m385.9 149.22c0 0.52 0.52 0.72 0.72 1.03-2.26 4.23-7.63 4.03-11.86 4.96-0.72 0.21-1.03-0.62-1.55-1.03 3.92-1.45 7.94-2.58 11.45-4.96h1.24z"/>
  <path d="m210.32 151.29c-1.96 9.18-11.76 14.54-19.81 16.3-1.03-0.31-2.88 0.71-3.19-1.03 0.31-0.93 1.85-0.11 2.47-0.73 8.36-1.75 14.75-8.35 19.29-15.57 0.52 0.1 0.83 0.62 1.24 1.03"/>
 </g>
 <g>
  <path d="m418.81 150.25c-0.1 0.72 0.41 1.97-0.52 2.28v-2.28h0.52z" fill="#FFF"/>
  <path d="m248.7 151.49c-0.72 3.82-5.47 3.3-8.36 4.75-0.83-0.42-1.45-1.14-1.55-2.06 0.62-0.41 0.93-0.41 1.55 0 2.89-0.1 4.75-3 7.43-3.72l0.93 1.03z" fill="#231f20"/>
  <path d="m397.77 154.69c-0.11 1.34 0.2 2.78-0.21 4.02-0.62-1.24-1.76-2.57-3-3.71-0.92 0.21-1.12-0.93-2.26-0.52l-0.73 0.73 2.69 2.68c-1.13 1.24 0.51 4.23-1.96 4.23-1.04-2.17-3.82-1.65-5.16-1.75h-0.31c0.93-1.66 2.17-3.2 2.48-5.16 2.06-2.07 7.01-4.75 8.46-0.52" fill="#FFF"/>
  <path d="m383.63 155.41c-0.1 1.76-1.65 2.79-2.99 3.71-3.51 1.14-7.84 1.97-11.55 1.25l-0.52-0.42c2.58-1.14 6.29-0.83 8.87-2.47 2.58 0.31 4.23-4.02 6.19-2.07" fill="#231f20"/>
  <path d="m321.01 155.41c0.21 0.41 1.03 0.62 0.72 1.24-2.16 1.55-4.12-0.72-6.7 0-0.21-0.1-0.31-0.52-0.72-0.41 0.31-1.86 2.68-0.73 4.02-1.04 0.52 0.83 1.96 0.52 2.68 0.21" fill="#231f20"/>
  <path d="m419.53 166.55c-0.52 0.62-0.93 1.65-1.44 1.76 0.82-3.92 0.51-8.57 0.2-12.59 2.27 2.58 0.83 7.22 1.24 10.83" fill="#FFF"/>
 </g>
 <g fill="#231f20">
  <path d="m257.88 167.07c0.31 3.3 4.33 5.37 3.2 8.98-1.24 0.1-1.76-1.35-2.68-2.07-2.38-4.95-5.06-10.93-7.95-16.3l0.21-0.72c2.99 2.89 5.26 6.6 7.22 10.11"/>
  <path d="m316.78 158.2c0.41 0.52 1.45 0.83 1.03 1.75-2.78 1.24-6.49-0.21-9.38-0.82 0.3-2.69 4.22-0.93 6.39-1.45 0.31 0.93 1.34 0.31 1.96 0.52"/>
  <path d="m240.34 163.36c0.21 5.25 0.41 11.24 1.65 16.4-0.82 1.24-1.86-0.31-2.48-0.82 0.42-0.83-0.92-1.55-0.41-2.69-0.72-4.64-1.03-10.42 0.21-14.85 0.72 0.3 1.65 1.24 1.03 1.96"/>
  <path d="m378.68 162.63c-2.16 4.44-7.74 3.72-12.07 4.44-0.62-0.11-1.03-0.83-1.55-1.23 0.93-0.93 2.38-0.31 3.51-0.73 3.41-0.41 6.09-3.3 9.39-3.2l0.72 0.72z"/>
  <path d="m313.07 161.91c0.62 0.41 1.03 1.14 0.52 1.76-2.89 3.4-6.92-0.52-10.43 1.44-0.2-0.31-1.64-0.52-1.23-1.44 2.78-1.86 6.5-1.86 9.18-1.04 0.51-0.51 1.34-0.51 1.96-0.72"/>
 </g>
 <path d="m246.01 163.67c0.1 0.92 1.35 0.92 1.24 2.16 0.73 2.06 2.58 3.41 2.17 6.19h0.51c0.72 1.03-0.41 3.2 1.04 3.51 0.72 1.03-0.52 3.1 0.93 3.72-0.52 3.09 2.05 4.63 1.03 7.63-0.62 0-1.03 0.41-1.76 0.31v-0.83l-4.95-0.41c-0.72-2.07 1.24-1.35 1.96-2.27l-0.2-0.21c0.51 0.21 0.2-2.89 0.2-4.22-0.1-0.31-0.41-0.31-0.72-0.31-0.73-0.73 0.52-2.69-0.93-2.69-0.11-1.54 0.2-3.51-1.24-4.23l0.21-8.35h0.51z" fill="#D00"/>
 <path d="m246.01 163.67c0.1 0.92 1.35 0.92 1.24 2.16 0.73 2.06 2.58 3.41 2.17 6.19h0.51c0.72 1.03-0.41 3.2 1.04 3.51 0.72 1.03-0.52 3.1 0.93 3.72-0.52 3.09 2.05 4.63 1.03 7.63-0.62 0-1.03 0.41-1.76 0.31v-0.83l-4.95-0.41c-0.72-2.07 1.24-1.35 1.96-2.27l-0.2-0.21c0.51 0.21 0.2-2.89 0.2-4.22-0.1-0.31-0.41-0.31-0.72-0.31-0.73-0.73 0.52-2.69-0.93-2.69-0.11-1.54 0.2-3.51-1.24-4.23l0.21-8.35h0.51z" fill="none" stroke="#D00" stroke-miterlimit="3.864" stroke-width=".29381"/>
 <g>
  <path d="m308.84 168.1c0.1 0.52 0.83 0.83 0.52 1.45-3.3 1.24-8.36 0.62-11.87 1.54-1.86-2.16 1.75-1.54 2.27-2.99 2.69-0.72 6.4-0.72 9.08 0" fill="#231f20"/>
  <path d="m373.73 168.82c0.41 2.69-2.68 2.07-3.92 3.2-2.07-0.1-4.75 0.41-6.19-0.51 2.48-1.24 5.57-1.97 8.14-3.41 0.73 0.1 1.87-0.41 1.97 0.72" fill="#231f20"/>
  <path d="m220.53 170.27c-11.95 12.1-37.94 9.52-43.38 29.14-3.68 19.81 3.1 41.97-8.41 60.11-10.63 20.37-34.16 27.16-51.68 39.8-15.57 18.37-7.05 44.38-14.25 65.78-7.205 24.58-30.344 45.57-56.616 46.36 17.693 26.03 46.528 41.42 73.856 55.37 13.16-4.47 25.84-13.51 36.4-23.13 23.75-19.77 43.13-45.22 54.87-73.9 12.43-31.25 8.24-65.29 9.21-98.09v-101.44zm-168.87 87.9c10.807-17.3 33.36-18.59 47.552-31.37 12.928-16.34 1.948-38.34 5.768-57.19 2.14-22.48 22-39.24 42.99-44.26 23.4-3.52 24.39-27.435 21.71-46.147-2.38-27.967 21.19-52.344 48.01-56.114 0.1-7.609-25.12-15.864-36.8-15.502-37.92 1.1002-68.62 26.481-103.21 38.71-18.664 9.27-41.521 12.624-60.894 3.477 7.364 21.49 2.246 44.85 3.004 67.146-0.229 73.49-0.249 146.98 0.398 220.47 20.101 0.68 18.693-22.2 18.558-36.27 0.562-15 2.328-31.42 12.911-42.95z" fill="#3f983e"/>
 </g>
 <path d="m220.53 170.27c-11.95 12.1-37.94 9.52-43.38 29.14-3.68 19.82 3.1 41.97-8.41 60.11-10.63 20.37-34.16 27.16-51.68 39.8-15.57 18.37-7.05 44.38-14.25 65.78-7.205 24.58-30.344 45.57-56.616 46.36 17.693 26.03 46.528 41.42 73.856 55.37 13.16-4.47 25.84-13.51 36.4-23.13 23.75-19.77 43.13-45.22 54.87-73.9 12.43-31.25 8.24-65.29 9.21-98.1v-101.43zm-168.87 87.9c10.807-17.3 33.36-18.59 47.552-31.37 12.928-16.34 1.948-38.34 5.768-57.19 2.14-22.48 22-39.24 42.99-44.26 23.4-3.52 24.39-27.435 21.71-46.147-2.38-27.967 21.19-52.344 48.01-56.114 0.1-7.609-25.12-15.864-36.8-15.502-37.92 1.1002-68.62 26.481-103.21 38.71-18.664 9.27-41.521 12.624-60.894 3.477 7.364 21.49 2.246 44.85 3.004 67.146-0.229 73.49-0.249 146.98 0.398 220.47 20.101 0.68 18.693-22.2 18.558-36.27 0.556-14.98 2.34-31.45 12.911-42.95z" fill="none" stroke="#060" stroke-miterlimit="3.864" stroke-width=".29381"/>
 <g fill="#231f20">
  <path d="m407.67 173.98c-2.58 1.03-5.68 0.93-7.94 2.99-1.24-0.3-0.73-1.33-0.52-2.16 2.06-2.17 5.16-2.27 7.94-1.76l0.52 0.93z"/>
  <path d="m306.16 174.81c-4.23 3.09-10.73 1.03-14.65 5.16-0.51-0.62-1.34-1.03-0.41-1.76 1.85-1.34 3.92-4.33 6.91-4.23 1.03-0.72 2.27-1.14 3.71-0.93 1.55 1.76 3.92-1.64 4.44 1.76"/>
  <path d="m370.32 174.81c-0.2 2.16-2.16 2.78-4.02 3.2-2.48 0.2-4.95 0.62-7.64 0.51l-1.02-1.03c1.13-1.24 3.51-0.62 4.94-1.44 2.9 0.1 5.06-1.86 7.43-2.07l0.31 0.83z"/>
  <path d="m278.92 176.46c-1.75 4.02-6.6 7.43-9.69 10.93-0.62-0.41-1.24-0.51-0.93-1.44 3.3-3.51 6.18-8.05 9.9-10.42l0.72 0.93z"/>
 </g>
 <path d="m389.1 181.93c-0.93 2.06-0.31 4.64-0.52 6.91h-0.51c-0.11 3.61-0.62 7.12-0.42 10.93-0.41 0-0.82 0.42-0.82 0.73l-0.41 7.22h-0.31l-0.52 9.9c-1.34 0.51-0.41 2.48-0.72 3.72 0.21 0.3 0.52 0.2 0.72 0.2 0.31 2.48 0.21 5.88 2.06 6.91 0.73 1.34 1.55 2.68 2.9 3.51 1.02 1.34 1.95 2.68 4.02 2.99-0.1 1.34 1.54 0.52 2.16 0.93 0.31 1.65 3.3-0.1 3.51 1.75 1.65 0.62 3.61 0.62 4.75 1.96l2.47 0.31c0.41 2.37 4.44 2.27 4.44 4.65 1.13 0 0.31 2.47 1.24 2.26 0.83 0.31-0.11 2.79 1.24 2.99 0.3 4.23 0.3 9.08 0 13.31-1.45 0.62-1.04 2.68-3.21 2.27-1.44-1.44-1.02-3.82-2.47-4.95 0.72-2.17-1.34-2.48-1.55-4.23-0.21-1.34-1.44-1.65-1.44-3.19-1.45-0.42-0.21-2.69-1.96-2.69-0.11-0.41 0.2-0.82-0.31-1.03-0.93-0.51-1.13-1.86-1.75-2.68-1.04-0.31-0.83-2.79-2.69-2.27 0.41-1.96-1.75-2.38-2.47-3.92h-0.52c0.31-0.83-0.83-1.03-0.93-1.24-4.53-4.75-8.66-9.49-13.92-13.41-0.73-1.03-0.93-2.06-2.48-2.27-0.82-0.41-0.31-2.16-1.75-1.65 0.31-1.24-1.35-0.62-1.45-1.55-1.54-2.99-3.92-4.02-5.67-6.7-0.93-0.52-1.14-1.76-1.76-2.69-0.92-1.03-2.06-1.64-1.95-3.5-1.24-0.94-0.52-2.79-0.73-4.13 1.04 0.31 0.42-0.93 0.93-1.24v-0.82c1.03 0.31 0.52-0.83 1.03-1.24 1.76 0.41 3.82-1.04 4.43 1.24-0.82 0.72-0.61 1.75-0.2 2.78 0.83 0.62 1.76-0.2 2.69-0.31 0.31-1.14 2.47-0.52 1.95-2.47 1.04-0.83 2.07-1.24 1.97-2.89 1.23 0.3 0.41-1.13 1.02-1.55v-0.72c1.66 0.21-0.1-2.27 1.45-1.96 0.21-1.65 1.96-1.96 1.55-3.72 1.13-1.02 1.75-2.99 3.2-3.2 1.03-1.64 1.95-3.61 2.68-4.94l0.31-2.79c0.51 0.2 1.13-0.42 0.93-0.93v3.41h-0.21z" fill="#D00"/>
 <path d="m389.1 181.93c-0.93 2.06-0.31 4.64-0.52 6.91h-0.51c-0.11 3.61-0.62 7.12-0.42 10.93-0.41 0-0.82 0.42-0.82 0.73l-0.41 7.22h-0.31l-0.52 9.9c-1.34 0.51-0.41 2.48-0.72 3.72 0.21 0.3 0.52 0.2 0.72 0.2 0.31 2.48 0.21 5.88 2.06 6.91 0.73 1.34 1.55 2.68 2.9 3.51 1.02 1.34 1.95 2.68 4.02 2.99-0.1 1.34 1.54 0.52 2.16 0.93 0.31 1.65 3.3-0.1 3.51 1.75 1.65 0.62 3.61 0.62 4.75 1.96l2.47 0.31c0.41 2.37 4.44 2.27 4.44 4.65 1.13 0 0.31 2.47 1.24 2.26 0.83 0.31-0.11 2.79 1.24 2.99 0.3 4.23 0.3 9.08 0 13.31-1.45 0.62-1.04 2.68-3.21 2.27-1.44-1.44-1.02-3.82-2.47-4.95 0.72-2.17-1.34-2.48-1.55-4.23-0.21-1.34-1.44-1.65-1.44-3.19-1.45-0.42-0.21-2.69-1.96-2.69-0.11-0.41 0.2-0.82-0.31-1.03-0.93-0.51-1.13-1.86-1.75-2.68-1.04-0.31-0.83-2.79-2.69-2.27 0.41-1.96-1.75-2.38-2.47-3.92h-0.52c0.31-0.83-0.83-1.03-0.93-1.24-4.53-4.75-8.66-9.49-13.92-13.41-0.73-1.03-0.93-2.06-2.48-2.27-0.82-0.41-0.31-2.16-1.75-1.65 0.31-1.24-1.35-0.62-1.45-1.55-1.54-2.99-3.92-4.02-5.67-6.7-0.93-0.52-1.14-1.76-1.76-2.69-0.92-1.03-2.06-1.64-1.95-3.5-1.24-0.94-0.52-2.79-0.73-4.13 1.04 0.31 0.42-0.93 0.93-1.24v-0.82c1.03 0.31 0.52-0.83 1.03-1.24 1.76 0.41 3.82-1.04 4.43 1.24-0.82 0.72-0.61 1.75-0.2 2.78 0.83 0.62 1.76-0.2 2.69-0.31 0.31-1.14 2.47-0.52 1.95-2.47 1.04-0.83 2.07-1.24 1.97-2.89 1.23 0.3 0.41-1.13 1.02-1.55v-0.72c1.66 0.21-0.1-2.27 1.45-1.96 0.21-1.65 1.96-1.96 1.55-3.72 1.13-1.02 1.75-2.99 3.2-3.2 1.03-1.64 1.95-3.61 2.68-4.94l0.31-2.79c0.51 0.2 1.13-0.42 0.93-0.93v3.41h-0.21z" fill="none" stroke="#D00" stroke-miterlimit="3.864" stroke-width=".29381"/>
 <g fill="#231f20">
  <path d="m167.82 181c-5.88 5.87-6.91 13.71-8.67 21.24-2.27 0.21-1.03-2.98-1.03-4.22 0.83-6.81 2.38-13.93 8.67-17.85 0.41 0 0.62 0.52 1.03 0.83"/>
  <path d="m336.07 180.48c0 0.41 0.52 0.62 0.83 0.93l-3.51 2.99c-5.16 0.41-10.41 0.72-14.33 4.23l-1.56-0.72c0.31-2.79 3.3-3.82 5.27-4.95 4.64-0.52 9.18-0.93 13.3-2.48"/>
  <path d="m366.09 181.2c-1.85 3.61-6.39 3.71-10.21 4.23-1.24-0.41-2.37 0.93-3.19-0.52v-0.51c3.92-1.13 8.04-1.54 11.44-3.92 0.73-0.1 1.45 0 1.96 0.72"/>
  <path d="m408.91 184.71 3.51 0.21v0.2l3.4 0.31v0.21c2.27-0.21 3.51 1.44 5.67 0.52l1.55-1.24c0.31 0.41 1.55 1.13 0.72 1.96-4.75 3.41-11.34 0.92-16.61 0.31-2.99-0.21-5.87 0.1-8.67 0.72l-0.51-0.72c3-2.07 6.71-3.41 10.94-2.79v0.31z"/>
  <path d="m363.31 186.36c-1.03 3.4-5.26 3.61-8.15 4.75-1.55-0.21-3.61 1.54-4.64-0.52 3.61-1.55 7.73-2.99 11.34-5.16 0.73-0.21 1.04 0.62 1.45 0.93"/>
  <path d="m278.2 188.42c-1.96 2.28-4.02 4.64-6.5 5.89-0.31-0.21-0.51-0.73-0.93-0.73 1.76-2.88 4.65-5.57 6.71-7.94 1.13 0.41 1.44 1.55 0.72 2.78"/>
  <path d="m409.42 191.31c1.03 0.72 2.79 0.72 4.23 1.03 1.03 1.04 3.4-0.1 4.64 1.04 1.66 0.93 3.82-2.17 4.03 0.72-3.51 1.03-8.57 1.34-11.97-0.31-4.44 0.42-9.49-0.83-13.31 1.03-0.31-0.51-1.54-0.82-0.72-1.44 3.41-2.89 8.56-1.76 13.1-2.07"/>
  <path d="m359.9 193.79c-1.96 2.47-5.25 3.82-8.45 4.54-0.73-0.1-1.14-0.72-1.76-1.24 2.47-1.45 5.16-2.06 7.22-4.23 1.03 0.31 2.99-0.83 2.99 0.93"/>
 </g>
 <path d="m371.05 195.03v0.52c-2.17-1.04-3.72 0.81-5.47 1.23-0.41-1.65 1.75-2.06 2.99-3.2 1.24-0.31 2.17 0.42 2.48 1.45" fill="#FFF"/>
 <g fill="#231f20">
  <path d="m244.05 197.81c0.11 0.41-0.2 0.72-0.51 0.93-0.62-0.41-1.24-0.52-1.76-1.24l0.21-0.92c1.24-0.42 1.55 0.51 2.06 1.23"/>
  <path d="m412.41 198.33v0.21c2.9 0.41 5.37 0.41 7.84-0.73 0.62 0.42 1.14 1.14 0.52 1.76-7.33 3.71-15.79-2.17-23.21 1.23l-0.83-0.82c1.14-1.03 2.48-2.79 4.54-2.17 2.79-1.55 5.27 0.73 8.36 0 0.62 0.83 1.86 0.31 2.78 0.52"/>
  <path d="m244.47 201.53c0 0.41-0.41 0.62-0.72 0.92-0.83-0.2-2.48-1.44-1.97-2.16 1.14-0.21 2.07 0.31 2.69 1.24"/>
  <path d="m424.79 202.25c-0.92 1.75-2.06 2.68-3.71 3.71-8.26 2.48-15.99-3.92-24.04-0.2l-0.71-0.83c2.88-2.58 7.42-2.16 11.55-2.16v0.2c5.05 0.62 11.76 2.99 16.09-1.44l0.82 0.72z"/>
  <path d="m244.05 204.72c0.11 0.41-0.2 0.72-0.51 1.03-1.14-0.51-2.48-0.93-2.27-2.47 1.55-0.41 2.07 0.42 2.78 1.44"/>
  <path d="m358.36 207.92c-1.03 2.48-3.71 4.33-6.4 4.75l-0.51-0.73 4.94-5.25c1.25-0.31 1.45 0.51 1.97 1.23"/>
  <path d="m360.42 212.36v1.24l-7.22 4.53c-0.52-0.2-1.65-0.31-1.24-1.23 2.68-1.55 4.85-4.23 7.63-5.47l0.83 0.93z"/>
  <path d="m406.95 215.14v0.52c-2.79 0.62-6.51 0.41-7.74 3.2-0.41 1.34-1.13 3.1-0.2 4.43-0.31 0.41-1.04 0.1-1.45 0.21-1.76-1.34-1.86-2.99-1.55-4.95 1.96-3 5.88-4.43 9.7-4.43 0.52 0.1 0.83 0.61 1.24 1.02"/>
  <path d="m362.9 216.38c-1.86 2.28-4.75 5.26-7.94 5.88l-0.73-0.72c1.96-1.86 5.06-4.02 7.12-6.4 0.52-0.1 1.03 0.83 1.55 1.24"/>
  <path d="m264.79 223.81c-1.14 1.34-2.37 3.3-4.23 3.71-0.31-0.41-0.93-0.82-0.72-1.55 1.96-1.54 3.61-4.23 5.26-6.18 2.27 1.13-0.21 2.68-0.31 4.02"/>
  <path d="m287.38 224.53c3.61 1.03 5.16-2.89 7.84-3.92 1.66 0.62 0.21 1.86 0 2.68-0.72 1.03-2.68 1.96-2.16 3.21 2.88-1.04 5.46-2.8 7.94-4.96l0.93 1.04c-1.14 1.95-3.51 3.71-4.23 5.66 3.4-0.31 5.98-3.3 8.25-5.98 2.06 0.72 0.1 2.48-0.31 3.51-0.82 1.34-3.51 2.58-2.68 3.92 2.48-1.34 4.43-3.61 6.4-5.16 1.44 2.78-2.79 4.85-3.2 6.91 2.47-0.31 3.51-2.47 5.67-3.4 2.27 2.58-4.13 3.3-2.16 6.4-3.31-0.62-5.78-3.1-9.18-3.21-10.63-1.23-17.65-8.14-27.76-10.62-0.31-0.93 0.62-0.21 0.73-0.83 4.74 1.24 9.59 2.38 13.92 4.75"/>
  <path d="m407.67 231.44c-1.24 0.1-1.86-1.33-2.69-1.96 0.21-1.13-0.61-2.58 0.73-3.19 1.75 0.82 1.65 3.61 1.96 5.15"/>
  <path d="m402.92 230.2c-1.23 1.03-2.47-0.71-2.89-1.44-0.2-1.03 0.21-1.65 0.93-2.27 2.06 0 1.04 2.58 1.96 3.71"/>
  <path d="m113.04 228.45c-2.07 8.77-10.62 13.41-18.263 15.89-0.619-0.21-1.748-0.21-1.238-1.24 6.701-2.48 13.921-7.33 16.821-14.13 0.61-0.83 1.96-2.07 2.68-0.52"/>
  <path d="m272.73 238.36v1.02h-1.03l-8.35-8.46v-1.43c3.09 2.47 6.39 5.66 9.38 8.87"/>
  <path d="m417.78 238.36c0.21 0.82 1.85 1.75 0.52 2.27-2.59-0.94-3.82-2.89-5.68-4.96-0.1-0.62 0.1-1.64 1.03-1.23 1.24 1.54 2.37 2.99 4.13 3.92"/>
  <path d="m118.3 236.7c-3.4 7.74-11.55 13.31-19.392 15.07l-1.237-1.24c7.319-3.3 14.749-8.15 20.109-14.65l0.52 0.82z"/>
  <path d="m383.63 237.94c-1.14 2.07-3.3 3.51-5.16 4.95-0.71 0.11-1.85-0.41-1.54-1.24 2.26-1.23 3.5-3.5 5.77-4.74l0.93 1.03z"/>
  <path d="m386.62 240.83c-0.72 2.99-3.92 4.02-5.98 5.99-0.52 0-1.14 0.1-1.45-0.52 1.66-1.76 4.23-4.02 5.99-6.19 0.62-0.21 1.03 0.31 1.44 0.72"/>
  <path d="m322.77 243.31c-0.93 2.37-3.71 3.3-5.68 4.54-3.51 0.1-7.01-0.83-8.46-4.03 0.83 0.31 2.38 0.52 3.51 0.72 2.79-1.02 7.02 1.35 8.87-1.95 0.73-0.11 1.35 0.2 1.76 0.72"/>
  <path d="m389.61 244.13c-0.3 2.68-2.89 3.51-4.74 5.16-1.96 0.42-3.4 3.3-5.47 2.27v-1.03c3.09-2.07 6.6-4.33 8.67-7.64 1.13-0.51 1.03 0.72 1.54 1.24"/>
  <path d="m122.74 245.78c-4.13 7.12-10.94 12.48-18.88 13.41-0.31-0.2-0.51-0.72-0.93-0.72 0.52-1.75 2.58-1.55 3.92-2.26 6.19-2.28 10.63-7.54 14.86-12.38 0.51 0.41 1.85 0.92 1.03 1.95"/>
  <path d="m393.33 248.57c-0.83 2.16-3.51 3.09-5.26 4.64-2.27 0.72-4.23 3.92-6.6 2.79 1.65-2.48 4.74-3.51 6.9-5.99l2.69-3.2c0.62 0.42 1.65 0.93 2.27 1.76"/>
  <path d="m325.24 248.26c-2.16 2.47-5.15 5.46-8.97 4.23-1.45-0.31-2.07-2.17-3.2-2.99 2.06-0.21 4.23 1.65 6.71 0.3 2.16-0.1 3.5-3.81 5.46-1.54"/>
  <path d="m127.69 252.28c-4.33 7.12-11.86 12.59-19.81 13.83-0.41-0.42-1.13-0.93-0.51-1.45 6.91-3.71 13.82-8.05 19.6-14.13 0.51 0.41 0.82 1.03 0.72 1.75"/>
  <path d="m396.01 252.8c-3.51 3.3-7.32 6.08-11.66 7.63-0.2-0.2-0.31-0.62-0.72-0.51 0.83-2.27 3.82-2.27 5.47-4.23 2.06-1.04 5.47-8.57 6.91-2.89"/>
  <path d="m328.23 253.21c-0.51 1.86-2.06 3.61-3.71 4.54-2.79 0.52-5.78 0.31-7.74-1.76v-0.72c2.38 1.24 4.64-0.41 6.92-0.51 1.54-0.52 3.2-3.2 4.53-1.55"/>
  <path d="m289.34 253.73c0.1 0.3-0.21 0.61-0.52 0.51-0.71 0.2-1.02-0.31-1.43-0.72 0.2-1.34 1.85-0.93 1.95 0.21"/>
  <path d="m398.49 256c-0.31 1.54-2.38 3.3-3.92 4.22-2.17 0.93-4.23 3.72-6.5 2.9v-0.93c3.2-2.17 5.57-4.55 8.45-7.43 1.04-0.41 1.66 0.52 1.97 1.24"/>
  <path d="m291.51 256.2c-0.62 1.14-1.76 1.14-2.48 0.31-0.2-0.52-0.1-1.55 0.82-1.55 0.63 0.21 1.45 0.52 1.66 1.24"/>
  <path d="m332.15 258.68c-0.82 1.96-2.99 3.09-4.74 4.02-2.27-0.51-4.23 0-5.68-2.06v-0.73c0.62 0 1.86 0.11 2.48 0.73 2.27-1.14 5.26-1.14 6.71-3.92 0.92 0 1.64 1.03 1.23 1.96"/>
  <path d="m293.06 258.16c-0.93 2.07 2.47 2.58 0.21 4.23 0.71 0.62 1.33-0.21 1.74 0.73 0.21 0.72-0.31 1.13-0.72 1.54-0.92 0.2-1.64-0.31-2.26-1.03 1.34-1.14-2.38-2.69 0.31-3.71-0.62-0.31-1.25 0.1-1.76-0.73-0.31-0.93 0.41-1.75 1.24-1.75 0.62-0.31 0.83 0.51 1.24 0.72"/>
  <path d="m278.72 258.16c0.72 1.66 4.43 0.62 2.68 2.99-1.35-0.61-3.4-0.61-3.92-1.96-0.41-0.93 0.52-1.13 1.24-1.03"/>
  <path d="m133.36 259.71c-4.85 7.22-12.07 12.69-20.32 14.13-0.21-0.41-1.03-0.62-0.72-1.23 7.53-3.2 13.92-8.26 20.32-13.93l0.72 1.03z"/>
  <path d="m400.76 260.64v0.83c-3.82 2.88-7.64 5.77-12.17 7.11l-0.73-0.72c4.44-1.86 7.43-6.39 11.87-8.67l1.03 1.45z"/>
  <path d="m74.456 260.43c-1.136 1.55-3.301 2.58-4.948 3.92-8.258 7.63-9.704 18.46-12.688 28.48-0.727 0.2-1.245-0.11-1.655-0.73 0.101-6.29 2.273-11.76 3.711-17.54 2.792-5.67 8.359-13.72 15.062-14.85-0.1 0.31 0.309 0.51 0.518 0.72"/>
  <path d="m402.92 266.11c-2.89 2.37-6.5 4.02-9.9 5.98l-1.24-0.52c3.3-2.47 6.2-5.67 9.49-8.15 0.63 0.62 1.65 1.55 1.65 2.69"/>
 </g>
 <path d="m318.02 265.38c-1.24 3.92-1.75 8.15-1.44 12.59 0.3 1.24 1.85 2.37 3.2 2.78 3.71-1.64 6.29 2.48 9.9 2.48 0.51 1.75 0 4.54 0.51 6.71-0.62 7.32 3.51 10.82 6.91 16.5 0.73 7.22 4.44 13.31 8.46 18.88-2.78 5.37-0.41 11.66 1.66 16.51-1.24 2.26-0.93 5.05-2.89 7.01-7.12-0.41-14.34-1.96-21.56-2.78-3.92 1.34-8.05-2.58-11.14 0.31l0.2 1.44c-0.41 0.51-1.13 0.2-1.75 0.2-2.06-1.02-2.68-3.61-4.44-4.64-1.75 1.34-0.72 4.03-0.93 5.68-1.34 0-2.16-1.45-2.48-2.48 0.11-1.55-0.1-2.99-1.23-3.92-1.24 1.65-2.79 3.3-2.48 5.67-2.78-1.13-0.72-4.43-2.06-6.18-1.75 0-1.86 2.06-2.48 3.19 0.11 0.83 0.31 1.55-0.41 1.97-2.06-0.31-2.16-2.07-2.78-3.72 0-1.03 1.13-2.27 0-3.2-1.45 0.21-1.45 1.86-2.48 2.69l0.31 3.5c-1.13 0.42-1.75-1.34-2.27-2.27-0.83-1.96 1.76-3.61-0.21-5.15-3.3-0.11-6.91-0.31-8.66 2.68-2.58 3.3-1.75 10.1-7.74 9.69-6.71 0.1-14.13 0.21-20.32-1.96l-0.21-1.03c2.06-5.16 3.41-11.04 7.64-14.85 5.46-0.93 10.11-2.58 14.44-6.4 4.23-1.75 10.21-1.03 14.33-0.31 13.01 1.96 26.21 4.34 39.62 4.75 1.86-1.14 1.45-3.1 2.17-4.75-3.3-6.19-10.11-10.21-11.86-17.02-5.47-4.34-10.63-10.01-11.66-16.82-2.69-2.68-2.89-6.8-2.69-10.93 2.69-8.05 13.11-9.7 15.38-17.85 0.61 0 1.96-0.1 1.44 1.03" fill="#FFF"/>
 <g fill="#231f20">
  <path d="m139.55 266.62v1.03c-5.67 8.05-14.65 12.38-23.73 14.34-0.41-0.41-1.24-1.03-0.51-1.54 9.08-2.28 16.3-9.08 23.72-14.35l0.52 0.52z"/>
  <path d="m404.47 270.54c-0.41 1.45-4.23 2.78-1.75 4.75 0.72-0.21 1.34-1.45 2.27-0.73 0.72 0.62 0.72 2.27 0 2.99-1.14 0.11-1.86 1.35-2.07 2.48v1.44c0.83 0 1.86-2.68 3-1.02 1.95 4.22-4.75 3.19-3.2 7.01 0.82 0 1.65-1.55 2.27 0 0.72 2.78-4.96 3.61-2.07 6.08 0.93 2.79-4.84 3.61-1.65 6.2-0.82 2.68-3.61 4.64-4.02 7.74-3.3 2.88-2.58 7.32-6.7 9.89-1.66 2.69-3.82 5.68-5.37 8.67-4.75-2.68 2.16-5.88 2.68-8.67 0.21 0.11 0.31-0.1 0.52-0.31-2.06-1.23-4.13 0.42-6.19 0.52-0.31-0.31-0.83-0.83-1.03-0.93 3.81-1.85 8.66-2.06 11.14-5.77-2.17-0.52-5.06 2.26-6.91-0.42 0.72-1.34 1.65 0.42 2.47-0.51 2.48-2.06 6.91-1.55 7.63-5.47-2.47-0.92-5.25 2.89-7.42 0.21 3.6-1.45 8.25-1.96 10.21-5.88-2.58-1.35-5.05 2.68-6.91 0.2 2.89-1.34 6.19-2.98 8.15-5.67l-0.52-0.52c-2.16 1.03-5.15 3-7.22 1.55 3.1-1.96 7.74-2.99 8.67-6.7-2.06 0.1-4.34 1.23-6.4 2.26l-1.03-1.03c2.68-2.27 6.81-3.2 7.74-6.91l-0.73-0.72c-2.68 1.03-4.85 3.1-7.94 3.2l-0.72-0.72c3.1-1.55 5.88-3.92 8.66-6.2l0.21-2.05c-3.09-0.21-5.77 4.53-8.46 1.74 3.81-2.99 7.43-4.84 10.94-8.66 1.03-0.2 1.13 1.34 1.75 1.96"/>
  <path d="m310.9 283.95c-0.82 1.03-0.21 2.58-1.54 3.51-2.69-1.13-0.21-2.89-0.93-4.95 1.13-0.31 2.26 0.31 2.47 1.44"/>
  <path d="m329.16 292.82c-2.58 1.96-4.95 4.64-7.94 5.68-0.52-0.31-1.03-1.14-0.42-1.66 2.59-2.37 5.27-3.92 7.44-6.49 0.51 0.72 0.92 1.55 0.92 2.47"/>
  <path d="m348.04 293.13c0.21 1.86-0.31 3.61-1.54 4.64-2.07-1.03 0-3.92-1.76-4.95-0.21-2.68 2.78-1.23 3.3 0.31"/>
  <path d="m102.41 293.55c-8.146 6.81-10.729 16.5-10.62 26.51-2.374-1.76-0.619-5.78-1.547-8.36-0.208-3.61 1.338-7.32 2.474-10.41 1.856-3.61 4.748-7.84 8.973-8.88l0.72 1.14z"/>
  <path d="m330.19 296.85v0.93l-7.22 4.94-1.75-0.51c1.75-2.06 4.75-3.92 6.5-6.39 1.14-0.42 1.65 0.62 2.47 1.03"/>
  <path d="m331.64 300.77c0.21 2.58-2.68 2.68-3.92 4.44l-7.22 4.02c-0.31-0.52-1.03-0.62-0.72-1.55 3.92-1.96 7.11-4.85 10.41-7.94 0.73-0.11 0.93 0.72 1.45 1.03"/>
  <path d="m333.6 305.2v1.03c-3.3 3.51-6.81 5.06-11.14 6.4-0.62-0.21-0.62-1.13-0.21-1.44 3.61-1.66 6.4-4.54 9.38-6.91 0.94-0.31 1.45 0.41 1.97 0.92"/>
  <path d="m335.87 309.64c-1.24 2.68-4.33 3.92-6.71 5.47-1.85 0.21-4.02 3.72-5.46 1.03 3.71-2.27 7.11-5.88 10.41-7.95 0.83 0 1.45 0.83 1.76 1.45"/>
  <path d="m337.11 314.18c-0.41 2.68-2.48 3.3-4.44 4.64-1.96 0-4.23 3.61-5.68 0.52 3.2-2.07 5.79-4.33 9.09-6.19l1.03 1.03z"/>
  <path d="m338.86 319.34c-1.65 2.37-4.64 3.61-7.22 4.74-0.52-0.2-1.65-0.3-1.24-1.23 2.78-1.14 4.02-3.61 6.5-4.96 0.82-0.1 1.34 0.93 1.96 1.45"/>
  <path d="m340.1 322.84c0.31 2.69-2.89 3.41-4.44 4.64-1.13 0.11-2.47 2.07-3.5 0.31v-0.82c2.57-1.34 4.54-4.13 7.22-5.15l0.72 1.02z"/>
  <path d="m342.57 326.76v1.24c-3.09 2.17-6.39 4.54-9.9 4.96l-0.72-0.73c3.09-1.55 5.05-4.23 8.15-5.68l0.93-1.23c0.62 0.21 1.23 0.83 1.54 1.44"/>
  <path d="m388.38 335.43c0.52 4.54 1.54 8.98 4.23 12.59-0.52 1.33-1.76 0.62-2.48 0.31-1.65-1.55-2.58-3.41-2.78-5.47-1.35-3.82-1.96-8.26-0.21-12.9 3.3 0.62-0.31 3.51 1.24 5.47"/>
  <path d="m342.06 331.92c-0.31 1.03-1.76 1.97-2.48 1.03-0.31-0.1-0.21-0.41-0.21-0.72 0.83-0.41 2.17-2.37 2.69-0.31"/>
  <path d="m332.67 336.87c1.24-0.3 1.55 0.83 2.47 1.55l-0.51 0.52c-2.68-0.83-5.16-2.27-7.43-4.23-0.62-1.45 0.83-2.06 1.96-1.76 0.62 1.55 2.37 2.69 3.51 3.92"/>
  <path d="m46.5 336.46c-1.446 4.54-4.748 8.98-9.186 11.35-3.502 0.72-7.523 3.61-10.933 0.72 1.237-0.72 3.92 0.72 4.957-1.24 6.185-1.13 10.724-6.6 13.615-11.86 0.928-0.31 1.137 0.41 1.547 1.03"/>
  <path d="m278.2 339.14c0.1 1.45-0.93 2.17-1.96 2.69-1.03 0.21-1.96 0-2.48-0.93 2.48 0.21 2.48-6.19 4.44-1.76"/>
  <path d="m259.32 338.42c0.31 0.62 0.72 0.62 0.52 1.45-0.93 0.41-0.73 1.95-1.96 1.54-0.41-2.68-2.38 1.03-3-1.23 0.11-0.93 0.21-1.97 1.24-2.28 1.14 1.66 1.66 0 3.2 0.52"/>
  <path d="m262.31 341.62-0.71 0.72c-0.94-0.72-1.87-1.75-0.73-2.99l1.24-1.24c1.75 0.83 0.72 2.27 0.2 3.51"/>
  <path d="m306.67 339.66c3.31-0.21 4.95 1.96 8.36 1.24 1.44 0.72 3.2 0.61 4.74 0.92v0.31c1.24 0.73 3.92-0.62 4.23 1.24-1.95 0.62-5.26-0.2-7.42-0.31-5.37-1.13-11.35-1.55-16.61-2.47-1.14 0.31-3.1 0.82-3.92-0.41l-0.31-0.31c1.75-1.76 5.16-0.62 7.73-0.93 0.42 1.44 2.18-0.21 3.2 0.72"/>
  <path d="m265.82 340.59c0.1 0.82-0.1 1.54-0.72 1.75s-1.23-0.21-1.23-0.72c-0.11-0.72 0-1.55 0.71-1.96 0.93-0.41 0.83 0.52 1.24 0.93"/>
  <path d="m268.3 341.41v0.93c-0.93 0.41-1.76-0.41-1.76-1.24 0.42-0.92 1.35-0.31 1.76 0.31"/>
  <path d="m52.38 344.3c-3.201 5.78-6.503 11.55-13.098 13.93-2.791 0.31-6.711 1.65-8.876-0.31 2.165-1.86 5.984-1.14 8.667-2.69 5.057-2.57 9.387-8.04 12.789-11.86l0.518 0.93z"/>
 </g>
 <path d="m224.97 350.29c13.31 42.4 45.49 82.42 83.67 108.42l16.84 11.01s-1.68 0.77-4.67 2.09c-4.36 2.68-23.35 10.48-26.28 11.7-26.18 10.97-59.06 27.09-68.63 37.81-11.76-11.13-25.63-17.32-39.57-24.14-3.48-1.18-57.89-25.91-59.36-27.54 18.56-9.59 33.73-22.49 48.99-37.65 8.78-10.21 17.55-20.32 24.77-31.15 3.61-6.51 6.75-11.72 10.31-19.6 5.25-11.66 9.49-23.63 11.97-36.42 1.34 1.34 1.34 3.61 1.96 5.47" fill="#FFF"/>
 <g fill="#231f20">
  <path d="m56.817 356.68c-4.129 6.81-10.833 12.69-19.292 11.45-0.309-0.52-1.136-0.83-0.927-1.54 8.667-0.31 16.298-6.82 20.737-14.55 2.474 1.24-0.518 3.09-0.518 4.64"/>
  <path d="m393.54 356.48c-9.81 10.42-23.32 17.22-35.18 25.47-1.34 0.11-2.89 2.07-4.13 0.32 10.11-6.4 19.91-13.52 29.71-20.64l8.15-5.87c0.93-0.31 1.04 0.41 1.45 0.72"/>
  <path d="m64.553 362.87c-1.755 6.91-8.768 13.11-15.371 15.16-2.165 0.52-4.948 1.35-6.394-0.72 2.165-0.41 4.229-1.13 6.185-2.26 2.784-1.04 5.467-2.89 7.84-4.96 2.583-1.95 5.057-5.36 6.712-8.15l1.028 0.93z"/>
  <path d="m70.228 372.36c-2.374 6.91-8.359 12.69-15.371 14.54-2.683-0.1-5.884 0.42-7.632-1.23 2.683-0.31 5.049-1.24 7.632-1.76 5.775-1.95 10.731-7.53 14.853-12.07l0.518 0.52z"/>
  <path d="m77.138 379.79c-3.201 7.84-11.451 13-19.291 14.54-1.136-0.2-3.711 0.73-3.92-1.23 8.668-1.45 17.018-6.92 21.974-14.34 0.928-0.42 0.928 0.51 1.237 1.03"/>
  <path d="m308.84 389.9c-0.62 0.93-1.96 0.93-2.68 0-0.52-0.62 0.31-1.24 0.72-1.76 1.44-1.85 3.61 0.11 1.96 1.76"/>
  <path d="m312.55 390.11c-0.21 0.82-0.31 1.75-1.23 2.27-0.83-0.31-1.86-0.73-1.45-1.97 0.73-1.02 2.06-1.85 2.68-0.3"/>
  <path d="m315.85 391.14c-0.3 1.03-0.51 2.06-1.54 2.68-0.93-0.72-1.04-1.24-0.93-2.47 0.1-1.45 2.07-1.86 2.47-0.21"/>
  <path d="m318.74 392.38c-0.31 0.92 0 2.06-1.23 2.68-0.62 0.21-1.24-0.62-1.45-1.24-0.1-0.93 1.04-1.75 1.75-2.16 0.41 0 0.62 0.51 0.93 0.72"/>
  <path d="m233.33 409.19c3.51-0.83 7.12-0.72 10.21 1.03 4.02 1.34 6.8 3.92 10.41 6.4 4.44 4.02 8.26 9.7 5.89 16.4 2.37 1.55 7.22 0.52 6.91 4.64 0.31 2.27-2.06 3.82-3.4 4.96 3.09 2.37 5.26 5.98 5.46 10.21 0.31 7.11-1.96 13.21-5.46 18.77-2.68 3.4-6.5 3.92-10.42 4.23-0.31 1.14 0.51 1.86 1.02 2.69 0.11 2.47 1.04 6.08-1.74 7.43-3 0.51-5.27-0.52-7.43-1.97-1.03 2.17-0.83 4.85-2.79 6.71-5.05 5.77-13.2 4.22-20.22 5.15-6.71-0.31-14.86-2.36-17.33-9.18 0-0.41-0.1-0.92-0.52-1.23-2.26 0.52-4.33 2.37-6.9 1.23-1.35-0.92-1.76-2.78-1.56-4.63-0.31-1.45 2.99-3.21 0-4.03-6.59 0.11-10.31-8.04-12.79-12.79-1.65-4.75-3.4-11.24-0.51-15.89l3.4-3.2c-1.96-2.27-4.74-4.64-3.92-8.14 1.34-4.03 9.8-0.21 6.91-5.27-0.51-2.16-0.41-5.36 1.04-7.43 3.61-8.87 13.4-16.5 23.72-16.09 1.13 1.65 3.41 0.62 4.44 2.47 1.44-0.61 2.58-2.88 3.51-4.22 0.71-1.24 2.06-1.24 2.99-2.17 5.15-0.62 3.71 10.62 9.08 3.92"/>
 </g>
 <path d="m241.58 411.98 1.44 0.2c0.93 1.03 1.45 2.07 3.2 1.96 2.37 1.96 5.36 2.89 6.91 5.47 0.83 0.11 1.96 0.62 2.06 1.44 0.52 0.73 0.73 1.76 1.66 2.07-0.21 0.41 0.41 1.34 0.51 1.96h0.52c0.1 1.44-0.1 3.4 1.03 3.91-0.82 1.25-1.03 4.03-2.06 5.48-0.83 0.93-2.17 2.05-2.89 3.19-0.83-0.2-1.55 0.31-1.76 1.04-0.1 0.51 0 0.93 0.52 1.23h0.21v0.72c-0.42-0.1-0.52 0.31-0.73 0.52 2.07 3.71 7.64 1.96 10.63 3.71-0.11 1.24 1.96 0.52 1.24 2.17 1.55 0.93 1.13 2.99 1.75 4.54-1.44 2.37-0.31 6.6-1.03 9.59-1.34 0.21-0.52 2.07-0.93 2.99-0.93 0.73-1.34 2.38-2.06 3.51 0.31 1.96-2.17 1.96-2.48 3.41-0.92 1.34-2.89 0.72-3.4 2.27-1.34 0.2-3.3-0.62-4.03 0.72-1.54-1.34-4.74-0.21-6.18-1.96-0.93 0.51-2.59-0.11-3.2 0.93-0.62 0.62-1.96 2.68-0.72 4.02l-0.73 0.72 0.93 0.73c0.42 3.19 0.52 6.8-0.93 9.38-0.93 0.72-2.27 1.14-2.78 2.07-0.72 0.72-2.69-0.52-2.69 0.93-5.25 2.26-12.68 1.02-18.77 1.02-1.14-1.44-3.61-0.31-5.26-1.02-0.93-1.24-3-1.45-3.93-2.69-1.74-1.44-0.92-3.82-0.71-5.98 1.23 0.1 0.61-1.65 1.44-1.96 1.14-2.37-0.83-3.61-1.24-5.67-1.34-0.42-2.68-0.62-4.22-0.52-2.28 1.14-3.82 2.78-6.92 1.96-1.03-1.03-2.16-0.93-3.41-1.96-0.92-0.41-1.54-1.55-2.47-1.96-0.2-1.34-1.34-1.03-1.24-2.48-1.03 0-1.13-0.93-1.03-1.75-1.54-1.24-1.75-3.1-2.99-4.43-0.11-0.83 0.41-2.38-0.93-2.28-0.31-1.13 0.62-2.78-0.82-3.4-0.41-3.82 0.41-7.22 2.78-8.67 0.62-0.93 1.86-1.44 2.68-2.26 2.17-0.21 4.54 0.62 5.47-0.73 1.65 0 3.41-1.55 3.92-2.78v-0.72c1.96-0.42-0.62-1.14-0.41-2.18h-0.52c0.21-1.54-1.34-1.33-1.24-2.78-1.95-1.95-4.64-3.09-4.94-6.18l0.2-4.44c0.92-1.14 1.34-2.07 1.96-3.51 0.31-1.75 2.37-2.79 2.99-4.43 2.07-0.52 3-2.38 4.95-3.41 0.42-1.24 2.68-1.13 2.99-2.48 2.59-0.92 5.58-1.03 7.43-2.06 0.62 0.83 2.69 0.62 3.92 1.03 0.93 0.62 1.96 1.75 3.2 1.96 0.11 0.42-0.2 0.83 0.31 1.04 0.92 0.31 1.03 2.16 1.75 2.99l0.73 1.65c-1.14-1.14-2.07-1.86-2.99-2.9-2.28-0.41-5.37-0.51-6.92 0.94-0.31 0.1-0.82-0.21-1.03 0.31 0.21 0.72-0.72 0.62-1.24 0.72-0.62 1.13-3.09 0.62-2.68 2.68-1.86 0.72-1.86 4.23-4.95 3.19-0.31 0-0.62 0-0.73 0.32v0.51c-2.26-0.41-2.47 1.45-4.02 2.17-0.31 0.21-0.21 0.51-0.21 0.72-0.62 0.93-2.36 1.86-2.67 3-0.73 2.26 1.13 3.5 1.24 5.46h0.4c0 1.24 1.66 0.62 1.76 1.76 1.86 0 2.37 1.95 3.5 2.99 0.52 2.67-0.72 4.12-2.78 4.95-2.17 0.52-3.81 0.1-5.88 0.93-1.44 1.34-2.16 2.78-3.2 4.43-0.41 2.17 0.41 4.74 1.24 6.5 0.42 0.62 1.96 1.55 2.47 2.17-0.41 1.34 1.56 0.41 1.25 1.75 0.2 1.44-0.63 3.51 0.72 4.23 0.72 0.73-0.52 2.68 0.92 2.68 1.14 1.35 1.76 2.99 3.52 4.03 1.74-0.52 3.5 0.93 4.94-0.31 0.93-0.73 2.17-0.31 3.71-0.42 1.35 0.83 2.49 2.79 1.97 4.96-0.21-0.11-0.31 0.1-0.52 0.2 0.31 0.31 0.52 0.62 1.04 0.52 1.13-0.31-0.31-2.27 1.23-1.96 0.31-0.93 0.31-2.37 0-3.3h-0.51c-0.21-0.83-0.41-2.17-1.45-2.68-3.71-1.86-5.68 2.68-9.7 0.72-0.82-1.24-2.37-1.76-2.47-3.71l-0.21-4.96c0.31 0.11 0.52-0.31 0.73-0.51-2.07-2.38-4.03-2.79-5.17-5.89h-0.51c0.31-2.47-1.03-5.46 1.24-6.49 0.21 0 0.52 0.1 0.72-0.21v-0.52c3.72 0.62 7.12-0.72 9.69-2.68l-0.3-4.74c-0.93 0.41-0.31-0.73-0.72-0.94-2.69-2.57-7.02-2.67-6.71-7.42 1.03 0.31 0.51-0.93 1.03-1.23 2.99-2.18 4.44-4.54 8.36-4.96 1.14-1.86 2.68-2.99 3.51-4.74 1.34 0 0.82-1.35 2.16-1.25 1.86-1.43 4.33-2.57 7.23-1.74 0.41 0.92 1.74 1.13 1.23 2.78 0.31 0.31 1.03 0.31 0.72 0.93-0.31-0.1-0.52 0.41-0.72 0.52 1.34 1.85 1.96 4.43 5.16 3.71 0 0.31 0 0.62 0.31 0.72-0.1-1.24 1.34-0.62 1.96-1.24 1.44-1.55 0.92-3.61 2.48-4.95-0.11-1.44 1.13-1.34 1.44-2.47h4.23c0.72 1.44 3.41 1.03 4.02 2.47 3.82 1.34 1.34 6.5 5.88 5.99 2.27 1.23 5.68 1.33 6.5 4.43h0.41c1.45 4.23-3.71 5.05-3.92 8.66h-0.52c-0.3 0.83-0.3 2.17 0 3h0.52c-0.41 1.23 1.24 1.23 1.45 1.96 2.68 0.31 5.87 0.2 7.43 1.96v4.74c-1.35 0.21-0.31 2.38-1.24 3.2-0.83 1.03-3.41 1.65-2.17 3.92h0.52c0.31 3.41 0.72 7.53-1.76 9.7-1.24 1.44-3.81 1.44-5.67 1.03-0.62-1.34-2.89-0.41-3.51-1.76-2.16-0.41-3.3 0.62-4.74 1.45-0.52 0.72 0.21 1.75-0.93 1.96 0.93 2.58 1.44 5.98 0.52 8.46-1.86 0.93-2.38 3.3-4.75 3.5-2.99 1.24-4.44-1.23-7.43-0.82 0.21-1.13-1.13-0.82-1.75-1.24-2.48 1.04-5.78 2.58-8.16 0.52-2.26-0.21-2.47-1.14-3.92-2.17-0.41 0-0.2-1.13-1.02-0.82-0.41 0.51-0.1 1.23-0.21 1.75 0.11 0.31 0.41 0.31 0.72 0.31-0.31 1.96 1.24 2.47 2.48 3.2h0.52c0.72 1.34 3.5 0.41 4.43 1.75 0.72-1.44 3.51-0.2 3.92-1.75h0.51v0.51c1.24 0.31 2.69 0.31 3.92 0.42v0.51c2.28 0.42 4.95 0.42 7.23 0v-0.51c0.92 0.31 1.44-0.31 2.27-0.42-0.21-0.82 0.72-0.62 1.24-0.82 1.33-0.62 1.85-2.48 2.68-3.92 0.41-2.48-0.62-4.34-1.04-6.4 1.24-0.41 0.83-1.75 1.76-2.27 4.85-0.1 12.28 1.96 14.13-3.71 1.14-0.62 0.83-2.27 1.24-3.51h0.21c0.72-2.99-0.52-7.22 2.06-9.07 0.82-2.9 0.51-5.47 0.2-8.46-1.54-1.24-3.09-2.79-5.67-2.49-1.76-0.3-4.33-1.43-2.99-4.22 1.13-1.13 1.75-2.06 2.68-3.41 1.86-1.13 0.73-3.82 1.04-5.77-1.35-0.31-0.42-2.38-1.76-2.48-0.73-0.62-0.73-2.06-2.16-1.96-0.83-1.44-2.28-1.65-4.03-2.17-0.1-0.92-1.13-0.41-1.75-0.82-0.11-1.34-1.24-0.93-1.24-2.48-0.93-0.82-1.96-1.54-2.89-2.47h-0.83c-1.13-1.35-3.3-2.17-4.94-2.17-0.11-0.92-1.24-0.31-1.97-0.51-0.83 1.02-2.37 2.06-3.92 1.75 0.42-2.68 2.99-3.4 3.92-5.67 1.04 0.41 1.55-0.72 1.97-1.03 2.47 0 5.36-0.11 7.01 1.03" fill="#c1001f"/>
 <path d="m241.58 411.98 1.44 0.2c0.93 1.03 1.45 2.07 3.2 1.96 2.37 1.96 5.36 2.89 6.91 5.47 0.83 0.11 1.96 0.62 2.06 1.44 0.52 0.73 0.73 1.76 1.66 2.07-0.21 0.41 0.41 1.34 0.51 1.96h0.52c0.1 1.44-0.1 3.4 1.03 3.91-0.82 1.25-1.03 4.03-2.06 5.48-0.83 0.93-2.17 2.05-2.89 3.19-0.83-0.2-1.55 0.31-1.76 1.04-0.1 0.51 0 0.93 0.52 1.23h0.21v0.72c-0.42-0.1-0.52 0.31-0.73 0.52 2.07 3.71 7.64 1.96 10.63 3.71-0.11 1.24 1.96 0.52 1.24 2.17 1.55 0.93 1.13 2.99 1.75 4.54-1.44 2.37-0.31 6.6-1.03 9.59-1.34 0.21-0.52 2.07-0.93 2.99-0.93 0.73-1.34 2.38-2.06 3.51 0.31 1.96-2.17 1.96-2.48 3.41-0.92 1.34-2.89 0.72-3.4 2.27-1.34 0.2-3.3-0.62-4.03 0.72-1.54-1.34-4.74-0.21-6.18-1.96-0.93 0.51-2.59-0.11-3.2 0.93-0.62 0.62-1.96 2.68-0.72 4.02l-0.73 0.72 0.93 0.73c0.42 3.19 0.52 6.8-0.93 9.38-0.93 0.72-2.27 1.14-2.78 2.07-0.72 0.72-2.69-0.52-2.69 0.93-5.25 2.26-12.68 1.02-18.77 1.02-1.14-1.44-3.61-0.31-5.26-1.02-0.93-1.24-3-1.45-3.93-2.69-1.74-1.44-0.92-3.82-0.71-5.98 1.23 0.1 0.61-1.65 1.44-1.96 1.14-2.37-0.83-3.61-1.24-5.67-1.34-0.42-2.68-0.62-4.22-0.52-2.28 1.14-3.82 2.78-6.92 1.96-1.03-1.03-2.16-0.93-3.41-1.96-0.92-0.41-1.54-1.55-2.47-1.96-0.2-1.34-1.34-1.03-1.24-2.48-1.03 0-1.13-0.93-1.03-1.75-1.54-1.24-1.75-3.1-2.99-4.43-0.11-0.83 0.41-2.38-0.93-2.28-0.31-1.13 0.62-2.78-0.82-3.4-0.41-3.82 0.41-7.22 2.78-8.67 0.62-0.93 1.86-1.44 2.68-2.26 2.17-0.21 4.54 0.62 5.47-0.73 1.65 0 3.41-1.55 3.92-2.78v-0.72c1.96-0.42-0.62-1.14-0.41-2.18h-0.52c0.21-1.54-1.34-1.33-1.24-2.78-1.95-1.95-4.64-3.09-4.94-6.18l0.2-4.44c0.92-1.14 1.34-2.07 1.96-3.51 0.31-1.75 2.37-2.79 2.99-4.43 2.07-0.52 3-2.38 4.95-3.41 0.42-1.24 2.68-1.13 2.99-2.48 2.59-0.92 5.58-1.03 7.43-2.06 0.62 0.83 2.69 0.62 3.92 1.03 0.93 0.62 1.96 1.75 3.2 1.96 0.11 0.42-0.2 0.83 0.31 1.04 0.92 0.31 1.03 2.16 1.75 2.99l0.73 1.65c-1.14-1.14-2.07-1.86-2.99-2.9-2.28-0.41-5.37-0.51-6.92 0.94-0.31 0.1-0.82-0.21-1.03 0.31 0.21 0.72-0.72 0.62-1.24 0.72-0.62 1.13-3.09 0.62-2.68 2.68-1.86 0.72-1.86 4.23-4.95 3.19-0.31 0-0.62 0-0.73 0.32v0.51c-2.26-0.41-2.47 1.45-4.02 2.17-0.31 0.21-0.21 0.51-0.21 0.72-0.62 0.93-2.36 1.86-2.67 3-0.73 2.26 1.13 3.5 1.24 5.46h0.4c0 1.24 1.66 0.62 1.76 1.76 1.86 0 2.37 1.95 3.5 2.99 0.52 2.67-0.72 4.12-2.78 4.95-2.17 0.52-3.81 0.1-5.88 0.93-1.44 1.34-2.16 2.78-3.2 4.43-0.41 2.17 0.41 4.74 1.24 6.5 0.42 0.62 1.96 1.55 2.47 2.17-0.41 1.34 1.56 0.41 1.25 1.75 0.2 1.44-0.63 3.51 0.72 4.23 0.72 0.73-0.52 2.68 0.92 2.68 1.14 1.35 1.76 2.99 3.52 4.03 1.74-0.52 3.5 0.93 4.94-0.31 0.93-0.73 2.17-0.31 3.71-0.42 1.35 0.83 2.49 2.79 1.97 4.96-0.21-0.11-0.31 0.1-0.52 0.2 0.31 0.31 0.52 0.62 1.04 0.52 1.13-0.31-0.31-2.27 1.23-1.96 0.31-0.93 0.31-2.37 0-3.3h-0.51c-0.21-0.83-0.41-2.17-1.45-2.68-3.71-1.86-5.68 2.68-9.7 0.72-0.82-1.24-2.37-1.76-2.47-3.71l-0.21-4.96c0.31 0.11 0.52-0.31 0.73-0.51-2.07-2.38-4.03-2.79-5.17-5.89h-0.51c0.31-2.47-1.03-5.46 1.24-6.49 0.21 0 0.52 0.1 0.72-0.21v-0.52c3.72 0.62 7.12-0.72 9.69-2.68l-0.3-4.74c-0.93 0.41-0.31-0.73-0.72-0.94-2.69-2.57-7.02-2.67-6.71-7.42 1.03 0.31 0.51-0.93 1.03-1.23 2.99-2.18 4.44-4.54 8.36-4.96 1.14-1.86 2.68-2.99 3.51-4.74 1.34 0 0.82-1.35 2.16-1.25 1.86-1.43 4.33-2.57 7.23-1.74 0.41 0.92 1.74 1.13 1.23 2.78 0.31 0.31 1.03 0.31 0.72 0.93-0.31-0.1-0.52 0.41-0.72 0.52 1.34 1.85 1.96 4.43 5.16 3.71 0 0.31 0 0.62 0.31 0.72-0.1-1.24 1.34-0.62 1.96-1.24 1.44-1.55 0.92-3.61 2.48-4.95-0.11-1.44 1.13-1.34 1.44-2.47h4.23c0.72 1.44 3.41 1.03 4.02 2.47 3.82 1.34 1.34 6.5 5.88 5.99 2.27 1.23 5.68 1.33 6.5 4.43h0.41c1.45 4.23-3.71 5.05-3.92 8.66h-0.52c-0.3 0.83-0.3 2.17 0 3h0.52c-0.41 1.23 1.24 1.23 1.45 1.96 2.68 0.31 5.87 0.2 7.43 1.96v4.74c-1.35 0.21-0.31 2.38-1.24 3.2-0.83 1.03-3.41 1.65-2.17 3.92h0.52c0.31 3.41 0.72 7.53-1.76 9.7-1.24 1.44-3.81 1.44-5.67 1.03-0.62-1.34-2.89-0.41-3.51-1.76-2.16-0.41-3.3 0.62-4.74 1.45-0.52 0.72 0.21 1.75-0.93 1.96 0.93 2.58 1.44 5.98 0.52 8.46-1.86 0.93-2.38 3.3-4.75 3.5-2.99 1.24-4.44-1.23-7.43-0.82 0.21-1.13-1.13-0.82-1.75-1.24-2.48 1.04-5.78 2.58-8.16 0.52-2.26-0.21-2.47-1.14-3.92-2.17-0.41 0-0.2-1.13-1.02-0.82-0.41 0.51-0.1 1.23-0.21 1.75 0.11 0.31 0.41 0.31 0.72 0.31-0.31 1.96 1.24 2.47 2.48 3.2h0.52c0.72 1.34 3.5 0.41 4.43 1.75 0.72-1.44 3.51-0.2 3.92-1.75h0.51v0.51c1.24 0.31 2.69 0.31 3.92 0.42v0.51c2.28 0.42 4.95 0.42 7.23 0v-0.51c0.92 0.31 1.44-0.31 2.27-0.42-0.21-0.82 0.72-0.62 1.24-0.82 1.33-0.62 1.85-2.48 2.68-3.92 0.41-2.48-0.62-4.34-1.04-6.4 1.24-0.41 0.83-1.75 1.76-2.27 4.85-0.1 12.28 1.96 14.13-3.71 1.14-0.62 0.83-2.27 1.24-3.51h0.21c0.72-2.99-0.52-7.22 2.06-9.07 0.82-2.9 0.51-5.47 0.2-8.46-1.54-1.24-3.09-2.79-5.67-2.49-1.76-0.3-4.33-1.43-2.99-4.22 1.13-1.13 1.75-2.06 2.68-3.41 1.86-1.13 0.73-3.82 1.04-5.77-1.35-0.31-0.42-2.38-1.76-2.48-0.73-0.62-0.73-2.06-2.16-1.96-0.83-1.44-2.28-1.65-4.03-2.17-0.1-0.92-1.13-0.41-1.75-0.82-0.11-1.34-1.24-0.93-1.24-2.48-0.93-0.82-1.96-1.54-2.89-2.47h-0.83c-1.13-1.35-3.3-2.17-4.94-2.17-0.11-0.92-1.24-0.31-1.97-0.51-0.83 1.02-2.37 2.06-3.92 1.75 0.42-2.68 2.99-3.4 3.92-5.67 1.04 0.41 1.55-0.72 1.97-1.03 2.47 0 5.36-0.11 7.01 1.03z" fill="none" stroke="#D00" stroke-miterlimit="3.864" stroke-width=".29381"/>
 <path d="m226.21 423.84c-1.14 0-1.03 1.14-2.28 0.72-0.51-1.03-1.54-1.03-2.16-1.75l-0.31-2.17c-0.2 0.11 1.04 0.31 1.55 0.42l-0.31 0.31c0.72 1.33 2.58 0.61 3.51 0.2l0.72-1.75c1.23 1.65-1.24 2.16-0.72 4.02" fill="#D00"/>
 <path d="m211.56 429.72c1.96 0.72 2.58 3.09 4.75 3.3 0.61 1.03 0.92 2.07 2.47 1.96 3.3 0.42 4.95-1.75 8.36-1.03-0.21 0.52 0.41 0.93 0.82 1.03h1.44c-0.31 0.62 0.52 0.82 1.04 0.72 0.31-0.1 0.72 0.21 0.93-0.2v-0.52c1.64-0.62 1.75-2.06 3.71-2.27 0.93-1.24 1.34-2.47 2.47-3.2 0.73-1.14 1.55-1.96 2.48-2.47 1.13 1.03-0.41 1.65-0.2 2.68-1.66 2.68-3.61 4.85-5.27 7.74 0.31 0.41 0.83 0.51 1.24 0.51 2.17-3.19 4.65-5.57 6.5-8.97 1.14-0.52 1.03 1.13 1.76 1.24-1.04 2.57-3.61 3.5-4.03 6.49-1.34 0.42-0.31 2.99-1.75 3.72 0.1 0.72-0.21 1.65 0.31 2.17h0.51c-0.2 0.82 0.31 1.33 0.42 1.95h0.51c0.21 2.69 0.42 5.47 2.79 6.2 0.1 0.92 1.24 1.23 2.16 1.02 0.41 1.45 2.38 1.14 3.51 1.97h3.41v2.47c-3.1-1.13-6.92-1.65-10.32-2.47-0.62 0.31-0.72 1.13-0.31 1.54l9.9 2.69c0 0.51 0.11 1.13-0.51 1.44-1.86-0.62-4.54 0.51-6.19-0.93-1.45-0.62-2.89 0.11-4.44 0.21-0.51 0.51-1.96 1.03-2.48 1.75-0.72 1.03-0.31 2.07-1.95 1.96-0.11 1.65-1.66 1.75-2.28 2.79-1.44 0.41-1.95 1.14-3.19 1.96-2.27-0.62-1.86 2.16-2.99 2.99v3.2h-0.42c-1.44 1.85 0.83 5.98-2.06 6.7l0.31-12.38c-0.72-0.21-0.31-1.33-1.24-1.03l-0.72 0.72-0.31 12.69h-0.93c0.1-3.61-1.13-6.6-1.03-10.21-1.96-0.31-0.1-3.2-1.96-3.4 0-1.14-1.24-1.45-2.27-1.24-1.96-0.42-2.48-2.07-4.43-2.99 0.31-2.79-3.51-1.86-5.16-1.76-0.52 1.76-3.41-0.31-3.51 1.76-0.62 0.2-1.04-0.21-1.24-0.73-0.11 1.35-1.65 0.42-2.47 0.73l-0.73-1.24c3.09-1.14 6.7-2.68 9.91-3.51 0.1-0.52 0.71-0.83 0.51-1.45-0.41-0.92-1.34-0.31-2.06-0.51-0.93 1.65-3.3 0.1-3.92 1.96-2.07 0.1-3.51 1.45-5.47 1.75v-1.44c2.27-1.03 4.64-1.96 6.19-4.02 2.48 0.31 3.2-1.24 4.44-2.68l0.31-5.27c1.23 0.31 0.41-1.03 0.92-1.45 0.73-1.54 2.59-3.5 1.55-5.66h-0.51c0.2-0.93-0.31-1.55-0.52-2.28-0.21-0.41-1.44-0.82-1.44-1.75-0.93-1.86-2.17-3.71-3-5.67 0.31-0.11 0.83 0.2 1.04-0.21v-0.72c2.16 2.89 4.23 7.22 7.42 9.9 0.31-0.2 0.73-0.2 0.93-0.51v-0.73c-2.68-3.3-4.33-6.7-7.42-9.48 0.31-0.11 0.82-0.62 1.54-0.42 0.62 1.24 2.17 1.34 2.17 2.89" fill="#231f20"/>
 <g fill="#fcef3c">
  <path d="m226.72 412.18c-0.62 2.17-0.51 5.26-2.99 5.99-1.34-1.76-1.44-4.23-1.95-5.99 1.33-0.93 0.81-3.71 2.88-3.92 1.34 1.03 1.55 2.58 2.06 3.92z"/>
  <path d="m264.27 438.38c-2.47 1.03-3.71 4.23-6.91 3l-2.16-1.24c1.02-1.65 1.64-3.71 4.13-3.92 1.43 0.72 5.35-0.83 4.94 2.16z"/>
  <path d="m227.14 436.94v1.45c-1.34 0.51-1.96-0.73-2.9-1.24 0.62-1.14 1.76 0.31 2.9-0.21z"/>
  <path d="m223.42 438.9c-0.72 0.83-2.37 1.45-3.4 2.47-1.24-0.71-0.52-3.09-2.48-2.68-1.13 0.73-1.24 2.17 0 2.68 0.93 1.66-2.06 2.38-2.79 3.72-0.41-0.61 0-1.55-0.92-1.96-0.62-0.31-0.83 0.52-1.24 0.72-0.52 1.86 1.86 3.1-0.31 4.44-0.31 0.41-0.83 0.31-1.24 0.52-1.03-5.16 3.71-8.15 6.71-11.15 2.06 1.55 5.46-3.2 5.67 1.24z"/>
  <path d="m189.58 437.97c0.21 1.45 1.96 0.21 2.69 0.93 1.13 1.14 2.99 2.37 2.47 4.23-2.47 0.93-6.29 0.93-8.87-0.52-0.72-0.82-2.37-1.75-1.75-3.4 1.65-0.83 3.3-1.65 5.46-1.24z"/>
  <path d="m232.6 439.93c1.97 1.55 3.82 3.51 4.75 6.2-1.55 0.71-2.47-0.83-4.03-1.04 0-0.72-1.13-0.52-0.72-1.45 0.72 0.31 0.83-0.51 0.72-1.02 0.52-1.14-0.72-0.83-1.24-1.24-1.43 0.52-2.57 0.83-3.71-0.21-0.72-1.45 1.24-1.14 1.55-2.47 1.55-0.72 1.24 1.75 2.68 1.23z"/>
  <path d="m227.14 443.13c0.3 0.72-0.41 0.52-0.72 0.72l-2.49 1.55c-0.2-1.55-2.36-0.93-2.16-2.48 1.75-0.51 4.44-2.68 5.37 0.21z"/>
  <path d="m220.53 444.57c-0.21 1.55 2.07 0.93 0.93 2.48-1.55 1.14-2.78 3.41-4.64 0.83-0.52-2.28 1.96-1.65 2.48-3.51 0.2 0.51 0.82 0.2 1.23 0.2z"/>
  <path d="m232.6 446.84c-0.72 1.14-2.06 1.76-3.4 1.97-1.14-0.11-1.85-1.76-2.78-1.97 1.23-0.71 3.09-2.27 4.74-1.02 0 0.92 1.03 0.61 1.44 1.02"/>
  <path d="m227.14 450.76-3.41 2.48-2.99-1.65c0.41-1.54 2.17-2.16 3.19-3.3 1.14 1.03 2.9 1.24 3.21 2.47z"/>
  <path d="m237.04 448.6c-0.41 1.24 1.76 1.34 1.03 2.68-0.51 0.41-1.24 0.62-1.96 0.52l-0.31-0.21c0 1.14-1.13 1.34-1.96 0.72l-2.17-1.96c1.97-0.1 3.41-2.47 5.37-1.75z"/>
  <path d="m216.82 451.07c0.31 1.45-1.76 1.45-1.76 2.48-1.75 0.31-1.23-1.96-2.26-2.79 1.13-1.85 3.3-1.44 4.02 0.31z"/>
  <path d="m232.09 453.76c-0.62 1.13-2.48 1.75-3.4 2.47-0.93-0.41-3-0.52-2.28-2.16 1.76-0.72 4.03-2.59 5.68-0.31z"/>
  <path d="m213.11 455.72c0.1 0.82-0.21 1.34-0.83 1.75-0.31-1.14-2.17-2.47-1.45-3.92 1.56-0.31 1.66 1.34 2.28 2.17z"/>
  <path d="m221.46 454.99c-1.13 0.62-0.83 3.21-2.99 2.48-0.21-1.14-2.78-0.72-1.45-2.48 0.83-2.37 3.72-1.13 4.44 0z"/>
  <path d="m234.87 459.43c-0.72 0-1.95-1.34-3.2-1.24-0.41-1.96 2.28-1.03 2.68-2.68 0.93-0.1 2.18 0.41 2.69-0.52 0.52 1.45-1.65 3.2-2.17 4.44z"/>
  <path d="m226.21 459.02c-1.55 0.82-2.79 2.16-4.44 0.92-0.31-1.44 1.55-2.06 2.16-3.4 0.62 0.62 2.59 1.14 2.28 2.48z"/>
  <path d="m217.23 460.67c-0.31 1.14-1.85 1.03-2.47 0.31-0.11-0.93-1.45-0.72-0.93-1.97 1.03-2.05 2.27 0.11 3.19 0.42 0.52 0.31 0.52 0.93 0.21 1.24z"/>
  <path d="m233.63 460.67c-2.16 0.41-3.71 4.95-5.98 1.54-0.93-1.95 1.65-1.23 1.75-2.78 1.76-0.52 2.69 1.14 4.23 1.24z"/>
  <path d="m222.18 463.97c-1.33 0.62-2.58-0.72-3.92-1.03 0.1-0.83 0.62-1.35 1.45-1.45 0.52 1.14 3.19 0.52 2.47 2.48z"/>
  <path d="m249.42 477.59c-0.1 2.16 2.47 2.58 1.55 5.15-1.65 1.24-1.86-1.13-3.51-0.72 0.3-1.23-1.03-0.41-1.44-1.03-0.42-1.44-2.28-2.37-1.97-4.23 1.45-1.86 4.02-0.51 5.37 0.83z"/>
  <path d="m205.37 478.31c-0.52 2.78-2.58 4.95-4.95 5.67l-2.17-0.2c-0.31-3.92 2.89-5.68 5.67-7.02 0.62 0.31 1.86 0.41 1.45 1.55z"/>
  <path d="m223.73 466.37-1.03 0.9-0.13 12.63 2.45-0.13v-9.79l0.13-2.45-1.42-1.16z"/>
  <path d="m199.1 461.08 9.81-3.61 0.77-1.29-0.65-0.78-1.55-0.12-1.29 0.77-1.68 0.39-1.16 0.39-0.64 0.51-1.41 0.52-3.23 1.16 1.03 2.06z"/>
  <path d="m241.27 453.47-0.52 1.03 0.91 1.29 9.54 2.45 0.65-2.06-5.16-1.42-4.26-1.03-1.16-0.26z"/>
  <path d="m242.69 429.1-4.77 6.32-2.2 2.58-1.41-0.39 2.18-3.35 3.23-4.52 0.65-2.19 2.32 1.55z"/>
  <path d="m206.71 428.33 3.48 5.15 2.33 3.23 1.54 1.29 1.16-0.39 0.13-1.16-4.13-5.29-2.19-2.97-1.29-1.02-1.03 1.16z"/>
 </g>
</svg>