<svg id="Layer_1" data-name="Layer 1" xmlns="http://www.w3.org/2000/svg" viewBox="0 0 627.55 759.19"><defs><style type="text/css">.cls-1{fill:#99bfa3;}.cls-2{fill:#fff;}.cls-3{fill:#e41e25;}.cls-4{fill:#f5cf16;}</style></defs><title>rheinland-palatinate-coat-of-arms</title><path class="cls-1" d="M399.91,761.39a256,256,0,0,1-256-256V213.31a1129.46,1129.46,0,0,1,512,0V505.39a256,256,0,0,1-256,256Z" transform="translate(-86.13 -20.2)"/><path d="M710.38,77.73a10.67,10.67,0,0,0-5.18-1.36,10.51,10.51,0,0,0-1.63.13,38.85,38.85,0,0,0-3.75-15.25l-.48-1-2-.72-.94.37a53.32,53.32,0,0,0-18.66,12.92A15.38,15.38,0,0,0,667,68.05a12,12,0,0,0-4.39.82l-4.87,1.91,4.43,2.78a12.31,12.31,0,0,1,4.48,5.22c2.38,5.1,1.2,10.7-2.62,12.49a5.65,5.65,0,0,1-1.67.47h-.28c-3,0-6-2.31-7.65-5.75a10.82,10.82,0,0,1-1-6l.72-5.18-4.59,2.51c-4.23,2.31-6.54,7.27-6.17,12.7a48.17,48.17,0,0,0-19.55,5.41L623,96l-.65,1.9.36.91a48.15,48.15,0,0,0,11.5,16.71c-3.78,3.92-5.19,9.21-3.44,13.7l1.91,4.87,2.78-4.43a10.83,10.83,0,0,1,4.58-3.93,11.16,11.16,0,0,1,4.68-1.07c2.88,0,5.26,1.27,6.21,3.31a4.88,4.88,0,0,1,.42,1.53l0,.28a18.64,18.64,0,1,1-33.73-6.82,8.29,8.29,0,0,1,2-2,7.75,7.75,0,0,1,4.06-1.48l5.23-.25-3.31-4.05a10,10,0,0,0-7.87-3.51A12.76,12.76,0,0,0,615,112a37.6,37.6,0,0,0-6.84-13.72l-.63-.77-2-.35-.86.55a37.59,37.59,0,0,0-10.9,10.78,11.86,11.86,0,0,0-6-1.75,9.4,9.4,0,0,0-5,1.39l-4.44,2.77,4.87,1.92a7.76,7.76,0,0,1,3.37,2.71,8.31,8.31,0,0,1,1.37,2.93,18.66,18.66,0,0,1-18.11,23,19,19,0,0,1-2-.11,18.65,18.65,0,0,1-12.77-29.91l.07-.09.06-.09a4.89,4.89,0,0,1,1.05-1.19,5.35,5.35,0,0,1,3.4-1.13,9.94,9.94,0,0,1,7.35,3.93,10.84,10.84,0,0,1,2.38,5.55l.55,5.2,3.86-3.53c3.55-3.25,4.62-8.63,3-13.81a48.15,48.15,0,0,0,17.69-9.92l.75-.69.22-2-.59-.82a48.14,48.14,0,0,0-15.16-13.47c2.73-4.71,2.84-10.18.07-14.12l-3-4.28-1.64,5a10.82,10.82,0,0,1-3.51,4.91,10.42,10.42,0,0,1-6.44,2.43,6.6,6.6,0,0,1-3.2-.77,5.63,5.63,0,0,1-1.29-1.16c-2.65-3.29-1.23-8.83,3.15-12.36a12.32,12.32,0,0,1,6.32-2.71l5.21-.54-3.53-3.86A13,13,0,0,0,562,47.78a17.26,17.26,0,0,0-5.54.94,53.32,53.32,0,0,0-11.05-19.83l-.68-.73-2-.25-.84.6a53.31,53.31,0,0,0-15,17,16.27,16.27,0,0,0-8.4-2.45,12.46,12.46,0,0,0-7.23,2.22l-4.28,3,5,1.64a12.33,12.33,0,0,1,5.6,4,11.88,11.88,0,0,1,2.76,7.32,6.74,6.74,0,0,1-2.33,5.43,5.63,5.63,0,0,1-1.51.85,5.93,5.93,0,0,1-1.71.24,9.94,9.94,0,0,1-7.35-3.93A10.83,10.83,0,0,1,505,58.31l-.55-5.2-3.86,3.53c-3.55,3.25-4.62,8.63-3,13.81a48.15,48.15,0,0,0-17.69,9.92l-.74.69-.22,2,.59.82A48.14,48.14,0,0,0,494.7,97.35c-2.73,4.71-2.84,10.18-.07,14.12l3,4.28,1.64-5a10.82,10.82,0,0,1,3.51-4.91,10.42,10.42,0,0,1,6.44-2.43,5.81,5.81,0,0,1,4.67,2,4.94,4.94,0,0,1,.77,1.39l.11.26a18.65,18.65,0,0,1-16.87,26.54,19,19,0,0,1-2-.11,18.65,18.65,0,0,1-12.48-30.28,9.6,9.6,0,0,1,1-.94,7.74,7.74,0,0,1,3.87-1.91l5.17-.82-3.73-3.67a9.77,9.77,0,0,0-6.92-2.7,12.42,12.42,0,0,0-3.92.65A37.6,37.6,0,0,0,470.55,81l-.75-.73-2-.07-.76.61a37.58,37.58,0,0,0-9.65,11.91,12.14,12.14,0,0,0-5-1.14,9.51,9.51,0,0,0-6,2l-4.11,3.24,5,1.38a7.74,7.74,0,0,1,3.64,2.32,9.38,9.38,0,0,1,.9,1.12l0,.07a18.64,18.64,0,1,1-31.71.16l.05-.09,0-.09a4.89,4.89,0,0,1,.92-1.3,5.59,5.59,0,0,1,4-1.53,10.12,10.12,0,0,1,7,3.15,10.82,10.82,0,0,1,3,5.26l1.1,5.12,3.46-3.93c3.18-3.62,3.66-9.07,1.45-14a48.16,48.16,0,0,0,16.52-11.77l.67-.77v-2l-.67-.75a48.15,48.15,0,0,0-16.52-11.77c2.21-5,1.73-10.43-1.45-14l-3.46-3.93-1.1,5.12a10.82,10.82,0,0,1-3,5.26,10.12,10.12,0,0,1-7,3.15,6.21,6.21,0,0,1-2.43-.46,5.62,5.62,0,0,1-1.41-1c-3-3-2.17-8.65,1.81-12.63a12.32,12.32,0,0,1,6-3.37l5.12-1.1-3.93-3.46a12.64,12.64,0,0,0-8.5-3.07,16.89,16.89,0,0,0-7.06,1.63,53.3,53.3,0,0,0-13.12-18.53l-.83-.67h-2l-.75.67A53.32,53.32,0,0,0,385,39.4a16.88,16.88,0,0,0-7.06-1.63,12.64,12.64,0,0,0-8.5,3.07l-3.93,3.46,5.12,1.1a12.33,12.33,0,0,1,6,3.37c4,4,4.79,9.65,1.81,12.63a5.63,5.63,0,0,1-1.41,1,6.2,6.2,0,0,1-2.43.46,10.12,10.12,0,0,1-7-3.15,10.82,10.82,0,0,1-3-5.26l-1.1-5.12-3.46,3.93c-3.18,3.62-3.66,9.07-1.45,14a48.15,48.15,0,0,0-16.52,11.77l-.67.77v2l.67.75a48.16,48.16,0,0,0,16.52,11.77c-2.21,5-1.73,10.43,1.45,14l3.46,3.93,1.1-5.12a10.83,10.83,0,0,1,3-5.26,10.12,10.12,0,0,1,7-3.15,5.59,5.59,0,0,1,4,1.53,4.88,4.88,0,0,1,.92,1.3l.14.25a18.64,18.64,0,1,1-31.78-.19l.09-.14a9.32,9.32,0,0,1,.88-1.09,7.75,7.75,0,0,1,3.64-2.32l5-1.38-4.11-3.24a9.51,9.51,0,0,0-6-2,12.14,12.14,0,0,0-5,1.14,37.58,37.58,0,0,0-9.65-11.91l-.78-.61-2,.07-.73.73A37.61,37.61,0,0,0,321,93.85a12.41,12.41,0,0,0-3.92-.65,9.77,9.77,0,0,0-6.92,2.7l-3.74,3.67,5.17.82a7.74,7.74,0,0,1,3.87,1.91,9.67,9.67,0,0,1,1,1,18.64,18.64,0,0,1-12.5,30.25,19,19,0,0,1-2,.11A18.65,18.65,0,0,1,285.06,107l0-.1,0-.1a5,5,0,0,1,.77-1.39,5.81,5.81,0,0,1,4.67-2,10.42,10.42,0,0,1,6.44,2.43,10.82,10.82,0,0,1,3.51,4.91l1.64,5,3-4.28c2.78-3.94,2.67-9.41-.07-14.12a48.16,48.16,0,0,0,15.16-13.47l.56-.81-.17-2-.77-.7a48.16,48.16,0,0,0-17.69-9.92c1.66-5.18.6-10.55-3-13.81l-3.86-3.53-.54,5.21a10.82,10.82,0,0,1-2.38,5.55,9.94,9.94,0,0,1-7.35,3.93,5.94,5.94,0,0,1-1.71-.24,5.63,5.63,0,0,1-1.51-.85,6.74,6.74,0,0,1-2.33-5.43,11.88,11.88,0,0,1,2.76-7.32,12.32,12.32,0,0,1,5.6-4l5-1.64-4.28-3a12.46,12.46,0,0,0-7.23-2.22,16.28,16.28,0,0,0-8.4,2.45,53.32,53.32,0,0,0-15-17l-.86-.6-2,.25-.66.73A53.31,53.31,0,0,0,243.4,48.72a17.26,17.26,0,0,0-5.54-.94,13,13,0,0,0-9.77,4.05l-3.53,3.86,5.21.54a12.32,12.32,0,0,1,6.32,2.71c4.38,3.53,5.8,9.07,3.15,12.36a5.63,5.63,0,0,1-1.29,1.16,6.6,6.6,0,0,1-3.2.77,10.42,10.42,0,0,1-6.44-2.43,10.82,10.82,0,0,1-3.51-4.91l-1.64-5-3,4.28c-2.78,3.94-2.67,9.41.07,14.12A48.15,48.15,0,0,0,205,92.79l-.58.84.22,2,.75.67a48.15,48.15,0,0,0,17.69,9.92c-1.66,5.18-.6,10.55,3,13.81l3.86,3.53.55-5.2a10.83,10.83,0,0,1,2.38-5.55,9.94,9.94,0,0,1,7.35-3.93,5.35,5.35,0,0,1,3.4,1.13,4.86,4.86,0,0,1,1,1.19l.1.15.07.09A18.65,18.65,0,0,1,232,141.29a19,19,0,0,1-2,.11,18.66,18.66,0,0,1-18.09-23.07,8.21,8.21,0,0,1,1.35-2.84,7.75,7.75,0,0,1,3.37-2.71l4.87-1.92L217,108.08a9.41,9.41,0,0,0-5-1.39,11.86,11.86,0,0,0-6,1.75,37.59,37.59,0,0,0-10.9-10.78l-.88-.54-2,.35-.62.77A37.59,37.59,0,0,0,184.79,112a12.76,12.76,0,0,0-2.67-.29,10,10,0,0,0-7.87,3.51l-3.31,4.05,5.23.25a7.75,7.75,0,0,1,4.06,1.48,8.31,8.31,0,0,1,2,2h0a18.77,18.77,0,0,1,2.07,4.06,18.64,18.64,0,1,1-35.8,2.69l0-.11v-.11a4.89,4.89,0,0,1,.42-1.53c1-2,3.33-3.31,6.21-3.31a11.17,11.17,0,0,1,4.68,1.07,10.81,10.81,0,0,1,4.58,3.93l2.79,4.43,1.91-4.87c1.76-4.49.34-9.78-3.44-13.7a48.16,48.16,0,0,0,11.5-16.71l.37-1-.7-1.89-.88-.47a48.17,48.17,0,0,0-19.55-5.41c.38-5.43-1.94-10.39-6.17-12.7l-4.59-2.51.72,5.18a10.82,10.82,0,0,1-1,6c-1.6,3.44-4.68,5.75-7.65,5.75h-.27a5.66,5.66,0,0,1-1.67-.47,6.75,6.75,0,0,1-3.56-4.72,11.87,11.87,0,0,1,.94-7.77,12.32,12.32,0,0,1,4.48-5.21L142,70.78l-4.87-1.91a12,12,0,0,0-4.39-.82,15.38,15.38,0,0,0-10.73,4.78,53.31,53.31,0,0,0-18.66-12.92l-1-.37-2,.72-.46,1a38.87,38.87,0,0,0-3.75,15.25,10.48,10.48,0,0,0-1.63-.13,10.68,10.68,0,0,0-5.18,1.36l-3.31,1.82L89,82c4.24,3.7,8.6,11.16,10.35,17.73A55.37,55.37,0,0,1,101,113c.18,4.93.35,9.59,2.86,14.77,2.63,5.42,7.45,9.75,12.12,13.93,3.21,2.87,6.24,5.59,8.13,8.32a27.36,27.36,0,0,1,2.1,3.55,104.7,104.7,0,0,1,3.88,10.9L122,177.77,135.43,186l.75,3L131,190.24A12.5,12.5,0,0,0,125.91,212V505.39a274,274,0,0,0,548,0V212a12.5,12.5,0,0,0-5.08-21.76l-4.64-1.09.71-3.2,13.1-8.09-8-13.19s1.06-3.34,2.2-6.24c1.06-2.7,2.12-6.22,4.13-8.88a54.67,54.67,0,0,1,7.51-7.82c4.67-4.18,9.49-8.5,12.12-13.93,2.51-5.18,2.68-9.84,2.86-14.76a55.38,55.38,0,0,1,1.67-13.27c1.76-6.57,6.11-14,10.35-17.73l2.85-2.48ZM665.92,214.9h0a12.63,12.63,0,0,0,2-.16V505.39a268,268,0,1,1-536,0V214.73a12.42,12.42,0,0,0,4.92-.18l.08,0V505.39a263,263,0,1,0,526,0V214.53l.08,0A12.56,12.56,0,0,0,665.92,214.9Zm32-115.82c-3.17,11.83-.18,19-4.35,27.57s-15.17,14.86-20,21.9A28.45,28.45,0,0,0,670,155.7c-.6,1.85-3.45,7.83-3.45,7.83l-13.64,8.32,8,13.05-.64,3.33a1151.9,1151.9,0,0,0-520.65,0l-.68-3.36,8-13-13.27-8.17s-2.54-6.27-3.5-8.38a41.13,41.13,0,0,0-3.84-6.76c-4.88-7-15.87-13.28-20-21.9s-1.19-15.74-4.35-27.57C100,92.21,95.55,84.26,90.72,80a8,8,0,0,1,8.18.18,37.09,37.09,0,0,1,3.5-17.84h0a51.53,51.53,0,0,1,19.7,14.47c3.56-5,9.31-7.38,14.1-5.51a14.87,14.87,0,0,0-5.47,6.33c-3,6.43-1.25,13.59,3.9,16a8.35,8.35,0,0,0,2.54.71c4,.26,8.36-2.56,10.55-7.26a13.38,13.38,0,0,0,1.2-7.43c4.05,2.21,5.76,7.54,4.36,12.9a46.37,46.37,0,0,1,21.38,5.21v0a46.37,46.37,0,0,1-13,17.73c4.52,3.21,6.64,8.38,5,12.69a13.38,13.38,0,0,0-5.7-4.92c-5.79-2.7-12.23-1.13-14.39,3.51a7.54,7.54,0,0,0-.65,2.35v.06a21.28,21.28,0,1,0,38.49-7.81h0a10.85,10.85,0,0,0-2.59-2.6,10.33,10.33,0,0,0-5.47-2c2.25-2.76,6.54-3.3,10.41-1.48a35.79,35.79,0,0,1,7-15.48h0a35.79,35.79,0,0,1,11.61,12.4c3.07-3,7.3-3.85,10.33-2a10.33,10.33,0,0,0-4.54,3.63,10.82,10.82,0,0,0-1.77,3.78l0,.07a21.28,21.28,0,1,0,37.61-8l0-.06a7.54,7.54,0,0,0-1.62-1.82c-4-3.21-10.46-1.78-14.46,3.2a13.38,13.38,0,0,0-2.95,6.93c-3.41-3.12-3.79-8.7-1.15-13.57a46.37,46.37,0,0,1-19.51-10.17v0a46.37,46.37,0,0,1,16.89-14.11c-3.62-4.19-4.44-9.73-1.78-13.5a13.38,13.38,0,0,0,4.36,6.14c4,3.25,9.16,3.87,12.67,1.86a8.35,8.35,0,0,0,2-1.76c3.56-4.43,2-11.62-3.55-16.07a14.87,14.87,0,0,0-7.7-3.27c3.47-3.79,9.67-4.21,15.08-1.27a51.53,51.53,0,0,1,11.3-21.68h0A51.53,51.53,0,0,1,272.1,49.42c4.66-4,10.81-4.94,15-2a14.87,14.87,0,0,0-6.82,4.84c-4.45,5.53-4.46,12.9,0,16.46a8.35,8.35,0,0,0,2.3,1.29c3.85,1.22,8.73-.49,12-4.52a13.38,13.38,0,0,0,2.95-6.93c3.41,3.12,3.79,8.7,1.15,13.57a46.37,46.37,0,0,1,19.51,10.17v0a46.37,46.37,0,0,1-16.89,14.11c3.62,4.19,4.44,9.73,1.78,13.5a13.38,13.38,0,0,0-4.36-6.14c-5-4-11.61-4-14.81,0a7.54,7.54,0,0,0-1.19,2.13l0,.06a21.28,21.28,0,1,0,35.83-4.37l0,0a11.73,11.73,0,0,0-1.24-1.24A10.33,10.33,0,0,0,312,97.78c2.54-2.5,6.86-2.56,10.51-.33a35.79,35.79,0,0,1,8.64-14.62h0a35.79,35.79,0,0,1,10.18,13.59c3.38-2.62,7.68-3,10.48-.82a10.33,10.33,0,0,0-4.91,3.11,11.55,11.55,0,0,0-1.14,1.44l-.08.12a21.28,21.28,0,1,0,36.24.27l0-.06a7.54,7.54,0,0,0-1.41-2c-3.62-3.62-10.21-2.89-14.73,1.63a13.38,13.38,0,0,0-3.67,6.57c-3.05-3.47-2.83-9.06.32-13.62a46.37,46.37,0,0,1-18.31-12.21v0a46.37,46.37,0,0,1,18.31-12.21c-3.15-4.56-3.37-10.15-.32-13.62a13.38,13.38,0,0,0,3.67,6.57c3.66,3.66,8.7,4.83,12.4,3.21a8.35,8.35,0,0,0,2.15-1.53c4-4,3.21-11.34-1.81-16.36a14.87,14.87,0,0,0-7.3-4.08c3.85-3.39,10.06-3.14,15.13.36a51.53,51.53,0,0,1,13.57-20.34H400a51.53,51.53,0,0,1,13.57,20.34c5.06-3.5,11.28-3.75,15.13-.36a14.87,14.87,0,0,0-7.3,4.08c-5,5-5.83,12.34-1.81,16.36a8.35,8.35,0,0,0,2.15,1.53c3.7,1.62,8.73.45,12.4-3.21A13.38,13.38,0,0,0,437.75,55c3.05,3.47,2.83,9.06-.32,13.62a46.37,46.37,0,0,1,18.31,12.21v0a46.37,46.37,0,0,1-18.31,12.21c3.15,4.56,3.37,10.15.32,13.62a13.38,13.38,0,0,0-3.67-6.57c-4.52-4.51-11.11-5.24-14.73-1.63a7.54,7.54,0,0,0-1.41,2l0,.06a21.28,21.28,0,1,0,36.24-.27l-.08-.12a11.54,11.54,0,0,0-1.14-1.44A10.33,10.33,0,0,0,448,95.61c2.8-2.21,7.1-1.8,10.48.82a35.79,35.79,0,0,1,10.18-13.59h0a35.79,35.79,0,0,1,8.64,14.62c3.65-2.24,8-2.17,10.51.33a10.33,10.33,0,0,0-5.22,2.55,11.73,11.73,0,0,0-1.24,1.24l0,0A21.28,21.28,0,1,0,517.19,106l0-.06a7.54,7.54,0,0,0-1.19-2.13c-3.21-4-9.84-4-14.81,0a13.38,13.38,0,0,0-4.36,6.14c-2.66-3.78-1.84-9.31,1.78-13.5a46.37,46.37,0,0,1-16.89-14.11v0A46.37,46.37,0,0,1,501.2,72.16c-2.64-4.87-2.26-10.45,1.15-13.57a13.38,13.38,0,0,0,2.95,6.93c3.25,4,8.13,5.74,12,4.52a8.35,8.35,0,0,0,2.3-1.29c4.43-3.56,4.41-10.93,0-16.46a14.87,14.87,0,0,0-6.82-4.84c4.19-3,10.34-2,15,2A51.53,51.53,0,0,1,543.4,30.66h0a51.53,51.53,0,0,1,11.3,21.68c5.41-2.94,11.61-2.51,15.08,1.27a14.87,14.87,0,0,0-7.7,3.27C556.57,61.34,555,68.53,558.54,73a8.35,8.35,0,0,0,2,1.76c3.5,2,8.63,1.39,12.67-1.86a13.38,13.38,0,0,0,4.36-6.14c2.66,3.78,1.84,9.31-1.78,13.5a46.37,46.37,0,0,1,16.89,14.11v0a46.37,46.37,0,0,1-19.51,10.17c2.64,4.87,2.26,10.45-1.15,13.57a13.38,13.38,0,0,0-2.95-6.93c-4-5-10.48-6.41-14.46-3.2a7.54,7.54,0,0,0-1.62,1.82l0,.06a21.28,21.28,0,1,0,37.61,8l0-.07a10.82,10.82,0,0,0-1.77-3.78,10.33,10.33,0,0,0-4.54-3.63c3-1.89,7.25-1,10.33,2a35.79,35.79,0,0,1,11.61-12.4h0a35.79,35.79,0,0,1,7,15.48c3.87-1.82,8.15-1.29,10.41,1.48a10.33,10.33,0,0,0-5.47,2,10.85,10.85,0,0,0-2.59,2.6h0A21.28,21.28,0,1,0,654,129.22v-.06a7.54,7.54,0,0,0-.65-2.35c-2.16-4.64-8.61-6.21-14.39-3.51a13.38,13.38,0,0,0-5.7,4.92c-1.68-4.3.44-9.48,5-12.69a46.37,46.37,0,0,1-13-17.73v0a46.37,46.37,0,0,1,21.38-5.21c-1.4-5.36.3-10.69,4.36-12.9a13.38,13.38,0,0,0,1.2,7.43c2.19,4.7,6.52,7.52,10.55,7.26a8.35,8.35,0,0,0,2.54-.71c5.15-2.4,6.9-9.56,3.9-16a14.87,14.87,0,0,0-5.47-6.33c4.78-1.87,10.53.49,14.1,5.51a51.53,51.53,0,0,1,19.7-14.47h0a37.09,37.09,0,0,1,3.5,17.84,8,8,0,0,1,8.18-.18C704.27,84.26,699.78,92.21,697.94,99.08Z" transform="translate(-86.13 -20.2)"/><path class="cls-2" d="M665.92,214.9h0a12.63,12.63,0,0,0,2-.16V505.39a268,268,0,1,1-536,0V214.73a12.42,12.42,0,0,0,4.92-.18l.08,0V505.39a263,263,0,1,0,526,0V214.53l.08,0A12.56,12.56,0,0,0,665.92,214.9Z" transform="translate(-86.13 -20.2)"/><path class="cls-2" d="M221.89,198.06q-39.24,6.26-78,15.25V315.06h78Z" transform="translate(-86.13 -20.2)"/><path class="cls-2" d="M369.26,315.06a580.33,580.33,0,0,0,28.21-131.14q-52.87.11-105.58,5.2V315.06Z" transform="translate(-86.13 -20.2)"/><path class="cls-2" d="M143.91,385.06V505.39a255.87,255.87,0,0,0,17.26,92.77A586.18,586.18,0,0,0,221.89,547V385.06Z" transform="translate(-86.13 -20.2)"/><path class="cls-2" d="M291.89,465.82a583.17,583.17,0,0,0,48.35-80.76H291.89Z" transform="translate(-86.13 -20.2)"/><path class="cls-3" d="M342.68,380.06a579.74,579.74,0,0,0,24.87-60H286.89V189.6q-30.1,3-60,7.66v122.8h-83v60h83V542.12a586.6,586.6,0,0,0,60-69.39V380.06Z" transform="translate(-86.13 -20.2)"/><path class="cls-3" d="M655.91,213.31a1130.9,1130.9,0,0,0-253.56-29.39c16.41,170,105.72,318.59,236.3,414.24a255.87,255.87,0,0,0,17.26-92.77Z" transform="translate(-86.13 -20.2)"/><path class="cls-4" d="M697.94,99.08c-3.17,11.83-.18,19-4.35,27.57s-15.17,14.86-20,21.9A28.45,28.45,0,0,0,670,155.7c-.6,1.85-3.45,7.83-3.45,7.83l-13.64,8.32,8,13.05-.64,3.33a1151.9,1151.9,0,0,0-520.65,0l-.68-3.36,8-13-13.27-8.17s-2.54-6.27-3.5-8.38a41.13,41.13,0,0,0-3.84-6.76c-4.88-7-15.87-13.28-20-21.9s-1.19-15.74-4.35-27.57C100,92.21,95.55,84.26,90.72,80a8,8,0,0,1,8.18.18,37.09,37.09,0,0,1,3.5-17.84h0a51.53,51.53,0,0,1,19.7,14.47c3.56-5,9.32-7.38,14.1-5.51a14.87,14.87,0,0,0-5.47,6.33c-3,6.43-1.25,13.59,3.9,16a8.35,8.35,0,0,0,2.54.71c4,.26,8.36-2.56,10.55-7.26a13.38,13.38,0,0,0,1.2-7.43c4.05,2.21,5.76,7.54,4.36,12.9a46.37,46.37,0,0,1,21.38,5.21v0a46.37,46.37,0,0,1-13,17.73c4.52,3.21,6.64,8.38,5,12.69a13.38,13.38,0,0,0-5.7-4.92c-5.79-2.7-12.23-1.13-14.39,3.51a7.54,7.54,0,0,0-.65,2.35v.06a21.28,21.28,0,1,0,38.49-7.81h0a10.85,10.85,0,0,0-2.59-2.6,10.33,10.33,0,0,0-5.47-2c2.25-2.76,6.54-3.3,10.41-1.48a35.79,35.79,0,0,1,7-15.48h0a35.79,35.79,0,0,1,11.61,12.4c3.07-3,7.3-3.85,10.33-2a10.33,10.33,0,0,0-4.54,3.63,10.82,10.82,0,0,0-1.77,3.78l0,.07a21.28,21.28,0,1,0,37.61-8l0-.06a7.54,7.54,0,0,0-1.62-1.82c-4-3.21-10.46-1.78-14.46,3.2a13.38,13.38,0,0,0-2.95,6.93c-3.41-3.12-3.79-8.7-1.15-13.57a46.37,46.37,0,0,1-19.51-10.17v0a46.37,46.37,0,0,1,16.89-14.11c-3.62-4.19-4.44-9.73-1.78-13.5a13.38,13.38,0,0,0,4.36,6.14c4,3.25,9.16,3.87,12.67,1.86a8.35,8.35,0,0,0,2-1.76c3.56-4.43,2-11.62-3.55-16.07a14.87,14.87,0,0,0-7.7-3.27c3.47-3.79,9.67-4.21,15.08-1.27a51.53,51.53,0,0,1,11.3-21.68h0A51.53,51.53,0,0,1,272.1,49.42c4.66-4,10.81-4.94,15-2a14.87,14.87,0,0,0-6.82,4.84c-4.45,5.53-4.46,12.9,0,16.46a8.35,8.35,0,0,0,2.3,1.29c3.85,1.22,8.73-.49,12-4.52a13.38,13.38,0,0,0,2.95-6.93c3.41,3.12,3.79,8.7,1.15,13.57a46.37,46.37,0,0,1,19.51,10.17v0a46.37,46.37,0,0,1-16.89,14.11c3.62,4.19,4.44,9.73,1.78,13.5a13.38,13.38,0,0,0-4.36-6.14c-5-4-11.61-4-14.81,0a7.54,7.54,0,0,0-1.19,2.13l0,.06a21.28,21.28,0,1,0,35.83-4.37l0,0a11.73,11.73,0,0,0-1.24-1.24A10.33,10.33,0,0,0,312,97.78c2.54-2.5,6.86-2.56,10.51-.33a35.79,35.79,0,0,1,8.64-14.62h0a35.79,35.79,0,0,1,10.18,13.59c3.38-2.62,7.68-3,10.48-.82a10.33,10.33,0,0,0-4.91,3.11,11.55,11.55,0,0,0-1.14,1.44l-.08.12a21.28,21.28,0,1,0,36.24.27l0-.06a7.54,7.54,0,0,0-1.41-2c-3.62-3.62-10.21-2.89-14.73,1.63a13.38,13.38,0,0,0-3.67,6.57c-3.05-3.47-2.83-9.06.32-13.62a46.37,46.37,0,0,1-18.31-12.21v0a46.37,46.37,0,0,1,18.31-12.21c-3.15-4.56-3.37-10.15-.32-13.62a13.38,13.38,0,0,0,3.67,6.57c3.66,3.66,8.7,4.83,12.4,3.21a8.35,8.35,0,0,0,2.15-1.53c4-4,3.21-11.34-1.81-16.36a14.87,14.87,0,0,0-7.3-4.08c3.85-3.39,10.06-3.14,15.13.36a51.53,51.53,0,0,1,13.57-20.34h.08a51.53,51.53,0,0,1,13.57,20.34c5.06-3.5,11.28-3.75,15.13-.36a14.87,14.87,0,0,0-7.3,4.08c-5,5-5.83,12.34-1.81,16.36a8.35,8.35,0,0,0,2.15,1.53c3.7,1.62,8.73.45,12.4-3.21A13.38,13.38,0,0,0,437.75,55c3.05,3.47,2.83,9.06-.32,13.62a46.37,46.37,0,0,1,18.31,12.21v0a46.37,46.37,0,0,1-18.31,12.21c3.15,4.56,3.37,10.15.32,13.62a13.38,13.38,0,0,0-3.67-6.57c-4.52-4.51-11.11-5.24-14.73-1.63a7.54,7.54,0,0,0-1.41,2l0,.06a21.28,21.28,0,1,0,36.24-.27l-.08-.12a11.54,11.54,0,0,0-1.14-1.44A10.33,10.33,0,0,0,448,95.61c2.8-2.21,7.1-1.8,10.48.82a35.79,35.79,0,0,1,10.18-13.59h0a35.79,35.79,0,0,1,8.64,14.62c3.65-2.24,8-2.17,10.51.33a10.33,10.33,0,0,0-5.22,2.55,11.73,11.73,0,0,0-1.24,1.24l0,0A21.28,21.28,0,1,0,517.18,106l0-.06a7.54,7.54,0,0,0-1.19-2.13c-3.21-4-9.84-4-14.81,0a13.38,13.38,0,0,0-4.36,6.14c-2.66-3.78-1.84-9.31,1.78-13.5a46.37,46.37,0,0,1-16.89-14.11v0A46.37,46.37,0,0,1,501.2,72.16c-2.64-4.87-2.26-10.45,1.15-13.57a13.38,13.38,0,0,0,2.95,6.93c3.25,4,8.13,5.74,12,4.52a8.35,8.35,0,0,0,2.3-1.29c4.43-3.56,4.41-10.93,0-16.46a14.87,14.87,0,0,0-6.82-4.84c4.19-3,10.34-2,15,2A51.53,51.53,0,0,1,543.4,30.66h0a51.53,51.53,0,0,1,11.3,21.68c5.41-2.94,11.61-2.51,15.08,1.27a14.87,14.87,0,0,0-7.7,3.27C556.57,61.34,555,68.53,558.54,73a8.35,8.35,0,0,0,2,1.76c3.5,2,8.63,1.39,12.67-1.86a13.38,13.38,0,0,0,4.36-6.14c2.66,3.78,1.84,9.31-1.78,13.5a46.37,46.37,0,0,1,16.89,14.11v0a46.37,46.37,0,0,1-19.51,10.17c2.64,4.87,2.26,10.45-1.15,13.57a13.38,13.38,0,0,0-2.95-6.93c-4-5-10.48-6.41-14.46-3.2a7.54,7.54,0,0,0-1.62,1.82l0,.06a21.28,21.28,0,1,0,37.61,8l0-.07a10.82,10.82,0,0,0-1.77-3.78,10.33,10.33,0,0,0-4.54-3.63c3-1.89,7.25-1,10.33,2a35.79,35.79,0,0,1,11.61-12.4h0a35.79,35.79,0,0,1,7,15.48c3.87-1.82,8.15-1.29,10.41,1.48a10.33,10.33,0,0,0-5.47,2,10.85,10.85,0,0,0-2.59,2.6h0A21.28,21.28,0,1,0,654,129.22v-.06a7.54,7.54,0,0,0-.65-2.35c-2.16-4.64-8.61-6.21-14.39-3.51a13.38,13.38,0,0,0-5.7,4.92c-1.68-4.3.44-9.48,5-12.69a46.37,46.37,0,0,1-13-17.73v0a46.37,46.37,0,0,1,21.38-5.21c-1.4-5.36.3-10.69,4.36-12.9a13.38,13.38,0,0,0,1.2,7.43c2.19,4.7,6.52,7.52,10.55,7.26a8.35,8.35,0,0,0,2.54-.71c5.15-2.4,6.9-9.56,3.9-16a14.87,14.87,0,0,0-5.47-6.33c4.78-1.87,10.53.49,14.1,5.51a51.53,51.53,0,0,1,19.7-14.47h0a37.09,37.09,0,0,1,3.5,17.84,8,8,0,0,1,8.18-.18C704.27,84.26,699.78,92.21,697.94,99.08Z" transform="translate(-86.13 -20.2)"/><path class="cls-4" d="M665.92,207.9a5.52,5.52,0,0,1-1.29-.15,1133.94,1133.94,0,0,0-529.43,0,5.5,5.5,0,0,1-2.57-10.7,1145,1145,0,0,1,534.57,0,5.5,5.5,0,0,1-1.28,10.85Z" transform="translate(-86.13 -20.2)"/><polygon points="313.8 136.48 326 124.27 313.8 112.07 313.76 112.07 301.55 124.27 313.76 136.48 313.8 136.48"/><path d="M474.48,141.55a5.34,5.34,0,1,0,5,5.61A5.34,5.34,0,0,0,474.48,141.55Zm-.39,7.32a2,2,0,1,1,2.09-1.88A2,2,0,0,1,474.09,148.87Z" transform="translate(-86.13 -20.2)"/><path d="M457.13,140.63a5.34,5.34,0,1,0,5,5.61A5.34,5.34,0,0,0,457.13,140.63Zm-.39,7.32a2,2,0,1,1,2.09-1.88A2,2,0,0,1,456.74,147.95Z" transform="translate(-86.13 -20.2)"/><path d="M466.54,127.32a5.34,5.34,0,1,0,5,5.61A5.34,5.34,0,0,0,466.54,127.32Zm-.39,7.32a2,2,0,1,1,2.09-1.88A2,2,0,0,1,466.15,134.63Z" transform="translate(-86.13 -20.2)"/><path d="M568.34,87.66a28.84,28.84,0,0,0-16,3.11,38.63,38.63,0,0,0-15.32,15l3.77-34.84c1-9.59-.18-14.57-.18-14.57a53.69,53.69,0,0,0-3.29,14.2l-3.77,34.84a38.63,38.63,0,0,0-11.77-17.88A28.84,28.84,0,0,0,506.87,81h0c-.16.17,4.19,2,12.14,8.53,7.71,6.59,14.23,18.91,13.15,28.91l0,.41a1.74,1.74,0,0,0,3.47.38l0-.41c1.08-10,10.09-20.64,19-25.44,9.16-4.67,13.81-5.54,13.69-5.74Z" transform="translate(-86.13 -20.2)"/><path d="M685.14,123.61c2.68-7.43,3.47-16.22,4.22-22s5.28-11.74,5.28-11.74-4.75-.53-8.57,9.37c0,0-2.11,16.88-5.28,23.48S670,132.54,670,132.54a38.63,38.63,0,0,0-7.15-20.18,28.84,28.84,0,0,0-13-9.84h0c-.19.12,3.59,3,9.75,11.19,5.91,8.24,9.3,21.76,5.86,31.22l-.14.38a1.74,1.74,0,0,0,3.28,1.19l.14-.38C672.22,136.71,682.46,131,685.14,123.61Z" transform="translate(-86.13 -20.2)"/><path d="M605.27,157.12a5.34,5.34,0,1,0,4.38,6.15A5.34,5.34,0,0,0,605.27,157.12ZM604,164.35a2,2,0,1,1,2.29-1.63A2,2,0,0,1,604,164.35Z" transform="translate(-86.13 -20.2)"/><path d="M588.14,154.23a5.34,5.34,0,1,0,4.38,6.15A5.34,5.34,0,0,0,588.14,154.23Zm-1.22,7.22a2,2,0,1,1,2.29-1.63A2,2,0,0,1,586.92,161.46Z" transform="translate(-86.13 -20.2)"/><path d="M599,142.08a5.34,5.34,0,1,0,4.38,6.15A5.34,5.34,0,0,0,599,142.08Zm-1.22,7.22a2,2,0,1,1,2.29-1.63A2,2,0,0,1,597.78,149.3Z" transform="translate(-86.13 -20.2)"/><rect x="423.02" y="140.59" width="17.94" height="3.83" transform="translate(-82.8 -29.94) rotate(1.3)"/><rect x="422.89" y="146.26" width="17.94" height="3.83" transform="matrix(1, 0.02, -0.02, 1, -82.67, -29.94)"/><rect x="522.22" y="142.77" width="17.26" height="17.26" transform="translate(-62.84 348.26) rotate(-39.07)"/><rect x="487.63" y="144.05" width="17.94" height="3.83" transform="translate(-72.85 -59.51) rotate(4.59)"/><rect x="487.18" y="149.71" width="17.94" height="3.83" transform="translate(-72.4 -59.45) rotate(4.59)"/><rect x="553.43" y="151.18" width="17.94" height="3.83" transform="translate(-58.79 -98.31) rotate(8.14)"/><rect x="552.63" y="156.79" width="17.94" height="3.83" transform="translate(-58 -98.13) rotate(8.14)"/><rect x="621.87" y="162.56" width="17.94" height="3.83" transform="matrix(0.98, 0.19, -0.19, 0.98, -42.81, -138.27)"/><rect x="620.78" y="168.12" width="17.94" height="3.83" transform="translate(-41.77 -137.96) rotate(11.07)"/><path d="M320.3,147.16a5.34,5.34,0,1,0,5-5.61A5.34,5.34,0,0,0,320.3,147.16Zm3.34-.18a2,2,0,1,1,2.09,1.88A2,2,0,0,1,323.64,147Z" transform="translate(-86.13 -20.2)"/><path d="M337.65,146.24a5.34,5.34,0,1,0,5-5.61A5.34,5.34,0,0,0,337.65,146.24Zm3.34-.18a2,2,0,1,1,2.09,1.88A2,2,0,0,1,341,146.06Z" transform="translate(-86.13 -20.2)"/><path d="M328.24,132.93a5.34,5.34,0,1,0,5-5.61A5.34,5.34,0,0,0,328.24,132.93Zm3.34-.18a2,2,0,1,1,2.09,1.88A2,2,0,0,1,331.58,132.75Z" transform="translate(-86.13 -20.2)"/><path d="M231.49,87.66a28.84,28.84,0,0,1,16,3.11,38.63,38.63,0,0,1,15.32,15L259,70.88c-1-9.59.18-14.57.18-14.57a53.69,53.69,0,0,1,3.29,14.2l3.77,34.84A38.63,38.63,0,0,1,278,87.46,28.84,28.84,0,0,1,293,81h0c.16.17-4.19,2-12.14,8.53-7.71,6.59-14.23,18.91-13.15,28.91l0,.41a1.74,1.74,0,1,1-3.47.38l0-.41c-1.08-10-10.09-20.64-19-25.44-9.16-4.67-13.81-5.54-13.69-5.74Z" transform="translate(-86.13 -20.2)"/><path d="M114.68,123.61c-2.68-7.43-3.47-16.22-4.22-22s-5.28-11.74-5.28-11.74,4.75-.53,8.57,9.37c0,0,2.11,16.88,5.28,23.48s10.77,9.85,10.77,9.85a38.63,38.63,0,0,1,7.15-20.18,28.84,28.84,0,0,1,13-9.84h0c.19.12-3.59,3-9.75,11.19-5.91,8.24-9.3,21.76-5.86,31.22l.14.38a1.74,1.74,0,1,1-3.28,1.19l-.14-.38C127.6,136.71,117.36,131,114.68,123.61Z" transform="translate(-86.13 -20.2)"/><path d="M399.88,113.49a1.75,1.75,0,0,1-1.74-1.74v-.41c0-10-7.81-21.61-16.18-27.33-8.61-5.62-13.13-7-13-7.18h0a28.84,28.84,0,0,1,15.55,4.81,38.63,38.63,0,0,1,13.62,16.51v-35c0-9.65,1.74-14.47,1.74-14.47h.06s1.74,4.82,1.74,14.47v35A38.63,38.63,0,0,1,415.3,81.64a28.84,28.84,0,0,1,15.55-4.81h0c.14.18-4.39,1.55-13,7.18-8.37,5.73-16.18,17.31-16.18,27.33v.41a1.75,1.75,0,0,1-1.74,1.74Z" transform="translate(-86.13 -20.2)"/><path d="M190.18,163.27a5.34,5.34,0,1,0,4.38-6.15A5.34,5.34,0,0,0,190.18,163.27Zm3.3-.56a2,2,0,1,1,2.29,1.63A2,2,0,0,1,193.48,162.71Z" transform="translate(-86.13 -20.2)"/><path d="M207.31,160.38a5.34,5.34,0,1,0,4.38-6.15A5.34,5.34,0,0,0,207.31,160.38Zm3.3-.56a2,2,0,1,1,2.29,1.63A2,2,0,0,1,210.61,159.83Z" transform="translate(-86.13 -20.2)"/><path d="M196.45,148.23a5.34,5.34,0,1,0,4.38-6.15A5.34,5.34,0,0,0,196.45,148.23Zm3.3-.56A2,2,0,1,1,202,149.3,2,2,0,0,1,199.75,147.67Z" transform="translate(-86.13 -20.2)"/><rect x="358.86" y="140.59" width="17.94" height="3.83" transform="translate(652.66 256.44) rotate(178.7)"/><rect x="358.99" y="146.26" width="17.94" height="3.83" transform="translate(653.04 267.78) rotate(178.7)"/><rect x="260.34" y="142.77" width="17.26" height="17.26" transform="translate(-104.23 244.61) rotate(-50.93)"/><rect x="294.25" y="144.05" width="17.94" height="3.83" transform="translate(531.02 246.97) rotate(175.41)"/><rect x="294.71" y="149.71" width="17.94" height="3.83" transform="translate(532.38 258.22) rotate(175.41)"/><rect x="228.45" y="151.18" width="17.94" height="3.83" transform="translate(407.99 250.81) rotate(171.86)"/><rect x="229.25" y="156.79" width="17.94" height="3.83" transform="translate(410.39 261.87) rotate(171.86)"/><rect x="160.01" y="162.56" width="17.94" height="3.83" transform="translate(280.27 273.22) rotate(168.93)"/><rect x="161.1" y="168.12" width="17.94" height="3.83" transform="translate(283.49 284.05) rotate(168.93)"/><rect class="cls-3" x="660.85" y="170.29" width="9.13" height="9.13" transform="translate(-79.55 352.88) rotate(-31.47)"/><rect class="cls-3" x="526.51" y="147.07" width="8.67" height="8.67" transform="translate(-62.84 348.25) rotate(-39.07)"/><polygon class="cls-3" points="313.76 130.41 307.63 124.27 313.76 118.14 313.8 118.14 319.93 124.27 313.8 130.41 313.76 130.41"/><path class="cls-3" d="M135.91,181.13l-7.79-4.77,4.77-7.79,7.79,4.77Z" transform="translate(-86.13 -20.2)"/><rect class="cls-3" x="264.64" y="147.07" width="8.67" height="8.67" transform="matrix(0.63, -0.78, 0.78, 0.63, -104.24, 244.59)"/><path class="cls-2" d="M550.33,236a92.4,92.4,0,1,0,92.39,92.4A92.5,92.5,0,0,0,550.33,236Zm67.93,122.6a74.28,74.28,0,0,1-5.84,10.66q-1.46,2.21-3.07,4.31a74.4,74.4,0,0,1-47.8,28.34c-1.73.26-3.49.45-5.25.59-2,.16-4,.26-6,.26s-4.11-.11-6.13-.27c-1.77-.15-3.52-.33-5.25-.6a74.4,74.4,0,0,1-47.63-28.32q-1.61-2.1-3.07-4.31a74.28,74.28,0,0,1-5.84-10.66c-.72-1.61-1.39-3.24-2-4.9a74.36,74.36,0,0,1,.14-51c.61-1.66,1.3-3.28,2-4.88a74.33,74.33,0,0,1,5.95-10.72c1-1.47,2-2.9,3.12-4.29A74.39,74.39,0,0,1,539,254.89c1.73-.27,3.48-.45,5.25-.59,2-.16,4-.27,6.07-.27s4.18.11,6.24.28c1.77.15,3.52.34,5.25.61a74.39,74.39,0,0,1,47.2,27.9c1.09,1.39,2.13,2.82,3.12,4.29a74.31,74.31,0,0,1,5.95,10.72c.72,1.6,1.41,3.22,2,4.88a74.36,74.36,0,0,1,.14,51C619.65,355.36,619,357,618.26,358.6Z" transform="translate(-86.13 -20.2)"/><path class="cls-2" d="M539.33,303.46a27,27,0,0,1,4.8-1.6,27.18,27.18,0,0,1,12.57,0,27.31,27.31,0,0,1,10,4.67,27.22,27.22,0,0,1,10.82,19.39c.07.81.11,1.62.11,2.44,0,.66,0,1.31-.08,2a27.24,27.24,0,0,1-54.34,0c0-.65-.08-1.3-.08-2,0-.82,0-1.64.11-2.44a27.22,27.22,0,0,1,16.14-22.49Z" transform="translate(-86.13 -20.2)"/><path class="cls-2" d="M614.12,301.16a112.87,112.87,0,0,1-32.82,18.25,32.24,32.24,0,0,0-7-12.62,112.85,112.85,0,0,1,32.93-18.07A69.32,69.32,0,0,1,614.12,301.16Z" transform="translate(-86.13 -20.2)"/><path class="cls-2" d="M543.28,259.39a69.67,69.67,0,0,1,14.28,0,112.85,112.85,0,0,1,.06,37.58,32,32,0,0,0-14.42,0,112.84,112.84,0,0,1,.07-37.56Z" transform="translate(-86.13 -20.2)"/><path class="cls-2" d="M493.49,288.71a112.85,112.85,0,0,1,32.93,18.07,32.24,32.24,0,0,0-7,12.62,112.87,112.87,0,0,1-32.82-18.25A69.32,69.32,0,0,1,493.49,288.71Z" transform="translate(-86.13 -20.2)"/><path class="cls-2" d="M486.39,355.26a112.92,112.92,0,0,1,32.85-18.33,32.21,32.21,0,0,0,6.92,12.78,112.93,112.93,0,0,1-33,18A69.3,69.3,0,0,1,486.39,355.26Z" transform="translate(-86.13 -20.2)"/><path class="cls-2" d="M550.33,397.76a69.85,69.85,0,0,1-7.14-.37,113,113,0,0,1-.23-37.61,32,32,0,0,0,14.58,0,113,113,0,0,1-.23,37.59Q553.87,397.75,550.33,397.76Z" transform="translate(-86.13 -20.2)"/><path class="cls-2" d="M607.46,367.67a112.93,112.93,0,0,1-33-18,32.21,32.21,0,0,0,6.92-12.78,112.92,112.92,0,0,1,32.85,18.33A69.3,69.3,0,0,1,607.46,367.67Z" transform="translate(-86.13 -20.2)"/><path d="M550.42,240.39a5,5,0,1,0,5,5A5,5,0,0,0,550.42,240.39Zm0,7a2,2,0,1,1,2-2A2,2,0,0,1,550.42,247.39Z" transform="translate(-86.13 -20.2)"/><path d="M550.25,415.89a5,5,0,1,0-5-5A5,5,0,0,0,550.25,415.89Zm0-7a2,2,0,1,1-2,2A2,2,0,0,1,550.25,408.89Z" transform="translate(-86.13 -20.2)"/><path d="M627.19,285.81a5,5,0,1,0-2,6.79A5,5,0,0,0,627.19,285.81Zm-6.13,3.38a2,2,0,1,1,2.72.78A2,2,0,0,1,621.07,289.19Z" transform="translate(-86.13 -20.2)"/><path d="M473.47,370.48a5,5,0,1,0,2-6.79A5,5,0,0,0,473.47,370.48Zm6.13-3.38a2,2,0,1,1-2.72-.78A2,2,0,0,1,479.6,367.1Z" transform="translate(-86.13 -20.2)"/><path d="M475.43,292.6a5,5,0,1,0-2-6.79A5,5,0,0,0,475.43,292.6Zm1.45-2.63a2,2,0,1,1,2.72-.78A2,2,0,0,1,476.88,290Z" transform="translate(-86.13 -20.2)"/><path d="M625.23,363.69a5,5,0,1,0,2,6.79A5,5,0,0,0,625.23,363.69Zm-1.45,2.63a2,2,0,1,1-2.72.78A2,2,0,0,1,623.78,366.31Z" transform="translate(-86.13 -20.2)"/><path d="M550.42,316.39a12,12,0,1,0,12,12A12,12,0,0,0,550.42,316.39Zm0,19a7,7,0,1,1,7-7A7,7,0,0,1,550.42,335.39Z" transform="translate(-86.13 -20.2)"/><path d="M550.33,231a97.4,97.4,0,1,0,97.39,97.4A97.51,97.51,0,0,0,550.33,231Zm0,189.79a92.4,92.4,0,1,1,92.39-92.4A92.5,92.5,0,0,1,550.33,420.79Z" transform="translate(-86.13 -20.2)"/><path d="M620.12,302.71c-.61-1.66-1.3-3.28-2-4.88a74.33,74.33,0,0,0-5.95-10.72c-1-1.47-2-2.9-3.12-4.29a74.39,74.39,0,0,0-47.2-27.9c-1.73-.27-3.48-.46-5.25-.61-2.06-.17-4.14-.28-6.24-.28s-4.07.11-6.07.27c-1.77.14-3.52.33-5.25.59a74.39,74.39,0,0,0-47.38,27.93c-1.09,1.39-2.13,2.82-3.12,4.29a74.33,74.33,0,0,0-5.95,10.72c-.72,1.6-1.41,3.22-2,4.88a74.36,74.36,0,0,0-.14,51c.6,1.67,1.28,3.29,2,4.9a74.29,74.29,0,0,0,5.84,10.66q1.46,2.21,3.07,4.31a74.4,74.4,0,0,0,47.63,28.32c1.73.27,3.49.45,5.25.6,2,.17,4.07.27,6.13.27s4-.1,6-.26c1.77-.14,3.52-.32,5.25-.59a74.4,74.4,0,0,0,47.8-28.34q1.61-2.1,3.07-4.31a74.29,74.29,0,0,0,5.84-10.66c.72-1.61,1.39-3.24,2-4.9a74.36,74.36,0,0,0-.14-51Zm-6-1.55a112.87,112.87,0,0,1-32.82,18.25,32.24,32.24,0,0,0-7-12.62,112.85,112.85,0,0,1,32.93-18.07A69.32,69.32,0,0,1,614.12,301.16Zm-51.35-41A69.4,69.4,0,0,1,604,284.51a119.17,119.17,0,0,0-33.44,18.79,32.27,32.27,0,0,0-8.12-4.79,119.11,119.11,0,0,0,.32-38.35Zm-19.49-.78a69.67,69.67,0,0,1,14.28,0,112.85,112.85,0,0,1,.06,37.58,32,32,0,0,0-14.42,0,112.84,112.84,0,0,1,.07-37.56Zm-3.94,44.08a27,27,0,0,1,4.8-1.6,27.18,27.18,0,0,1,12.57,0,27.31,27.31,0,0,1,10,4.67,27.22,27.22,0,0,1,10.82,19.39c.07.81.11,1.62.11,2.44,0,.66,0,1.31-.08,2a27.24,27.24,0,0,1-54.34,0c0-.65-.08-1.3-.08-2,0-.82,0-1.64.11-2.44a27.22,27.22,0,0,1,16.14-22.49Zm-1.26-43.32a119.13,119.13,0,0,0,.31,38.31,32.27,32.27,0,0,0-8.27,4.85,119.17,119.17,0,0,0-33.44-18.79A69.39,69.39,0,0,1,538.07,260.14Zm-44.58,28.58a112.85,112.85,0,0,1,32.93,18.07,32.24,32.24,0,0,0-7,12.62,112.87,112.87,0,0,1-32.82-18.25A69.32,69.32,0,0,1,493.49,288.71ZM481,328.39a69,69,0,0,1,3.71-22.32,119.22,119.22,0,0,0,33.67,18.29,31.45,31.45,0,0,0-.06,7.58,119.13,119.13,0,0,0-33.74,18.37A69,69,0,0,1,481,328.39Zm5.42,26.86a112.92,112.92,0,0,1,32.85-18.33,32.21,32.21,0,0,0,6.92,12.78,112.93,112.93,0,0,1-33,18A69.3,69.3,0,0,1,486.39,355.26Zm10,16.63a119.12,119.12,0,0,0,33.43-18.65,32.29,32.29,0,0,0,8.35,5,119.07,119.07,0,0,0-.16,38.39A69.4,69.4,0,0,1,496.35,371.88Zm54,25.87a69.85,69.85,0,0,1-7.14-.37,113,113,0,0,1-.23-37.61,32,32,0,0,0,14.58,0,113,113,0,0,1-.23,37.59Q553.87,397.75,550.33,397.76Zm12.18-1.09a119.06,119.06,0,0,0-.14-38.36,32.28,32.28,0,0,0,8.51-5.07,119.12,119.12,0,0,0,33.43,18.65A69.39,69.39,0,0,1,562.52,396.66Zm44.95-29a112.93,112.93,0,0,1-33-18,32.21,32.21,0,0,0,6.92-12.78,112.92,112.92,0,0,1,32.85,18.33A69.3,69.3,0,0,1,607.46,367.67Zm8.66-17.35a119.13,119.13,0,0,0-33.74-18.37,31.45,31.45,0,0,0-.06-7.58A119.22,119.22,0,0,0,616,306.07a69.08,69.08,0,0,1,.13,44.25Z" transform="translate(-86.13 -20.2)"/><path id="path2209" class="cls-4" d="M391.1,457c-.18.55-.76.94-1.31,1.33a1.84,1.84,0,0,1-1.36-1.72l.19-1c.78.58,2.89-.2,2.48,1.36Z" transform="translate(-86.13 -20.2)"/><path id="path2211" class="cls-4" d="M398,457.79c0,1.15-.94,1.52-1.91,1.72a2.72,2.72,0,0,1-2.85-.94c.2-1-.41-2.1.57-2.49C395.15,456.86,397.06,456.27,398,457.79Z" transform="translate(-86.13 -20.2)"/><path id="path2217" class="cls-4" d="M402.4,459.51v.39c-1.13.58-1.32-1-2.1-1.33.6-.39,2.32-.19,2.1.94Z" transform="translate(-86.13 -20.2)"/><path class="cls-4" d="M322.88,469.84a1.68,1.68,0,0,1,.76.8,2.61,2.61,0,0,1-1.33,3.08c3.63,2.3,2.67,7.07,2.85,11.3-.18,2.67.39,5.56-2.3,6.71a23.12,23.12,0,0,0-7.47-.76c-2.67.55-3.06,3.63-4.6,5.55l2.32,1.54a3.58,3.58,0,0,1-.39,3.06c1,.37,2.48.57,3.24-.17,2.3-1,3.25-4.43,6.14-3.86a3.63,3.63,0,0,1,1.34,2.69,17,17,0,0,1-7.09,8.44c3.84,1.72,6-3.65,9.59-2.3-1,2.86-3.63,5-4.8,7.85-2.3,1-4.6,2.11-6.9,2.89v.58a8.06,8.06,0,0,0,4,.94c5.18,1.15,9.24-3.08,11.71-6.7.74-1.33,1.74-.59,2.48.38,1.36,5-2.67,8.62-6.12,11.31-3.65,1.91-8.25,2.48-12.28,2.48-.37.78.39,1.54,1,1.92,9.59,3.08,15.91-5.53,22.22-10.91,1.54-1,3.26-3.45,5-1.93l-6.51,14c-4.6,9.58-12.63,18-23.58,19-8,2.89-13-5-19.92-6.7a4.49,4.49,0,0,0,1.34,3.08c8.25,6.51,20.9,9,30.88,4.21,13.21-4.6,15.32-19.73,23.35-29.13l2.34-1.55a4.5,4.5,0,0,1,3.84.58c.37.59.37,1.33-.41,1.52-4.78.41-6.71,5.77-9,9.22-1.69,5.54-4.4,10.74-5.73,16.47,5-1.13,9-4.21,12.48-8,.56-.39,1.69-.76,2.08-.17-.76,1.91-2.67,4.38-2.84,6.7,1.89,0,3-2.12,4.38-3.45,3.65-3.84,9-1.93,13-.21,3.67-.2,6.75-3.26,7.86-6.32.6-.55,1.17-1.32,1.93-.55a6.3,6.3,0,0,1-.2,3.24c-.93,3.08-4,4.8-6.7,6.16-4.43,3.24-8.25-3.08-12.46-1,.57,1.17,1.93,1.93,1.35,3.47a6.62,6.62,0,0,0,6.14,4.38c3.45-.19,5.92-2.28,8.83-4,2.65-1.72,2.84-7.1,6.49-5.93,1.36,2.85,1.15,6.88,4,9.2,3.84,1.52,7.31-.58,9.79-3.47,8.07-9.76,11.11-21.64,19.74-31.23,1.74-1.93,2.69-5.18,5.77-5.94.18.19.76.37.76.76,0,4.79-4.6,7.68-6.9,11.5-2.49,4.79.76,9.38,3.06,13.22l.2,4.61a23.21,23.21,0,0,0-2.3,5l4-.37c2.11-.78,4.43-2.91,4.82-5.38,1.89-3.65-1.17-7.86,1.54-10.9,1.32-4-.22-7.13-1.17-11,0-.78.37-1.74,1.34-1.74,5,2.32,3.26,8.64,5.75,12.69.57.16,1.35-.58,1.91-1,2.11-3.06,2.11-7.47.57-10.92a8.14,8.14,0,0,1,2.88-7.66c2.3.39,1.54,3.43,2.3,4.79,1,1.91,2.11,3.83,4.24,4.8,1.14-1.36.56-3.27.38-5-1.36-5.93-7.89-7.87-9.59-13.41.2-2-1.34-5.58,1.33-6.16,1.73,1.54,1,4.42,2.88,6,4,1.72,6.89,5.17,9.21,8.42a9.18,9.18,0,0,0,0-4c1-6.32-6.54-7.49-8.62-12.48-.78-.95-.39-2.49.54-3.43,2.31-3.82-2.28-6.53-.93-10.37,4-2.1,4.8,4.6,8.62,3.26l.19-3.43c-3.45-4.23-1.73-11.33-1.73-16.51,2.31-.94,1-3.43,1.16-5.19-1-.15-1.36.78-2.3.43-2.3.35-2.88,4.41-5.18,3.43-.2-2.69,2.1-5.36,3.24-7.87-.36-.94,0-2.11-.18-2.85-1.91-.39-3.43-.19-4.6,1.33-1.52,0-2.48,1.93-4,.93-.74-1.87,1.35-3.6,2.52-5,2.1-3.25-1.35-5.94-1.35-9a77.62,77.62,0,0,0-10-2.34,12.74,12.74,0,0,1-2.51-.57c-7.27-.76-13.78-2.49-22-1.91-.76,1.35-1.5,2.89-2.28,4.41-2.12,2.69-5.57,2.3-8.42,3.62-1.73.59-3.66.59-4.64,2.13a1.8,1.8,0,0,0,.8,2.47c.55-.93,1.31-2.47,3-1.89,1.72,0,2.89,1.33,3.65,2.48a4.63,4.63,0,0,1-.76,3.08c-1.74,1.32-3.45-.78-4.62-1.15-1.5,1.54-.18,4.6.6,6.51,2.28.41,4.41,1.54,7.08,1,4.6,1.72,9.61,2.69,14,5.19,1.35.74,2.48,3.06,4,2.86,0-1-1.15-1-1.35-1.73-.39-.59-.39-1.13.2-1.52.76-.78,1.91,0,2.67.39a6.94,6.94,0,0,1,3.84,6.31c-.37,3.26-1,6.34-4.21,7.86-2.89-.2.19-2.3-.59-4-.19-.56-1-.56-1.32-.93-1.35-2.89-3.1-6.71-6.53-7.29v.39c4.19,3.08,5.38,7.66,5.55,12.65a8.11,8.11,0,0,1-3.27,4,35.8,35.8,0,0,1-14.35,1c1.54-4,7.47-.39,9.59-3.63-4-1-7.11.78-11.13,0-1.36-.6-1.73-2.71-3.84-1.91-3.25.57-.56,3.43-1.34,5.54,2.3,2.49,5.18,2.32,8.63,2.49,2.11-.17,2.11,2.11,1.93,3.67s-.19,3-1.17,4.19l-7.46,1.17c-1,.37-1.15,2.12-2.5,1.89-5.55-1.52-10,3.29-15,4.42h-9c-1.74-.37-1.56-2.88-3.3-3.08,0,6.53-5.34,11.52-10.89,13.63a1.13,1.13,0,0,1-1.35-1c.39-.94.94-1.72,1.93-1.72,3.06-2.5,7.64-6.12,6.49-10.33-3.23-1-4.75-4.44-5.75-7.49-1.32-6.35-1.73-14.58,4-18.22a6.9,6.9,0,0,0,1.52-6.51c-1.33-1.15-1.72-2.52-2.48-3.84l0,0h0l-2.66-.49a2.23,2.23,0,0,1-2.19.92c-1,.16-.68-.79-.58-1.43l-1.49-.27a4.54,4.54,0,0,1-1.19,2.09,14.56,14.56,0,0,1-4.77,1.52c-2.69-.78-6.24-1.09-6.53-6.18l-1,.06a3.43,3.43,0,0,1-2.67,2.1c1,2.11,2.5,5.15,1,7.88-1.15,1.91-2.87,3.82-5.38,3.62a3,3,0,0,1-1.66-.15Zm91.61-27.56c-1.35,1.91-4.41,0-5.38,2.49-3.43.2-.92-5-4.78-5-.37-.19-.37-.6-.37-1,3.43-2.87,6.9.76,10.35,1.15h0C414.88,440.54,414.68,441.52,414.49,442.28ZM335,487.89c-1.34,2.49-3.25,6-6.53,6.16-.76-1.72,1.35-2.73,2.28-4.06,3.84-4,1.17-8.61,3.28-13.21C336.68,479.27,335.53,484.63,335,487.89Zm12.26,8.63c1,0,2.11.18,2.48,1-.2,2.3-2.67,2.12-4,2.88-.58-1-.19-1.54-.39-2.49A5.92,5.92,0,0,1,347.22,496.52Zm-6.31-17.64c.56-1.52,2.47-.76,3-2.49,1-.37,1.34.58,1.34,1.34,0,1-.95,1.54-1.71,1.93C342.6,479.66,341.28,480,340.91,478.88Zm.37,5.38a3.12,3.12,0,0,1,3.64-1.15c.57,1.15-.78,1.91-1.34,2.48C342.6,485.59,341.28,485.4,341.28,484.26Zm.56,6.71c0-1.93,1.91-1.54,2.89-2.89,1,0,1.54.2,1.91,1h0c-.37,1.54-1.91,1.73-3.06,2.11Zm4.8,23.19c-.59-.39-1.35-.21-1.35-1,2.3-1.54,5.58-2.13,8.25-2.5l.56.57C352.39,513.39,349.5,514.91,346.64,514.16Zm68.24-35.86h0c0,1.36-1.91,1.91-3.26,2.32a2.71,2.71,0,0,1-1.32-.41C411.06,478.3,413.34,478.49,414.88,478.3Zm-23.37,28.18c3.82-1.91,5.94-7.29,10.35-8.61l.54.58a46.94,46.94,0,0,1-7.07,8.81,3.56,3.56,0,0,1-3.63.57C391.31,507.65,390.92,506.86,391.51,506.48Zm-4.82-6.7c.78-.78,3.1-1.17,3.45.19h0c-.74,3.26-5.16,3.43-6.29,6.71-1,.39-2.71.58-3.08-.2C381.7,503.4,385.56,502.65,386.69,499.78Zm-27,2.48c.39-1.54,2.1-2.87,3.45-2.66h0a4.4,4.4,0,0,1-1.93,3.8C360.44,503.4,359.48,503,359.68,502.26Zm10.15,31.44c-.17-.36-.76,0-1.15-.18-.41-1.54.59-2.5,1.74-3.25,1.32-.59,3.62-.77,4.23.75C373.85,532.76,371.18,532.18,369.83,533.7Zm8-16.46c-5.75,7.65-16.47,5.35-23,11.86-.78,1.34-2.1,2.69-3.62,2.69a5.36,5.36,0,0,1,.37-2.29c5.16-5.55,11.89-8.45,19.16-10,2.3-1.72,5.36-2.48,6.51-5.35C378.84,514.36,378.08,516.44,377.88,517.24Zm-8.42-7.09c-1,0-1.73.19-2.1-.78.54-2.11,2.84-1.72,4-3.45,2.11-1.54,3.67-6,7.29-5l.18.54C377.3,505.55,373.09,508.41,369.46,510.15Zm25.09,32c-1.91,1.93-5.15,3.25-7.86,2.12-3.06-1.34-2.1-4.79-2.65-7.31.55-1.13.18-3.43,1.91-3.43l1.13,2.3c.59,1.52.39,4.39,2.71,5,3.45-.78,4.19-4.79,6.86-6.33C398.21,537.17,396.28,540,394.55,542.14Zm4.81-28.56a25.18,25.18,0,0,1,4.76-2.1c-.74,6.7-5.73,12.64-11.66,16.09-.58,0-1.15.59-1.75.2.8-4.21,6.55-5,6.74-9.59-5.57-1.74-11,1.15-15.53,3.45-.59-.18-2.32.18-2.13-1.35,5.19-1.71,6-8.24,11.52-9.39,6-1.91,13.24-2.48,16.47-9l3.08-4.4c.76.19.57,1.13,1,1.91h0c-1.74,6.71-8.62,12.47-15.34,13.41-.2,0-.39.59-.78.59C396.28,514.36,398.39,514.16,399.36,513.58Zm20.31-15.32c-1.54,5-3.25,10.15-7.85,13.78-.39-5.75,5.55-9.18,5.36-15C418.13,495,420.06,496.7,419.67,498.26Zm-3.06-20.35h-1.15a19.81,19.81,0,0,0,4.21-14.37c-1-1.91-1.54-4.23-3.25-5.75a.93.93,0,0,1,.56-1.13c3.28.94,5.19,4.41,5.56,7.84C422.54,469.88,421.39,475.06,416.61,477.91Zm8.64,22.45c-.41.36-.78,1-1.37.76-1.71-2.51,1-4.6.22-7.48,1-.57.56-1.74.56-2.49-.56-2.68-1.93-4.78-2.3-7.47.77-.39,0-2.11,1.35-1.91l1.13,1.34h0C428.09,488.08,427.35,495.18,425.25,500.36Z" transform="translate(-86.13 -20.2)"/><polygon class="cls-4" points="235.57 675.47 235.57 675.47 235.57 675.47 235.57 675.47"/><path class="cls-4" d="M429.26,615.95c-1.17-2.71-1-5.57-3.27-7.68a30,30,0,0,0-5.36-4.79l-1,1c1.54,1.54,1.72,3.65,1.93,6,.57,1.52,2.5,3.25,1.74,4.81-1.35.76-2.52-.41-3.47-1.17-2.5-1.54-2.5-5-2.69-7.29h-.94c-2.71.22-1,2.5-1.17,4-.39,3.49,2.69,5.2,3.45,8.46-.56,1.15-1.34-.22-2.1,0-3.08-2.13-6-5.58-5.19-9.79h-.37c-1-.19-1.54,1-2.1,1.74,1.32,2.08,2.67,4.4,2.47,7.07,0,1.54,1.91,2.87,1,4-1.74.21-3.1-1.33-4.43-2.48-1.52-2.47-.93-5.53-2.1-8.07-1.56-.35-3.47.2-5,.59-4.06-1.33-9.2-.39-13.45-1.33-3.82,1.15-7.84,3.28-9.77,7.27-.93.61-1.91,2.52-3.25,1.54-.76-2.86-2.67-.19-4.41-1.13-5.75-4.23-11.87,1.33-16.66,4.58-1.54.37-3.47,1.72-4.8.37-.6-.93-1.73-2.3-.19-3.23-.2-.39-.59-.39-1-.39-1.34,0-1.93.95-2.3,2.1-.19,2.3,1.35,3.08,2.48,4.8,2.9,1.71,6.92,1.52,10.17.76,1.33-2.48,4.21-.37,5.17-3.45a2.58,2.58,0,0,1,2.88,1.52c-1.17,2.88.74,5,1.37,7.48-2.15,3.84-7.12,4.8-8.85,8.81-1.74,3.08.19,6.36,1.93,8.64.95,2.49,3.62,5.55,1.34,7.87C356,662.69,348,661,342,664.23c-3.63,1.54-4.8,5.36-7.68,7.86-1.52-.35-4.21,1.17-4.39-1.52a9.65,9.65,0,0,1-6.33-4.8l-5.56,1.37c2.67,1.69.39,5,0,7.25-1.54,2.88-4.21,6-7.68,5.38l2.13,7.48c2.49-1.15,5,0,6.9,1.72,2.28,1.73,2.49,3.86,2.28,6.7l4,5.77c1.76-.58,2.32-3.27,4.6-2.3,1.91-.78,4.62-1,6.71-2.1,1.93-.78,3.64.74,5.16,1.52,2.13-1,3.67-4.21,6-3.47,5,2.49-1.35,5.38,0,8.83,1.93.37,3.45-1,4.6-2.11,2.88-2.12,3.27-6.9,7.66-5.94,2.49,1.91-.57,4.23-.57,6.51-1,2.51-1.73,5.94.2,8.24,1.91-.95,3.06-3.27,3.82-5.16,1.54-5.17,4.79-9.79,7.09-14.76a1.4,1.4,0,0,1,1.91.37c.59,1.35-1,1.76-1.32,2.5-2.69,4.21-2.89,8.42-2.11,13.41h1.33c4.25-2.69,4-7.84,5.94-11.89a7.42,7.42,0,0,1,2.5-4.21c2.69.78,0,2.88,0,4.42-.57,3.06-.39,6.14,1.91,8.4,2.9-2.08,2.49-6.49,2.3-9.59-1.33-6.49,1.91-12.8,6.9-17.23a6.71,6.71,0,0,1-2.67-3,86.36,86.36,0,0,1,0-24.56c1-1.52.39-4,1.73-5.14,2.11,5-.58,11.46,2.3,16.45.57.58.76-.57.94-.78,3.64-5.93,1.54-12.24,3.06-19,.58-1,.39-2.69,2.3-2.49,1.93,1.71,1.36,4.4,1.36,6.51,2.85-4.41,8-6,11.87-9,4.23-.58,7.47-3.47,10.76-5.73,3.65-.78,6.89-2.34,8.6-5.57C430.2,621.51,429.83,618.43,429.26,615.95ZM325,672.09h0a3.11,3.11,0,0,1-1.54,2.88c-.76.2-1.34-.39-1.73-1.13C322.31,672.87,323.64,670,325,672.09Zm2.32,20.5a6.59,6.59,0,0,1-2.88,1.17c-1.17-2.3,2.08-4.6,0-7.09-1.91-2.48-5-2.48-7.49-3.47,0-1.13,1.74-1.33,2.87-1.33,3.64-.39,6.92,2.11,8.26,5.54h0C328.06,689,329,691.46,327.3,692.59Zm4.21,3.67c-1.17,0-2.49,0-3.08-1.17-.37-1.91,1.72-.57,2.67-1.52,1.15-1.15,3.08-2.87,4.23-1C335.14,694.52,332.84,695.67,331.51,696.26Zm7.84-21.09c-1.72,1.54-2.48,3.06-4,4.6l-.37-.2c1.13-4.4,3.82-9,8.42-10.54,2.5,1.54,1.72-1.72,3.84-1.54,1.54,0,3.08-.35,4,.76C348.57,672.87,342.43,671,339.35,675.17Zm17-2.3h-1.34a5.5,5.5,0,0,1,.6-3.08c.94-.55,3-1.13,2.87.58A2.5,2.5,0,0,1,356.4,672.87Zm5.58-2.3a2.81,2.81,0,0,1-2.5,0c-.41-.2,0-.78-.19-1.15C360.07,667.49,363.52,668.46,362,670.57Zm3.08-1.91c-.78,0-2.13.37-1.74-1,.37-.8.37-1.93,1.52-1.93a1.37,1.37,0,0,1,1.52.78A2.07,2.07,0,0,1,365.06,668.66Zm5.36-17.08a14.4,14.4,0,0,1-3.67,9.59c-.58,0-1.13.59-1.91.18-.19-1.33,1.17-2.28,1.52-3.65,1.54-2.45-.19-6.31,2.13-8,1,0,1.54,1.15,1.93,1.91Zm3.43-7.83h0c0,4.6-5.17,2.45-7.84,4-.76-.58-.19-1.73.35-2.1,1.74-1.17,4.43-.39,5.21-3.06a1.4,1.4,0,0,1,2.28,1.15h0Zm-3.06-3.45c-1,.56-1-.76-1.33-1.15-1.19-2.71,1.72-4.41,2.48-6.55a1.91,1.91,0,0,1,1.91,1.17h0C374.82,636.81,371.18,637.8,370.79,640.3Zm2.3-13.26c-1.52-.93-3.63,1.74-4-.74.59-3.47,4.78-1.36,6.32-4,1.17,0,.56,1.17.76,1.93C376.15,625.89,374.24,626.11,373.09,627ZM386.32,620c-1,.19-1.17-.76-1.73-1.33a3.53,3.53,0,0,1,1-2.14c1.33-.37,2.87.41,2.5,1.93h0C388.06,619.38,387.08,619.58,386.32,620Zm2.87,19.92c-1.33-.35,0-2.3-1.13-2.87.56-1.15,1.91-5.75,3.45-2.1C392.07,637.2,390.53,638.56,389.19,639.89Zm1.91-21.25c-.76,0-1.91-.21-1.7-1.17,0-.76-.41-2.1.74-1.91,1,0,1.93.39,1.93,1.35h0C392.46,617.67,391.7,618.23,391.1,618.64Zm3.08-1c-.2-1,.37-1.17,1-1.37,1.33.2,3.06-.17,3.84.78h0c0,1.15-1.36,1.56-2.14,2.13C395.7,619.21,394,619.38,394.18,617.67ZM397.82,632a3.85,3.85,0,0,1,1.17-4,1.42,1.42,0,0,1,1.31,1A4.53,4.53,0,0,1,397.82,632Zm5,3.65c-.78.17-.78-.78-1.34-1.19,0-1.7,2.49-2.26,2.49-.18A1.51,1.51,0,0,1,402.81,635.7Zm4-1.93c-.39.39-1,1-1.56.56,0-.76-1.17-1.34-.57-2.08C405.48,630.49,407.78,632.25,406.85,633.77Zm4-2.5c-.19.78.2,1.33-.56,1.72a1.92,1.92,0,0,1-2.11-1.15c-.41-.76.37-1.35.92-1.7a1.31,1.31,0,0,1,1.75,1.13Zm3.06-.19c-.58-.2-1.52-.37-1.34-1.33a1.39,1.39,0,0,1,1-1.73c1-.22,1.35.56,1.74,1.34C415.27,630.14,414.68,631.08,413.92,631.08Zm4.78-1.91c-.74.19-.94-.78-1.13-1.15-.59-2.32,2.69-2.13,2.49-.22A1.1,1.1,0,0,1,418.7,629.17Zm4.81-2.13c-.78,0-1.15-.74-1.15-1.52.57-.58-.58-2.1.77-1.93.58.2,1.53.2,1.53,1.17S424.47,626.67,423.51,627Z" transform="translate(-86.13 -20.2)"/><path class="cls-4" d="M259.24,569.54l.08.07,0-.21S259.28,569.48,259.24,569.54Z" transform="translate(-86.13 -20.2)"/><polygon class="cls-4" points="356.34 710.36 356.34 710.36 356.34 710.36 356.34 710.36"/><path class="cls-4" d="M551.75,595.23c-1.91-3.25-4.79-6.9-9.39-6.12-11.31,2.87-18,16.08-29.14,19.36-2.11-.39-4.8,0-6.14-2.5-.76-1.91.58-3.45,1.93-4.6,6.14-4,6.33-11.91,11.89-16.29,3.25-3.63,10.54-6,9.37-11.89-3.06,3.47-7.85,4-11.11,7.29-1.73,1.91-3.25,4.6-5.75,5.18a2,2,0,0,1-2.49-1.34,31.88,31.88,0,0,1,.19-13.43c.57-7.66,7.47-12.67,9.2-19.75l-.21-.19c-3.24,4-8.23,5.75-11.09,10.17-1.74,3.26-1.35,6.14-1.93,9.77.19,1.17-.94,1.34-1.7,1.17-2.32-1.37-3.29-3.84-4.23-6.14.18-6.34-1-14.78.94-21.11,1.73-7.47,5.77-14.16,7.5-21.64-1,.78-2.51,1.72-3.08,2.89-.56,4.59-4.6,7.83-6.9,11.85-2.49,3.08-.58,7.48-3.64,10.37-.76.58-1.54-.2-2.3-.39-6.73-4.21-6.9-12.85-6-19.73-.78-6,2.5-11.13,4.8-16.3.76-2.1,1.34-4.6.58-6.12a8,8,0,0,0-4.42,4.6c-3.26,4.39-2.67,10.34-6,14.74-.94.76-1.91.39-2.86,0-2.87-5.75-5.17-11.87-5.37-18.79.38-2.3-.58-4.8,0-6.9C473,487.13,477,478.69,482,468.9c-3.47-.17-4.41,5.56-7.68,4.64-1.72-1.56-.78-4.25-1-6.55,2.1-8.42.39-17.27-2.48-24.71-1.36-2.89-2.69-6.49-5.94-7.49.93,4,3.06,7.12,3.46,11.5,1.53,5.38-.6,10.76-1,15.73-1.73,4.6-4.79-2.12-7.68-1.54a67.82,67.82,0,0,1,2.5,10c3.07,11.33-2.68,21.29-.39,33.36.78,13.44,3.64,28,10.17,40.46,10.55,16.3,20.7,33.35,22.22,53.29-.37,4.58-3.82,8.23-8,10.33-3.82,1.76-8.6,2.87-13,1.54-7.46-19.35-18.38-38.73-34.68-52.53-4.62-5.16-12.08-6.51-15-12.63a26.66,26.66,0,0,1-7.66,2.48c-1.54-.76-3.45-.94-5-1.52-2.49-1.74,1-3.84,1.35-6,2.1-3.86-1.15-7.29-2.69-10.35a10.41,10.41,0,0,0-1.74,2.1c-1.73,7.1-8.79,11.72-10.33,19.17-2.51,3.08-5.57,5.38-9.39,5.38-3.47,0-6.36-1-8.46-3.84-.94-1.35-.94-3.45-2.48-4.21a16.36,16.36,0,0,1-8.85,5.94c-3.21,1.72-5.9-.78-8.79-1.36-1.34-.76-2.32-2.5-3.62-3.24a35.86,35.86,0,0,1-13.65,9.36c-11.11,1.56-21.07,6-32.2,7.7-5.73,0-11.3.37-16.47,2.47-5.38.59-10.54-1.71-14.75-4.58a3.88,3.88,0,0,1-1.87-2.79l-1.24.25a1.7,1.7,0,0,1-.34,1,2.3,2.3,0,0,1-2.69-.19,1,1,0,0,1,0-.19l-1.39.28a8.35,8.35,0,0,1-.31,4.31,13.08,13.08,0,0,1-5.77,5c-2.82.22-3.8-.17-5.84-1.84l-.86,6.46c3.08,1.17,4,5,4.4,7.86l4.8,6.14c-.18-1.54,1.15-2.3,2.49-3.06,5.58-1.93,12.65-1.74,17.25,2.45,1,1.56,1.15,3.3,1.74,4.82,1.73-.78,3.45.58,5.38.76a20.92,20.92,0,0,1-3.65,8.44l.18.19c1.54-1,1.71,2.3,3.25.76,4.8-2.67,6.53-8.44,9-13a1.49,1.49,0,0,1,1.91.2c.56,3.08,4.77.19,6.31,2.3.78,2.88-1.71,6.14,0,8.81,5-.57,6.14-6.3,10.76-7.84,1.13,0,.76,1.54.76,2.11-1.75,2.3-1.15,5.92-.56,8.44,1.91-1.93,2.28-4.43,3.43-6.73,1.73-5.55,8-6.9,12.47-9.39,5.17,2-.21,5.75.16,8.83,0,.56-.16,1.52.78,1.34a13.92,13.92,0,0,0,3.08-5c1.91-3.23,1.91-9,6.9-9.2,4,2.11.37,6.32,1.71,9.59a4.91,4.91,0,0,0,1.91,2.3c3.65-4.4,4.62-10,8.83-14,1.35-1.72,3.28-.59,4.58.56,2.91,3.65,0,8.25-1.71,11.31-.37,1.73-1.72,3.45-1.13,5.38a7.26,7.26,0,0,0,3.84-4.62c2.1-4.56,2.3-10.14,6.49-14,3.45-1.52,4.23,3.06,6.33,4.25,4.23-3.27,6.14-8.26,10-11.71,1.74-1.15,4-1.72,6-.18,4.4,10.35,15.53,11.7,23.58,17.23,9,8.64,12.64,20.14,14.58,31.83.94.57.76-.76,1.7-.39.8-.76,2.32-1.15,2.51-2.47,1.93-1.15.76-5.38,4.2-4.8,1.77.74,1.36,2.87,2.14,4.21-.37,4.21.94,9.2-1.56,13.22-1.13,4.6-6.49,3.64-8.79,7.31,5,5.16,5,13.78,2.1,20.13-2.9,5.34-10.17,5.34-12.3,11.07A83.5,83.5,0,0,0,435,669c3.65-.57,2.5-4.62,4.41-6.34,3.24.41.37,3.47,1,5.38.74-.37,1.51-1.17,2.27-.58,1.77,7.87,6.92,14.19,7.13,22.63.37,2.47-1.54,3.45-3.47,4.4,0,2.32-1.52,3.84-3.08,5.36s-4.39.59-6.12.78l-7.66,5c-.2,1.91,1.71,3.24,2.67,4.6,1.15,2.3-1,3.43-1.13,5.54l1.52,2.88c3.06-.56,6.7-.19,8.81,1.52,3.47,2.11,2.3,7.29,1.91,9.79l-.76.58,3.26,1.72c1.16-2.5,4.42-1.91,6.7-2.5,2.32-.93,2.32-3.45,3.47-5.16.57-4.43,1.91-8.83,2.69-13.24.39-1.91,1-4.4,3-5.14a3.76,3.76,0,0,1,1.74,3.43c.78,1.34.19,3.23.58,4.79a13.23,13.23,0,0,1,7.27,1.33c2.89,1.36,3.84,4.6,4,7.48,2.12-2.67,1.75-7.09,4-10,.39-.74,1.54-.56,2.13-.15,2.1,2.86,4,7,7.46,8.24,1.35-4-2.49-6.72-4.62-9.8,0-2.87-3.43-5.54-.74-8.42,3.43,0,5.56,3.82,6.71,6.7,1,1.52,2.3,4.21,4.79,4.06l.39-2c.57-1.91,2.28-.2,3.82-1a12.53,12.53,0,0,0-.19-5.36c-.18-4.4-5.17-5-6.12-8.81.76-1.17,1.71-2.73,3.23-2.9,4.43.78,8.46-.57,12.28,1.73.59-.76-.56-1.91-1-2.69-3.65-.76-6.71-3.82-10.53-3.23-.8-.59-2.51,0-2.32-1.54,0-2.32,2.5-1.93,3.84-2.5,4.21-2.1,9.2,1.91,12.46-1.52-1-1.17-3.26-.58-2.89-2.51,2.5-1.33,6.16-3.08,6.16-6.32-1.93,1.52-4.79.57-7.29.94-4.81-.37-7.09,5.77-11.89,6a1.56,1.56,0,0,1-1.91-1c2.11-3.08,6.12-2.13,8.23-5.38,1-1.72,2.12-3.84,2.12-5.75-2.69.19-4.81-.59-7.09-.94-.59-.41-1.93-.21-1.74-1.34,2.11-2.71,5-2.71,6.92-5.6,1.7-.15,3.26-.54,5-.74,4-1.34,7.68.59,11.31,1.54,2.69-1.15,7.29-1.93,7.29-5.75-1.72.74-2.69-.78-4.21-.78l-.59-2.86c-1.73,0-3.08,1.34-4.6,1.89-6.9,3.08-11.5-3.84-17.64-.94-2.67,3.26-5.73,6.69-9.78,8.44-4,.76-8,3.8-11.68.37a10.36,10.36,0,0,1-2.11-4.79c1.16-5,2.11-10,3.46-14.78,1.15-7.64-3.08-13.19-3.26-20.31.74-2.08,3.06-3,5.17-3.43,1.73-.19,3.25.59,5.18.59,2.67.35,3.63,3.23,4.78,5.36.76,1.34,1.17,3.06,2.69,3.84.76-3.65,2.1-7.12,2.49-11.11,3.06-5.4,5.17,3.23,8,3.62,1.15-3.47,1.74-8.44,6.34-8.83,6.9-.19,12.43-4.6,17.62-8.44,6.33-3.62,11.13-12.24,18.4-13a7,7,0,0,1,4.42,2.87c1.15,2.69-1.34,4.23-2.69,6.14a5.6,5.6,0,0,0-.39,2.88,3.87,3.87,0,0,0,1.91-.78C550.41,601,552.71,598.88,551.75,595.23Zm-81.26-116c-.58,7.29.94,13.8-1.74,20.33a1.64,1.64,0,0,1-1.16,1.12c-.55-1.12,0-2.85.39-4.2.19-5.75.19-11.67-1.15-17.07a4.69,4.69,0,0,1,.76-3.06c2.1-.55,2.1,1.91,2.9,2.88Zm11.87,68.62c-2.3-.76-3.08-3.63-4.78-5.56A84.09,84.09,0,0,1,472,530.27l1-1.35c4.21,3.26,4.77,8.42,7.25,12.46l.58-.2c.2-3.27-.37-7.07,2.13-9.2C483.71,537.54,483.9,542.92,482.36,547.89Zm-220.82,28c-1,.19-1.17-.39-1.17-1-.18-1.52,2.32-1.32,2.49-.15C262.86,575.49,262.12,576.27,261.54,575.88Zm3.06,6.7a2.3,2.3,0,0,1-1.35-1.91,1.24,1.24,0,0,1,.59-1.36c1.32-.18,2.69-.18,3.06,1.17h0C266.33,581.26,266.14,583.17,264.6,582.58Zm16.49-1.52c-3.08,1.52-5.56-1.75-8.64-1.52a1.61,1.61,0,0,1,.39-2.3c3.06-2.34,5.56,1.13,8.81.94A2.38,2.38,0,0,1,281.09,581.06Zm13.43-.78a1.93,1.93,0,0,1-1,1.72,2.18,2.18,0,0,1-.78-2.87C293.54,577.24,295.67,579.13,294.52,580.28Zm2.86,1.72c-1.34-.2-.78-1.91-1-2.87,1-1.73,1.91.18,2.1,1.15C298.14,580.85,298.53,582,297.38,582Zm5.36,0a2.14,2.14,0,0,1-1.91-2.69c0-1.7,2.11-1.52,2.5-.37C303.13,579.89,303.89,581.65,302.74,582Zm5.19-.2c-1.15.2-1.91-1-2.13-1.91-.17-.76.59-1.32,1-1.71.95-.2,1.52.76,1.91,1.36C308.69,580.48,309.08,581.26,307.93,581.8Zm30.48-14.36c-1.17,1.34-3.45,0-5,1-4.4,2.69-10.56,5.19-15.53,2.69,3.43-1.54,7.66-1.91,11.13-3.82,2.86-.58,6.12-4.6,9.18-1.34C338.78,566.29,338.41,566.87,338.41,567.44ZM375,570.3c-3.67-2.28-8.87-.93-12.3.59-5.17,2.3-5.36,10-11.11,11.11-.2-3.06,2.1-5.73,4-8.42,3.82-1.72,4.6-5.56,4.78-9l1.54-1.34c1.15.76,1.15,2.49,1.34,3.84,3.43-.2,1.52-5.19,4.58-6.14a6.41,6.41,0,0,1,1.93,5c3.45-.41,1.35-4.8,4.41-6l.8.78C374.82,563.81,379,568,375,570.3ZM401.86,577c1.34-4.19,6.1-4,8.81-7.1l3.82-3.62c.78.58.39,2.1-.18,3.08h0a21.06,21.06,0,0,1-11.69,8.24A4.79,4.79,0,0,0,401.86,577Zm5.92,2.12c1.33-4.23,5.75-5.36,8.64-7.85.37-.2.76.39.76.58h0c-.57,4.41-5.36,5-8.07,7.45C408.76,579.31,408,579.89,407.78,579.13Zm4.23,2.13c1.13-1.37,1.52-3.28,3.45-3.86.2-1.13,1.33-1.33,2.3-1.72.37,0,.94-.19,1.13.39h0a10.53,10.53,0,0,1-5.16,5.73C413,581.8,412.4,581.8,412,581.26Zm5.36,2.88a1.34,1.34,0,0,1-1.13-.58c1.52-1.56,3.43-5.77,6.12-3.84h0A7.62,7.62,0,0,1,417.37,584.14Zm2.69,1.91c1-1.91,2.48-2.88,4-4.4a1.29,1.29,0,0,1,1.54.74c-.22,1.75-1.76,3.08-3.28,3.84A4.93,4.93,0,0,1,420.06,586Zm3.07,4.6c-.77-.78.38-1.54.58-2.49,1.34-.78,3.45-4,4.58-1.15,0,1.89-1.72,2.28-2.87,3.43C424.66,590.44,423.88,591.24,423.13,590.65Zm2.86,2.48c1.36-1,4.21-5.56,5-1.89h0a5.28,5.28,0,0,1-3.84,3Zm3.84,3.64c-.76-.58.21-1.15.37-1.73.8-.57,3.64-1.54,2.9.58h0C432.31,596.58,431,597.9,429.83,596.77Zm2.1,2.3c0-.58.8-1.34,1.35-1.52.76,0,1.73,0,2.12.57h0c0,1-1.15,1.69-1.93,1.91A1.13,1.13,0,0,1,431.93,599.07Zm1.72,4c0-1,1-1.13,1.75-1.52.77.19,1.35-.39,1.91,0,.57,1.32-.56,2.1-1.54,2.49A1.83,1.83,0,0,1,433.65,603.09Zm3.47,8.07a6,6,0,0,1-1.17-4.8c.41-1.17,2.9-1,2.9.37A5.09,5.09,0,0,1,437.12,611.16Zm15.14,80.3c1-.19,1.74,1.13,2.29,1.91.39,1.54-1.31,1-2.29,1.15-.77,0-1.16-.76-1.34-1.34C451.1,692.42,451.1,691.46,452.26,691.46Zm-.37-11.11c.18-.78.37-1.56,1.14-1.75s1,.58,1.52,1h0c0,1,0,1.91-1.13,2.11C452.83,681.48,451.89,681.13,451.89,680.35Zm2.11,7.27c-1-.21-1.93-1-1.74-1.91.4-1.93,2.5-1.17,2.68.57h0C455.13,687.06,454.37,687.25,454,687.62Zm-1.74-15.71a1.36,1.36,0,0,1,2.68.18c0,1.17,0,2.49-1.33,2.3C452.66,674,451.1,673.26,452.26,671.91Zm-.56-48.12v1.36a3.78,3.78,0,0,1-3.45-1,1,1,0,0,1,.56-1.72A2.6,2.6,0,0,1,451.7,623.79Zm-1-5.15a1.56,1.56,0,0,1-.94,1.52A3.26,3.26,0,0,1,446.9,619c-.19-.56.18-.93.77-1.32C448.81,617.86,450.16,617.47,450.73,618.64Zm-4.78-6c1.33-.2,2.3.56,3.24,1.15a.92.92,0,0,1-.75,1.54c-1,.58-1.93-.18-2.9-.39C444.6,614.24,445.35,613.07,445.95,612.68Zm-1.15,36.6c0,.78-1,1.17-1.56,1.17-1.13.37-2.11-.39-2.85-.78-.4-.56-1.17-1.32-.6-2.3,1.93-1.54,4.23,0,5,1.91Zm3.64-14.77h0c-1.73,1.36.18,3.29-1.73,4.64-2.69.56-.57,3.45-2.87,4.4-1.18-.78-3.45,0-3.64-1.91-.41-2.1,2.67-2.1,2.1-4.25.76-1.69,3.84-1.13,3-3.62,1-1,2.9-.78,3.09.74h0Zm.75-4.19c-.75.17-.94-.78-1.31-1.35.37-1,.37-2.1,1.52-2.49a2.1,2.1,0,0,1,2.09,1.32h0C451.7,629.17,450.16,629.75,449.19,630.32Zm-.94,68.61c1.54-1.54,4-.57,6.12-1l.39.59c.18,1.13-1.52,1.73-2.1,2.49a4.87,4.87,0,0,1-4-.19C447.88,700.47,448.25,699.49,448.25,698.93Zm2.85,25.3h0c0,.76-.77,1.34-1.31,1.73a1.7,1.7,0,0,1-1.74-1.15c-.38-1,.57-1.54,1.14-1.91C450.16,722.71,451.49,723.08,451.1,724.23Zm1.34-2.85c-1.13-.21-3-1-2.11-2.71,1.16-1.91,3.28.57,3.09,1.93C453.8,721.17,453,721.56,452.44,721.38Zm1.73-4.23c-.75,0-1.91,0-1.91-1a2.4,2.4,0,0,1,1-1.91,2.51,2.51,0,0,1,1.89,1.73h0C455.34,716.57,454.55,717,454.17,717.15Zm1.17-3.86a1.06,1.06,0,0,1-1-1.13c.39-1,.57-2.1,1.71-2.3,1-.19,1,1,1.37,1.52C456.87,712.16,456.87,713.68,455.34,713.29Zm18.19-99.46c.2,1,0,1.73-.94,1.93-1.16.37-1.36-1-1.73-1.52C470.49,612.29,473.34,612.11,473.53,613.83Zm-4.6,17.44c1,0,2.13-.19,2.69.78h0c.39,1.52-1.34,1.33-2.12,1.72-.75.19-1.12-.39-1.52-.78C468,632.25,468.17,631.47,468.93,631.27Zm-1.34-2.69a2.45,2.45,0,0,1,2.9-.56c.37.37.94.56,1.13,1h0c-.76,1.35-2.3,1.91-3.45.78C467.78,629.36,467.41,629,467.59,628.58Zm1.55-2.28c-.76-.19-1.36.37-1.73-.41-.58-1.91,1.91-1.91,3.08-1.32C470.86,625.35,469.69,626.11,469.14,626.3ZM468,621.1c.6,0,1.52,0,1.52.78h0c0,.78-.57.78-1.12,1.34-.6,0-1.34.2-1.34-.56C466.63,621.68,467.41,621.29,468,621.1Zm3.84,14.6.19.56a5.82,5.82,0,0,1-4.23,3.08c-.74,0-1.93.2-1.93-.78C466.63,636.26,469.5,636.07,471.82,635.7Zm-7.1,8.59c1.91-1.13,4.21-.74,6.14-1.91.57-.19,1,.39.57,1h0c-.94,2.3-3.26,2.84-5.58,3.06C465.09,646,463.75,645.46,464.72,644.29Zm6.14,4.06h0c-.37,2.86-3.82,3-5.94,4.21a1.11,1.11,0,0,1-1.35-.8C464.53,648.35,468.38,648.89,470.86,648.35Zm-8.24,8.22a50.51,50.51,0,0,1,7.29-2.1v.78c-2.32,1.69-4.43,4.4-7.29,3.25A1.27,1.27,0,0,1,462.62,656.57Zm.38,8.07a1.89,1.89,0,0,1-.38-1.75c1.91-2.11,5.16-1.54,7.29-3.24l.19.37C468.58,662.3,466.07,665,463,664.64Zm20.51,10.92c-2.3-.59-5.36,0-5.93-3.08l.18-.57c5.56.76,9.78-2.67,13.41-6.53l.59.2h0c-.37,2.88-3.65,5.18-5,7.87,2.3.76,4-1.36,6.51-.78-.76,2.69-3.45,4.21-6.12,4.6,1.52,1.15,4.4-.19,5.36,1.33-1,2.88-3.65,2.12-5.75,2.71-1,0-1.35-.59-2.11,0-.19,1,1,1,1.35,1.34.58,0,1.32-.19,1.71.18-.78,2.88-4.77.56-5,4-.94,1.13-1.91-.19-2.86-.39-1.91.59-4.43.94-5.75,2.87,1.13.78,2.49,2.49,3.84,3.64-.2,1,.38,2.5-.38,3.08-2.14-2.49-6-2-7.09-5.18a4.91,4.91,0,0,1,1.33-4.41C475.85,683.2,484.25,682.46,483.51,675.56ZM478.15,615a1.91,1.91,0,0,1-2.12-1.74,1.34,1.34,0,0,1,.76-1.54c.79.2,1.93.2,1.93,1.17C478.72,613.63,478.89,614.59,478.15,615Zm5.36-3.08h0c-.39.78-.39,2.34-1.72,2.12-.77,0-1-1-1.16-1.73,0-.59.58-1.13,1.16-1.54a1.7,1.7,0,0,1,1.72,1.15h0Zm7.08-54a1,1,0,0,1,1.93,0c1.34,1.13,1.15,2.69,2.1,4,2.11-3.25.39-8.81,3.65-11.69l.76.19c-1,7.1-1.35,13.8-3.45,20.51H495C493.28,566.87,491,562.66,490.59,557.87ZM489.07,610c-.39.76-1,1.91-1.91,1.71a1.61,1.61,0,0,1-1.35-1.32c-.19-.74.78-1.35,1.13-2.11C488.11,608.27,489.26,608.82,489.07,610Zm4-2.3c0,1.13-1.17,1-1.93,1.13-.76,0-1.34-.35-1.34-1.13-.18-1.13,1-1.33,1.56-1.72C492.15,606,493.67,606.36,493.1,607.69Zm.37-4.41c1-1.52,3.08.78,2.11,2.13a2.09,2.09,0,0,1-1.52.37C492.91,605.19,493.67,604.06,493.47,603.28Zm2.89,11.7h0a1.54,1.54,0,0,1-.78,1.15,2.52,2.52,0,0,1-1.52-.94c0-.41-.39-1.36.37-1.36,1-.39,1.54.41,1.93,1.15h0Zm.76-12.63c-1,.17-1.15-.78-1.35-1.37-.19-.74.59-1.34,1-1.71.76-.2,1.15.76,1.54,1.15C498.46,601.18,498.27,602.35,497.12,602.35Zm1.34,10.89c-.19-.56-.58-1.89.39-2.49,1,.21,1.15,1.36,1.91,1.73C501.15,614,499.22,613.63,498.46,613.24Zm4-15.69c-.57-2.69-1.72-5.77-.94-8.44,0-1.34-.39-2.88.37-3.84,1.15.2,1.72,1.74,2.5,2.3h0C504.41,591,505,595.45,502.48,597.55Z" transform="translate(-86.13 -20.2)"/><path id="path2177" class="cls-3" d="M425.25,409.31c.74.57,1.91,1.52,2.84.57l2.71.76c-.76,2.89-3.64,5.36-1.73,8.44,1.52,1.76,2.67,5.15,5.57,3.84,1.91-1,3.42-2.51,5.35-2.71,0-.17.58-.54.21-.74a10.36,10.36,0,0,1-.41-1.36c1.54-.35,0-2.85,2.11-2.65,1,1.3.58,3.23,2.31,4.21l4.6-.2c-.19,1.37-1.53,2.11-2.49,3.08-.58.2-1.35-.21-1.35.55h.2c-2.87,2.3-7.11,5.38-9.4,8.24-3.25.78-7.09-1.15-10.52-1.54-6.73-1.5-12.85-1.71-19.38-2.3-1.91,0-4.6.39-5.57-.93,0-.59-.94-1.72-.57-2.69-1.34-1.93-.56-2.5-1.15-5.19,1-1.15-1.73-1.52-1.52-2.49-1-.39-.78-1.91-1.36-2.46,2.88,1.09,5.38-2.91,6.92-2.49,0,2.49.19,4.75,2.67,6.29.58-.17,1.36.76,1.17,1.15,1.73,1,3.62,2.32,5.55,1a6.79,6.79,0,0,0,5-6.51c-.74-1.17-.19-3.65-1.13-4.25,2.28-1.54,4.41,1.55,6.32-1.11a2.22,2.22,0,0,1,1.93-1.54c.37.74.74,2.09,1.15,3Z" transform="translate(-86.13 -20.2)"/><path id="path2185" class="cls-3" d="M345.7,456.68a7.8,7.8,0,0,0,0-3.47c-.58-.39-.76-.78-.39-1.15-.37-.58.39-.78.39-1.56,2.09-1.32,4.21-3.82,4-5.73,1-.19,1.56,1.35,2.32,1.91.56,1.52-.39,2.69.37,4.43,1.34,1,2.86,1.32,3.08,2.84l-2.85,4-6.92-1.27Z" transform="translate(-86.13 -20.2)"/><path id="path2189" class="cls-3" d="M332.25,454.17c.37-.78-.74-1.74-1.71-1.74-1.52-.19-2.11,1.15-3,2.13l.74.37c-.57.93-2.11-.18-3.26.56v-.19c-1.54.39-1.15,0-2.47-.74l.56-.61c.18.22,1,0,.76-.17.2-.39.39-.57,0-1,.39-1.34,4.41-2.71,3.67-4.81.17-.16.74-.16.74-.74-.94-.78-.57-1.74-.74-2.5.93-.19,1.32.59,1.89,1.52.76,3.43,5-.76,5.75,2.3-.18,2.89-1.87,2.69-1.83,6l-1.06-.43Z" transform="translate(-86.13 -20.2)"/><path id="path2191" class="cls-3" d="M271.24,562.17a4.74,4.74,0,0,0-1.48-2.39c-1.91-1.56-7.64.56-7.27-2.3,1,.19.59-.78,1-1.13,1.15-2.15,5.55-1.74,5.36-5.21v-1.73c.95.19,2.32,0,3.08.78.56,1.15.95,2.88,2.67,3.27,1.73,0,3.06-1.54,3.84.74.54,2.46-1.7,4.62-1.48,6.82l-5.68,1.15Z" transform="translate(-86.13 -20.2)"/><path id="path2193" class="cls-3" d="M258.46,576.07c-1.91,1.91-2.11,5.38-5.56,5a4.37,4.37,0,0,1-2.28-3.27c.35-1-.41-1,.35-1.91a6.14,6.14,0,0,0-5.16-4.6l-.18-.39c.37-1.13,2.48-1.72,3.26-1.91,1.73-.59,2.67,1.54,4.6.78,1.52-1.54,2.1-3.08,4.6-3.28.17,1.09,1.89,2,1.26,2.92l-.89,6.67Z" transform="translate(-86.13 -20.2)"/><path id="path2195" class="cls-3" d="M429.46,705.65a3.21,3.21,0,0,0-2.89-.76c-.93,1.15-.76,2.46-2.1,2.67-1-.39-1.13.39-1.93-.21-.55-.74.19-1.89.19-2.46.2-.21.4-2.9,1.74-3.45.78-1,.19-2.3-.59-3.08-1.52-1-3.62-1.71-4.21-1.52l.59-.19-.2-.22a2.84,2.84,0,0,1,3.28-.37c.91.37,2.3,1.15,3.23.2,1.52-1.35,1-4.6,4.23-4.25,1.33.82-.4,2.9.2,4.25.37,2.88,3.64,3.62,6.12,4.4l-7.66,5Z" transform="translate(-86.13 -20.2)"/><path id="path2197" class="cls-3" d="M432.52,718.67c-1.15,1-2.12,1.52-2.12,3.28,1.16,2.28.19,4.38-.36,6.51-1.36.39-3.27-.59-5-1.13-1.54.74-3.66,1.3-5.55,2.08-.8-.56,0-2.08.76-2.86,1.52-1.33,4-1.74,3.25-4.25a4.62,4.62,0,0,1-1.91-2.11c3.06-1.32,6.69-1.71,9.4-4.4l1.52,2.88Z" transform="translate(-86.13 -20.2)"/><path id="path2201" class="cls-3" d="M445.74,732.28c-.57,2.51,3.07,3.25,2.51,6.16-3.08.93-6,.93-7.86,3.43-.6.19-1.34-.39-1.73-.39-1.15-2.11,3.06-4.41,0-5.58-.78.24-1.74-.74-1.91-.93,1.31-2.5,4.38-1.74,5.73-4.41l3.26,1.72Z" transform="translate(-86.13 -20.2)"/><path id="path2203" class="cls-3" d="M267.66,590.07c-.57,1.52,1.15,2.69,0,4-2.5,1.15-3.24,1-5.73.2-1.74.39-3.08,2.12-4.06,2.69l.22.37c.37,1.34-.76,1.34-1.54,2.12-.78-.39.19-1.34-.59-2.12.78-.37-.19-.37,0-.76,1.15-1,0-1.54.78-2.69h.2c0-2.5-2.32-4.21.58-5.73,2.67.17,4.6-2.11,5.34-4.23l4.8,6.14Z" transform="translate(-86.13 -20.2)"/><path id="path2207" class="cls-3" d="M372.13,448.2c-.56,4.23.59,8.27,3.82,10.74,6.34,1.54,11.72,5.38,17.86,7.51,4.58-.2,9.2,0,12.45,2.84-5.36,3.06-10.74-1.52-16.47-1.71-7.11-1.52-17.85-2.3-19.18-11.72-1.15-4,.18-7.46.37-11.09,1.15.76,0,2.5,1.15,3.43Z" transform="translate(-86.13 -20.2)"/><path id="path2313" class="cls-3" d="M318.08,667.14c-2.12-1.56-6.53.35-6.92-2.15a6.39,6.39,0,0,0,2.32-1.89c0-1.15,1.15-1,1.15-1.93l-.95-3.08c.19,0,.37-.17.56-.39l-.19-.15c.19-.61.78.37,1.15.74-.18.21.58,1.36,1.34,1.36,1.93-.78,3.84-1.73,6-1.56,1.52,1,1.71,2.5,1.91,4.06-1.17.74.19,2.49-.78,3.62l-5.56,1.37Z" transform="translate(-86.13 -20.2)"/><path id="path2317" class="cls-3" d="M325.74,701.44a9.08,9.08,0,0,0-.19,5.54c-.57.58-.18,1.34-.94,1.34l-3.66-1.89c-4,.35-5,5.73-7.84,6.12-1.56-1.17.76-3.66.57-5.77h.19c.37-1.71-1.15-3.82.57-5.34l3.25.37c2.3-1.52,4-3.25,4-6.14l4,5.77Z" transform="translate(-86.13 -20.2)"/><path id="path2319" class="cls-3" d="M312.53,687.25c-2.13.37-4.8,1.91-7.1.37-2.69-.56.37-3.64-2.1-4-2.32-.59-5,1.34-6.9-.22,1.13-1.91,5.73-.74,5.55-3.43.57-1,2.11-3.25,3.82-4,3.08-.57,2.3,3.25,4.6,3.84l2.13,7.48Z" transform="translate(-86.13 -20.2)"/><path id="path2433" class="cls-3" d="M323.19,468.2c.08-.11.27-.43.21-.54-.07-.28-.48-.47-.68-.61s-.49-.37-.74-.54a3.53,3.53,0,0,1-.56-.69c-.22-.23-.51-.38-.71-.6a13.6,13.6,0,0,0-1.42-1.31c-.41-.31-.49-.35-.88-.19a2.2,2.2,0,0,0-.91.6c-.45.55-1,1-1.42,1.58s-.73,1-1.54,1.13-1.56.2-2.36.28a9,9,0,0,0-2.38.46c-.37.16-1,.43-.49.78.33.26,1.09.34,1.07-.29.65.33.22.64,0,1,.65.41,1.35.59,1.72,1.33a3.44,3.44,0,0,1,.21,1,3.89,3.89,0,0,1,0,1.08,5.92,5.92,0,0,0,0,2.22,1.57,1.57,0,0,0,1.45,1.21.9.9,0,0,0,.85-.24,1.33,1.33,0,0,1,.9-.5,9.69,9.69,0,0,0,1.77-1c.59-.27,1.21-.82,1.84-.85.37,0,2.24.37,2.08-.28,0-.13-.25-.23-.33-.33a1.42,1.42,0,0,1-.29-.54,1.76,1.76,0,0,1,.08-1.23c.05-.14.21-.24.29-.35a2.26,2.26,0,0,1,.35-.61c.29-.35.76-.25,1.05-.52a5.78,5.78,0,0,0,.84-1.41Z" transform="translate(-86.13 -20.2)"/></svg>