<?xml version="1.0" encoding="UTF-8" standalone="no"?>
<svg xmlns:dc="http://purl.org/dc/elements/1.1/" xmlns:cc="http://creativecommons.org/ns#" xmlns:rdf="http://www.w3.org/1999/02/22-rdf-syntax-ns#" xmlns:svg="http://www.w3.org/2000/svg" xmlns="http://www.w3.org/2000/svg" id="svg27" class="nicermediapages-SVG" viewBox="-2 -2 219.01183 304.0002" height="600" width="430" version="1.0">
  <metadata id="metadata33">
    <rdf:RDF>
      <cc:Work rdf:about="">
        <dc:format>image/svg+xml</dc:format>
        <dc:type rdf:resource="http://purl.org/dc/dcmitype/StillImage"/>
        <dc:title/>
      </cc:Work>
    </rdf:RDF>
  </metadata>
  <defs id="defs31"/>
  <path d="m 213.34737,12.739074 -1.48544,2.991104 c -4.50355,5.322975 -6.9433,8.796313 -8.35792,10.382922 l -9.92937,-3.640257 2.00981,3.112513 c 0.0174,0.02855 1.90865,3.028222 2.39257,10.045708 0.28493,4.141013 -2.2661,8.051051 -4.15114,10.190703 -2.12955,2.416162 -6.4847,2.586458 -8.69685,2.711218 -1.92887,0.109492 -4.29277,-1.020083 -6.11037,-2.891643 -2.41448,-2.485283 -3.68408,-5.973791 -3.57449,-9.824813 0.23437,-8.234853 3.37216,-12.622035 3.5863,-12.755237 l 3.1867,-1.940681 -3.70096,-0.462 C 176.8217,20.446083 172.46148,20.7902 170.16839,20.527023 167.19415,11.956644 162.0364,6.488674 161.81215,6.2543225 l -0.94083,-0.9846786 -0.94083,0.9829903 c -4.72442,4.9385378 -6.86743,9.4926638 -8.16233,11.3254428 l -12.40623,-2.375717 3.21537,2.910189 c 0.0454,0.04221 3.47165,4.321438 3.47165,10.903913 0,5.902982 -5.10717,12.753549 -12.41971,13.009849 -2.68256,0.09956 -5.2724,-1.131363 -7.31256,-3.432869 -2.50552,-2.827562 -4.8947,-7.150688 -4.46306,-10.720136 0.77898,-6.447584 3.37892,-9.920922 3.54752,-10.030513 l 3.57956,-2.288025 -10.84997,0.731756 C 116.40757,11.632937 109.095,3.8145491 108.20475,2.875405 l -0.95938,-1.0150184 -0.94421,1.0301884 c -4.775,5.2083191 -7.919538,10.868508 -8.953103,12.856412 -1.623702,0.01738 -2.830938,-0.956027 -7.872339,-0.655907 l -4.034799,0.239342 3.417699,2.159863 c 3.252444,2.053648 3.289537,7.317607 3.606516,11.61377 0.298457,4.024669 -1.616949,7.459226 -4.127532,10.163715 -1.964292,2.114353 -4.532203,3.277744 -7.233291,3.277744 -2.699424,0 -5.269023,-1.163391 -7.231627,-3.277744 -2.510583,-2.704489 -5.461242,-6.579098 -5.16281,-10.603791 0.268093,-3.609917 0.165355,-7.445745 2.64885,-9.629243 l 3.158048,-2.776963 -4.174754,0.507509 c -2.822522,0.343943 -2.406057,0.912156 -4.903134,1.352233 C 59.900079,10.203018 55.497727,6.3621257 55.297067,6.1817254 L 54.312388,5.3015727 53.44743,6.2997329 c -3.013027,3.4750266 -7.668302,12.2460401 -8.953102,14.7144651 -1.640559,0.149961 -3.76673,-0.470416 -9.042482,0.259676 l -4.103945,0.566525 3.690856,1.881665 c 3.523913,1.795685 3.911727,6.907895 4.486669,11.667721 0.843035,6.980393 -2.817457,13.185184 -8.160642,13.830961 -0.298458,0.0355 -0.601955,0.05388 -0.903764,0.05388 -5.000906,0 -11.209074,-4.37035 -11.991429,-10.843233 -0.532809,-4.419211 -1.918758,-8.234828 0.864958,-12.487145 l 3.006299,-2.999546 -4.16969,0.800902 C 14.751771,24.401485 13.900295,25.46035 11.167154,26.200547 6.282567,18.083724 3.8461702,15.824351 3.6539518,15.72993 l -1.9895672,-0.984654 0.1129675,2.21719 c 0.048911,0.409712 0.4063351,6.971977 0.9897186,17.521817 l -0.01738,0.0074 0.022345,0.05065 c 0.5243675,9.482534 1.2325366,22.177067 2.0637781,36.523978 0,0 -0.00745,0.0017 -0.00745,0.0017 0,0 6.5622402,107.965119 8.8384712,124.947369 2.277895,16.98225 2.927023,40.05296 16.316244,61.67532 15.958795,25.77015 54.792721,41.93633 80.743271,40.93648 31.11503,-1.19882 62.42731,-17.28575 77.47733,-44.22267 15.30457,-27.38876 15.48669,-74.81834 15.99588,-81.54077 0.49907,-6.59765 5.88782,-98.629265 6.08845,-102.075615 0,0 0,-0.0017 0,-0.0017 0.002,-0.06406 0.007,-0.101298 0.007,-0.101298 h -0.002 c 0.94927,-18.300771 1.70799,-33.998226 2.21888,-43.888808 l 0.0658,-0.173796 -0.0539,-0.01986 c 0.31866,-6.162633 0.54291,-10.030513 0.65588,-10.804427 l 0.16858,-3.058561" style="fill:#ffcc00;fill-opacity:1;fill-rule:nonzero;stroke:none;stroke-width:0.67910641" id="path4682"/>
  <path d="M 209.00401,62.972629 C 150.73288,47.674781 98.337776,48.598755 64.48961,52.122668 33.988309,55.295885 12.69137,61.080835 5.92847,63.088973 5.4125441,54.766453 4.937063,47.081267 4.5155332,40.347044 l 7.7256548,17.767961 1.0538,-0.220969 c 0.149961,-0.03203 15.210181,-3.188387 32.914086,-5.793391 l 0.883505,-0.12985 7.282202,-30.304018 8.937932,28.228446 1.117881,-0.17032 c 0.102788,-0.01738 10.539711,-1.595025 34.463602,-3.156359 l 0.947561,-0.06058 7.617753,-28.8523 7.19451,29.943193 1.00998,0.02855 c 0.1805,0.005 18.3581,0.544602 34.48887,2.105936 l 1.05212,0.10105 9.34598,-28.506644 6.31269,30.388333 0.92735,0.123147 c 0.1584,0.02235 15.99423,2.146381 32.91071,5.528675 l 1.09933,0.220969 8.90591,-23.746818 c -0.50416,8.003853 -1.07741,17.97535 -1.70295,29.130498 z M 107.79841,56.13892 C 55.807953,55.865787 16.96561,65.958693 6.2994252,69.052659 6.231893,67.955013 6.1646092,66.870849 6.097077,65.791774 11.981512,64.012947 33.450435,58.005415 64.762718,54.747906 98.492876,51.237475 150.75816,50.320254 208.85392,65.661924 c -0.0556,0.998185 -0.11297,2.003074 -0.16858,3.01978 C 197.88933,65.749616 159.51909,56.410389 107.79841,56.13892 Z m 94.75801,117.20488 c -0.50247,6.64485 -0.17355,53.69508 -15.61316,80.57971 -16.43765,28.62299 -49.22358,43.19414 -76.96813,43.19414 -25.621752,0 -62.862316,-14.46998 -78.606994,-39.94674 C 18.157652,235.79641 17.518629,212.9904 15.271074,196.20205 13.023519,179.4137 6.5489715,72.686163 6.5489715,72.686163 c 0,0 41.8857345,-13.768568 101.5900285,-13.453277 59.70596,0.313628 100.43168,13.102582 100.43168,13.102582 0,0 -5.51181,94.363472 -6.01426,101.008332 z M 10.030726,26.627362 l 0.514263,0.890258 0.989719,-0.279886 c 2.028373,-0.573279 4.291098,-1.129674 6.756146,-1.660795 -1.748462,3.066979 -2.48866,6.914624 -2.009802,10.870197 0.966132,7.998788 6.589228,14.031595 13.080658,14.031595 0.4114,0 0.826177,-0.02532 1.2342,-0.07424 6.862361,-0.829553 11.608706,-8.440552 10.580181,-16.965396 -0.522679,-4.318062 -2.449879,-8.18763 -5.248764,-10.770711 5.049817,-0.630606 8.572042,-0.923974 8.614199,-0.92735 l 0.731756,-0.06083 0.335551,-0.654193 c 0.05214,-0.102788 4.859287,-9.472429 8.19267,-13.9557212 1.72994,1.7282276 5.4781,5.7259332 9.605631,11.7267132 l 0.483923,0.704792 0.841346,-0.155175 c 1.691135,-0.308562 3.478404,-0.598553 5.34321,-0.864958 -1.616948,2.365587 -2.62355,5.242036 -2.847797,8.273609 -0.35576,4.812089 1.185314,9.452195 4.230394,12.729963 2.495388,2.687606 5.788326,4.168001 9.268393,4.168001 3.48178,0 6.774693,-1.480395 9.270106,-4.168001 3.04508,-3.277768 4.586154,-7.917874 4.230394,-12.729963 -0.288328,-3.893155 -1.836155,-7.459226 -4.282657,-10.064229 4.827259,-0.22097 8.034193,-0.225935 8.071286,-0.225935 h 0.829553 l 0.360825,-0.746951 c 0.03029,-0.06579 3.02989,-6.2385072 8.06791,-12.0706795 2.92032,3.213687 8.18932,9.4707415 8.71371,12.2696515 l 0.19713,1.048735 8.15392,0.209052 c -1.52759,1.820985 -3.27271,4.753072 -3.78694,8.991908 -0.52437,4.348401 1.03019,9.172283 4.05672,12.588294 2.50045,2.822522 5.731,4.377077 9.09474,4.377077 0.12986,0 0.25797,-0.0025 0.38948,-0.0074 7.82177,-0.273158 13.28298,-6.46109 13.28298,-15.04495 0,-4.404041 -1.63043,-7.83691 -3.10913,-10.045684 l 7.69191,1.183626 0.46873,-0.689623 c 0.0405,-0.06058 3.97918,-5.827107 9.1622,-11.4417615 1.65236,2.0182435 5.15099,6.7898625 7.23163,13.2172125 l 0.26134,0.809318 0.84472,0.09609 c 0.0675,0.0074 4.95205,0.566525 8.40177,0.969508 -1.94743,2.119418 -4.38552,5.950205 -4.55581,11.93579 -0.13308,4.624935 1.41969,8.843536 4.37035,11.880174 2.39593,2.465048 5.52699,3.884738 8.24158,3.727925 2.74662,-0.156665 6.59933,-1.001537 9.36115,-4.134285 2.39593,-2.719634 3.43791,-6.597644 3.09901,-11.527766 -0.26807,-3.88305 -0.93915,-6.68196 -1.563,-8.541702 l 5.92828,1.976086 0.57832,-0.6424 c 0.0405,-0.04544 3.50708,-3.901596 8.08479,-9.239741 -0.16858,1.80579 -0.35576,4.201717 -0.56146,7.098425 l -11.19562,29.8521 C 185.87416,51.750744 172.62321,49.847156 169.06727,49.35144 L 161.1241,11.107651 149.35523,47.006088 C 135.60183,45.7196 120.70694,45.156451 116.7497,45.023249 L 107.57908,6.8603988 97.774503,43.998126 C 78.720053,45.261002 68.38433,46.525567 65.152121,46.95889 L 54.025625,11.822548 44.942697,49.621222 C 30.219791,51.811449 17.469618,54.347306 13.80575,55.094257 L 4.0281347,32.608602 C 3.6268397,26.248686 3.2930023,21.141541 3.048521,17.693502 c 1.7029527,1.485435 4.27424,4.228706 6.982081,8.934556 z m 204.823994,-16.604571 -2.4971,2.950659 c -4.5676,5.39885 -8.51978,9.85853 -9.95632,11.46875 l -10.65437,-3.545836 2.03848,3.156359 c 0.0174,0.03029 1.93561,3.070355 2.42627,10.189015 0.29001,4.20003 -0.53281,7.430575 -2.44651,9.598879 -2.15988,2.451567 -5.28757,3.117578 -7.53006,3.245715 -1.95756,0.11123 -4.35515,-1.035253 -6.19806,-2.932113 -2.44988,-2.520687 -3.73805,-6.059795 -3.62509,-9.966432 0.23786,-8.351196 5.48317,-11.708191 5.70066,-11.843081 l 3.23224,-1.967669 -3.75323,-0.468728 C 179.87182,19.692554 173.38545,18.947242 171.06034,18.680837 168.04393,9.9890748 162.812,4.4435417 162.58438,4.2041253 l -0.95263,-0.998185 -0.95602,0.998185 c -4.79017,5.0076592 -8.64119,10.2918527 -9.95295,12.1516187 l -13.82592,-2.124482 3.26259,2.952347 c 0.0454,0.04047 4.57772,4.220264 4.57772,10.895472 0,5.988986 -3.3199,12.148242 -10.737,12.407918 -2.72134,0.10105 -5.34658,-1.14822 -7.4154,-3.48178 -2.54261,-2.868031 -3.84933,-6.899453 -3.41095,-10.521164 0.79077,-6.538653 4.94529,-9.322369 5.11728,-9.433648 l 3.63013,-2.321741 -13.64044,-0.349032 C 116.53233,9.6602776 109.11524,1.7306355 108.21319,0.77798501 l -0.97289,-1.03018833 -0.95769,1.04535824 C 101.44018,6.0756602 98.251796,11.816788 97.201348,13.833343 c -1.645624,0.01738 -5.651747,0.09435 -10.763957,0.397919 l -4.093815,0.244556 3.466585,2.188539 c 3.299667,2.084012 5.461242,5.929969 5.78495,10.286812 0.301809,4.082022 -0.986342,7.995412 -3.53233,10.738683 -1.99128,2.143004 -4.596284,3.323277 -7.336178,3.323277 -2.738206,0 -5.343185,-1.180273 -7.334465,-3.323277 -2.545988,-2.743271 -3.834164,-6.656661 -3.532355,-10.738683 0.27147,-3.66218 1.87156,-7.030967 4.390584,-9.244806 l 3.203558,-2.815769 -4.233771,0.514263 C 70.357187,15.752201 67.629086,16.153471 65.094917,16.6003 59.476886,8.5745242 54.755841,4.3137906 54.55183,4.1316772 L 53.551981,3.2380677 52.675205,4.2513978 C 49.62002,7.7753108 44.898975,16.67111 43.593941,19.174939 41.92977,19.326638 37.584745,19.753283 32.233094,20.491767 l -4.161248,0.576655 3.743119,1.906965 c 3.574488,1.822648 6.157568,5.953556 6.739264,10.780815 0.856541,7.079879 -2.856214,13.372362 -8.275298,14.026556 -0.303497,0.03699 -0.61206,0.05561 -0.917221,0.05561 -5.073453,0 -9.668024,-5.14255 -10.460484,-11.708166 -0.541226,-4.481628 0.789083,-8.929515 3.47165,-11.605329 l 3.048432,-3.041703 -4.230369,0.812695 c -3.46661,0.664323 -6.621281,1.380909 -9.393204,2.131211 C 6.8457158,16.192227 2.367464,13.910956 2.1718938,13.814847 L 0.15531379,12.818375 0.27001916,15.06593 c 0.0489112,0.416465 0.40973654,7.071437 1.00322514,17.771338 l -0.01738,0.0074 0.022345,0.04891 c 0.5311206,9.619113 1.2493947,22.494071 2.0924296,37.044994 0,0.0017 -0.00745,0.0025 -0.00745,0.0025 0,0 6.6549971,109.501128 8.9649201,126.726178 2.309948,17.22674 2.969206,40.62623 16.548932,62.55547 16.186418,26.1377 55.573388,41.9987 81.894869,40.98368 31.55679,-1.21399 63.3159,-16.99573 78.5817,-44.31538 15.52212,-27.77995 15.7059,-75.88733 16.22185,-82.70587 0.50751,-6.69038 5.9721,-100.033793 6.17611,-103.529029 0,0 0,-0.0017 0,-0.0017 0.005,-0.06579 0.007,-0.102788 0.007,-0.102788 v 0 c 0.96276,-18.56211 1.72992,-34.482123 2.25093,-44.51435 l 0.0658,-0.175285 -0.0556,-0.02234 c 0.32373,-6.250326 0.54967,-10.173846 0.66601,-10.957864 l 0.17032,-3.861152" style="fill:#231f20;fill-opacity:1;fill-rule:nonzero;stroke:none;stroke-width:0.67910641" id="path4694"/>
  <path d="m 64.428906,218.39938 c -0.328797,-0.1872 -0.507509,-1.29491 -0.418153,-2.08737 0,0 1.611908,-0.89194 3.382294,-0.69635 -0.837995,2.08568 -2.50383,3.05012 -2.964141,2.78372 z m 98.853514,35.46849 c -0.32204,-3.88474 -2.49035,-16.37526 -8.34948,-19.82836 0.1651,-0.0792 0.39116,-0.12141 0.63227,-0.12141 8.69851,-0.044 15.53729,-13.00816 5.22686,-18.72737 -11.86836,-6.58247 -34.93402,6.28067 -45.98461,9.76245 -2.69774,0.85651 -7.76106,3.58965 -11.32207,-2.18685 -3.539082,-5.76981 3.52056,-10.72689 2.62862,-12.14489 -0.51427,-0.79078 -9.288657,2.691 -9.543243,9.16555 -0.239342,6.0733 2.078923,11.37435 7.320983,11.34568 4.64346,-0.0355 15.96217,-3.48176 25.25924,-8.06453 11.76718,-5.79846 23.27136,-7.58908 27.64844,-4.61821 3.73805,2.54599 2.40097,5.43932 1.79735,7.38844 -2.63366,8.53329 -16.12234,-1.38935 -30.18599,5.00093 -21.22781,9.62587 -32.8972,5.76809 -38.124065,3.17826 -0.424907,-5.47473 -3.416011,-14.43796 -6.290795,-16.14426 0,0 0.70648,-0.57497 0.966132,-3.54584 -1.933953,-0.30856 -5.658501,0.57494 -5.658501,0.57494 0,0 -4.405754,-1.8766 -6.422309,-1.8766 -8.108379,0 -16.98732,2.47349 -17.150862,3.26595 -0.172058,0.80595 1.343816,7.9718 1.343816,7.9718 l 2.758441,-0.73513 c 1.79062,-1.16508 1.256123,0.86496 1.515774,2.16662 -9.212753,1.87662 -13.576349,-0.037 -14.928606,-5.21001 -3.635192,14.13784 11.505867,7.66326 14.964011,7.26703 -0.507509,2.58308 -2.271142,3.38061 -3.534018,0.98468 0.07597,2.99282 0.665986,4.69237 1.674276,5.58263 1.015019,0.88519 4.055034,-1.49554 4.904822,-2.288 0.05214,-0.10974 4.309645,-2.20036 1.057176,7.2822 -0.418153,1.22241 -17.206501,-0.70817 -18.015819,-2.68425 -6.059796,-14.78362 -21.074382,3.89149 -13.274565,2.53923 5.564079,-0.96444 7.919562,-0.48559 8.36299,1.74173 2.20202,3.13613 24.662375,15.28099 26.097235,18.76277 -0.124885,0.21576 -0.37093,0.38104 -0.741886,0.49569 -1.879976,0.58339 -6.257054,3.21707 -8.622641,5.8069 -14.188409,-1.10102 -11.903761,5.25214 -11.903761,6.64653 l 26.454684,-0.35913 c 2.030062,0 21.500976,-4.3383 26.736261,-6.73423 0,0 -0.49572,-3.20862 0.27316,-3.32327 19.0713,-3.04337 19.69009,-13.94897 27.37359,-14.3452 -0.25461,2.88489 -3.31315,10.85669 -3.13613,16.12233 -14.10409,0.7048 -11.73009,7.37325 -11.73009,7.37325 h 20.19595 c 0,0 6.10699,-18.35134 11.18211,-20.31564 0.34396,-0.12985 0.67442,-0.19564 1.00322,-0.19564 1.74171,2.59152 9.82482,11.11636 13.81746,12.22414 -9.7911,1.09427 -10.44192,6.99387 -10.44192,6.99387 h 18.50816 l 2.8832,-13.43979 c -2.51058,-2.11435 -4.91323,-3.03664 -7.22487,-2.75506" style="fill:#231f20;fill-opacity:1;fill-rule:nonzero;stroke:none;stroke-width:0.67910641" id="path4698"/>
  <path d="m 61.3046,226.1149 c 0,0 -12.010001,3.77009 -14.815639,-4.06682 0,0 -2.680879,10.00521 11.231021,6.0699 0.827865,-0.25124 3.584618,-0.88015 3.584618,-0.88015 0,0 0,-0.27989 0,-1.12293" style="fill:#ff0000;fill-opacity:1;fill-rule:nonzero;stroke:none;stroke-width:0.67910641" id="path4702"/>
  <path d="m 57.974569,150.76038 c -0.433324,-0.2309 -0.652505,-1.43993 -0.542914,-2.34536 0,0 2.068818,-0.99816 4.356842,-0.78064 -1.099334,2.34702 -3.237298,3.42781 -3.813928,3.126 z m 119.958261,38.7142 c -0.44008,-4.56423 -4.05337,-17.134 -7.74252,-21.92417 6.42398,-0.66601 12.75693,-14.64196 -0.54966,-21.0238 -15.32315,-7.35302 -37.75314,7.11866 -52.03093,11.0169 -3.46152,0.94925 -10.01028,4.00275 -14.57113,-2.4499 -4.576053,-6.44083 4.52713,-11.98806 3.37216,-13.56794 -0.64578,-0.8835 -11.974571,3.0063 -12.296615,10.23962 -0.303497,6.78986 6.415555,12.05044 13.170015,12.0066 5.98392,-0.0271 16.87266,-3.22211 28.827,-8.34273 15.18488,-6.49481 25.3739,-7.89933 31.03408,-4.56426 4.81041,2.84445 4.81041,5.70235 4.02639,7.90102 -3.4076,9.523 -17.4375,-0.46369 -35.60845,6.67858 -27.34494,10.75723 -40.474486,3.44129 -47.220503,0.55302 -0.542938,-6.11541 -4.678887,-16.67707 -8.383225,-18.58066 0,0 1.635495,-0.77898 1.965981,-4.12077 -2.500478,-0.33049 -8.059493,1.56637 -8.059493,1.56637 0,0 -4.135972,-1.11619 -6.754458,-1.11619 -10.448666,0 -20.679839,4.66875 -20.892293,5.57418 -0.219231,0.87847 1.738358,8.88398 1.738358,8.88398 1.950786,-4.4462 5.125692,-0.77391 5.454489,0.66601 -11.86498,2.12111 -13.513982,-3.44128 -15.245586,-9.22626 -4.692393,15.80032 10.876925,12.9053 15.334942,12.45681 -0.639023,2.89333 -2.933776,3.78356 -4.554126,1.10944 0.09608,3.34351 0.864982,5.22518 2.169992,6.23684 1.306723,1.0032 5.228554,-1.67092 6.314407,-2.56287 -0.322044,0.89195 -0.659258,3.67231 -0.982991,5.78666 -1.524216,-0.45018 -12.407918,-2.22059 -15.024715,-1.8901 -5.435943,-9.11498 -19.148871,-5.56071 -18.385087,3.67228 8.271946,-3.56607 11.534519,-0.78064 11.424928,3.55428 3.051809,3.78356 18.179387,12.68947 24.487016,15.56763 -2.384109,1.11788 -10.22442,6.1306 -13.281294,9.01718 -18.288977,-1.22916 -16.537113,5.23193 -16.537113,6.79831 h 30.256795 c 2.611757,0 23.181981,-5.23193 29.934775,-7.90775 0,0 0.529433,-1.55795 0.750303,-2.44315 24.938888,-0.21749 34.942438,-15.45801 44.836398,-15.91326 -0.31026,3.23052 -1.08586,12.12126 -0.85992,18.0192 -18.17264,0.77223 -15.136,8.24496 -15.136,8.24496 h 24.50052 c 0,0 4.35685,-13.58986 11.19897,-21.26323 4.69912,4.57772 18.08328,12.13308 23.63557,13.46845 -12.62879,1.22072 -10.01872,7.79478 -10.01872,7.79478 h 20.67984 l 0.55135,-16.47475 c 0,0 -11.4401,-3.44131 -11.52945,-3.44131" style="fill:#231f20;fill-opacity:1;fill-rule:nonzero;stroke:none;stroke-width:0.67910641" id="path4706"/>
  <path d="m 48.603313,160.02204 c 1.46016,-0.01 3.166464,-0.18894 4.887964,-0.56146 0,0 0.01738,1.15833 -0.0017,2.14976 -0.02532,0.007 -2.723036,0.52774 -5.778221,0.52774 -4.026357,0 -6.811786,-0.90036 -8.35286,-2.81239 -1.24433,-1.54445 -1.60009,-4.82726 -1.067281,-7.5132 0,0 1.094269,8.26688 10.312087,8.20955" style="fill:#ff0000;fill-opacity:1;fill-rule:nonzero;stroke:none;stroke-width:0.67910641" id="path4710"/>
  <path d="m 55.858552,77.243666 c -0.450181,-0.247784 -0.679492,-1.534346 -0.564837,-2.500453 0,0 2.153134,-1.062241 4.53558,-0.829578 -1.144869,2.500478 -3.370501,3.652075 -3.970743,3.330031 z M 180.73174,118.50892 c -0.45694,-4.86604 -4.21858,-18.26367 -8.05949,-23.367467 6.68702,-0.711521 13.28129,-15.606386 -0.57326,-22.411444 -15.94869,-7.836909 -39.2993,7.590765 -54.16045,11.745285 -3.60485,1.009953 -10.4217,4.265798 -15.16971,-2.613446 -4.763203,-6.86236 4.7126,-12.77716 3.51043,-14.459854 -0.67108,-0.944208 -12.465246,3.201869 -12.800771,10.91233 -0.315291,7.238381 6.680271,12.844618 13.709581,12.799084 6.2284,-0.02855 17.56563,-3.434557 30.01062,-8.892423 15.80538,-6.923065 26.41253,-8.420318 32.3054,-4.864352 5.006,3.031574 5.006,6.078342 4.18993,8.420318 -3.54584,10.150234 -18.15071,-0.494027 -37.06858,7.118636 -28.46451,11.467083 -42.131933,3.667245 -49.154459,0.590136 -0.564837,-6.518393 -4.871105,-17.776403 -8.725504,-19.804751 0,0 1.701265,-0.831242 2.045232,-4.393936 -2.603316,-0.352409 -8.389978,1.669211 -8.389978,1.669211 0,0 -4.30458,-1.190378 -7.02928,-1.190378 -10.878637,0 -21.527939,4.977344 -21.748834,5.943451 -0.22941,0.935792 1.809192,9.469053 1.809192,9.469053 2.030037,-4.737878 5.334768,-0.8228 5.678735,0.711546 -12.352279,2.259348 -14.068713,-3.668934 -15.871127,-9.836632 -4.884587,16.8423 11.322066,13.758463 15.96386,13.279605 -0.666011,3.082173 -3.053497,4.033136 -4.74128,1.181962 0.09956,3.562694 0.900363,5.569145 2.259349,6.646531 1.358985,1.070683 5.442695,-1.78049 6.572369,-2.731453 -0.335525,0.950963 -0.686246,3.915103 -1.021771,6.167698 -1.588297,-0.47883 -12.917092,-2.365562 -15.641816,-2.013178 -5.656812,-9.716911 -19.932914,-5.928282 -19.138765,3.913418 8.610848,-3.802139 12.008311,-0.82956 11.893656,3.78863 3.174905,4.03479 18.922935,13.52408 25.49024,16.59275 -2.483595,1.19038 -10.642573,6.53528 -13.825895,9.6107 -19.037592,-1.31008 -17.214943,5.57589 -17.214943,7.2451 h 31.497773 c 2.717971,0 24.131254,-5.57587 31.162222,-8.42704 0,0 0.549667,-1.66249 0.778979,-2.60501 25.960655,-0.2309 36.373915,-16.47474 46.674215,-16.96033 -0.32371,3.44298 -1.13137,12.91878 -0.8953,19.2062 -18.91787,0.8228 -15.75478,8.78618 -15.75478,8.78618 h 25.50372 c 0,0 4.53389,-14.48177 11.65759,-22.66267 4.89134,4.87954 18.82347,12.93397 24.6017,14.35532 -13.14474,1.30166 -10.42677,8.30735 -10.42677,8.30735 h 21.52794 l 0.57159,-17.55888 c 0,0 -11.90883,-3.66725 -12.00156,-3.66725" style="fill:#231f20;fill-opacity:1;fill-rule:nonzero;stroke:none;stroke-width:0.67910641" id="path4714"/>
  <path d="m 46.059014,87.016216 c 1.519151,-0.005 3.323278,-0.20061 5.115587,-0.596865 0,0 -0.02855,2.196955 -0.02855,2.291376 -0.02706,0.0074 -2.793845,0.635672 -5.975479,0.635672 -4.191613,0 -7.16417,-1.006602 -8.733921,-3.072068 -1.510734,-1.986191 -1.652353,-5.144238 -1.097646,-8.007205 0,0 0.804279,8.784495 10.720136,8.74909" style="fill:#ff0000;fill-opacity:1;fill-rule:nonzero;stroke:none;stroke-width:0.67910641" id="path4718"/>
</svg>