<?xml version="1.0" encoding="UTF-8" standalone="no"?>
<!-- Created with Inkscape (http://www.inkscape.org/) -->
<svg xmlns:dc="http://purl.org/dc/elements/1.1/" xmlns:cc="http://creativecommons.org/ns#" xmlns:rdf="http://www.w3.org/1999/02/22-rdf-syntax-ns#" xmlns:svg="http://www.w3.org/2000/svg" xmlns="http://www.w3.org/2000/svg" version="1.0" width="554.12695" height="668.77386" id="svg3933">
  <metadata id="metadata184">
    <rdf:RDF>
      <cc:Work rdf:about="">
        <dc:format>image/svg+xml</dc:format>
        <dc:type rdf:resource="http://purl.org/dc/dcmitype/StillImage"/>
        <dc:title/>
      </cc:Work>
    </rdf:RDF>
  </metadata>
  <defs id="defs3935"/>
  <path d="m 277.87645,655.99285 c -145.5665,0 -263.094122,-117.51625 -263.094122,-263.08775 l 0.0054,-373.93225 526.177122,0 0,373.93225 c 0,145.56613 -117.52475,263.09263 -263.08837,263.08775" id="path447" style="fill:#000000;fill-opacity:1;fill-rule:evenodd;stroke:none"/>
  <path d="m 17.983977,58.369603 0,-34.722625 517.655603,0 0.5034,34.722625 z m 0,70.114317 0,-34.722625 517.655603,0 0.5034,34.722625 z m 0,69.44256 0,-34.72262 517.655603,0 0.5034,34.72262 z m 0,69.44369 0,-34.72262 517.655603,0 0.5034,34.72262 z m 0,68.10993 0,-34.72262 517.655603,0 0.5034,34.72262 z" id="path3383" style="fill:#f9d100;fill-opacity:1;stroke:none"/>
  <g transform="translate(-0.81335,0.668128)" id="g3357">
    <path d="m 379.37133,197.9251 0,-174.94625 157.585,0 0,174.94625 -157.585,0 z" id="path449" style="fill:#ffffff;fill-opacity:1;fill-rule:nonzero;stroke:none"/>
    <path d="m 476.86507,81.73998 c -9.35012,0 -8.02487,-8.0125 -6.68762,-13.34975 0.0127,-5.3465 2.67513,-9.3525 2.67513,-13.36 1.33762,-2.67025 0,-4.0065 -2.67513,-5.33625 -2.6625,-0.005 -4.00012,0 -5.33737,-1.34013 -4,-1.33612 -5.35,-2.66625 -8.01251,-2.66625 -1.33749,-0.005 -1.33749,1.33013 -2.67512,2.66625 l -5.33725,0 c -1.33763,0 -4.01287,0 -5.35013,1.34013 -1.32512,2.666 -1.33762,4.00112 -2.66237,5.33625 0,2.67125 0,2.67125 0,5.3475 1.33725,-1.34 3.99963,-2.67625 5.33725,-2.67625 l 4.0125,0 c -1.33725,1.33625 -5.35012,2.67625 -8.025,2.67625 -2.66237,1.32987 -4,1.32987 -6.67487,0 -1.32513,-0.005 -1.3375,1.32987 -2.66238,1.32987 0,2.67125 5.33725,4.00638 9.33725,4.00638 2.68763,0 2.67488,0 4.0125,-1.33013 0,1.33013 0,1.33013 -1.33762,2.66638 0.0128,0 0,1.34 0,1.34 1.33762,-0.005 4.01287,0 6.67524,-2.67625 1.35,-1.33513 2.67488,-2.67025 4.01251,-4.00638 0,4.00638 0,5.34263 -1.33763,8.01388 -1.32488,4.006 -2.67488,6.67737 -4,8.0125 -2.67488,2.67125 -6.68738,4.006 -9.34975,4.006 -6.67525,0 -12.02525,-6.67738 -12.02525,-12.0185 0.0127,-6.67775 4.01275,-14.69125 5.33763,-18.69775 1.35,-1.33475 2.67475,-5.33613 0,-6.67725 -2.66251,-2.66988 -9.35013,-2.665 -14.68738,-2.665 -9.33775,-0.005 -12.0125,0 -20.025,1.32987 l -13.3625,0 c 0.0124,6.67763 4.01238,12.01888 10.68725,13.36 5.35,-0.005 12.025,0 17.36262,0 0,-0.005 5.33763,0 5.33763,1.33013 0.0124,0 -1.33763,1.33625 -1.33763,1.33625 l -32.04987,0 c 0.0124,2.66987 1.33725,5.34612 2.67475,8.0125 4.0125,4.006 10.68775,5.34612 14.68737,5.34612 4.01288,-0.005 6.67526,-1.34012 9.35013,0 2.67513,-0.005 5.33762,0 5.33762,0 0.0124,1.33113 -1.32524,1.33113 -4,1.33113 l -29.38112,0 c 0.005,2.67137 1.33125,6.67775 4.006,9.35262 2.67525,2.66638 8.0125,4.00638 12.0125,4.00638 6.68775,-0.005 10.68775,0 17.36262,0 0.0124,-0.005 1.33763,0 1.33763,0 0.0124,-0.005 -1.33763,0 -1.33763,1.33125 -6.66249,0 -10.67487,1.33475 -17.36262,1.33475 -6.66238,1.33512 -9.33725,1.3415 -16.0185,2.67125 1.34363,4.0065 4.006,6.67775 8.0185,9.354 2.67513,1.32987 6.67525,1.32987 10.67487,1.32987 8.02526,0 13.36251,-1.32987 21.36263,-2.67137 l 1.33763,0 c 0.0124,0 0,1.3415 -1.33763,1.3415 -5.32487,1.32987 -12.0125,2.665 -18.68737,5.33625 -8.01251,2.67125 -13.35013,4.00612 -21.36863,5.34125 6.68125,6.67725 9.34362,9.3535 13.35612,9.3535 5.35,-0.005 10.68738,-2.67625 17.36251,-5.34613 5.35012,-2.67125 8.01249,-4.00737 12.01262,-5.3425 1.35,-1.33487 1.33725,-1.32987 1.33725,-1.32987 0.0127,-0.005 0,1.32987 -1.33725,1.32987 -5.33775,4.00638 -10.67537,6.68263 -18.68775,10.68863 -5.33738,4.0015 -8.025,5.33775 -12.025,8.00762 4.0125,2.67125 8.0125,4.00638 14.68775,4.00638 2.67487,0 5.34963,0 8.0125,-2.67025 2.67475,-1.33613 5.33725,-4.006 8.0125,-6.67238 2.67475,-4.011 4.01237,-5.34762 8.01238,-8.0175 0.0125,0 1.33725,-1.33612 1.33725,-1.33612 0.0127,0 -1.33725,1.33612 -1.33725,1.33612 -5.33763,6.67638 -8.01238,10.68388 -13.35013,17.36013 5.35012,0 9.35012,0 13.35013,-2.67025 6.68737,-2.67088 9.34975,-5.34225 13.36262,-9.34375 0,-1.33963 0,0 0,1.33025 0,1.33612 -4.01287,5.3475 -8.0125,8.0135 -4.00013,2.67025 -8.0125,5.34762 -12.02525,8.0125 l 1.3375,0 c 1.33762,1.33512 1.33762,1.3415 1.33762,1.3415 -1.33762,2.66487 -4.01237,4.006 -5.34999,5.33625 -2.66251,1.33512 -5.33763,2.67125 -6.67488,2.67125 l -9.35012,0 c 0.0124,0 0,1.33475 -1.32513,1.33475 -1.33725,0 -2.67487,1.3415 -2.67487,2.67137 0,2.67125 0,4.00638 1.33762,4.00638 l 1.33725,-1.33013 c 1.3375,-1.34112 1.32513,-1.34112 1.32513,-1.34112 0.0124,1.33612 1.33762,1.34112 1.33762,1.34112 1.33725,-0.005 1.33725,-1.34112 2.67487,-1.34112 l 1.33751,0 c -1.33751,1.33612 -2.67513,2.67125 -4.01238,2.67125 -1.32525,1.33475 -1.33762,1.33475 -1.33762,1.33475 0.0124,1.3365 0,1.3415 0,1.3415 -1.32513,1.32975 -1.32513,2.66487 0,5.33625 0.0124,1.33612 1.33762,2.67625 4.01249,2.67625 0,-0.005 0,-1.34013 0,-2.67625 0,0 0,0 0,-1.33025 0,-0.005 1.33751,0 1.33751,0 1.33725,-1.34113 1.33725,-1.34113 1.33725,-2.67625 1.33762,-1.33475 1.32524,-1.32975 2.66287,-2.67125 0.0124,1.3365 -1.33763,2.67125 -1.33763,4.00637 0.0124,1.33625 0,2.67138 -1.32524,4.0075 l 1.32524,1.34013 c 0.0124,2.66637 0,4.00112 2.67488,4.00112 1.3375,1.33513 4,1.33513 6.67525,1.33513 -1.32525,0 -2.67525,-1.33513 -4.00013,-2.66988 l 0,-1.33662 c 0,-1.33475 1.32488,-1.32975 1.32488,-1.32975 0.0124,-2.67625 0,-4.0065 0,-5.34763 0.0124,-1.33512 1.33763,-4.00637 1.33763,-4.00637 0.0124,1.3365 1.33762,2.67125 2.67487,4.00637 0.0127,0 0,1.34113 1.3375,0 1.33762,0 1.33762,1.34113 1.33762,1.34113 0,1.33025 0,1.33025 0,2.66637 1.33763,0 4.00001,-1.33612 4.00001,-2.66637 1.34999,-2.67625 0,-5.3475 -1.3375,-5.3475 0.0124,-1.33475 0,-1.33475 0,-2.66488 -2.66251,-1.34112 -4.00013,-1.34112 -4.00013,-2.67625 l 0,-1.32987 c 1.33762,-1.3415 1.33762,-2.67625 2.67525,-4.0075 1.33725,-0.005 2.66238,-1.34 3.99963,-2.67025 0.0127,1.33025 0,1.33025 1.33762,2.67025 0,1.33125 1.33763,1.33125 1.33763,2.666 1.33762,-1.33475 1.33762,-2.666 2.66237,-4.006 1.35,-1.33513 2.67488,-2.67138 4.0125,-4.0065 1.33762,-2.67125 2.67525,-4.006 2.67525,-4.006 1.33725,-1.33625 1.33725,1.33475 2.66237,2.67625 0.0124,1.32975 0,1.32975 0,2.66487 -1.32512,4.0065 -5.33762,12.025 -8.0125,17.36113 -3.99999,6.67775 -9.34999,13.36012 -14.68762,20.0325 l 8.01238,0 c 2.67525,0 6.67524,0 10.68774,-1.33625 1.33763,2.67137 2.67488,4.0065 4,5.34262 2.67488,2.67138 4.01251,2.67138 6.68725,5.34763 2.67526,-2.67625 4.00013,-2.67625 6.67526,-5.34763 2.67487,-1.33612 2.66249,-2.66625 5.33737,-5.34262 2.67513,1.33625 6.67512,1.33625 9.35,1.33625 l 9.35013,0 c -6.67488,-6.67738 -12.02501,-13.34975 -16.025,-20.0325 -2.66238,-5.34113 -5.35001,-13.34975 -6.67525,-17.36113 -1.33725,-1.33512 -1.33725,-1.33512 0,-2.66487 0,-1.3415 1.32524,-4.00638 1.32524,-2.67625 0.0124,0 2.67488,1.33475 4.01238,4.006 1.33763,1.33512 1.33763,2.67625 2.67525,4.0065 1.33725,1.33512 2.66237,2.67125 2.66237,4.006 1.33725,-1.33475 1.33725,-1.33475 1.33725,-2.666 1.33763,-1.34 1.33763,-1.34 2.67525,-2.67025 1.33763,1.33025 1.33763,2.67025 2.66238,2.67025 1.35,1.33125 1.33763,2.666 2.67487,4.0075 1.33763,-0.006 1.33763,1.32987 0,1.32987 0.0128,1.33513 -1.33724,1.33513 -2.67487,2.67625 -1.32475,1.33013 -1.32475,1.33013 -1.32475,2.66488 0,0 -1.33763,2.67125 -1.33763,5.3475 1.33763,1.33025 2.66238,2.66637 5.33725,2.66637 -1.32487,-1.33612 -1.33724,-1.33612 -1.33724,-2.66637 0.0124,-0.005 1.33724,-1.34113 1.33724,-1.34113 l 1.33763,0 c 0,1.33625 0,0 1.33763,0 0,-1.33512 1.33762,-2.66487 1.33762,-4.00637 1.33725,0 1.33725,2.67125 1.33725,4.00637 0,1.33625 0,2.67138 1.32513,5.34763 0.0124,-0.005 0,0 0,1.32975 0.0124,0 0,1.33662 0,1.33662 -1.32513,1.33475 -1.32513,2.66988 -2.66238,2.66988 1.33725,0 4,0 5.33725,-1.33513 2.67513,0 2.67513,-1.33475 2.67513,-4.00112 1.33725,-0.005 1.33725,-1.34013 1.33725,-1.34013 0,-1.33612 -1.33725,-2.66637 -1.33725,-4.0075 0,-1.33512 0,-2.66487 -1.33751,-4.00637 1.33751,1.3365 1.33751,1.3415 2.67476,2.67125 0,1.33512 1.32524,1.33512 1.32524,2.67625 1.35001,-0.005 1.33763,0 1.33763,0 1.35,1.33025 1.33725,1.33025 1.33725,1.33025 0.0127,1.33612 0,2.67625 -1.33725,2.67625 2.67475,-0.005 4.01237,-1.34013 5.33725,-2.67625 0.0124,-2.67138 0,-4.0065 -1.32488,-5.33625 1.33725,-0.005 1.32488,0 1.32488,-1.3415 -1.32488,0 -1.32488,0 -1.32488,-1.33475 -1.33762,0 -4.01237,-1.33013 -5.35,-2.67125 l 2.67488,0 c 0.0127,0 1.3375,1.34112 1.3375,1.34112 0,-0.005 1.33762,0 1.33762,-1.34112 0,0 1.32488,0 1.32488,1.34112 1.35,-0.005 1.33763,1.33013 1.33763,1.33013 1.34999,0 2.67487,-1.33013 1.33762,-4.00638 0.0124,-1.33625 -1.33762,-2.67137 -2.67525,-2.67137 0.0124,0 -1.32488,-1.33475 -1.32488,-1.33475 l -8.01249,0 c -2.67513,0 -5.35,-1.33125 -6.67513,-2.67125 -2.67487,-1.33513 -4.0125,-2.67138 -6.68737,-5.33625 0.0124,-0.006 1.33724,0 1.33724,-1.3415 l 2.67526,0 c -5.33763,-2.671 -9.35013,-5.34225 -13.36251,-8.0125 -2.66249,-2.67088 -6.67487,-6.67238 -8.0125,-8.0135 0.0124,-1.33513 0,-2.66988 0,-1.33025 4.01238,4.0015 6.68763,6.67775 13.3625,9.34375 5.35,2.67025 8.01251,2.67025 14.68738,2.67025 -6.67487,-6.67625 -9.35013,-10.68375 -14.68738,-17.36013 l -1.33762,-1.33612 c 1.33762,0 1.33762,1.33612 1.33762,1.33612 4.01238,2.66988 5.33725,4.0065 8.01251,8.0175 4.01237,2.66638 5.33762,5.33625 8.01249,6.67238 2.67476,2.67025 5.33763,2.67025 9.35,2.67025 5.33738,0 9.33738,-1.33013 13.34975,-4.00638 -3.99962,-2.66987 -6.67487,-4.00612 -12.02487,-8.00762 -6.6625,-4.011 -12.0125,-6.68225 -18.68737,-10.68863 l -1.33763,-1.32987 c 0,-0.005 1.33763,0 1.33763,1.32987 4.01237,1.33513 8.01249,2.67625 12.01249,5.3425 6.68725,2.66988 13.3625,5.34613 17.36251,5.34613 4.0125,-0.005 6.67487,-2.67625 13.36262,-9.3535 -8.0125,-1.33513 -12.02538,-2.665 -21.375,-5.34125 -6.6625,-2.67125 -13.35013,-4.00638 -18.68775,-5.33625 0,-0.006 -1.33725,-1.3415 -1.33725,-1.3415 l 2.66238,0 c 6.68725,1.33512 13.36249,2.67137 20.03737,2.67137 4.0125,0 8.0125,0 12.0125,-1.32987 4.0125,-2.67625 5.35012,-5.3475 6.68775,-9.354 -6.67525,-1.33613 -9.35012,-1.32975 -16.03775,-2.67125 -6.6625,0 -10.675,-1.33475 -17.34987,-1.33475 0,-1.33613 -1.33751,-1.33125 -1.33751,-1.33125 1.33751,-0.005 1.33751,0 1.33751,0 6.67487,-0.005 12.01262,0 17.34987,0 4.01237,-0.005 9.35,-1.34 13.3625,-4.00638 2.67525,-2.67487 2.67525,-6.68125 2.67525,-9.35262 l -29.3875,0 c -1.32525,0 -4.00012,0 -4.00012,-1.33113 0,-0.005 2.66249,0 5.33737,0 2.67512,-1.34012 6.67525,0 10.68762,0 4.0125,-0.005 10.67488,-1.34012 13.34976,-5.34612 2.67524,-2.67138 2.67524,-5.34263 2.67524,-8.0125 l -30.71274,0 c -1.33725,0 -2.67476,-1.33625 -2.67476,-1.33625 0,-1.33513 5.33763,-1.33013 6.67488,-1.33013 4.01237,-0.005 12.0125,0 16.02487,0 6.68763,-1.34112 10.68775,-6.67737 10.68775,-13.36 l -12.02499,0 c -9.33763,-1.33475 -12.01251,-1.32987 -21.36251,-1.32987 -4.00012,-0.005 -12.02499,0 -14.68737,2.665 -1.33763,1.33612 -1.33763,5.3475 0,6.67725 1.33725,4.0065 5.33725,12.02 5.33725,18.69775 0,5.34112 -5.33725,12.0185 -10.67488,12.0185" id="path451" style="fill:#000000;fill-opacity:1;fill-rule:evenodd;stroke:none"/>
    <path d="m 431.45257,160.53248 c 0,0 0,0 0,-1.32975 1.33763,-0.005 1.33763,0 1.33763,-1.3415 1.33725,1.3365 1.32488,2.67125 1.32488,4.00637 0.0124,1.33625 0,1.34113 -1.32488,2.67138 0,-1.33513 0,-1.33025 0,-2.67138 0,0 -1.33763,0 -1.33763,-1.33512" id="path453" style="fill:#ffffff;fill-opacity:1;fill-rule:evenodd;stroke:none"/>
    <path d="m 422.10245,168.54498 c -1.32475,0 -1.3375,0 -1.3375,-1.32975 -1.32487,-0.005 -1.33725,0 -1.33725,0 0.0124,1.32975 0,1.32975 0,2.66637 1.35,1.33475 2.67475,1.33475 4.01237,1.33475 0,0 -1.33762,0 -1.33762,-1.33475 l 0,-1.33662 z" id="path455" style="fill:#ffffff;fill-opacity:1;fill-rule:evenodd;stroke:none"/>
    <path d="m 412.75245,163.20385 c 0,-1.33625 0,-1.33625 -1.33725,-1.33625 0.0124,0 0,0 0,-1.33512 -1.32525,1.33512 -1.33762,1.33512 -1.33762,2.67625 0.0124,1.33025 1.33762,2.66637 2.67487,2.66637 l 0,-1.33612 c 0,-1.33513 0,-1.33025 0,-1.33513" id="path457" style="fill:#ffffff;fill-opacity:1;fill-rule:evenodd;stroke:none"/>
    <path d="m 410.08995,149.84873 c -1.3375,0 -1.3375,1.3415 -2.67475,1.3415 0,1.32987 0,2.665 0,4.00612 0,-1.34112 0,-1.34112 1.33725,-1.34112 0,-1.33513 1.32513,-1.33513 1.32513,-1.33513 0.0124,0 0,0 0,-1.32987 0.0124,-0.006 0,0 0.0124,-1.3415" id="path459" style="fill:#ffffff;fill-opacity:1;fill-rule:evenodd;stroke:none"/>
    <path d="m 432.7902,141.83623 c 0,0 1.32488,0 1.32488,1.33512 0.0124,0 1.3375,0 1.3375,1.34113 -1.32513,1.33025 -2.66238,1.33025 -4.00001,2.67025 -1.33762,1.33125 -1.33762,1.33125 -2.67512,2.666 0.0127,1.33512 0,2.67137 0,4.0065 1.3375,1.33612 1.3375,1.34112 2.67512,1.34112 0,-0.005 1.33763,1.33013 1.33763,1.33013 0,1.33475 -1.33763,1.33475 -1.33763,2.67625 -1.33762,-0.005 -1.33762,1.32975 -1.33762,1.32975 -1.32475,-1.33475 -2.67475,-1.32975 -2.67475,-2.67125 -1.32525,-1.33475 -2.67525,-1.33475 -2.67525,0 0.0124,1.3365 -1.32488,2.67125 -1.32488,4.00637 0,2.67138 0,2.67138 0,5.34763 -1.33762,-0.005 -1.33762,0 -2.67512,0 -1.32487,-1.34013 -1.33725,-1.34013 -2.67488,-1.34013 1.35001,-1.33612 1.33763,-2.66637 1.33763,-4.0075 0.0124,-1.33512 1.33725,-1.33512 1.33725,-4.00637 0.0127,0 0,-1.33475 0,-1.33475 -1.32487,0 -1.33725,0 -2.67488,1.33475 -1.32524,1.3365 -1.32524,1.3415 -2.66249,2.67125 0,0 0,1.33512 -1.33751,1.33512 0,0 -1.33762,0 -1.33762,-1.33512 -1.32487,0 -1.33725,-1.32975 -1.33725,-1.32975 1.33725,-1.3415 1.33725,-1.3415 2.67487,-2.67625 1.33751,-1.33513 2.67476,-1.33013 4,-2.67125 0.0124,0 0,0 0,-1.33513 l -4,0 c -1.33762,0 -1.33762,0 -2.67487,1.33513 0.0124,-1.33513 0,-1.33513 0,-2.665 0.0124,-0.006 0,-1.3415 0,-1.3415 l 10.68725,0 c 1.33762,-1.33475 2.6625,-1.33475 4.00013,-2.666 2.68762,-1.34 2.67487,-1.34 4.01237,-2.67025 1.33762,-1.34113 1.33762,-1.34113 2.67525,-2.67625" id="path461" style="fill:#a77f29;fill-opacity:1;fill-rule:evenodd;stroke:none"/>
    <path d="m 432.7902,141.83623 c 0,0 1.32488,0 1.32488,1.33512 0.0124,0 1.3375,0 1.3375,1.34113 -1.32513,1.33025 -2.66238,1.33025 -4.00001,2.67025 -1.33762,1.33125 -1.33762,1.33125 -2.67512,2.666 0.0127,1.33512 0,2.67137 0,4.0065 1.3375,1.33612 1.3375,1.34112 2.67512,1.34112 0,-0.005 1.33763,1.33013 1.33763,1.33013 0,1.33475 -1.33763,1.33475 -1.33763,2.67625 -1.33762,-0.005 -1.33762,1.32975 -1.33762,1.32975 -1.32475,-1.33475 -2.67475,-1.32975 -2.67475,-2.67125 -1.32525,-1.33475 -2.67525,-1.33475 -2.67525,0 0.0124,1.3365 -1.32488,2.67125 -1.32488,4.00637 0,2.67138 0,2.67138 0,5.34763 -1.33762,-0.005 -1.33762,0 -2.67512,0 -1.32487,-1.34013 -1.33725,-1.34013 -2.67488,-1.34013 1.35001,-1.33612 1.33763,-2.66637 1.33763,-4.0075 0.0124,-1.33512 1.33725,-1.33512 1.33725,-4.00637 0.0127,0 0,-1.33475 0,-1.33475 -1.32487,0 -1.33725,0 -2.67488,1.33475 -1.32524,1.3365 -1.32524,1.3415 -2.66249,2.67125 0,0 0,1.33512 -1.33751,1.33512 0,0 -1.33762,0 -1.33762,-1.33512 -1.32487,0 -1.33725,-1.32975 -1.33725,-1.32975 1.33725,-1.3415 1.33725,-1.3415 2.67487,-2.67625 1.33751,-1.33513 2.67476,-1.33013 4,-2.67125 0.0124,0 0,0 0,-1.33513 l -4,0 c -1.33762,0 -1.33762,0 -2.67487,1.33513 0.0124,-1.33513 0,-1.33513 0,-2.665 0.0124,-0.006 0,-1.3415 0,-1.3415 l 10.68725,0 c 1.33762,-1.33475 2.6625,-1.33475 4.00013,-2.666 2.68762,-1.34 2.67487,-1.34 4.01237,-2.67025 1.33762,-1.34113 1.33762,-1.34113 2.67525,-2.67625 z" id="path463" style="fill:#f9d100;fill-opacity:1;stroke:none"/>
    <path d="m 484.87745,160.53248 c 0,0 -0.0124,0 -0.0124,-1.32975 0.0124,-0.005 -1.33763,0 -1.33763,-1.3415 -1.32475,1.3365 -1.32475,2.67125 -1.32475,4.00637 0,1.33625 1.32475,1.34113 1.32475,2.67138 0.0125,-1.33513 0,-1.33025 1.33763,-2.67138 0.0124,0 0,0 0.0124,-1.33512" id="path465" style="fill:#ffffff;fill-opacity:1;fill-rule:evenodd;stroke:none"/>
    <path d="m 494.22758,168.54498 c 1.32487,0 1.32487,0 2.66249,-1.32975 0,-0.005 0,0 1.33751,0 -1.33751,1.32975 -1.33751,1.32975 -1.33751,2.66637 -1.33762,1.33475 -1.33762,1.33475 -4.01249,1.33475 1.35,0 1.33762,0 1.33762,-1.33475 0.0124,0 0,-1.33662 0.0124,-1.33662" id="path467" style="fill:#ffffff;fill-opacity:1;fill-rule:evenodd;stroke:none"/>
    <path d="m 503.5777,163.20385 c 1.32475,-1.33625 1.32475,-1.33625 1.32475,-1.33625 0,0 0,0 1.33762,-1.33512 0,1.33512 0,1.33512 0,2.67625 0,1.33025 -1.33762,2.66637 -2.67512,2.66637 1.3375,0 1.3375,-1.33612 1.3375,-1.33612 0,-1.33513 -1.3375,-1.33025 -1.32475,-1.33513" id="path469" style="fill:#ffffff;fill-opacity:1;fill-rule:evenodd;stroke:none"/>
    <path d="m 506.24007,149.84873 c 1.33725,0 1.32488,1.3415 2.66251,1.3415 0.0124,1.32987 1.33762,2.665 0,4.00612 0.0124,-1.34112 0,-1.34112 -1.33763,-1.34112 0.0124,-1.33513 0,-1.33513 -1.32488,-1.33513 0,0 0,0 0,-1.32987 0,-0.006 0,0 0,-1.3415" id="path471" style="fill:#ffffff;fill-opacity:1;fill-rule:evenodd;stroke:none"/>
    <path d="m 483.53995,141.83623 c 0,0 -0.0125,0 -1.33725,1.33512 0,0 0,0 -1.33763,1.34113 2.67488,1.33025 2.66238,1.33025 4.00001,2.67025 1.34999,1.33125 2.67487,1.33125 2.67487,2.666 1.33763,1.33512 1.33763,2.67137 0,4.0065 -1.32488,1.33612 -1.33763,1.34112 -2.67487,1.34112 0.0124,-0.005 0,1.33013 -1.33763,1.33013 1.35,1.33475 1.33763,1.33475 1.33763,2.67625 1.34999,-0.005 1.33724,1.32975 2.67487,1.32975 1.33763,-1.33475 1.33763,-1.32975 2.67525,-2.67125 0,-1.33475 1.33725,-1.33475 1.33725,0 1.3375,1.3365 1.32513,2.67125 1.32513,4.00637 0.0124,2.67138 0,2.67138 1.33762,5.34763 0.0124,-0.005 1.33725,0 1.33725,0 1.33762,-1.34013 1.33762,-1.34013 2.67513,-1.34013 0,-1.33612 -1.33751,-2.66637 -1.33751,-4.0075 0,-1.33512 0,-1.33512 -1.33762,-4.00637 0,0 0,-1.33475 1.33762,-1.33475 0,0 1.33751,0 1.33751,1.33475 1.33725,1.3365 1.33725,1.3415 2.66249,2.67125 0.0124,0 1.33763,1.33512 1.33763,1.33512 1.35,0 1.33725,0 1.33725,-1.33512 1.3375,0 1.3375,-1.32975 2.67512,-1.32975 -1.33762,-1.3415 -2.67512,-1.3415 -4.01237,-2.67625 -1.32525,-1.33513 -1.33763,-1.33013 -2.66287,-2.67125 -1.33725,0 -1.33725,0 -1.33725,-1.33513 l 5.33737,0 c 0.0127,0 1.3375,0 1.3375,1.33513 0,-1.33513 0,-1.33513 0,-2.665 0,-0.006 0,-1.3415 0,-1.3415 l -10.68725,0 c -1.32525,-1.33475 -2.66275,-1.33475 -4,-2.666 -1.33762,-1.34 -2.67525,-1.34 -4.01288,-2.67025 -1.32487,-1.34113 -1.33724,-1.34113 -2.66237,-2.67625" id="path473" style="fill:#a77f29;fill-opacity:1;fill-rule:evenodd;stroke:none"/>
    <path d="m 483.53995,141.83623 c 0,0 -0.0125,0 -1.33725,1.33512 0,0 0,0 -1.33763,1.34113 2.67488,1.33025 2.66238,1.33025 4.00001,2.67025 1.34999,1.33125 2.67487,1.33125 2.67487,2.666 1.33763,1.33512 1.33763,2.67137 0,4.0065 -1.32488,1.33612 -1.33763,1.34112 -2.67487,1.34112 0.0124,-0.005 0,1.33013 -1.33763,1.33013 1.35,1.33475 1.33763,1.33475 1.33763,2.67625 1.34999,-0.005 1.33724,1.32975 2.67487,1.32975 1.33763,-1.33475 1.33763,-1.32975 2.67525,-2.67125 0,-1.33475 1.33725,-1.33475 1.33725,0 1.3375,1.3365 1.32513,2.67125 1.32513,4.00637 0.0124,2.67138 0,2.67138 1.33762,5.34763 0.0124,-0.005 1.33725,0 1.33725,0 1.33762,-1.34013 1.33762,-1.34013 2.67513,-1.34013 0,-1.33612 -1.33751,-2.66637 -1.33751,-4.0075 0,-1.33512 0,-1.33512 -1.33762,-4.00637 0,0 0,-1.33475 1.33762,-1.33475 0,0 1.33751,0 1.33751,1.33475 1.33725,1.3365 1.33725,1.3415 2.66249,2.67125 0.0124,0 1.33763,1.33512 1.33763,1.33512 1.35,0 1.33725,0 1.33725,-1.33512 1.3375,0 1.3375,-1.32975 2.67512,-1.32975 -1.33762,-1.3415 -2.67512,-1.3415 -4.01237,-2.67625 -1.32525,-1.33513 -1.33763,-1.33013 -2.66287,-2.67125 -1.33725,0 -1.33725,0 -1.33725,-1.33513 l 5.33737,0 c 0.0127,0 1.3375,0 1.3375,1.33513 0,-1.33513 0,-1.33513 0,-2.665 0,-0.006 0,-1.3415 0,-1.3415 l -10.68725,0 c -1.32525,-1.33475 -2.66275,-1.33475 -4,-2.666 -1.33762,-1.34 -2.67525,-1.34 -4.01288,-2.67025 -1.32487,-1.34113 -1.33724,-1.34113 -2.66237,-2.67625 z" id="path475" style="fill:#f9d100;fill-opacity:1;stroke:none"/>
    <path d="m 435.46508,63.04373 5.33762,0 c 4.01238,-1.33613 6.67487,-2.666 10.67487,-4.006 l 0.0124,0 c -1.3375,2.66987 -4.01238,5.34612 -8.02488,5.34612 -3.99999,-0.005 -8.01249,-1.34012 -7.99999,-1.34012" id="path477" style="fill:#ee1c2a;fill-opacity:1;fill-rule:evenodd;stroke:none"/>
    <path d="m 447.47757,67.05023 c 1.33763,-1.33625 1.33763,-2.66638 2.67488,-4.0065 1.3375,-1.33613 2.66275,-2.666 4,-5.34225 l -1.33725,0 c -2.66275,-1.33513 -4,-1.33013 -6.67525,-1.33013 -1.32487,-0.005 -2.67488,0 -4.0125,1.33013 0.0125,-1.33513 0,-2.67125 1.33762,-4.00638 0.0124,-1.33512 0,-1.32987 1.33726,-2.67137 0.0128,-1.33475 2.67524,-1.32975 4.01287,-1.32975 1.33725,-0.005 2.66237,-1.34013 5.33725,0 0,-0.005 -1.33725,1.32975 -1.33725,1.32975 0.0124,2.67137 1.33725,4.0065 1.33725,5.34762 1.33763,1.33013 1.33763,2.66638 1.33763,4.00638 -1.33763,1.32987 -1.33763,1.32987 -2.67488,2.666 -2.66275,1.33512 -4,2.67025 -5.33763,4.0065" id="path479" style="fill:#a77f29;fill-opacity:1;fill-rule:evenodd;stroke:none"/>
    <path d="m 447.47757,67.05023 c 1.33763,-1.33625 1.33763,-2.66638 2.67488,-4.0065 1.3375,-1.33613 2.66275,-2.666 4,-5.34225 l -1.33725,0 c -2.66275,-1.33513 -4,-1.33013 -6.67525,-1.33013 -1.32487,-0.005 -2.67488,0 -4.0125,1.33013 0.0125,-1.33513 0,-2.67125 1.33762,-4.00638 0.0124,-1.33512 0,-1.32987 1.33726,-2.67137 0.0128,-1.33475 2.67524,-1.32975 4.01287,-1.32975 1.33725,-0.005 2.66237,-1.34013 5.33725,0 0,-0.005 -1.33725,1.32975 -1.33725,1.32975 0.0124,2.67137 1.33725,4.0065 1.33725,5.34762 1.33763,1.33013 1.33763,2.66638 1.33763,4.00638 -1.33763,1.32987 -1.33763,1.32987 -2.67488,2.666 -2.66275,1.33512 -4,2.67025 -5.33763,4.0065 z" id="path481" style="fill:#f9d100;fill-opacity:1;stroke:none"/>
    <path d="m 460.84008,51.02373 c -1.33763,0 -1.35,1.3415 -1.35,1.3415 0.0124,-0.005 0,1.32987 1.33762,1.32987 l 1.33725,0 c 0.0127,-1.33512 0,-1.32987 0,-1.32987 0.0127,-0.005 0,0 1.3375,0 0,-0.005 1.33763,0 1.33763,1.32987 l 0,1.33513 c -1.33763,0 -1.33763,-1.33513 -2.67513,0 l -1.33725,0 c -1.32525,0 -2.66288,0 -2.66288,-2.665 0,-0.005 -1.33725,0 -1.33725,-1.3415 l 4.01251,0 z" id="path483" style="fill:#ffffff;fill-opacity:1;fill-rule:evenodd;stroke:none"/>
  </g>
  <path d="m 181.72245,412.93748 c 0,1.33512 -0.006,2.67025 -0.006,4.01137 0.006,2.665 1.33612,4.0065 2.67087,5.33625 l 0.005,-2.67125 4.00113,0 c -1.33025,-1.33475 -2.67001,-1.33475 -4.00651,-2.665 -1.32974,-1.34112 -1.33475,-2.67625 -2.66487,-4.01137 m -8.01324,82.799 c 0,1.33475 -0.005,4.006 2.66599,4.006 0.005,0 0,-1.33613 0,-1.33613 1.3415,0 0,-1.32975 1.33513,-1.32975 0.006,-1.34012 0,-1.34012 1.33625,-2.67637 0.005,0 0,-1.33013 -1.33625,-1.33013 0.006,-0.005 -1.33513,0 -1.33513,0 -1.32974,-0.005 -2.67087,1.33013 -2.66599,2.66638 m -5.34151,0 c 0,1.33475 1.33013,4.006 2.66525,4.006 0.006,0 0,-1.33613 1.33625,-1.33613 0.005,0 0,-1.32975 0,-1.32975 0.005,-1.34012 1.33513,-1.34012 1.33513,-2.67637 0.005,0 0,-1.33013 -1.33513,-1.33013 0.005,-0.005 0,0 -1.33625,0 -1.33012,-0.005 -2.67012,1.33013 -2.66525,2.66638 m 56.08876,20.031 c 0,1.3365 -0.004,4.01275 1.33124,4.01275 1.34013,-0.006 1.33513,-1.3415 1.33513,-1.3415 1.34112,0 0,-1.33475 0,-1.33475 1.34112,-1.3365 1.33625,-1.33013 2.67137,-2.67125 0.005,0 -1.33512,-1.33513 -1.33512,-1.33513 l -1.33625,0 c -1.32975,0 -2.66987,1.33513 -2.66637,2.66988 m -5.34113,0 c 0,1.3365 -0.005,4.01275 2.66637,4.01275 0.005,-0.006 0,-1.3415 0,-1.3415 1.34001,0 1.33513,-1.33475 1.33513,-1.33475 0.005,-1.3365 0,-1.33013 1.33613,-2.67125 0.004,0 0,-1.33513 -1.33613,-1.33513 l -1.33513,0 c -1.33124,0 -2.67137,1.33513 -2.66637,2.66988 m 84.13513,0 c 0,1.3365 1.32974,4.01275 2.66487,4.01275 0.006,-0.006 0,-1.3415 1.33625,-1.3415 0.005,0 0,-1.33475 0,-1.33475 0.005,-1.3365 1.33513,-1.33013 1.33513,-2.67125 0.005,0 0,-1.33513 0,-1.33513 l -2.67138,0 c -1.32975,0 -2.66988,1.33513 -2.66487,2.66988 m -4.00638,0 c 0,1.3365 -0.006,4.01275 1.33013,4.01275 1.33999,-0.006 1.33512,-1.3415 1.33512,-1.3415 0.005,0 0,-1.33475 0,-1.33475 0.005,-1.3365 1.33612,-1.33013 1.33612,-2.67125 0.005,0 0,-1.33513 0,-1.33513 l -2.67124,0 c -1.33013,0 -1.33625,1.33513 -1.33013,2.66988 m 72.11512,0 c 0,1.3365 1.32976,4.01275 2.66638,4.01275 0.005,-0.006 0,-1.3415 0,-1.3415 1.33962,0 1.33475,-1.33475 1.33475,-1.33475 0.005,-1.3365 0,-1.33013 1.33512,-2.67125 0.006,0 0,-1.33513 -1.33512,-1.33513 l -1.33475,0 c -1.33125,0 -2.67137,1.33513 -2.66638,2.66988 m -5.34124,0 c 0,1.3365 1.32987,4.01275 2.665,4.01275 0.005,-0.006 0,-1.3415 1.33512,-1.3415 0.006,0 0,-1.33475 0,-1.33475 0.006,-1.3365 1.33613,-1.33013 1.33613,-2.67125 0.005,0 0,-1.33513 0,-1.33513 l -2.67125,0 c -1.33013,0 -2.67138,1.33513 -2.665,2.66988" id="path501" style="fill:#ffffff;fill-opacity:1;fill-rule:evenodd;stroke:none"/>
  <path d="m 299.2437,650.65023 c -8.01362,0 -14.69625,1.34112 -21.37362,1.34112 -6.67138,-0.005 -13.35363,-1.34112 -21.36763,-1.34112 l 0.006,-53.41888 c 0,-10.68387 9.34237,-20.03112 21.36125,-20.03112 12.02487,0 21.3675,9.34725 21.3675,20.03112 l 0.006,53.41888 z" id="path625" style="fill:#ffffff;fill-opacity:1;fill-rule:evenodd;stroke:none"/>
  <path d="m 277.87645,561.17385 c -5.34262,0 -9.354,1.33513 -13.36,2.67138 l 4.011,12.0185 c 2.67125,-1.33475 6.67275,-1.33475 9.34263,-1.33475 2.67625,0 6.67737,0 9.34862,1.34112 l 4.01138,-12.02487 c -4.00638,-1.33625 -8.01738,-2.66638 -13.35363,-2.67138 m 21.36725,25.37363 9.3475,-5.34113 c 2.67137,4.00638 4.00113,9.34763 4.00113,14.69513 l 0.005,1.32987 -10.68388,0 c 0,-4.00612 -1.33999,-6.67737 -2.67012,-10.68387 m 8.01275,-8.01238 c -2.67088,-5.34125 -8.0185,-9.34237 -13.35963,-13.34875 l -5.33663,12.01388 c 4.00651,1.33487 6.67138,4.00612 9.34263,8.0125 l 9.35363,-6.67763 z m -5.34226,57.42488 0,-16.02488 10.68388,0 0,16.02488 -10.68388,0 z m 0,-18.69625 0,-17.36113 10.68388,0 0,17.36113 -10.68388,0 z m -45.40499,-30.71625 -9.349,-5.34113 c -2.67088,4.00638 -4.01101,9.34763 -4.01101,14.69513 l 0.005,1.32987 10.68374,0 c 0,-4.00612 1.32988,-6.67737 2.67126,-10.68387 m -8.01387,-8.01238 c 2.67137,-5.34125 8.0075,-9.34237 13.35013,-13.34875 l 5.34612,12.01388 c -4.006,1.33487 -6.68225,4.00612 -9.3525,8.0125 l -9.34375,-6.67763 z m -5.34112,57.42488 0,-16.02488 10.68374,0 0,16.02488 -10.68374,0 z m 0,-18.69625 0,-17.36113 10.68374,0 0,17.36113 -10.68374,0 z m 10.68374,33.3865 c -2.67125,0 -6.68262,-1.33513 -10.68875,-1.33513 l 0.005,-10.68375 10.68374,0 0,12.01888 z m 58.76013,-1.33513 c -4.0065,0 -8.01788,1.33513 -10.68875,1.33513 l 0.005,-12.01888 10.68388,0 0,10.68375 z m -20.03137,-88.14125 1.33512,0 0,1.33513 c -1.33512,0 -1.34013,-1.33013 -1.33512,-1.33513 z m -30.71626,0 1.33513,0 -1.34012,1.33513 0.005,-1.33513 z m 173.61,-21.3675 0,-17.36112 30.71625,0 0,17.36112 -30.71625,0 z m -69.44249,0 0,-17.36112 32.05099,0 0,17.36112 -32.05099,0 z m -69.44525,0 0,-17.36112 32.05137,0 0,17.36112 -32.05137,0 z m -206.997127,0 0,-17.36112 30.716247,0 0,17.36112 -30.716247,0 z m 68.108747,0 0,-17.36112 32.051,0 0,17.36112 -32.051,0 z m 69.4435,0 0,-17.36112 32.05138,0 0,17.36112 -32.05138,0 z m 104.1675,98.825 26.70875,0 c -9.34763,2.67125 -17.36613,5.3425 -26.71513,8.01238 l 0.006,-8.01238 z m -16.02638,0 13.35513,0 0,8.01238 c -4.00613,1.33662 -9.35363,1.3415 -13.36,2.67137 l 0.005,-10.68375 z m -117.52112,0 26.70863,0 0,8.01238 c -9.34726,-2.66988 -17.36463,-5.33613 -26.70863,-8.01238 m 29.38,0 13.355,0 0,10.68375 c -4.006,-1.33475 -9.35363,-1.32987 -13.36,-2.67137 l 0.005,-8.01238 z m 156.24988,-18.69625 18.70012,0 c -6.67487,2.67125 -12.02487,6.67763 -18.705,9.35388 l 0.005,-9.35388 z m -34.72126,0 32.05138,0 0,10.68375 c -5.34263,1.33513 -10.68975,4.00638 -14.69625,5.34113 l -17.35513,0 0,-16.02488 z m -33.3875,16.02488 0,-16.02488 30.71663,0 0,16.02488 -30.71663,0 z m -161.59112,-16.02488 18.69638,0 0,9.3475 c -6.67738,-2.66987 -13.36013,-6.67625 -18.69638,-9.3475 m 21.36763,0 32.05137,0 0,16.02488 -17.3615,0 c -4.00612,-1.33475 -9.35362,-4.006 -14.69487,-5.34113 l 0.005,-10.68375 z m 34.72125,16.02488 0,-16.02488 30.71612,0 0,16.02488 -30.71612,0 z m 190.97362,-36.05738 32.05025,0 c -8.01288,6.67775 -17.36262,12.02 -25.375,17.36113 l -6.67525,0 0,-17.36113 z m -34.72237,17.36113 0,-17.36113 32.05099,0 0,17.36113 -32.05099,0 z m -34.72263,0 0,-17.36113 32.05138,0 0,17.36113 -32.05138,0 z m -16.02638,0 0,-17.36113 13.35513,0 0,17.36113 -13.35513,0 z m -192.30724,-17.36113 32.05124,0 0,17.36113 -6.67762,0 c -8.0125,-5.34113 -17.36612,-10.6785 -25.37863,-17.36113 l 0.005,0 z m 34.72262,17.36113 0,-17.36113 32.051,0 0,17.36113 -32.051,0 z m 34.72225,0 0,-17.36113 32.05137,0 0,17.36113 -32.05137,0 z m 34.72125,0 0,-17.36113 13.355,0 0,17.36113 -13.355,0 z m 225.70012,-36.05738 2.66251,0 c -1.33763,1.33513 -2.67488,1.33513 -2.67488,2.67625 l 0.0124,-2.67625 z m -34.72512,0 30.71275,0 0,5.34113 c -4.00012,4.0065 -8.0125,8.014 -13.36262,10.68387 l -17.35013,0 0,-16.025 z m -34.72512,16.025 0,-16.025 32.05137,0 0,16.025 -32.05137,0 z m -34.72126,0 0,-16.025 32.05138,0 0,16.025 -32.05138,0 z m -34.72225,-16.025 32.05138,0 0,16.025 -30.71663,0 0,-1.33475 c 0,-2.67137 -0.005,-6.67775 -1.33975,-9.34912 l 0.005,-5.34113 z m -213.67524,0 2.67025,0 0,2.67125 c 0,-1.33612 -1.34001,-1.33612 -2.67025,-2.67125 m 5.34162,0 32.05088,0 0,16.025 -17.36113,0 c -5.34112,-2.66987 -9.35363,-6.67737 -14.69475,-10.68387 l 0.005,-5.34113 z m 34.72225,16.025 0,-16.025 32.05138,0 0,16.025 -32.05138,0 z m 34.72263,0 0,-16.025 32.05137,0 0,16.025 -32.05137,0 z m 34.72125,-16.025 32.05124,0 0,5.34113 c -1.33512,2.67137 -1.33999,6.67775 -1.33999,9.354 l 0.005,1.32987 -30.71612,0 0,-16.025 z m 260.42387,-20.0325 4,0 c -1.33762,2.67138 -2.67525,4.0125 -4.01275,5.34263 l 0.0127,-5.34263 z m -34.72512,0 30.71225,0 0,8.0125 c -2.67488,4.0075 -5.34963,6.68375 -8.01251,9.34875 l -22.69974,0 0,-17.36125 z m -34.72625,17.36125 0,-17.36125 32.05137,0 0,17.36125 -32.05137,0 z m -34.72125,0 0,-17.36125 32.05099,0 0,17.36125 -32.05099,0 z m -34.72263,0 0,-17.36125 32.05138,0 0,17.36125 -32.05138,0 z m -34.72262,-17.36125 32.05137,0 0,17.36125 -17.36113,0 c -4.00649,-6.67737 -9.35362,-10.68387 -14.69512,-14.68987 l 0.005,-2.67138 z m -215.011007,0 4.006,0 0,5.34263 c -1.33475,-1.33613 -2.67587,-2.67125 -4.006,-5.34263 m 8.01388,0 30.714747,0 0,17.36125 -22.702247,0 c -2.67138,-2.67137 -5.34762,-5.33625 -8.01888,-9.34237 l 0.006,-8.01888 z m 33.386127,17.36125 0,-17.36125 32.05124,0 0,17.36125 -32.05124,0 z m 34.72262,0 0,-17.36125 32.051,0 0,17.36125 -32.051,0 z m 34.72225,0 0,-17.36125 32.05137,0 0,17.36125 -32.05137,0 z m 34.72125,-17.36125 32.05138,0 0,2.67138 c -5.34126,4.006 -10.68875,8.0125 -14.69526,14.68987 l -17.35612,0 0,-17.36125 z m 259.08762,-18.69625 2.66251,0 c 0,1.33513 -1.33763,1.33513 -2.67526,2.67138 l 0.0128,-2.67138 z m -33.3875,0 30.71238,0 0,6.67738 c -1.33725,2.67025 -4.0125,6.67775 -6.68738,9.34762 l -24.025,0 0,-16.025 z m -34.72762,16.02638 0,-16.02638 30.71625,0 0,16.02638 -30.71625,0 z m -34.72262,0 0,-16.02638 32.05137,0 0,16.02638 -32.05137,0 z m -34.72126,0 0,-16.02638 32.05138,0 0,16.02638 -32.05138,0 z m -34.72225,0 0,-16.02638 32.05138,0 0,16.02638 -32.05138,0 z m -34.72262,0 0,-16.02638 32.05137,0 0,16.02638 -32.05137,0 z M 66.871453,542.4776 l 1.33612,0 0,2.67138 c 0,-1.33625 -1.3415,-1.33625 -1.33612,-2.67138 m 38.728747,16.02638 0,-16.02638 32.05088,0 0,16.02638 -32.05088,0 z m 34.72225,0 0,-16.02638 32.05138,0 0,16.02638 -32.05138,0 z m 34.72263,0 0,-16.02638 32.05137,0 0,16.02638 -32.05137,0 z m 34.72125,0 0,-16.02638 32.05124,0 0,16.02638 -32.05124,0 z m 34.72262,0 0,-16.02638 32.051,0 0,16.02638 -32.051,0 z M 72.213703,542.4776 l 30.715127,0 0,16.025 -24.037377,0 c -2.67137,-2.66987 -5.34763,-6.67737 -6.68375,-9.34762 l 0.006,-6.67738 z" id="path647" style="fill:#d8201f;fill-opacity:1;fill-rule:evenodd;stroke:none"/>
  <path d="m 18.78125,22.96875 0,78.90625 391.125,263.65625 127.03125,0.65625 0,-1.3125 c -0.12021,-0.15039 -0.2276,-0.31568 -0.34375,-0.46875 l 0,-5.21875 0.34375,-33.0625 c -12.025,16.02 -28.03138,16.02013 -38.71875,9.34375 -9.35,-6.67737 -14.66888,-14.66863 -13.34375,-26.6875 -1.33763,0 -1.35025,-0.014 -2.6875,-1.34375 l -1.3125,-1.34375 c -10.68762,5.34725 -20.04374,4.01512 -29.40625,-2.65625 -12.01249,-8.0135 -17.344,-25.3975 -2.65625,-44.09375 0,0 -1.34988,-1.3175 -2.6875,-1.3125 -1.33762,-1.34113 -1.30624,-1.35238 -2.65625,-2.6875 -12.0125,21.3725 -30.725,22.7 -42.75,14.6875 -8,-6.67738 -13.32475,-14.6675 -12,-26.6875 -1.3375,0 -1.3375,-0.009 -2.6875,-1.34375 0,0 -1.3075,-0.009 -1.3125,-1.34375 -10.68375,5.3475 -21.38737,4.02362 -29.40625,-1.3125 -12.0185,-8.014 -17.3415,-25.405 -2.65625,-45.4375 -1.33612,0 -2.65125,-1.3125 -2.65625,-1.3125 -1.33624,-1.33512 -2.6825,-1.35775 -2.6875,-2.6875 -12.0185,21.36112 -30.69337,22.69512 -42.71875,14.6875 -9.34862,-5.3475 -13.37,-14.69113 -13.375,-25.375 0,-1.32975 -1.33875,-1.3175 -1.34375,-1.3125 -1.33624,-1.34013 -1.31513,-1.34375 -2.65625,-1.34375 -9.34862,5.34625 -20.01387,2.67988 -28.03125,-2.65625 C 247.16863,165.88875 240.48,148.5275 256.5,128.5 c -1.335,0 -2.65888,-0.009 -4,-1.34375 0,0 -1.34638,-1.35737 -2.6875,-2.6875 -12.019,22.70263 -29.35112,22.70037 -41.375,14.6875 -9.34863,-5.34225 -14.70476,-14.69625 -13.375,-25.375 0,0 -1.3075,-1.3125 -1.3125,-1.3125 -1.33612,0 -1.34638,-1.34375 -2.6875,-1.34375 -10.68375,5.3425 -20.02137,3.99025 -29.375,-2.6875 -12.02,-8.0125 -17.36375,-25.37125 -1.34375,-44.0625 -1.33512,-1.34012 -2.6585,-1.32012 -4,-2.65625 -1.33475,0 -1.346,-1.34875 -2.6875,-1.34375 -12.01849,21.36225 -30.69374,22.7 -42.71875,14.6875 -8.0125,-6.67237 -13.361,-14.69975 -12.03125,-26.71875 -1.33512,0 -1.31475,-1.3125 -2.65625,-1.3125 0,0 -1.33875,-1.34875 -1.34375,-1.34375 C 84.22238,51.02363 74.88388,49.67763 65.53125,43 58.85363,38.99388 54.8675,32.31738 53.53125,22.96875 l -4.03125,0 -30.71875,0 z" id="path649" style="fill:#41b444;fill-opacity:1;fill-rule:evenodd;stroke:#000000;stroke-width:2;stroke-opacity:1"/>
  <path d="m 62.1875,22.96875 c 3.046822,6.201022 12.60531,5.316664 17.78125,1.71875 9.859641,-4.432893 2.313015,-3.909075 -4.0625,-3.71875 -3.771785,1.102665 -13.385093,-2.342677 -13.71875,2 z m 40.6875,-1.625 c -9.629687,-0.0064 -16.50231,11.280591 -11.75,19.78125 3.930884,9.136035 17.05316,12.010155 24,4.6875 9.19498,-9.265196 0.1141,-25.421586 -12.25,-24.46875 z m 60,14.8125 c -7.25734,0.385418 -12.91648,8.045215 -13.5625,14.03125 -5.99904,-8.816705 -21.19395,-7.936265 -25.40625,2.15625 -5.88226,11.795354 9.68874,25.46954 20.6875,18.4375 4.42681,-2.259476 7.17985,-7.389904 7.09375,-12.09375 2.31008,3.638823 6.32787,6.132867 10.6875,6.3125 -10.75561,3.700247 -12.23517,20.604602 -2,25.8125 8.7295,5.558982 21.63165,-1.267773 21.625,-11.75 0.96577,-7.570935 -5.9096,-14.293748 -12.75,-14.9375 7.56956,-1.866958 10.89699,-10.389223 8.40625,-17.375 -1.74999,-6.428442 -7.92261,-11.433472 -14.78125,-10.59375 z m 36.25,50.625 c -11.95294,0.444395 -16.61149,17.73473 -7.65625,25.03125 7.06664,7.03648 19.43368,2.81366 22.6875,-6 3.53795,-6.852823 -0.81046,-15.158778 -7.8125,-17.53125 -2.21738,-1.127834 -4.72349,-1.680885 -7.21875,-1.5 z m 59.40625,14.75 c -7.15339,0.50234 -11.60485,7.88328 -11.6875,14.53125 -4.27333,-7.95397 -15.70746,-10.03855 -22.40625,-3.8125 -10.37905,7.785 -2.28697,28.22132 11.09375,25.3125 7.02206,-0.98427 13.20693,-7.85603 13.34375,-14.1875 2.09154,3.8705 7.23853,6.44942 10.75,6.78125 -9.89517,2.36175 -13.47554,16.19285 -5.90625,23.03125 5.64246,6.6343 17.96451,6.78189 21.6875,-1.90625 5.33056,-6.7023 2.72398,-17.72807 -5.59375,-20.59375 -1.64947,-1.06433 -6.75386,-0.85547 -2.46875,-1.9375 9.28837,-3.7367 10.85197,-17.4673 2.8125,-23.34375 -3.26697,-2.68071 -7.31691,-4.42817 -11.625,-3.875 z m 39.1875,50.34375 c -10.04875,-0.19808 -18.08405,10.91481 -13.6875,20.21875 3.51837,10.17854 19.39362,11.83805 24.53125,2.125 7.02964,-8.54955 1.13089,-23.82453 -10.84375,-22.34375 z m 58.3125,15.03125 c -7.14603,0.18722 -12.99237,7.23123 -13.125,13.65625 -4.75905,-9.15064 -19.57281,-9.096 -24,0.3125 -6.21507,7.80673 -0.89217,22.22563 9.84375,21.6875 8.15128,0.90829 16.08717,-5.92842 16.28125,-13.96875 1.84985,4.12095 7.28371,6.33022 10.65625,6.9375 -8.08509,2.20125 -12.28514,12.11682 -7.875,19.375 3.25425,7.86286 13.5189,10.8405 20.46875,5.84375 7.64963,-3.94022 9.11506,-14.50659 3.71875,-20.9375 -2.09621,-3.18998 -5.58433,-5.02317 -9.34375,-5.1875 10.83632,-3.67138 12.28711,-20.9941 1.6875,-25.875 -2.58025,-1.28502 -5.41702,-2.02347 -8.3125,-1.84375 z m 37.21875,49.5 c -11.43203,0.31056 -18.85105,15.87595 -10.53125,24.34375 7.55289,9.23924 26.57936,3.76783 25.375,-9.03125 0.021,-8.00215 -6.35644,-15.94378 -14.84375,-15.3125 z m 60,15.65625 c -7.30896,0.41302 -14.31761,6.59185 -14.03125,14.1875 -5.0462,-10.55655 -22.66722,-9.09853 -25.8125,2.21875 -5.42515,12.59954 12.67124,25.10663 22.71875,16.28125 3.05561,-3.04183 5.17887,-7.27273 5,-11.65625 2.19184,3.75562 6.35164,6.50284 10.25,7.59375 -8.97453,4.79828 -11.29236,18.67846 -3,25.1875 9.34051,6.34402 24.78019,-1.42458 23.4375,-13.3125 -0.31881,-6.23506 -4.96162,-12.01711 -11.28125,-13.125 11.67169,-5.04379 9.42523,-25.57922 -3.1875,-27.25 -1.3391,-0.23653 -2.73887,-0.24277 -4.09375,-0.125 z m 34.96875,49.75 c -12.27507,1.19513 -15.94902,20.13965 -5.375,26.25 9.28636,6.86392 24.51174,-1.82276 22.125,-13.53125 -1.10685,-7.61009 -9.18207,-13.56443 -16.75,-12.71875 z m 33.96875,22.65625 c -7.74069,0.13967 -14.22142,7.34019 -12.46875,15.15625 0.58885,10.06418 12.42096,17.00249 21.3125,11.8125 9.43426,-4.36694 9.11241,-18.46334 0.9375,-23.875 -2.70299,-2.26423 -6.28726,-3.33823 -9.78125,-3.09375 z" id="path689" style="fill:#41b444;fill-opacity:1;fill-rule:evenodd;stroke:#000000;stroke-width:2;stroke-opacity:1"/>
  <path d="m 18.793703,128.4816 0,-26.71025 38.72875,26.71025 -38.72875,0 z" id="path693" style="fill:none;stroke:none"/>
  <path d="m 18.793703,197.92648 0,-34.72263 90.812497,0 50.74863,34.72263 -141.561127,0 z" id="path697" style="fill:none;stroke:none"/>
  <path d="m 18.793703,267.36998 0,-34.72225 192.308747,0 52.08275,34.72225 -244.391497,0 z" id="path701" style="fill:none;stroke:none"/>
  <path d="m 109.6062,22.97885 268.43,0 0,36.05888 -202.99112,0 1.32974,0 c 4.01138,-6.67775 1.33513,-16.02638 -4.006,-20.0325 -6.67237,-4.00638 -14.69024,-2.67125 -20.03249,4.00612 -2.66488,5.3425 -2.67126,10.68375 0,16.02638 l 0.005,0 -1.33513,0 c 0,-4.0075 -1.34113,-9.34375 -5.3475,-12.02 -6.671,-5.34113 -16.025,-2.67125 -20.03113,2.67625 -1.33112,4.00112 -2.67125,6.67737 -2.67125,9.34375 l -21.36262,0 c -1.33512,-2.67138 -1.34113,-6.6725 -1.34113,-10.68388 5.34763,2.66988 12.02,0 16.026,-5.3425 4.01138,-5.34125 2.67138,-14.68987 -4.006,-18.69625 -1.33012,0 -1.33625,-1.32987 -2.66637,-1.33625 z" id="path709" style="fill:none;stroke:none"/>
  <path d="m 152.34133,93.75885 36.05887,0 c -2.67137,5.34263 -1.3415,12.025 1.32975,16.03138 -9.34375,5.33625 -18.69738,4.00612 -26.70975,-2.67625 -5.33625,-2.67125 -8.0125,-8.0125 -10.67887,-13.35513 z" id="path713" style="fill:none;stroke:none"/>
  <path d="m 212.43758,93.75885 165.59862,0 0,34.72275 -110.845,0 c 1.33625,-1.33512 4.00112,-2.67137 5.33763,-5.34262 4.01112,-5.34125 2.67137,-14.69025 -4.00638,-18.69625 -6.67238,-4.0065 -14.68988,-2.665 -18.69725,4.006 -4.00012,4.0065 -4.005,10.68375 0,16.03137 -1.33025,1.33013 -1.33512,2.66638 -2.67025,4.00638 2.67625,-6.68263 0,-13.36 -5.34225,-17.36638 -6.67137,-4.00612 -14.69025,-1.32987 -18.69625,4.00638 -2.66637,4.006 -4.0065,9.35362 -1.33513,13.36 l -22.69887,-0.005 c -2.66987,-4.0065 -2.67475,-9.34912 -2.67475,-14.68525 5.34612,2.66625 12.0185,0 16.02488,-5.34762 2.67624,-4.006 2.67137,-10.68375 0.005,-14.68988 z" id="path717" style="fill:none;stroke:none"/>
  <path d="m 311.26257,163.20385 66.77363,0 0,34.72263 -9.34875,0 0,-1.33625 c -5.34112,-2.67125 -12.02375,-2.67125 -16.02988,1.33625 l -1.33124,0 c 1.33625,-1.33625 2.66599,-2.67125 2.66599,-4.0075 5.34763,1.33625 12.01888,0 14.69026,-5.34113 4.01137,-6.67775 2.67125,-14.68525 -4.00651,-18.69625 -5.33612,-4.0065 -14.68975,-2.66637 -18.69624,4.011 -4.001,4.00138 -2.67088,10.67875 0,14.68525 -1.32976,1.33475 -1.33613,2.67088 -2.67088,4.006 2.67625,-5.34112 0,-12.01887 -5.34262,-16.025 -6.67138,-4.00737 -14.69025,-2.66625 -18.69626,4.00613 -4.0015,5.3415 -2.67125,12.01887 1.33513,17.3615 l -22.69775,0 c -4.006,-5.34263 -5.34613,-10.68375 -5.34613,-18.69775 6.68238,1.33625 13.35363,0 16.02501,-5.33613 2.67624,-4.011 2.67125,-6.67737 2.67624,-10.68875 z" id="path725" style="fill:none;stroke:none"/>
  <path d="m 432.7902,267.36998 -1.33763,0 c 0,-1.33475 1.33763,-1.33475 2.66251,-1.33475 -1.32488,0 -1.32488,0 -1.32488,1.33475" id="path731" style="fill:#f9d100;fill-opacity:1;fill-rule:evenodd;stroke:none"/>
  <path d="m 432.7902,267.36998 -1.33763,0 c 0,-1.33475 1.33763,-1.33475 2.66251,-1.33475 -1.32488,0 -1.32488,0 -1.32488,1.33475 z" id="path733" style="fill:none;stroke:none"/>
  <path d="m 407.4152,232.64773 129.53725,0 0,34.72225 -68.09987,0 c 0,-2.66988 -2.67525,-4.00613 -4.0125,-5.33625 -5.33763,-4.011 -12.02488,-2.67625 -17.36251,1.33012 1.33763,-1.33512 2.67488,-2.67125 2.67488,-4.00637 6.67512,1.33512 12.0125,0 14.68763,-5.33625 5.35012,-6.68225 2.66249,-14.68975 -2.67513,-18.69725 -6.67487,-5.34613 -16.025,-2.67625 -20.0375,2.66625 -2.66237,5.34125 -2.66237,12.025 0,16.031 0.0125,1.33025 -1.32475,2.66537 -1.32475,4.0065 1.33725,-5.34763 0,-12.019 -5.35012,-16.03138 -6.66238,-4.00612 -16.02488,-2.66487 -20.025,4.01238 -4,6.67137 -2.67513,14.68387 4.00012,18.69137 1.35,1.33513 2.67475,1.33513 4.01237,2.66988 l -24.03737,0 c -6.67525,-6.67738 -10.68775,-13.34875 -9.35012,-22.70238 5.35,1.33513 12.0125,0 16.025,-5.33612 1.33762,-2.67625 1.33762,-5.34763 1.33762,-6.68375 z" id="path737" style="fill:none;stroke:none"/>
  <path d="m 536.95245,300.75748 0,13.354 c -1.32488,-2.67025 -2.67487,-5.3415 -5.33725,-6.67125 -6.67525,-4.0125 -14.70012,-2.67638 -20.03775,4.006 -4.00013,5.33662 -1.33725,14.69025 4,18.69625 5.35,2.66637 10.68762,2.66637 14.70012,0 -2.67524,2.66637 -5.35012,4.00637 -8.01249,5.33762 l -20.025,0 c -1.33763,0 -2.67525,-1.33125 -4.0125,-1.33125 -8.01238,-5.34612 -13.3625,-13.36 -12.02526,-25.37887 5.35013,2.67125 12.02526,0 16.02538,-5.33625 0.0124,-0.006 1.33725,-1.34113 1.33725,-2.67625 l 33.3875,0 z" id="path745" style="fill:none;stroke:none"/>
  <path d="m 54.852583,22.97885 6.67737,0 c 0,1.33625 1.33012,1.33625 1.33012,1.33625 5.3475,4.00638 13.35513,4.00638 17.36113,-1.32987 l 18.70125,-0.006 c -2.67138,1.33625 -5.34763,2.67138 -6.68237,5.34263 -2.66488,5.34112 -2.67126,12.0185 1.33474,16.025 -9.34225,5.3425 -18.69624,4.00737 -26.70875,-1.33513 -6.67237,-4.00612 -10.68375,-12.01862 -12.01349,-20.0325 z" id="path749" style="fill:none;stroke:none"/>
  <path d="m 491.55245,539.80635 -21.36225,0 0,-20.0325 -37.4,0 0,20.0325 -32.05025,0 0,-17.36112 1.32513,0 c 1.34999,-2.67138 2.67487,-2.665 2.67487,-5.34125 1.33763,-5.3425 1.33763,-9.34363 0,-14.69013 0.0124,-9.34862 0,-14.69125 -1.33763,-24.03362 -3.99962,-1.34 -6.67487,-1.34 -9.34975,-4.00638 -5.33762,-2.67625 -6.67512,-5.3475 -10.68012,-8.0125 l -2.665,-14.69612 c -1.33612,-6.67638 -1.34113,-9.34763 -4.01238,-16.02 0.006,-0.005 0,-1.34013 -1.33512,-1.34013 -4.00113,-1.33625 -5.34225,-1.33625 -9.34875,-2.67137 -5.33613,-2.67125 -8.01237,-5.34213 -12.01888,-9.34863 -4.00112,-5.34112 -9.34862,-8.0125 -14.68987,-10.68375 -4.001,-2.67125 -6.67725,-4.00612 -12.01988,-6.67737 l -8.0125,0 c -10.67887,-1.33513 -17.36112,-4.00638 -25.37362,-6.67138 -1.33012,-0.006 -2.67125,0 -2.67125,1.33025 -1.33025,1.33475 -1.33513,2.67625 -2.67137,4.006 -1.33013,4.00638 -2.67025,5.34763 -5.34113,8.0125 1.33975,-2.67125 2.67088,-4.00612 4.006,-6.67737 1.34112,-1.33513 1.33513,-2.66488 1.33513,-5.34113 -4.00138,-2.67137 -5.34113,-5.33762 -9.34763,-8.014 -4.001,-2.66987 -6.67737,-5.33612 -10.68375,-8.0075 -1.33125,-1.34 -1.33613,0 -2.67125,0 -4.00113,-0.005 -6.67738,-1.34 -10.68375,0 -5.33625,-0.005 -9.34725,0 -14.68987,0 -1.33013,-0.005 -1.33513,1.33125 -2.67138,1.33125 -5.33612,1.33513 -8.01238,2.66988 -13.35362,5.34613 -8.00888,4.0015 -14.69126,5.33762 -14.69126,5.33762 1.34113,4.0065 4.00613,10.68875 2.67126,16.025 -1.33013,1.33613 -1.33513,2.67125 -2.67126,4.00638 1.34113,-4.00638 2.67126,-5.3415 1.33613,-9.34263 0.005,-4.01237 -2.67125,-8.0125 -5.3425,-10.68875 -2.666,0 -6.67738,0 -10.68387,1.33513 -1.32976,1.33475 -2.67088,2.67137 -2.67088,5.34762 -6.67137,-0.006 -12.01887,1.32975 -16.02538,1.32975 -2.66599,1.33513 -2.67087,5.34763 -4.006,9.35363 -2.66637,2.66525 -4.00637,2.66525 -6.67737,5.33662 -2.66637,2.67088 -5.34263,4.006 -6.67775,5.34113 0.005,0 -4.006,1.34112 -5.34263,1.34112 -1.32974,-0.005 -1.33474,1.33025 -1.33474,2.66638 0.005,0 0,4.006 0,4.006 0.005,1.33512 2.67137,2.67137 4.00612,5.34162 1.3415,1.33613 4.00637,4.006 4.00637,4.006 1.34113,-1.33512 2.67138,-1.33012 4.00613,-1.33012 2.67762,-0.005 4.0075,0 6.67762,0 0.006,1.33012 -1.33512,1.33012 -2.67012,1.33012 l -2.671,0 c -1.33013,0 0,4.0075 0,4.0075 2.67587,1.33513 4.006,1.33513 6.67737,1.33513 l 8.01251,0 c 2.67625,2.67125 5.34249,4.00612 9.34862,4.00612 2.67625,1.33513 5.34113,2.67125 9.34762,4.00638 l 6.67738,0 c 1.3415,0 0,2.67125 0,2.67125 -4.00113,2.67137 -6.67738,2.67137 -10.68387,5.34612 -4.00101,2.66638 -9.34726,4.0075 -10.68376,6.6725 -2.66487,4.00638 -5.34112,6.67763 -8.0125,10.68375 -4.00099,5.34263 -6.67737,8.0125 -10.68337,13.36 -2.66637,1.33013 0,9.34375 2.671,9.34375 l 28.05013,0 c 1.33487,0 2.66499,-1.33125 4.00112,-4.0075 1.34012,-1.33512 1.33513,-1.32975 1.33513,-4.00612 5.34762,-2.67125 8.01249,-4.00638 12.01862,-6.67763 5.3475,-4.00612 8.01387,-6.67137 12.01987,-10.68237 0.005,-2.67138 -1.33474,-4.0075 -1.33474,-6.67238 -1.33125,-1.3415 -1.33613,-2.67625 -1.33613,-5.34762 0.005,2.67137 1.33613,4.00612 1.33613,6.67737 1.34012,2.67125 1.33474,2.67625 4.00612,5.34263 0.005,6.67625 0,9.34762 0,16.02987 0.005,5.33625 0,8.0125 0,14.69025 -5.33737,1.32975 -9.34875,4.006 -10.68387,4.006 -1.33113,1.33125 -1.33613,4.0075 -2.67088,5.33763 0.005,1.33475 1.33475,4.00612 2.67088,5.34125 l 6.68125,0 0,17.36112 -32.04988,0 0,-20.0325 -37.39363,0 0,20.0325 -32.05124,0 0,-20.0325 -37.394007,0 0,20.0325 -21.36712,0 C 36.156323,498.40635 18.788828,447.6641 18.788828,392.9051 l 0.0049,-22.70375 518.158752,0 0,22.70375 c 0,54.75363 -17.36263,105.50125 -45.4,146.90125" id="path751" style="fill:#ffffff;fill-opacity:1;fill-rule:evenodd;stroke:none"/>
  <path d="m 363.34633,519.77385 0,20.0325 -32.05138,0 0,-17.36112 2.665,0 c 2.67625,-2.67138 5.3425,-6.67138 6.67762,-9.34763 4.0125,-5.34262 6.67738,-8.0135 9.34875,-13.35512 0.005,-4.006 -1.33624,-6.67238 -1.33624,-10.67838 0.006,-5.34762 -1.33513,-8.01287 -2.67025,-13.36012 1.34012,0 1.33512,-1.33013 1.33512,-1.33013 1.34112,-1.34112 1.33513,-2.67625 2.67137,-5.3475 -1.33025,2.67125 -1.33624,2.67125 -1.33624,4.00638 -1.33013,1.33612 -1.33513,2.67125 -1.33513,4.0075 l 0.005,1.33512 0,1.33475 c 2.67125,4.00638 4.0015,5.3475 8.0075,8.0125 5.34762,4.00638 9.34862,6.67763 16.02638,12.01988 1.34012,0 2.67137,1.34012 2.67137,2.67137 1.33962,1.33513 1.33475,5.3465 1.33475,8.0125 l -8.0125,0 c -2.666,1.33513 -4.00613,2.67125 -4.00613,5.3475 -1.33112,1.33013 -1.33612,2.66488 0.005,4" id="path753" style="fill:#ffffff;fill-opacity:1;fill-rule:evenodd;stroke:none"/>
  <path d="m 295.23758,519.77385 -1.33613,0 0,20.0325 -32.05138,0 0,-20.0325 -6.67775,0 c 1.33651,-4.00637 2.66638,-9.3475 5.33663,-14.68975 1.34112,-6.67775 2.67088,-9.34762 4.0075,-16.02 0.005,-1.3415 0,-1.3415 0,-2.67625 -1.33125,-5.34262 -2.67137,-6.67775 -4.0075,-10.68387 -1.33012,-4.00638 -2.67025,-6.67763 -2.67025,-12.01888 1.34013,4.0065 1.33512,5.34125 1.33512,6.68275 1.34113,1.32975 1.33513,2.66488 2.67126,2.66488 0.005,0 1.33475,0 1.33475,1.34112 2.67624,-0.005 6.67774,2.66638 10.68387,5.33625 5.3475,1.33513 6.67762,1.34113 12.01988,2.67125 5.3465,0 8.01287,1.33513 13.354,1.33513 0.006,2.67137 1.33625,2.67137 1.33625,5.34762 2.67625,4.00113 4.00599,6.67238 6.67737,9.34225 1.34,0 1.33513,1.33613 1.33513,2.67625 0.005,1.33125 0,2.66638 0,4.0015 -1.33025,1.33613 -1.33513,2.67625 -1.33513,4.006 -1.32987,0 -4.00613,0 -6.67737,1.33625 -4.0015,1.33513 -6.67738,4.00638 -6.67738,8.01238 0.005,0 1.33475,1.3415 1.34113,1.33512" id="path755" style="fill:#ffffff;fill-opacity:1;fill-rule:evenodd;stroke:none"/>
  <path d="m 51.004833,56.01273 13.27262,30.90475 33.655,0.765 0.54137,0.0128 0.21126,0.49112 13.357487,31.10488 33.37476,0.759 0.5415,0.0124 0.21112,0.49113 13.43763,31.29275 33.68237,0.765 0.54138,0.0124 0.21112,0.49113 13.274,30.909 33.45975,0.76112 0.5415,0.0128 13.56375,31.58363 33.96225,0.77137 0.54,0.0124 0.21112,0.49112 13.35651,31.10138 33.57112,0.7635 0.54,0.0114 0.21112,0.4915 13.35763,31.101 33.57,0.76388 0.54138,0.011 0.20974,0.4915 13.27501,30.90112 33.85024,0.769 0.53763,0.0124 0.21225,0.49112 13.35,31.09738 33.77525,0.7665 0.5375,0.0137 0.21225,0.49012 8.12513,18.92613 -1.08738,0 -7.72513,-17.98513 -0.21262,-0.49637 -0.5375,-0.006 -33.77487,-0.764 -13.35013,-31.09988 -0.2125,-0.49012 -0.53762,-0.0109 -33.84988,-0.77287 -13.27113,-30.90225 -0.21362,-0.49 -0.535,-0.0114 -33.5715,-0.7635 -13.3575,-31.095 -0.21375,-0.495 -0.536,-0.0114 -33.5725,-0.764 -13.35762,-31.10488 -0.20863,-0.48512 -0.5425,-0.0198 -33.75888,-0.76263 -0.28487,-0.19237 -13.274,-30.9065 -0.20862,-0.49113 -0.54388,-0.0124 -33.36487,-0.7565 -0.1315,-0.0885 -13.236,-30.8265 -0.21013,-0.48963 -0.53863,-0.0139 -33.28112,-0.75013 -0.56025,-0.37975 -13.2785,-30.92887 -0.2115,-0.48363 -0.5475,-0.0178 -33.37225,-0.75762 -13.355117,-31.10488 -0.21613,-0.49362 -0.5375,-0.009 -33.6015,-0.765 -0.0798,-0.0539 -13.24637,-30.85475 -0.214,-0.4915 -0.53713,-0.01 -33.32125,-0.76013 -1.36775,-0.92862 -0.02475,-0.0589 1.28475,0.0301 34.1125,0.77487 0.54,0.0125 0.21113,0.49138 z m 396.497487,292.30725 0.0376,0.0939 -0.14988,-0.0964 0.11225,0.002 z m 28.98788,4.88275 5.43712,12.65625 -1.08737,0 -5.0375,-11.71375 -0.19988,-0.494 -0.53749,-0.007 -20.025,-0.455 -0.1875,-0.005 -0.41238,-0.96862 1.28725,0.0286 20.01263,0.455 0.53749,0.0124 0.21263,0.4915 z m -19.10025,1.705 0.0999,0.265 -0.39962,-0.27138 0.29975,0.006 z m -28.77487,-34.07388 7.96249,18.54 0.51238,1.17138 -1.09975,-0.006 -0.10038,-0.21862 -7.94974,-18.54525 -0.21263,-0.48613 -0.54988,-0.0149 -20.01262,-0.45888 -0.18737,-0.004 -0.41251,-0.96387 1.28738,0.0287 20.0125,0.455 0.55,0.0124 0.20013,0.49 z m -19.10013,1.709 0.0375,0.0871 -0.1375,-0.09 0.1,0.003 z m -28.7675,-33.8815 7.95512,18.53888 0.51238,1.17112 -0.68737,-0.005 -0.57513,-0.3975 -7.89125,-18.36112 -0.20625,-0.4925 -0.54113,-0.0127 -19.82862,-0.451 -0.53263,-0.3615 -0.259,-0.61725 1.28375,0.0298 20.01763,0.455 0.54138,0.0127 0.21112,0.49112 z m -47.68013,-32.36737 7.96151,18.5385 0.50387,1.1715 -0.68775,-0.005 -0.56975,-0.38513 -7.89275,-18.37987 -0.20625,-0.4865 -0.541,-0.0174 -19.845,-0.4485 -0.51275,-0.34912 -0.26362,-0.626 1.28474,0.0286 20.01763,0.455 0.54,0.0124 0.21112,0.4915 z m -47.67875,-32.36738 7.96151,18.5385 0.50387,1.17 -0.69875,-0.002 -0.55525,-0.37737 -7.90125,-18.38363 -0.20225,-0.4965 -0.5425,-0.0114 -19.85038,-0.45 -0.50099,-0.33975 -0.26888,-0.635 1.28512,0.0288 20.01751,0.455 0.54249,0.0113 0.20975,0.49262 z m -48.06737,-32.36887 8.46487,19.71 -0.31737,-0.001 -1.0935,-0.74125 -7.734,-18.02237 -0.21362,-0.494 -0.54001,-0.01 -19.45737,-0.44112 -1.04638,-0.71013 -0.11625,-0.27737 1.28488,0.0297 20.0175,0.45525 0.5415,0.0125 0.20975,0.49 z m -47.485,-32.174 7.96113,18.54 0.50387,1.1715 -0.23488,-0.002 -1.20512,-0.81738 -7.70875,-17.94762 -0.21375,-0.495 -0.53613,-0.01 -19.37512,-0.43862 -1.16112,-0.78875 -0.084,-0.19875 1.28413,0.0286 20.01862,0.455 0.54001,0.0124 0.21112,0.49 z m -47.8725,-32.55975 7.9615,18.53862 0.5035,1.17138 -0.33875,-0.002 -1.06375,-0.72138 -7.7435,-18.045 -0.214,-0.49112 -0.54,-0.0137 -19.48113,-0.44013 -1.01374,-0.68887 -0.12513,-0.29613 1.28513,0.0301 20.01762,0.45487 0.541,0.0124 0.21125,0.4915 z m -47.486367,-32.36775 7.961487,18.539 0.50388,1.17 -0.5425,-0.002 -0.77275,-0.52375 -7.833617,-18.23775 -0.21363,-0.49363 -0.5375,-0.01 -19.68625,-0.4475 -0.725,-0.4925 -0.20762,-0.49013 1.28475,0.0301 20.01762,0.455 0.54137,0.0114 0.20976,0.49213 z m -47.67875,-32.175 7.96149,18.54 0.50388,1.17137 -0.2665,-0.002 -1.16363,-0.79025 -7.71874,-17.97475 -0.21263,-0.49263 -0.54,-0.0112 -19.40238,-0.43875 -1.11862,-0.76 -0.0978,-0.2285 1.28513,0.0297 20.01749,0.45388 0.54113,0.0139 0.21113,0.48963 z" id="path761" style="fill:#292a2b;fill-opacity:1;fill-rule:nonzero;stroke:none"/>
  <path d="m 48.001444,22.602471 1.07939,5.03303 c 2.23524,10.42255 8.56907,18.599842 18.30219,23.629042 4.22628,2.18376 6.68553,2.74114 12.28415,2.78415 3.85,0.0296 8.40851,-0.26167 10.13003,-0.64723 3.05089,-0.68328 3.14683,-0.59586 3.795,3.45752 1.6984,10.62124 9.534116,20.65694 19.685666,25.21268 5.3444,2.39843 7.06516,2.68583 14.23431,2.37745 5.67754,-0.24422 9.41032,-0.97787 12.28714,-2.41495 l 4.13216,-2.06416 0.45412,7.56624 c 0.78526,13.083427 7.87832,22.885347 21.08029,29.130957 6.55451,3.10081 15.81907,3.98159 21.03227,1.99954 2.32683,-0.88466 2.49552,-0.70685 3.08991,3.25685 3.00131,20.01415 23.86863,32.9277 43.22466,26.74917 3.76994,-1.20338 7.30444,-2.3868 7.85444,-2.62981 0.6154,-0.27192 0.86858,1.45396 0.6583,4.48749 -0.44984,6.4893 2.25181,15.5548 6.18197,20.74392 6.43635,8.4981 19.90259,14.01702 31.77342,13.02181 l 6.71813,-0.56323 1.21828,5.18477 c 2.30349,9.8032 5.72877,14.49412 14.89783,20.40257 10.65211,6.8641 20.0149,8.10152 30.05207,3.97178 l 5.5,-2.26294 0.14894,6.03668 c 0.31602,12.80827 7.23505,23.38624 19.11163,29.2183 5.10023,2.5045 6.82251,2.81838 15.46411,2.81838 l 9.7247,0 1.9815,6.5 c 3.286,10.77874 9.0268,16.96255 20.5692,22.15655 6.7748,3.04865 17.981,3.07981 24.75,0.0688 l 4.75,-2.11291 0,5.90626 c 0,12.72893 8.1735,25.0934 20.1372,30.46236 5.7772,2.59267 6.8758,2.75233 15.4275,2.24213 l 9.2074,-0.54933 0.656,4.10192 c 0.9658,6.03984 6.3501,15.40859 11.0855,19.28891 7.1512,5.85988 12.9121,7.92404 21.9863,7.87789 6.0351,-0.0307 9.198,-0.58128 12.8772,-2.24164 2.6824,-1.21053 4.9699,-2.20096 5.0833,-2.20096 0.1134,0 0.2062,3.32176 0.2062,7.38169 0,6.06183 0.4785,8.29686 2.6763,12.5 l 2.6763,5.11833" id="path4192" style="fill:none;stroke:#000000;stroke-width:2;stroke-opacity:1"/>
  <path d="M 19.333333,86.107198 429.33333,365.44053" id="path4197" style="color:#000000;fill:none;stroke:#000000;stroke-width:2;stroke-opacity:1;marker:none;visibility:visible;display:inline;overflow:visible;enable-background:accumulate"/>
  <path d="M 18.666667,28.107198 518.66667,368.1072" id="path4199" style="color:#000000;fill:none;stroke:#000000;stroke-width:2;stroke-opacity:1;marker:none;visibility:visible;display:inline;overflow:visible;enable-background:accumulate"/>
  <path d="m 476.84002,351.98074 5.04453,14.99158 -20.9738,0 -5.91474,-15.41161 z m 4.06407,-5.98507 7.91112,21.42892 -34.51892,0.13851 -8.34261,-22.23953 z m -51.85843,-26.46894 8.44746,20.14888 -21.57432,0.0866 -8.71714,-20.65551 z m 4.06407,-5.98507 13.51593,32.2382 -34.51891,0.13852 -13.94742,-33.04882 z m -51.85841,-26.46894 8.44744,20.14889 -21.57432,0.0866 -8.71713,-20.6555 z m 4.06406,-5.98507 13.51594,32.2382 -34.51892,0.13852 -13.94742,-33.04881 z m -51.85841,-26.46893 8.44745,20.14889 -21.57432,0.0866 -8.71714,-20.6555 z m 4.06407,-5.98507 13.51593,32.2382 -34.51891,0.13852 -13.94742,-33.04881 z m -51.85842,-26.46893 8.44745,20.14888 -21.57431,0.0866 -8.71715,-20.65551 z m 4.06407,-5.98507 13.51593,32.23821 -34.51892,0.13851 -13.94742,-33.04882 z m -51.85842,-26.46894 8.44745,20.14889 -21.57432,0.0866 -8.71714,-20.6555 z m 4.06407,-5.98507 13.51592,32.2382 -34.51891,0.13852 -13.94741,-33.04881 z m -51.85841,-26.46893 8.44745,20.1489 -21.57432,0.0865 -8.71714,-20.6555 z m 4.06406,-5.98507 13.51594,32.23821 -34.51892,0.13851 -13.94742,-33.04881 z m -51.85841,-26.46892 8.44744,20.14888 -21.57432,0.0866 -8.71713,-20.6555 z m 4.06406,-5.98507 13.51594,32.2382 -34.51892,0.13851 -13.94742,-33.04881 z M 94.48522,92.348707 102.93268,112.4976 81.35835,112.5842 72.641212,91.9287 z m 4.06407,-5.985069 13.51593,32.238202 -34.518912,0.13852 L 63.598891,85.691543 z M 46.690844,59.894686 55.1383,80.043575 33.563979,80.130137 24.846837,59.474633 z m 4.064067,-5.98507 13.515932,32.238207 -34.51891,0.138513 -13.947417,-33.048815 z" id="path4236" style="color:#000000;fill:none;stroke:#000000;stroke-width:2;stroke-opacity:1;marker:none;visibility:visible;display:inline;overflow:visible;enable-background:accumulate"/>
</svg>